<svg xmlns="http://www.w3.org/2000/svg" width="72" height="72" viewBox="0 0 72 72">
  <g id="Grupo_1008738" data-name="Grupo 1008738" transform="translate(-453.534 -2189.893)">
    <g id="Grupo_1008534" data-name="Grupo 1008534" transform="translate(154 -3978)">
      <circle id="Elipse_5639" data-name="Elipse 5639" cx="36" cy="36" r="36" transform="translate(299.534 6167.893)" fill="none"/>
    </g>
    <g id="Grupo_16576" data-name="Grupo 16576" transform="translate(80.168 -4462.577)">
      <g id="Grupo_16574" data-name="Grupo 16574" transform="translate(374.367 6656.469)">
        <g id="Grupo_16572" data-name="Grupo 16572" transform="translate(1.034 1.035)">
          <path id="Trazado_25783" data-name="Trazado 25783" d="M91.822,913.824V899.908H42.165V928.72H54.4v-14.9Z" transform="translate(-35.527 -899.908)" fill="#fff"/>
          <path id="Trazado_25784" data-name="Trazado 25784" d="M68.11,944.312v-14.9h49.657v33.1H98.893V944.312Z" transform="translate(-49.236 -915.5)" fill="#fff"/>
          <path id="Trazado_25785" data-name="Trazado 25785" d="M117.3,963.019h-13.77V948.948H76.886v-9.792a.965.965,0,0,1,.965-.966H117.3a.965.965,0,0,1,.965.966v22.9A.966.966,0,0,1,117.3,963.019Z" transform="translate(-53.873 -920.136)" fill="#5f99d7"/>
          <path id="Trazado_25786" data-name="Trazado 25786" d="M133.381,966.851h4.138v11.312h-4.138Z" transform="translate(-83.725 -935.28)" fill="#3c87d0"/>
          <path id="Trazado_25787" data-name="Trazado 25787" d="M118.264,939.156v1.793H81.988a.966.966,0,0,0-.965.965v7.034H76.884v-9.792a.966.966,0,0,1,.966-.966H117.3A.965.965,0,0,1,118.264,939.156Z" transform="translate(-53.872 -920.136)" fill="#3c87d0"/>
          <path id="Trazado_25788" data-name="Trazado 25788" d="M133.382,956.5c0-1.17.666-4.021,3.686-4.021a3.666,3.666,0,0,1,3.541,4.606c.041,0,.081-.005.123-.005a2.728,2.728,0,1,1,0,5.455h-7.349Z" transform="translate(-83.725 -927.684)" fill="#eaf6ff"/>
          <path id="Trazado_25789" data-name="Trazado 25789" d="M92.319,918.461v-8.812a.965.965,0,0,0-.965-.965H51.9a.965.965,0,0,0-.965.965v22.743a.965.965,0,0,0,.965.965h7.133v-14.9Z" transform="translate(-40.163 -904.545)" fill="#f07281"/>
          <path id="Trazado_25790" data-name="Trazado 25790" d="M92.318,909.648v1.793H56.042a.966.966,0,0,0-.965.965v20.95H51.9a.966.966,0,0,1-.966-.965V909.648a.967.967,0,0,1,.966-.966H91.353A.966.966,0,0,1,92.318,909.648Z" transform="translate(-40.162 -904.544)" fill="#eb5569"/>
          <path id="Trazado_25791" data-name="Trazado 25791" d="M77.746,994.105H28.089V961H77.746Z" transform="translate(-28.089 -932.189)" fill="#fff"/>
          <path id="Trazado_25792" data-name="Trazado 25792" d="M78.243,993.638v-22.9a.966.966,0,0,0-.965-.966H37.828a.966.966,0,0,0-.965.966v22.9a.966.966,0,0,0,.965.966H77.278A.966.966,0,0,0,78.243,993.638Z" transform="translate(-32.725 -936.825)" fill="#d8ecfe"/>
          <path id="Trazado_25793" data-name="Trazado 25793" d="M78.241,970.741v1.793H41.965A.965.965,0,0,0,41,973.5v21.1H37.827a.966.966,0,0,1-.966-.966v-22.9a.966.966,0,0,1,.966-.966H77.276A.965.965,0,0,1,78.241,970.741Z" transform="translate(-32.724 -936.825)" fill="#c4e2ff"/>
          <path id="Trazado_25794" data-name="Trazado 25794" d="M41,1005.236v5.231l-3.733,1.656a.964.964,0,0,1-.406-.786v-8.065h0Z" transform="translate(-32.724 -954.524)" fill="#9be27d"/>
          <path id="Trazado_25795" data-name="Trazado 25795" d="M69.763,1011.313H77.73a.965.965,0,0,0,.965-.966v-3.928l-2.225-.586-11.217-2.956-5.611-1.479-12.5,5.552h0l-9.42,4.184a.962.962,0,0,0,.56.18H69.763Z" transform="translate(-33.179 -953.535)" fill="#b0ef9a"/>
          <path id="Trazado_25796" data-name="Trazado 25796" d="M46.689,1007.939l-9.423,4.184a.964.964,0,0,1-.406-.786v-8.065h0Z" transform="translate(-32.724 -954.524)" fill="#b0ef9a"/>
          <path id="Trazado_25797" data-name="Trazado 25797" d="M41,1005.236v5.231l-3.733,1.656a.964.964,0,0,1-.406-.786v-8.065h0Z" transform="translate(-32.724 -954.524)" fill="#9be27d"/>
          <circle id="Elipse_923" data-name="Elipse 923" cx="4.429" cy="4.429" r="4.429" transform="translate(10.271 36.419)" fill="#fff0ad"/>
          <path id="Trazado_25798" data-name="Trazado 25798" d="M56.366,985.477a4.429,4.429,0,1,1,0-7.835,4.431,4.431,0,0,0,0,7.835Z" transform="translate(-39.597 -940.712)" fill="#ffde89"/>
        </g>
        <g id="Grupo_16573" data-name="Grupo 16573" transform="translate(0 0)">
          <path id="Trazado_25799" data-name="Trazado 25799" d="M95.461,911.631h-11.2V898.749a1.034,1.034,0,0,0-1.034-1.035h-36.3a1.034,1.034,0,1,0,0,2.069H82.19v11.848H80.121v-7.778a2,2,0,0,0-2-2H38.672a2,2,0,0,0-2,2v22.673H34.6V899.783h7.811a1.034,1.034,0,0,0,0-2.069H33.568a1.035,1.035,0,0,0-1.035,1.035v27.777h-5.6A1.034,1.034,0,0,0,25.9,927.56v33.1A1.035,1.035,0,0,0,26.93,961.7H76.587a1.035,1.035,0,0,0,1.034-1.035V946.8h17.84a1.034,1.034,0,0,0,1.034-1.035v-33.1a1.034,1.034,0,0,0-1.034-1.034Zm-56.72-7.709H78.052v7.709H45.8a1.044,1.044,0,0,0-.956.641,1.032,1.032,0,0,0-.078.393v13.861H38.741ZM27.965,959.63V928.595H75.551V959.63ZM83,928.79a1.039,1.039,0,0,0,.845.39l.076,0h.011a1.693,1.693,0,1,1,0,3.387H77.622v-5c0-.03.031-2.986,2.652-2.986a2.631,2.631,0,0,1,2.541,3.3,1.034,1.034,0,0,0,.191.911Zm11.422,15.945H77.621v-2.069H90.357a2,2,0,0,0,2-2V925.759a1.035,1.035,0,0,0-2.069,0V940.6H77.622V934.63h6.315a3.762,3.762,0,0,0,1.034-7.38V927.2a4.7,4.7,0,0,0-4.7-4.7,4.6,4.6,0,0,0-4.62,4.02H50.977v-8.688H90.288v3.413a1.035,1.035,0,0,0,2.069,0v-3.481a2,2,0,0,0-2-2H50.908a2,2,0,0,0-2,2v8.757H46.839V913.7H94.426Z" transform="translate(-25.896 -897.714)" fill="#00223d"/>
          <path id="Trazado_25800" data-name="Trazado 25800" d="M76.117,967.582H36.668a2,2,0,0,0-2,2v22.9a2,2,0,0,0,.763,1.569,1.939,1.939,0,0,0,1.237.432H63.641a1.034,1.034,0,1,0,0-2.069H40.583l5.367-2.383.007,0,12.161-5.4,17.931,4.725v3.062h-7.9a1.034,1.034,0,0,0,0,2.069h7.967a2,2,0,0,0,2-2v-22.9a2,2,0,0,0-2-2Zm-39.38,24.272v-5.8l6.315,3Zm20.873-9.27-12.066,5.359-8.807-4.185V969.651H76.048v17.557l-17.755-4.679a1.036,1.036,0,0,0-.683.055Z" transform="translate(-30.531 -934.632)" fill="#00223d"/>
          <path id="Trazado_25801" data-name="Trazado 25801" d="M53.137,974.938A5.463,5.463,0,1,0,58.6,980.4,5.47,5.47,0,0,0,53.137,974.938Zm0,8.858a3.394,3.394,0,1,1,3.395-3.394A3.4,3.4,0,0,1,53.137,983.8Z" transform="translate(-37.403 -938.519)" fill="#00223d"/>
          <path id="Trazado_25802" data-name="Trazado 25802" d="M101.918,979.038h.047a1.7,1.7,0,0,1,1.7,1.7,1.034,1.034,0,0,0,2.069,0,1.7,1.7,0,0,1,1.7-1.7h.047a1.034,1.034,0,0,0,0-2.069h-.047a3.757,3.757,0,0,0-2.735,1.18,3.76,3.76,0,0,0-2.736-1.18h-.047a1.034,1.034,0,0,0,0,2.069Z" transform="translate(-65.519 -939.592)" fill="#00223d"/>
          <path id="Trazado_25803" data-name="Trazado 25803" d="M82.359,989.9a1.035,1.035,0,0,0,1.034-1.035,1.7,1.7,0,0,1,1.7-1.7h.046a1.034,1.034,0,1,0,0-2.069h-.046a3.759,3.759,0,0,0-2.736,1.18,3.759,3.759,0,0,0-2.736-1.18h-.046a1.034,1.034,0,1,0,0,2.069h.046a1.7,1.7,0,0,1,1.7,1.7,1.035,1.035,0,0,0,1.035,1.035Z" transform="translate(-53.714 -943.884)" fill="#00223d"/>
        </g>
      </g>
    </g>
  </g>
</svg>
