<svg id="icon_media_pdf" xmlns="http://www.w3.org/2000/svg" width="75.571" height="75.571" viewBox="0 0 75.571 75.571">
  <path id="Trazado_715359" data-name="Trazado 715359" d="M37.786,0A37.786,37.786,0,1,1,0,37.786,37.786,37.786,0,0,1,37.786,0Z" fill="#adce32"/>
  <g id="Grupo_15730" data-name="Grupo 15730" transform="translate(18.893 14.17)">
    <g id="Grupo_15724" data-name="Grupo 15724">
      <g id="Grupo_15722" data-name="Grupo 15722" transform="translate(0 2.362)" opacity="0.2">
        <path id="Trazado_24792" data-name="Trazado 24792" d="M39.616,24.627V14H19.542A3.542,3.542,0,0,0,16,17.542V57.69a3.542,3.542,0,0,0,3.542,3.542h30.7a3.542,3.542,0,0,0,3.542-3.542V28.17H43.158A3.542,3.542,0,0,1,39.616,24.627Z" transform="translate(-16 -14)" fill="#231f20"/>
      </g>
      <path id="Trazado_24793" data-name="Trazado 24793" d="M39.616,22.627V12H19.542A3.542,3.542,0,0,0,16,15.542V55.69a3.542,3.542,0,0,0,3.542,3.542h30.7a3.542,3.542,0,0,0,3.542-3.542V26.17H43.158A3.542,3.542,0,0,1,39.616,22.627Z" transform="translate(-16 -12)" fill="#e0e0d1"/>
      <g id="Grupo_15723" data-name="Grupo 15723" transform="translate(24.82 13.331)" opacity="0.2">
        <path id="Trazado_24794" data-name="Trazado 24794" d="M37.02,23.29,49.985,34.756V24.128Z" transform="translate(-37.02 -23.29)" fill="#231f20"/>
      </g>
      <path id="Trazado_24795" data-name="Trazado 24795" d="M36,12V22.627a3.542,3.542,0,0,0,3.542,3.542H50.17Z" transform="translate(-12.384 -12)" fill="#fff"/>
    </g>
    <g id="Grupo_15725" data-name="Grupo 15725" transform="translate(7.085 11.808)">
      <rect id="Rectángulo_3745" data-name="Rectángulo 3745" width="11.371" height="2.362" fill="#0b481e"/>
    </g>
    <g id="Grupo_15726" data-name="Grupo 15726" transform="translate(7.085 23.616)">
      <rect id="Rectángulo_3746" data-name="Rectángulo 3746" width="23.616" height="2.362" fill="#0b481e"/>
    </g>
    <g id="Grupo_15727" data-name="Grupo 15727" transform="translate(7.085 17.712)">
      <rect id="Rectángulo_3747" data-name="Rectángulo 3747" width="23.616" height="2.362" fill="#0b481e"/>
    </g>
    <g id="Grupo_15728" data-name="Grupo 15728" transform="translate(7.085 29.52)">
      <rect id="Rectángulo_3748" data-name="Rectángulo 3748" width="23.616" height="2.362" fill="#0b481e"/>
    </g>
    <g id="Grupo_15729" data-name="Grupo 15729" transform="translate(7.085 35.424)">
      <rect id="Rectángulo_3749" data-name="Rectángulo 3749" width="23.616" height="2.362" fill="#0b481e"/>
    </g>
  </g>
</svg>
