<svg xmlns="http://www.w3.org/2000/svg" width="190.155" height="301.361" viewBox="0 0 190.155 301.361">
  <g id="Grupo_1008719" data-name="Grupo 1008719" transform="translate(-232.5 -1156.449)">
    <g id="Grupo_16611" data-name="Grupo 16611" transform="translate(232.5 1219.437)">
      <g id="Grupo_16610" data-name="Grupo 16610" transform="translate(8.345 0)">
        <g id="Grupo_16607" data-name="Grupo 16607">
          <path id="Trazado_25896" data-name="Trazado 25896" d="M1559.129,727.941c-4.154,1.128-8.648,1.48-12.708,2.874,6.9-5.927,6.5-15.051,11.106-22.012a68.96,68.96,0,0,1,4.371-5.9c-2.8,5.6-1.592,12.888-4.8,18.312a23.7,23.7,0,0,1-4.96,5.965c.645-.019,1.187-.587,1.746-.939,5.234-5.216,12.053-6.667,17.677-10.9a17.06,17.06,0,0,0,5.329-6.7C1575.83,717.263,1567.237,725.352,1559.129,727.941Z" transform="translate(-1426.553 -633.051)" fill="#64accd"/>
          <path id="Trazado_25897" data-name="Trazado 25897" d="M1574.716,698.638c-2.551,3.622-5.632,7.017-7.994,10.7.256-2.9.588-6.506-.53-9.275a80.462,80.462,0,0,1-4.259-18.559l.057-2.5c1.49,6.676,8.052,11.3,7.625,18.778a15.97,15.97,0,0,1-.73,4.959l.1.114.3-.342c.968-3.669,1.47-7.539,2.978-10.953,2.153-4.95,4.836-9.938,3.737-15.893C1579.278,682.687,1578.291,692.075,1574.716,698.638Z" transform="translate(-1423.324 -638.723)" fill="#64accd"/>
          <path id="Trazado_25898" data-name="Trazado 25898" d="M1571.44,663.836c4.306,5.833,5.244,15.126,2.106,21.812a37.763,37.763,0,0,0-2.447,8.971,17.009,17.009,0,0,1-.465-1.858c-1.7-6.544-7.918-11.209-10.469-17.383a31.888,31.888,0,0,1-1.859-6.3c2.722,5.026,9.426,7.625,11.247,13.173.749,1.432.721,3.157,1.185,4.674a.191.191,0,0,0,.18-.161,65.25,65.25,0,0,1,.2-17.354c-.018-3.054-.321-6.032-2.028-8.384C1570.178,661.664,1570.671,662.887,1571.44,663.836Z" transform="translate(-1424.079 -641.768)" fill="#64accd"/>
          <path id="Trazado_25899" data-name="Trazado 25899" d="M1569.446,664.223c1.157,5.112-.5,10.1.55,15.249l-.066.028c-2.789-5.472-8.687-8.032-12.745-12.413-2.352-2.6-3.357-5.776-3.965-9.114,2.352,5.614,8.612,6.848,12.224,11.561,1.214,1.1,1.613,2.617,2.381,3.85l.1-.124c-2.058-4.418-2.769-9.407-4.183-14.13a11.034,11.034,0,0,0-4.078-5.339C1564.373,654.75,1568.478,659.7,1569.446,664.223Z" transform="translate(-1425.138 -643.275)" fill="#64accd"/>
          <path id="Trazado_25900" data-name="Trazado 25900" d="M1557.979,653.6c3.556,3.187,5.177,7.341,6.231,11.6l.579,1.365a51.675,51.675,0,0,1-13.192-14l-4.021-4.087C1551.132,649.976,1554.935,650.887,1557.979,653.6Z" transform="translate(-1426.313 -644.381)" fill="#64accd"/>
          <path id="Trazado_25901" data-name="Trazado 25901" d="M1491.465,649.043c-3.584,3.129-6.07,7.093-8.716,10.793-2.37,2.949-5.425,4.893-8.118,7.406,1.461-3.016,1.5-6.6,3.575-9.369C1481.147,652.732,1486.59,650.94,1491.465,649.043Z" transform="translate(-1441.498 -644.263)" fill="#64accd"/>
          <path id="Trazado_25902" data-name="Trazado 25902" d="M1472.953,658.81a12.188,12.188,0,0,1,6.43-4.3c-4.817,3.309-4.5,9.236-6.041,14.178-.473,1.821-1.318,3.509-1.744,5.358l.123.123a17.035,17.035,0,0,1,3.964-5.851c3.442-3.158,8.479-5.141,10.177-9.787-.086,6.477-5.5,11.6-10.7,15.23a21.535,21.535,0,0,0-5.357,6.44c-.134-1.641.255-3.291.132-5.045C1469.368,669.478,1468.951,663.021,1472.953,658.81Z" transform="translate(-1442.55 -643.125)" fill="#64accd"/>
          <path id="Trazado_25903" data-name="Trazado 25903" d="M1464.307,676.67c-.141-5.728,2.239-10.441,5.587-14.71.114-.047.18-.151.313-.123-3.69,5.624-.645,12.689-.807,19.09l-.483,6.534c.067.057.067.237.227.162a14.645,14.645,0,0,0,.418-2.239c.882-5.292,5.462-9.027,9.455-12.678a10.386,10.386,0,0,0,2.067-3.045,26.733,26.733,0,0,1-2.257,7.719c-3.111,6.07-8.876,11.068-9.911,18.009C1468.386,688.723,1463.844,683.744,1464.307,676.67Z" transform="translate(-1443.654 -641.601)" fill="#64accd"/>
          <path id="Trazado_25904" data-name="Trazado 25904" d="M1462.056,681.8a24.834,24.834,0,0,1,1.508-5.311c-1.49,7.587,3.622,13.049,5.31,19.659.7,2.437.864,5.1,1.869,7.406.094.047.17-.057.237-.123-2.495-7.009,1.091-13.513,4.723-18.967a18.625,18.625,0,0,0,1.821-4.846c.37,3.158-.408,6.809-.872,10.091-.882,4.191-2.2,8.155-3.348,12.215a19.643,19.643,0,0,0-.16,8.051l-.371-.285c-2.646-4.893-7.889-8.724-9.445-14.073C1462.028,691.38,1461.183,686.43,1462.056,681.8Z" transform="translate(-1444.19 -638.549)" fill="#64accd"/>
          <path id="Trazado_25905" data-name="Trazado 25905" d="M1461.829,693.359c.56,8.061,9.219,12.31,13.249,18.977a20.369,20.369,0,0,0,3.035,4.011c-.219-.844-1-1.584-1.31-2.456a17.551,17.551,0,0,1-1.565-9.5c.389-4.116,2.124-7.947,1.461-12.252,3.537,7.6,2.447,17.1,4.429,25.32.512,1.812,1.555,3.414,2.228,5.141-7.245-4.951-17.117-9.635-20.332-18.683C1461.668,700.813,1461.526,696.934,1461.829,693.359Z" transform="translate(-1444.191 -635.293)" fill="#64accd"/>
          <path id="Trazado_25906" data-name="Trazado 25906" d="M1465.385,709.488c4.05,9.133,14.131,9.891,20.93,15.458a17.389,17.389,0,0,0,3.954,2.693l.066-.076a23.216,23.216,0,0,1-4.447-4.846c-3.954-5.509-2.57-13.229-5.529-19.185a45.77,45.77,0,0,1,6.78,10.271c2.428,5.984,3.357,12.735,8.962,17.278-6.07-2-13.192-1.451-18.55-5.188C1471.7,722.291,1466.466,716.184,1465.385,709.488Z" transform="translate(-1443.423 -632.92)" fill="#64accd"/>
          <path id="Trazado_25907" data-name="Trazado 25907" d="M1473.965,724.024c6.467,7.37,17.061,4.9,25.691,6.838,1.213.161,2.333.654,3.622.456-1.005-.645-2.465-.588-3.565-1.167-6.771-2.37-7.785-9.7-11.446-14.632,4.676,3.12,8.64,7.321,12.954,11.38,3.111,2.712,6.856,3.983,10.811,4.789-.957.332-2.191.237-3.215.512-7.074,1.735-14.964,4.59-22.466,2.039A21.908,21.908,0,0,1,1473.965,724.024Z" transform="translate(-1441.637 -630.425)" fill="#64accd"/>
          <path id="Trazado_25908" data-name="Trazado 25908" d="M1559.9,738.438c-7.32,2.732-14.908-.1-20.6-4.437-2.323-1.451-4.372-3.575-7.359-3.386a10.924,10.924,0,0,0-3.035.295,56.9,56.9,0,0,1,15.4,10.678,24.123,24.123,0,0,1-2.817,2.532c-4.513-4.894-9.549-9.588-15.183-12.328a10.3,10.3,0,0,0-3.129,1.328,46.964,46.964,0,0,0-12.48,11.161l-2.94-2.4a54.166,54.166,0,0,1,15.487-11.029c-5.548-1.736-9.17,2.892-13.372,5.263-4.922,3.424-11.977,5.026-17.9,2.674a19.256,19.256,0,0,1-8.583-5.889c4.656,3.215,11.626,3.547,16.928,1.48,7.122-3.111,14.528-7.018,23.091-5.141,1.357.029,2.646,1.366,3.917.219a27.4,27.4,0,0,1,19.09,2.408l5.661,2.248c5.263,1.954,12.072,1.412,16.567-1.793A19.653,19.653,0,0,1,1559.9,738.438Z" transform="translate(-1439.674 -627.683)" fill="#64accd"/>
          <path id="Trazado_25909" data-name="Trazado 25909" d="M1557.625,733.766c-8.194,3.092-16.425-.692-24.277-1.963l-1.518-.2v-.047c3.756-.845,7.4-1.973,10.4-4.656,4.39-4.249,8.3-8.6,13.191-11.931-3.622,4.638-4.011,11.266-9.985,14.244-1.489.977-3.367,1.138-4.884,1.868,2.181.057,4.164-.73,6.335-.929,8.014-1.271,17.231.029,22.826-6.818C1567.629,728.114,1562.405,732.1,1557.625,733.766Z" transform="translate(-1429.591 -630.54)" fill="#64accd"/>
          <path id="Trazado_25910" data-name="Trazado 25910" d="M1567.156,715.626c-3.205,2.114-6.514,4.078-9.635,6.477v-.274c4.779-7.929,2.466-18.816,5.386-27.493l1.081-2.93c-.579,5.415,1.774,10.015,1.6,15.467a17.379,17.379,0,0,1-2.988,8.81h.3c2.343-3.063,4.163-6.3,6.9-9.236,4.229-4.069,8.544-8.26,9.1-13.931C1580.319,701.97,1575.027,710.268,1567.156,715.626Z" transform="translate(-1424.243 -635.445)" fill="#64accd"/>
          <path id="Trazado_25911" data-name="Trazado 25911" d="M1570.77,672.854a48.956,48.956,0,0,0-43.831-27.767,51.514,51.514,0,0,0-22.134,5.254c-11.978,5.717-21.793,18.15-25.047,30.451-5.386,20.71,1.916,41.688,19.688,53.875,12.774,9.18,33.153,10.934,47.511,3.888,12.735-5.34,23.679-18.5,27.009-31.5a48.291,48.291,0,0,0-3.2-34.2m2.258,17.174c.151.825-.066,1.821.4,2.494l-7.017.133a.907.907,0,0,1-.569.227l.208-.3a38.42,38.42,0,0,0-3.717-15.1c-.057-2.086-2.1-3.509-2.94-5.329-1.565-1.072-2.048-2.959-3.8-3.907-.332-.37-.493-.977-1-1.091l.835-.18a56.781,56.781,0,0,0,4.808-5.206c7.283,8.174,11.892,17.43,12.793,28.26m-19.792,26.307c-.588-.569-.616-1.727-1.7-1.688-.341-.057-.493.294-.493.578-.01.181.028.371-.076.475l-2.209-1.944c1.053-.522,1.821-1.944,2.618-2.969a31.328,31.328,0,0,0,4.258-9.285.943.943,0,0,0,1.119.076.884.884,0,0,0,.162-1.119l-.807-.863a25.159,25.159,0,0,0,.342-4.372l.55.152c2.258-.019,4.562.133,6.753-.1l-.323.389a36.158,36.158,0,0,1-9.778,23.177c.285-.863-.54-1.593-.417-2.513m-5.7,7.017c-1.261-1.185.777-2.161,1.166-3.215-.227-1.156-1.47-1.772-2.466-2.095-.446-.266-.313-.845-.331-1.243a4.029,4.029,0,0,0,1.09-1.385l.17.465,2.988,3.1a1.533,1.533,0,0,0,.816,1.612c.342.162.7-.143,1.005-.047h-.171a32.819,32.819,0,0,1-4.353,3.623l-.332.464c-.161-.484.835-.712.418-1.281m-13.6-37.7c-.389.151-.806.427-1.243.217a2.969,2.969,0,0,0-1.621-1.1c-.456.132-.787.72-1.346.407.89-.968,2.447-1.109,3.1-2.437a4.6,4.6,0,0,0,.275-1.944c-.229-.295-.607-.559-.929-.295-.465.8-1.584.968-2.124,1.83l-1.717-.588c-.295-1.612.114-3.641-.342-5.034a26.269,26.269,0,0,0,2.9.587,24.093,24.093,0,0,1,6.933,3.168,4.99,4.99,0,0,0-1.451,1.158c-.029.445.456.312.655.587l.464-.18c-.749,1.9-3.28,1.6-3.555,3.623m2.038,20.141c-.047.882-1.289.854-1.877,1.451-.331-.1-.037-.454,0-.644.588-.475,1.034-.93,1.877-.807m13.779-23.309c.788.161,1.29,1.138,2.068,1.289a12.862,12.862,0,0,1,1.375,3.69c-.645.71-.712,2.351-2.125,2.077-.321-.768.626-1.224.428-1.963.256-.19.645-.295.7-.645-.047-.74-.976-.6-1.129-1.356-.274-.4-.777-.352-1.156-.5-.911-.446-1.8,1.868-2.039.047a.684.684,0,0,0,.238-.929c-.788-.436-.864-1.556-1.746-1.983-1.185.01-2.285-.512-3.452-.256-.768-.161-1.641-.663-2.21.123-.057.616-.379,1.128-.464,1.7a1.681,1.681,0,0,1-.684-.7c2.163-2.38,4.609-4.779,6.856-7.112l.123-.294a29.107,29.107,0,0,1,3.273,4.316c.17.948-1.632,1.905-.058,2.5m4.249,12.9c-.407,1.318-.37,2.826-.692,4.154a4.045,4.045,0,0,1-.237.712,4.806,4.806,0,0,0-1.7-2.409c-.8-.436-.3-1.527-1.044-2.049l-.759-.739a10.324,10.324,0,0,0,4.429.332m-10.138-20.655a56.9,56.9,0,0,0-4.03,4.324l-.171-.53a21.385,21.385,0,0,0-10.925-4.439l-.634.133.038-6.6-.219-.532a43.677,43.677,0,0,1,7.814,1.65,28.331,28.331,0,0,1,8.773,5.074l.569.237-1.214.683m-6.676,36.018a24.006,24.006,0,0,1,6.107,1.394,1.668,1.668,0,0,0,1.318-.408c-.1-.806.854-1.176.768-1.963.407-.7.1-1.631.683-2.228a3.34,3.34,0,0,0-.579-2.456c-.531-.332-1.015.114-1.527.17-.578.427-.36,1.735-1.394,1.451a.919.919,0,0,1-1.043.256c-.084-.123-.246-.143-.17-.285.692-.388,1.991-.133,2.106-1.289.531-.465,1.365-.275,1.858-.825a8.893,8.893,0,0,1,1.052-1.641,3.177,3.177,0,0,0,.133-.759c.133.342.133.806.559,1,.589.18.816-.284,1.053-.654-.019-.19.141-.475.351-.275.616.474,1.451.066,2.161.114a6.835,6.835,0,0,1,1.926-.323,22.053,22.053,0,0,1-3.547,7.492c-.626.759-1.156,1.556-1.84,2.286-.208-.559-.19-1.318-.663-1.821l-.3.067c-.389.777-1.176,1.441-1.072,2.333-.578.919-2.048.151-2.9.644-1.052.314-1.621-.71-2.447-.919-.93-.417-2-.426-2.874-.882a.441.441,0,0,1,.285-.474m-4.533-62.685a45.5,45.5,0,0,1,25.8,12.2l-.835.36c-1.338,1.422-2.9,2.589-3.679,4.249-.086-.465-.768-.778-1-1.233a5.1,5.1,0,0,0-2.57-3.272c-.957-.18-1.166-1.621-2.332-1.156-.987-.835-2.2-.228-3.15.237v.114a36.251,36.251,0,0,0-15.352-4.676c-.248,0-.389.219-.693.18.3-.19.143-.786.125-1.109-.162-.247-.428-.55-.788-.36a1.184,1.184,0,0,0-.2.6,36.635,36.635,0,0,0-.066-6.714c1.46.465,3.177.323,4.732.579m-1.878,9.758a39.235,39.235,0,0,1,11.787,3.366c.58.862,1.67,1.271,1.8,2.343-.55,1.489,1.963,1.461.835,2.968-.076.483.341.759.5,1.119.143.417-.076,1.043.407,1.29.882.188,1.252-.977,2.143-.655a4.055,4.055,0,0,1,1.357,3.452,2.423,2.423,0,0,0,1.535,1.631c1.441-.427.788,1.157,1.746,1.594,1.128.133,1.7,1.565,2.93,1.441a31.109,31.109,0,0,1,2.664,2.959.511.511,0,0,0,.3.512c.6.133.958-.266,1.441-.3a34.88,34.88,0,0,1,3.2,12.593l.219.455c-2.362-.01-4.751.019-7.141.172-.076-1.394.019-2.845-.749-3.956a4.847,4.847,0,0,0,.389-2.5c-.123-.379-.446-.047-.606,0-.788.749-.892,1.793-1.3,2.675a4.08,4.08,0,0,0-.36,3.452l.284.284-2.711-.047c.654-.407-.561-1.214.085-1.868l1.252-.237c.389-.921,1.357-1.566,1.338-2.637a2.316,2.316,0,0,0,.626-2.38c-.588-1.346,1.005-2.683-.209-3.964.105-.379-.151-.91-.6-.882-.389-.114-.835,0-.835-.53.237-.323.8-.684.673-1.224-.284-.351-.749-.038-1.119-.057-.1-.588.986-1.224.047-1.754-.654-.114-1.033.7-1.669.407a.732.732,0,0,1-.246-1l-1.47-1.811c-.141-.161-.55.123-.569-.237.086-1.441-1.649-2.239-1.764-3.651-.54-.493-.094-1.4-.8-1.811-.389-.295-.816-.636-1.365-.418a15.06,15.06,0,0,0-2.125-2.494.5.5,0,0,0-.559.209c.123.683.93,1.062.882,1.821a.307.307,0,0,0-.3.1,3.64,3.64,0,0,0,1.138,1.745,28.7,28.7,0,0,0-13.087-5.245c-.929-.028-1.869-.436-2.789-.1.2-2.114.076-4.514.115-6.79l-.257-.446c.911.484,1.879.256,2.931.408m-4.087,28.014.407.208c-.5.039-1.09-.284-1.516.076-.295.219-.086.606,0,.892.872.323,1.062,1.764,2.238,1.195.474.114,1.09.218,1.242.768.73.256.825,1.508,1.774,1.223-.057.475-.219,1.281.352,1.631-.142.428-.674.6-.637,1.12-.131.151-.265.4-.113.587.9.105.844,1.12,1.271,1.7a1.587,1.587,0,0,0,.655,1.811,6.713,6.713,0,0,1-.844,2.258c-.929.464-2.484-.692-2.826.986-.55.6-.076,1.877-1.119,1.944a7.66,7.66,0,0,1-5.368-1.479c.986-.5,2.684.2,3.035-1.271a.9.9,0,0,0,.256-.939,5.126,5.126,0,0,0,.853-1.623c-.36-.36-.2-.559-.123-.986-.986-1.033-2.343-.493-3.622-.464-.749.426-.02,1.26-.532,1.782-.967.133-.986,1.081-1.669,1.631a1.28,1.28,0,0,1-.673-1.081h.123a.358.358,0,0,0,.256.408c.929.151.634-.9.929-1.365.141-.588,1.5-1.375.407-1.793-.057-.256.143-.559-.18-.712-.342.152-.911.152-.948.655a1.023,1.023,0,0,1-.37,1.175h-.218a.5.5,0,0,0-.342-.6c-.55.028-1.015.436-1.564.294a12.014,12.014,0,0,1-2.466.342c-.1-.465.645-.313.787-.739-.132-.741.352-1.177.674-1.707.18-.19.569-.123.787-.048.2.19.389.361.673.285l.238-.418c.73.446.322,2.542,1.764,1.65.2-.91.01-1.981.417-2.807-.342-.778.483-1.1.749-1.631.759.066.673-.788,1-1.176,1.138-.342,2.362-.608,3.092-1.832-.294-.6-.113-1.469-.6-1.952.54-.18,1.365-.428,1.754,0m-1.109,45.1-.692-.465c-9.038-.483-16.776-4.181-23.529-10.089,1.091-.123,1.5,1.337,2.694.976,1.318-.161,2.342-1.195,3.716-.976.692.01,1.547,0,1.963-.655.2-.739-.559-1.1-.71-1.678a27.982,27.982,0,0,0,15.684,5.879l.579-.237v6.411l.295.835M1500.1,695.86l-.36-.579a2.765,2.765,0,0,0,2.333.209c-1.195.4-.749,1.858-1.233,2.769-.085.426.6.541.522,1-.607.275-.663.911-.929,1.366.323-1.623-.285-3.15-.332-4.761m-7.377,8.393c-.664.076-.484.8-.749,1.166.057-1.688-.711-3.366-.93-5.063l-.53-4.5-.3-.4a59.305,59.305,0,0,0,6.781.161l.521-.247a4.69,4.69,0,0,0,.531,3.575c-.256-.294-.655-1.138-1.271-1.119-1.242.085-1.356,1.7-2.588,1.764a4.694,4.694,0,0,0-1.376,3.2c.436.465-.35.939-.085,1.461m4.96-11.248-.645-.255-6.647.132c.616-7.444,2.654-14.282,6.96-20.18l2.618-3.338.056-.464a48.682,48.682,0,0,0,5.141,5.14,29.4,29.4,0,0,0-7.777,18.246c.1.237.01.54.295.72m27.605-28.364c-1.271-.274-2.56.18-3.841.295a28.959,28.959,0,0,0-14.585,7.4l-.18-.456c-1.631-1.517-3.111-3.414-4.9-4.57,1.565-.911,2.92-2.276,4.457-3.319a37.077,37.077,0,0,1,19-6.345,46.7,46.7,0,0,0,.047,7m-10.905,36.691a.4.4,0,0,0,.587.3c.276-.379-.587-1.014.047-1.232.4.455.2,1.175.446,1.678a1.389,1.389,0,0,1,.2.958,16.453,16.453,0,0,0-2.057,2.38c-.446-1.09-1.4-1.954-1.84-3.082-.692-1.271-1.062-2.721-1.745-3.964.569.721,2.143-.1,2.143,1.281.085.086.237.057.341.057.209-.219.246-.237.475-.114.133.227.7.35.256.645a1.568,1.568,0,0,0,1.148,1.09m7.226,18.967,1.156.54c-4.21-1.033-8.753-2.494-12.4-5.538-.626-.36-1.043-1.195-1.8-1.252a37.37,37.37,0,0,0,4.836-4.95c.636,1.166,1.991,1.792,3.054,2.57,1.829.853,3.745,2.419,5.908,1.963a4.379,4.379,0,0,0-1.83,1.2c-.293.654-.209,1.621-1.062,1.905.037,1.394,1.279,2.561,2.143,3.557m-15.5-8.573-.266-1.508c-1.375-1.252-.939-3.385-1.166-4.969-.958-.768-.209-2.039-.845-2.912,0-1.412-2.219-1.9-1.545-3.461-.248-.37-.589-.892-.276-1.385.436-.522,1.394.066,1.678-.7l.2-1.3c.5-.266,1.224.37,1.518-.323.465-1.223-1.811-2.7.143-3.348.682-.057,1.574-.217,1.821.6a5.646,5.646,0,0,1,.057,2.863c.645.238.076.8.076,1.2-.428.18-.778.56-1.233.427-.2-.3-.54-.872-1.005-.834-.36.53.152,1.043.1,1.641-.143.331-.039.72-.246.976a1.132,1.132,0,0,0-.6-.161c-.407.218-.151.654-.047.939.436.266.749.663,1.261.692l.256-.295a17.011,17.011,0,0,1,.323-2.152l.71.35a24.464,24.464,0,0,0,3.746,8.355l.929.921a65.977,65.977,0,0,0-6.25,6.362v.048c-.028-.1-.085-.485-.4-.332-.19-.919,1.346-.663,1.062-1.7m3.376-28.782a5.3,5.3,0,0,0-1.631,1.707c-.589.361-1.356.352-1.83,1,0,.265.313.607-.038.806-.569.55-1.736-.143-2,.872-.1.91-1.167,1.4-1.072,2.409-.626.4-.5,1.156-.436,1.745.322.407-.152,1.1.436,1.4a5.9,5.9,0,0,0-3.074.123c.465-1.09.323-2.455.588-3.632a28.959,28.959,0,0,1,6.534-13.476,61.656,61.656,0,0,0,5.378,5.027c-1.375.037-1.414,2.076-2.855,2.019m14.984,26.222c-.313.569-.047,1.385-.237,2.048a18.526,18.526,0,0,1-8.753-4.058c1.461-1.565,3.461-3.111,4.5-4.818.152.778,1.063,1.138,1.689,1.5,1.308.579,2.892,1.48,4.361.864a3.715,3.715,0,0,0-.341.3c.407.417-.3.853.19,1.232.075.332-.313.285-.352.522.229.436-.057,1.2.616,1.375a.4.4,0,0,1-.264.616c-.493-.085-1.158-.123-1.414.418m-7.824-7.284a3.356,3.356,0,0,0,1.005-1.6l.816.426c-.758.039-1.146.8-1.754,1.224l-.066-.048m6.79-19.81c-.142-.332.257-.7-.123-.919-1.109.5-.71,1.754-1.459,2.55-.123.636-.949.332-1.328.655a.92.92,0,0,0-1.3-.17c-.568,0-.673-1.186-1.279-.569-.18.2-.086.635-.541.446-.084-.162-.265-.181-.407-.295,0-.36.626-.323.407-.739-.446-.778-1.393-.655-1.944-1.242h-.569a16.473,16.473,0,0,1,10.394-4.875,15.335,15.335,0,0,0,.37,5.292c-.626-.759-1.451.19-2.219-.133m1.916-7.861c-1.271-.284-2.466.275-3.679.389a22.384,22.384,0,0,0-7.388,3.85,4.675,4.675,0,0,1-.389.53c-1.678-1.469-3.319-3.538-5.177-4.817a28.392,28.392,0,0,1,16.216-6.9l.417-.255a33.8,33.8,0,0,0,0,7.2m-26.335-17.231a47.536,47.536,0,0,1,26.174-9.265l-.209.692.066,5.842.237.559a38.661,38.661,0,0,0-24.856,10.48l-.123.313a41.815,41.815,0,0,0-5.368-5.159h-.218c1.5-.882,2.807-2.437,4.3-3.461M1480.935,688.5a47.789,47.789,0,0,1,12.451-26.563l.161.655c1.67,1.631,3.311,3.366,4.885,4.856-1.357.9-2.153,2.465-3.234,3.708A39.557,39.557,0,0,0,1487.885,692l.172.94a49.815,49.815,0,0,0-7.521,0c.3-1.47.123-2.988.4-4.439m5.624,28.413a49.422,49.422,0,0,1-5.976-21.347l6.772.057.635-.247a8.366,8.366,0,0,0-.047,1.365l-.058-.076c-.18.143.162.219.105.37a40.686,40.686,0,0,0,1.176,7.4l.342.522a12.584,12.584,0,0,1-1.091-1.49,3,3,0,0,0-1.564.579c.247.7-.436.475-.759.664a1.525,1.525,0,0,0-.493-.455c-.522.037-1.034.076-1.281.579.086.37-.323.55-.474.834-.143,1.091-.512,2.532.3,3.433a2.787,2.787,0,0,0,1.005,2.038c.227.048.35-.141.5-.217.673.493,1.015,1.678,1.982,1.451.3-.143.209-.436.3-.645.493.5.749,1.545,1.688,1.461.256.237.36.692.759.7,1.023-.266.654,1.156,1.4,1.574.589.37.911,1.242,1.754.825l.295-.371c.274.2.047.684.294.958a3.324,3.324,0,0,0,2.039,1.556,16.97,16.97,0,0,0,2.257,2.332l-.569.256-4.856,4.989c-2.2-2.978-4.732-5.871-6.448-9.094m34.243,23.063a49.327,49.327,0,0,1-25.908-12.138l5-5.026.076-.3c6.941,6.7,15.334,10.034,24.807,10.706l.759-.188-.246.37v6.581l.37.579c-1.5-.446-3.281-.313-4.855-.579m5.89-27.558a2.238,2.238,0,0,1-1.4-.161c-.237-.029-.141-.266-.237-.418.712.029,1.052-.834,1.8-.7.465-.4.532-1.043,1.138-1.279-.19-.616.589-.209.749-.579.219-.18.512-.408.807-.237.484.72,1.5.417,1.972,1.223.256.086.332-.17.3-.341v-.295c.778-.075,1.177,1.053,2.012.295a.585.585,0,0,0,0-.712c-.1-.047-.228-.1-.248-.227.551-.247.9.863,1.566.474.578-.474.947-1.052,1.716-1.052l.162.218c.123,1.47-1.119,2.343-2.219,2.988-.712.3-1.982.2-1.936,1.346-.786.741-1.555-.436-2.578-.132-.446-.228-.01-.911-.635-1.034-1.015.436-2.239-.532-2.968.626m1.783,12.338c.891.37,2.4-.37,2.883.636-.256.55-.7,1.081-.522,1.745.352.9.892,2.086,2.038,2.163a1.979,1.979,0,0,0,1.063.635c-1.926.313-4.05.227-5.832.825a48.984,48.984,0,0,0,0-6l-.361-.55c.342.057.5.35.731.55m.1,15.553-.474.3a57.068,57.068,0,0,0,0-7.634c1.213.418,2.512-.057,3.784-.057l3.726-.654c1.84.36,3.168,3.366,5.216,1.536.692-.843,1.944-.777,2.37-1.944,1.2-.436,1.48-1.659,2.343-2.437.788-2.286,3.4-2.617,4.942-4.21,1.166-1.015,2.665-1.859,3.337-3.205l.125.578,5.14,4.885c-8.687,7.891-18.8,12.338-30.507,12.84m44.648-44.572a46.934,46.934,0,0,1-12.149,29.7l-.2.36a50.641,50.641,0,0,0-5.425-5.32,16.511,16.511,0,0,0,2.883-3.129,39.553,39.553,0,0,0,7.709-21.613l-.246-.645.418.285,6.923-.029.36-.18Z" transform="translate(-1440.792 -645.087)" fill="#64accd"/>
          <path id="Trazado_25912" data-name="Trazado 25912" d="M1536.329,655.44a1,1,0,0,0,.171.72c1.034.361,1.138,1.85,2.437,1.508.418-.446-.246-.91-.1-1.469a1.493,1.493,0,0,0-1.109-.864C1537.221,655.81,1536.8,654.89,1536.329,655.44Z" transform="translate(-1428.656 -642.969)" fill="#64accd"/>
          <path id="Trazado_25913" data-name="Trazado 25913" d="M1520.267,652.347c1.261,1.641,3.527.731,5.12.418a3.127,3.127,0,0,0,3.177-.835v-.17c-.835-1.157-2.39-1.337-3.8-1.461l-3.5,1.508c-.3-.114-.872-.266-1.052.123C1520.048,652.053,1520.21,652.224,1520.267,652.347Z" transform="translate(-1432.025 -644.002)" fill="#64accd"/>
          <g id="Grupo_16606" data-name="Grupo 16606" transform="translate(0 129.173)">
            <path id="Trazado_25914" data-name="Trazado 25914" d="M1449.824,756.008v6.884a.6.6,0,0,0,.1.389.759.759,0,0,0,.389.218v.266h-3.11V763.5a.8.8,0,0,0,.384-.213.635.635,0,0,0,.109-.394v-9.587a.587.587,0,0,0-.109-.379.765.765,0,0,0-.384-.219v-.266h3.6v.266a.387.387,0,0,0-.332.379.688.688,0,0,0,.219.441l5.88,6.5v-6.719a.578.578,0,0,0-.11-.379.753.753,0,0,0-.383-.219v-.266h3.11v.266a.759.759,0,0,0-.389.219.579.579,0,0,0-.1.379v9.587a.626.626,0,0,0,.1.394.8.8,0,0,0,.389.213v.266h-3.343V763.5a.348.348,0,0,0,.323-.355c0-.109-.128-.3-.379-.583Z" transform="translate(-1447.207 -751.911)" fill="#00223d"/>
            <path id="Trazado_25915" data-name="Trazado 25915" d="M1467.147,760.882H1462.3l-.706,1.589a1.381,1.381,0,0,0-.147.521c0,.248.17.413.517.508v.266h-3.518V763.5a.9.9,0,0,0,.478-.232,2.455,2.455,0,0,0,.379-.644l3.907-8.706a1.687,1.687,0,0,0,.19-.66.577.577,0,0,0-.456-.55v-.266h3.774v.266c-.3.094-.454.256-.454.488a1.274,1.274,0,0,0,.146.55l4.06,8.725a2.979,2.979,0,0,0,.45.759.932.932,0,0,0,.516.269v.266h-3.917V763.5c.342-.06.512-.232.512-.512a1.394,1.394,0,0,0-.156-.516Zm-.668-1.555-1.717-4.03-1.754,4.03Z" transform="translate(-1444.867 -751.911)" fill="#00223d"/>
            <path id="Trazado_25916" data-name="Trazado 25916" d="M1479.969,759.9l1.479,2.385-.2.147a.606.606,0,0,0-.355-.213,2.648,2.648,0,0,0-.792.4,10.89,10.89,0,0,1-2.257,1.1,7.439,7.439,0,0,1-2.181.284,6.464,6.464,0,0,1-4.131-1.271,5.217,5.217,0,0,1-1.5-1.83,6.047,6.047,0,0,1-.631-2.764,5.818,5.818,0,0,1,1.13-3.575,5.988,5.988,0,0,1,5.14-2.281,7.274,7.274,0,0,1,2.166.285,10.792,10.792,0,0,1,2.262,1.114,2.728,2.728,0,0,0,.792.394.6.6,0,0,0,.355-.219l.2.152-1.479,2.365-.214-.152a2.052,2.052,0,0,0,.014-.222.653.653,0,0,0-.194-.451,3.442,3.442,0,0,0-.692-.507,5.591,5.591,0,0,0-2.921-.825,4.219,4.219,0,0,0-2.911.968,4.069,4.069,0,0,0,0,5.918,4.219,4.219,0,0,0,2.911.968,5.553,5.553,0,0,0,2.921-.83,3.2,3.2,0,0,0,.692-.512.636.636,0,0,0,.194-.451,1.975,1.975,0,0,0-.014-.218Z" transform="translate(-1442.586 -751.944)" fill="#00223d"/>
            <path id="Trazado_25917" data-name="Trazado 25917" d="M1481.538,762.893v-9.587a.579.579,0,0,0-.1-.379.781.781,0,0,0-.389-.219v-.266h3.32v.266a.668.668,0,0,0-.385.213.611.611,0,0,0-.11.385v9.587a.6.6,0,0,0,.114.394.712.712,0,0,0,.381.213v.266h-3.32V763.5a.819.819,0,0,0,.389-.213A.627.627,0,0,0,1481.538,762.893Z" transform="translate(-1440.163 -751.911)" fill="#00223d"/>
            <path id="Trazado_25918" data-name="Trazado 25918" d="M1491.6,752.285a6.038,6.038,0,0,1,4.419,1.6,5.758,5.758,0,0,1,1.725,4.329,5.847,5.847,0,0,1-.83,3.035,5.662,5.662,0,0,1-5.3,2.755,5.983,5.983,0,0,1-4.4-1.6,5.561,5.561,0,0,1-1.327-2.049,6.21,6.21,0,0,1-.4-2.215,6.053,6.053,0,0,1,.825-3.111A5.712,5.712,0,0,1,1491.6,752.285Zm.01,1.934a3.56,3.56,0,0,0-2.542.959,4.258,4.258,0,0,0,0,5.936,3.876,3.876,0,0,0,5.1,0,3.672,3.672,0,0,0,.919-1.4,4.166,4.166,0,0,0,.285-1.522,3.89,3.89,0,0,0-1.2-3.014A3.7,3.7,0,0,0,1491.6,754.219Z" transform="translate(-1439.238 -751.944)" fill="#00223d"/>
            <path id="Trazado_25919" data-name="Trazado 25919" d="M1505.94,762.56c.251.28.38.475.38.583a.353.353,0,0,1-.323.355v.266h3.338V763.5a.8.8,0,0,1-.384-.213.627.627,0,0,1-.109-.394v-9.587a.579.579,0,0,1,.109-.379.763.763,0,0,1,.384-.219v-.266h-3.111v.266a.758.758,0,0,1,.389.219.579.579,0,0,1,.1.379v6.719l-5.879-6.5a.7.7,0,0,1-.214-.441.382.382,0,0,1,.332-.379v-.266h-3.609v.266a.761.761,0,0,1,.389.219.58.58,0,0,1,.1.379v9.587a.628.628,0,0,1-.1.394.8.8,0,0,1-.389.213v.266h3.111V763.5a.762.762,0,0,1-.384-.218.6.6,0,0,1-.109-.389v-6.884Z" transform="translate(-1436.769 -751.911)" fill="#00223d"/>
            <path id="Trazado_25920" data-name="Trazado 25920" d="M1516.34,758.887a.482.482,0,0,1,.357.12.923.923,0,0,1,.208.412h.246v-2.865h-.246a.931.931,0,0,1-.208.418.5.5,0,0,1-.357.114h-4.31v-2.693h6.643a.477.477,0,0,1,.355.118.89.89,0,0,1,.209.413h.246V752h-.246a.916.916,0,0,1-.209.412.477.477,0,0,1-.355.119H1509.2v.266a.751.751,0,0,1,.383.219.6.6,0,0,1,.11.388v9.578a.626.626,0,0,1-.11.394.786.786,0,0,1-.383.213v.266h9.668a.518.518,0,0,1,.355.114.921.921,0,0,1,.2.418h.246v-2.921h-.246a.909.909,0,0,1-.2.417.5.5,0,0,1-.355.115h-6.842v-3.111Z" transform="translate(-1434.301 -752.003)" fill="#00223d"/>
            <path id="Trazado_25921" data-name="Trazado 25921" d="M1529.518,753.452l-1.266,2.669-.228-.133c0-.057.01-.1.01-.132,0-.191-.147-.394-.446-.608a5.342,5.342,0,0,0-3.262-1.029,4.547,4.547,0,0,0-1.461.214,1.752,1.752,0,0,0-.74.5,1.079,1.079,0,0,0-.285.721.881.881,0,0,0,.721.867,11.48,11.48,0,0,0,1.608.247l1.228.133a9.527,9.527,0,0,1,1.764.337,4.035,4.035,0,0,1,1.2.607,2.786,2.786,0,0,1,.84,1.067,3.46,3.46,0,0,1-.413,3.541,3.9,3.9,0,0,1-2.043,1.248,7.712,7.712,0,0,1-2.2.308,8.842,8.842,0,0,1-4.173-1.086,2.04,2.04,0,0,0-.527-.214.646.646,0,0,0-.313.181l-.222-.123,1.153-2.784.222.119v.1a.96.96,0,0,0,.332.694,4.15,4.15,0,0,0,1.569.824,6.311,6.311,0,0,0,2.015.351,3.888,3.888,0,0,0,1.769-.37,1.743,1.743,0,0,0,.645-.546,1.213,1.213,0,0,0,.242-.711.817.817,0,0,0-.565-.8,7.065,7.065,0,0,0-1.607-.3l-1.2-.133a16.052,16.052,0,0,1-1.707-.256,4.3,4.3,0,0,1-1-.384,2.689,2.689,0,0,1-1.109-1.124,3.156,3.156,0,0,1-.366-1.545,3.255,3.255,0,0,1,.921-2.38,4.893,4.893,0,0,1,3.642-1.238,7.813,7.813,0,0,1,1.9.224,13.122,13.122,0,0,1,2.2.815,2.278,2.278,0,0,0,.556.195.665.665,0,0,0,.384-.195Z" transform="translate(-1432.199 -751.944)" fill="#00223d"/>
            <path id="Trazado_25922" data-name="Trazado 25922" d="M1543.936,753.314v6.349a4.765,4.765,0,0,1-.621,2.7q-1.131,1.615-4.647,1.612a7.194,7.194,0,0,1-3.893-.872,2.593,2.593,0,0,1-1.086-1.375,6.354,6.354,0,0,1-.3-2.064v-6.349a.591.591,0,0,0-.11-.388.753.753,0,0,0-.383-.219v-.266h3.319v.266a.675.675,0,0,0-.384.213.6.6,0,0,0-.109.394v5.647a7.608,7.608,0,0,0,.1,1.446,1.724,1.724,0,0,0,.379.788,4.3,4.3,0,0,0,5.117,0,1.715,1.715,0,0,0,.375-.788,7.583,7.583,0,0,0,.1-1.446v-5.647a.6.6,0,0,0-.109-.388.763.763,0,0,0-.384-.219v-.266h3.129v.266a.782.782,0,0,0-.388.219A.6.6,0,0,0,1543.936,753.314Z" transform="translate(-1429.369 -751.911)" fill="#00223d"/>
            <path id="Trazado_25923" data-name="Trazado 25923" d="M1546.806,756.008v6.884a.6.6,0,0,0,.105.389.774.774,0,0,0,.389.218v.266h-3.111V763.5a.8.8,0,0,0,.384-.213.626.626,0,0,0,.109-.394v-9.587a.578.578,0,0,0-.109-.379.762.762,0,0,0-.384-.219v-.266h3.6v.266a.382.382,0,0,0-.327.379.7.7,0,0,0,.213.441l5.88,6.5v-6.719a.579.579,0,0,0-.109-.379.762.762,0,0,0-.384-.219v-.266h3.111v.266a.772.772,0,0,0-.389.219.58.58,0,0,0-.1.379v9.587a.628.628,0,0,0,.1.394.809.809,0,0,0,.389.213v.266h-3.344V763.5a.349.349,0,0,0,.324-.355c0-.109-.123-.3-.381-.583Z" transform="translate(-1427.018 -751.911)" fill="#00223d"/>
            <path id="Trazado_25924" data-name="Trazado 25924" d="M1556.535,762.893v-9.587a.58.58,0,0,0-.1-.379.756.756,0,0,0-.389-.219v-.266h3.32v.266a.705.705,0,0,0-.384.213.609.609,0,0,0-.109.385v9.587a.6.6,0,0,0,.114.394.71.71,0,0,0,.379.213v.266h-3.32V763.5a.791.791,0,0,0,.389-.213A.628.628,0,0,0,1556.535,762.893Z" transform="translate(-1424.551 -751.911)" fill="#00223d"/>
            <path id="Trazado_25925" data-name="Trazado 25925" d="M1561.2,762.893v-9.578a.6.6,0,0,0-.1-.388.759.759,0,0,0-.389-.219v-.266h5.936a7.465,7.465,0,0,1,3,.475,4.4,4.4,0,0,1,2.219,2.271,6.964,6.964,0,0,1,.569,2.91,5.7,5.7,0,0,1-1.694,4.462,4.167,4.167,0,0,1-1.664.925,8.828,8.828,0,0,1-2.428.279H1560.7V763.5a.8.8,0,0,0,.389-.213A.628.628,0,0,0,1561.2,762.893Zm2.333-.986h2.925a4.314,4.314,0,0,0,2.1-.408q1.5-.875,1.5-3.4a4.269,4.269,0,0,0-.811-2.8,2.476,2.476,0,0,0-1.091-.768,5.184,5.184,0,0,0-1.7-.227h-2.925Z" transform="translate(-1423.58 -751.911)" fill="#00223d"/>
            <path id="Trazado_25926" data-name="Trazado 25926" d="M1579.467,760.882h-4.85l-.7,1.589a1.414,1.414,0,0,0-.152.521c0,.248.175.413.522.508v.266h-3.518V763.5a.918.918,0,0,0,.478-.232,2.342,2.342,0,0,0,.375-.644l3.912-8.706a1.682,1.682,0,0,0,.19-.66.576.576,0,0,0-.455-.55v-.266h3.774v.266c-.3.094-.454.256-.454.488a1.271,1.271,0,0,0,.146.55l4.059,8.725a2.84,2.84,0,0,0,.451.759.934.934,0,0,0,.516.269v.266h-3.917V763.5c.342-.06.512-.232.512-.512a1.4,1.4,0,0,0-.156-.516Zm-.668-1.555-1.717-4.03-1.754,4.03Z" transform="translate(-1421.485 -751.911)" fill="#00223d"/>
            <path id="Trazado_25927" data-name="Trazado 25927" d="M1592.544,753.452l-1.266,2.669-.227-.133a.843.843,0,0,0,.008-.132c0-.191-.146-.394-.446-.608a5.342,5.342,0,0,0-3.262-1.029,4.552,4.552,0,0,0-1.461.214,1.753,1.753,0,0,0-.74.5,1.079,1.079,0,0,0-.284.721.886.886,0,0,0,.72.867,11.509,11.509,0,0,0,1.608.247l1.227.133a9.491,9.491,0,0,1,1.764.337,4.106,4.106,0,0,1,1.2.607,2.817,2.817,0,0,1,.835,1.067,3.462,3.462,0,0,1-.412,3.541,3.884,3.884,0,0,1-2.044,1.248,7.665,7.665,0,0,1-2.205.308,8.858,8.858,0,0,1-4.173-1.086,2.093,2.093,0,0,0-.522-.214.651.651,0,0,0-.316.181l-.224-.123,1.153-2.784.222.119v.1a.961.961,0,0,0,.332.694,4.151,4.151,0,0,0,1.57.824,6.31,6.31,0,0,0,2.015.351,3.884,3.884,0,0,0,1.769-.37,1.734,1.734,0,0,0,.645-.546,1.214,1.214,0,0,0,.242-.711.818.818,0,0,0-.564-.8,7.092,7.092,0,0,0-1.608-.3l-1.2-.133a15.623,15.623,0,0,1-1.7-.256,4.23,4.23,0,0,1-1-.384,2.7,2.7,0,0,1-1.109-1.124,3.208,3.208,0,0,1-.365-1.545,3.253,3.253,0,0,1,.919-2.38,4.893,4.893,0,0,1,3.641-1.238,7.869,7.869,0,0,1,1.906.224,13.3,13.3,0,0,1,2.2.815,2.28,2.28,0,0,0,.554.195.647.647,0,0,0,.384-.195Z" transform="translate(-1419.079 -751.944)" fill="#00223d"/>
          </g>
        </g>
      </g>
      <g id="Grupo_16609" data-name="Grupo 16609" transform="translate(0 165.63)">
        <path id="Trazado_25928" data-name="Trazado 25928" d="M853.129,2203.622c.791,0,1.583-.005,2.374-.005H1040.88c.791,0,1.583,0,2.374.005q0,36,.015,72.01c0,.594-.134.728-.728.728q-94.349-.023-188.7,0c-.594,0-.728-.134-.728-.728Q853.14,2239.627,853.129,2203.622ZM979.077,2242.5c0,5.2.009,10.4-.012,15.6,0,.589.1.879.766.8a13.017,13.017,0,0,1,1.5-.011c1.723,0,1.723,0,1.723-1.719,0-4.751.011-9.5-.014-14.255,0-.59.142-.791.744-.752a15.721,15.721,0,0,0,2.374,0c.768-.067.966.19.96.955-.036,4.962,0,9.926-.036,14.888-.005.748.22.952.931.9a20.67,20.67,0,0,1,2.454,0c.5.023.673-.115.672-.651q-.025-15.641-.017-31.281a5.069,5.069,0,0,0-.862-2.835,6.173,6.173,0,0,0-6.925-2.558,6.008,6.008,0,0,0-4.284,5.878C979.139,2232.466,979.077,2237.483,979.077,2242.5Zm-35.94-2.438c0,5.965.012,11.93-.016,17.9,0,.674.191.859.837.81a13.352,13.352,0,0,1,2.294,0c.761.074.9-.225.892-.917-.028-5.015,0-10.03-.034-15.045-.005-.727.212-.891.886-.851.973.057,1.952.018,2.929.013,2.746-.011,4.267-1.523,4.27-4.256q.007-5.978,0-11.957c0-2.72-1.531-4.235-4.284-4.242-2.323-.006-4.646.024-6.968-.018-.661-.012-.825.171-.822.827C943.148,2228.235,943.137,2234.148,943.137,2240.06Zm-67.759.084c0-4.674.011-9.347-.014-14.02,0-.628.177-.826.8-.789a24.351,24.351,0,0,0,2.613,0c.533-.026.665.161.655.671-.031,1.557-.008,3.116-.013,4.673,0,.309-.019.567.433.556,1.055-.026,2.112-.01,3.168-.008.232,0,.425-.033.416-.331a27.916,27.916,0,0,0-.157-5.211,6.036,6.036,0,0,0-6.67-4.467,5.939,5.939,0,0,0-5.259,5.87c-.007,8.555.07,17.11-.042,25.663a6.32,6.32,0,0,0,5.784,6.256,5.9,5.9,0,0,0,6.341-5.719c.024-1.214-.01-2.429.014-3.643.008-.432-.1-.609-.569-.594-.95.031-1.9.036-2.851,0-.49-.019-.629.13-.619.619.032,1.451-.022,2.906.026,4.356.022.664-.106.959-.849.89a14.9,14.9,0,0,0-2.374,0c-.65.043-.854-.159-.85-.829C875.391,2249.438,875.378,2244.791,875.378,2240.144Zm31.321-.083c0,4.858-.008,9.716,0,14.573a3.925,3.925,0,0,0,3.919,4.1c2.534.048,5.069.005,7.6.023.413,0,.556-.119.541-.536a20.344,20.344,0,0,1,.008-2.375c.062-.74-.13-.994-.928-.971-2.137.063-4.277.008-6.415.031-.5.006-.685-.117-.683-.654q.032-5.781,0-11.563c0-.563.175-.714.719-.7,1.557.033,3.115-.005,4.673.021.5.008.71-.1.681-.649a25.583,25.583,0,0,1,0-2.613c.025-.51-.164-.616-.632-.608-1.557.026-3.116-.012-4.673.021-.552.012-.776-.081-.771-.715.033-3.828.026-7.656,0-11.485,0-.523.151-.661.664-.655,2.217.027,4.436-.016,6.653.028.653.013.808-.2.772-.8a21.6,21.6,0,0,1,0-2.375c.027-.526-.154-.666-.671-.66-2.376.027-4.752.007-7.128.013-2.827.007-4.335,1.529-4.336,4.371Q906.7,2232.973,906.7,2240.061Zm109.482-.006v3.089q0,7.406,0,14.811c0,.384-.113.782.548.778,3.67-.025,7.339-.016,11.009-.005.37,0,.51-.106.509-.49q-.016-5.307,0-10.613c0-.454-.2-.513-.571-.505-.923.018-1.85.04-2.771-.007-.571-.029-.7.172-.693.713.03,2.112,0,4.224.022,6.336.006.5-.1.708-.647.679a20.679,20.679,0,0,0-2.533,0c-.657.046-.834-.153-.831-.819.026-6.653.016-13.306.016-19.959,0-3.907-.015-7.815.014-11.722,0-.655-.1-.963-.846-.894a16.451,16.451,0,0,1-2.453,0c-.611-.036-.8.144-.793.78C1016.192,2228.175,1016.181,2234.115,1016.181,2240.056Z" transform="translate(-853.114 -2203.616)" fill="#314d7e"/>
        <path id="Trazado_25929" data-name="Trazado 25929" d="M1648.019,2336.515c0-5.015.062-10.032-.023-15.046a6.008,6.008,0,0,1,4.284-5.877,6.173,6.173,0,0,1,6.925,2.557,5.069,5.069,0,0,1,.861,2.835q.01,15.641.017,31.281c0,.536-.169.673-.672.65a20.772,20.772,0,0,0-2.453,0c-.711.052-.936-.152-.931-.9.035-4.962,0-9.925.036-14.888.005-.765-.192-1.021-.961-.955a15.752,15.752,0,0,1-2.374,0c-.6-.039-.747.162-.744.752.025,4.751.014,9.5.014,14.255,0,1.719,0,1.719-1.723,1.719a13.02,13.02,0,0,0-1.5.011c-.662.078-.768-.212-.765-.8C1648.028,2346.916,1648.019,2341.716,1648.019,2336.515Zm3.979-10.59c0,1.925.02,3.849-.013,5.773-.009.532.161.668.666.648.948-.037,1.9-.027,2.847,0,.4.01.553-.1.552-.527q-.019-5.892,0-11.784c0-.422-.15-.54-.553-.53-.948.024-1.9.035-2.846,0-.512-.021-.673.127-.664.653C1652.017,2322.076,1652,2324,1652,2325.925Z" transform="translate(-1522.056 -2297.633)" fill="#fcfcfd"/>
        <path id="Trazado_25930" data-name="Trazado 25930" d="M1421.223,2335.028c0-5.912.011-11.825-.016-17.737,0-.656.161-.839.822-.827,2.322.042,4.645.011,6.968.018,2.753.007,4.281,1.521,4.284,4.243q.005,5.978,0,11.957c0,2.733-1.524,4.244-4.27,4.256-.977,0-1.956.043-2.929-.014-.674-.039-.892.124-.886.852.036,5.015.006,10.03.034,15.045,0,.692-.131.991-.891.917a13.376,13.376,0,0,0-2.294,0c-.646.048-.841-.137-.837-.81C1421.234,2346.958,1421.223,2340.994,1421.223,2335.028Zm8.072-8.236c0-1.952-.013-3.9.01-5.856.006-.47-.1-.653-.61-.632-.948.041-1.9.035-2.848,0-.471-.017-.574.168-.572.6q.018,5.856,0,11.713c0,.412.123.55.539.539.949-.026,1.9-.04,2.848,0,.54.026.652-.171.645-.67C1429.279,2330.592,1429.3,2328.692,1429.295,2326.792Z" transform="translate(-1331.2 -2298.584)" fill="#fcfcfd"/>
        <path id="Trazado_25931" data-name="Trazado 25931" d="M972.018,2333.421c0,4.647.013,9.294-.015,13.941,0,.67.2.872.85.829a14.963,14.963,0,0,1,2.374,0c.743.07.871-.227.849-.89-.048-1.45.006-2.9-.026-4.356-.011-.49.129-.639.619-.619.949.037,1.9.033,2.851,0,.465-.015.577.162.569.594-.024,1.214.01,2.429-.014,3.643a5.9,5.9,0,0,1-6.341,5.718,6.32,6.32,0,0,1-5.784-6.256c.112-8.553.036-17.109.042-25.663a5.938,5.938,0,0,1,5.259-5.87,6.036,6.036,0,0,1,6.67,4.466,27.927,27.927,0,0,1,.156,5.212c.009.3-.183.332-.416.331-1.056,0-2.113-.018-3.168.008-.452.011-.434-.247-.433-.556.005-1.558-.017-3.116.013-4.673.01-.509-.123-.7-.655-.671a24.288,24.288,0,0,1-2.613,0c-.623-.037-.8.161-.8.789C972.03,2324.074,972.018,2328.747,972.018,2333.421Z" transform="translate(-949.754 -2296.893)" fill="#fcfcfd"/>
        <path id="Trazado_25932" data-name="Trazado 25932" d="M1191.312,2335.056q0-7.088,0-14.177c0-2.842,1.509-4.364,4.336-4.371,2.376-.006,4.752.014,7.128-.013.517-.005.7.135.671.661a21.645,21.645,0,0,0,0,2.375c.036.6-.119.816-.772.8-2.217-.044-4.435,0-6.653-.028-.512-.006-.667.132-.664.656.021,3.828.028,7.656,0,11.484-.005.635.219.728.771.716,1.557-.034,3.115,0,4.673-.022.468-.008.657.1.632.608a25.613,25.613,0,0,0,0,2.612c.029.549-.186.657-.681.649-1.557-.027-3.116.011-4.673-.021-.544-.011-.722.138-.719.7q.034,5.782,0,11.564c0,.537.182.659.682.653,2.138-.024,4.278.031,6.415-.031.8-.024.99.23.928.971a20.353,20.353,0,0,0-.008,2.375c.014.417-.129.538-.541.535-2.534-.018-5.07.026-7.6-.022a3.925,3.925,0,0,1-3.919-4.1C1191.3,2344.772,1191.312,2339.914,1191.312,2335.056Z" transform="translate(-1137.727 -2298.611)" fill="#fcfcfd"/>
        <path id="Trazado_25933" data-name="Trazado 25933" d="M1882.253,2334.735c0-5.94.011-11.881-.015-17.821,0-.636.182-.816.793-.78a16.484,16.484,0,0,0,2.453,0c.749-.069.851.24.846.894-.029,3.907-.014,7.815-.014,11.722,0,6.653.01,13.306-.016,19.959,0,.666.174.865.831.819a20.732,20.732,0,0,1,2.533,0c.545.029.652-.184.646-.68-.023-2.112.008-4.224-.022-6.336-.008-.541.122-.743.693-.713.922.047,1.848.025,2.771.007.375-.008.573.051.571.505q-.025,5.306,0,10.613c0,.384-.139.491-.509.49-3.67-.011-7.34-.02-11.009.005-.662,0-.548-.394-.548-.778q0-7.406,0-14.811Z" transform="translate(-1719.186 -2298.295)" fill="#fcfcfd"/>
        <path id="Trazado_25934" data-name="Trazado 25934" d="M1673.194,2348.04c0-1.924.019-3.849-.012-5.773-.009-.527.153-.674.664-.654.947.039,1.9.027,2.846,0,.4-.01.555.107.553.53q-.018,5.892,0,11.784c0,.424-.15.538-.552.528-.949-.024-1.9-.035-2.847,0-.506.02-.675-.115-.666-.648C1673.214,2351.889,1673.194,2349.964,1673.194,2348.04Z" transform="translate(-1543.251 -2319.747)" fill="#314d7e"/>
        <path id="Trazado_25935" data-name="Trazado 25935" d="M1450.9,2347.187c0,1.9-.016,3.8.011,5.7.007.5-.105.7-.645.669-.948-.044-1.9-.031-2.848,0-.416.011-.54-.127-.539-.539q.019-5.856,0-11.713c0-.429.1-.614.572-.6.948.033,1.9.039,2.848,0,.506-.021.616.161.61.632C1450.884,2343.282,1450.9,2345.234,1450.9,2347.187Z" transform="translate(-1352.802 -2318.978)" fill="#314d7e"/>
      </g>
    </g>
    <g id="Grupo_16612" data-name="Grupo 16612" transform="translate(253.971 1156.449)">
      <path id="Trazado_25936" data-name="Trazado 25936" d="M2262.1,1489.476c0-5.846.011-11.692-.015-17.538,0-.649.16-.829.813-.818,2.3.041,4.593.011,6.89.017,2.722.007,4.233,1.5,4.236,4.195q0,5.911,0,11.823c0,2.7-1.507,4.2-4.222,4.208-.966,0-1.934.043-2.9-.013-.667-.039-.882.123-.877.842.036,4.959.006,9.917.034,14.876,0,.685-.129.981-.881.907a13.244,13.244,0,0,0-2.269,0c-.639.048-.831-.135-.828-.8C2262.113,1501.272,2262.1,1495.374,2262.1,1489.476Zm7.982-8.143c0-1.93-.013-3.861.01-5.791.005-.465-.1-.646-.6-.624-.937.04-1.878.035-2.816,0-.466-.016-.568.167-.566.591q.018,5.791,0,11.581c0,.408.122.544.532.533.938-.026,1.879-.04,2.816,0,.534.025.645-.17.638-.662C2270.068,1485.088,2270.083,1483.21,2270.083,1481.332Z" transform="translate(-2198.242 -1471.119)" fill="#314d7e"/>
      <path id="Trazado_25937" data-name="Trazado 25937" d="M2405.779,1489.472q0-7.009,0-14.019c0-2.81,1.492-4.315,4.288-4.321,2.349-.006,4.7.013,7.048-.013.511-.006.69.133.663.653a21.529,21.529,0,0,0,0,2.348c.035.594-.117.807-.763.794-2.193-.044-4.386,0-6.579-.028-.507-.006-.659.13-.656.648.022,3.785.028,7.571,0,11.356-.006.628.217.72.762.708,1.54-.034,3.08,0,4.62-.021.463-.008.65.1.625.6a25.114,25.114,0,0,0,0,2.583c.029.543-.184.65-.673.641-1.54-.026-3.081.012-4.62-.021-.538-.011-.714.137-.711.694q.034,5.717,0,11.434c0,.531.18.652.675.646,2.114-.024,4.23.031,6.342-.031.79-.023.979.228.918.96a20.2,20.2,0,0,0-.007,2.348c.014.412-.127.532-.535.529-2.506-.017-5.013.026-7.518-.022a3.881,3.881,0,0,1-3.875-4.057C2405.771,1499.079,2405.779,1494.275,2405.779,1489.472Z" transform="translate(-2305.087 -1471.119)" fill="#314d7e"/>
      <path id="Trazado_25938" data-name="Trazado 25938" d="M2122.509,1489.525c0-5.874.01-11.747-.016-17.621,0-.629.18-.807.784-.771a16.279,16.279,0,0,0,2.425,0c.74-.067.841.237.837.884-.029,3.864-.014,7.727-.014,11.59,0,6.579.01,13.157-.016,19.736,0,.659.173.855.822.81a20.445,20.445,0,0,1,2.5,0c.54.028.645-.182.64-.672-.024-2.088.008-4.177-.022-6.265-.008-.535.12-.734.685-.706.911.047,1.827.025,2.74.007.37-.008.567.05.564.5q-.024,5.247,0,10.494c0,.38-.137.486-.5.485-3.628-.01-7.257-.019-10.885.005-.654,0-.542-.389-.542-.769q0-7.323,0-14.645Z" transform="translate(-2094.446 -1471.119)" fill="#314d7e"/>
      <path id="Trazado_25939" data-name="Trazado 25939" d="M2555.033,1497.963a62.614,62.614,0,0,1-.407,6.531,4.793,4.793,0,0,1-4.08,4.086,5.048,5.048,0,0,1-5.4-2.109c-1.386-1.922-1.365-4.134-.974-6.31.17-.948,1.2-.938,2.045-.9a1.411,1.411,0,0,1,1.477,1.567,22.861,22.861,0,0,0,.081,2.458c.264,1.885,2.319,1.822,2.67,1.125,1.582-3.14.539-6.641.708-9.995.127-2.521-1.968-1.678-3.273-1.84-2.645-.328-3.854-1.842-3.873-4.4-.023-3.283-.056-6.568.025-9.849a5.5,5.5,0,0,1,3.716-5.38,4.842,4.842,0,0,1,5.581,1.44c1.781,1.862,1.725,4.221,1.5,6.571-.1,1.066-.912,1.232-1.784,1.227s-1.687-.134-1.776-1.221c-.078-.952-.058-1.912-.1-2.868-.062-1.285-.909-1.5-1.983-1.472s-1.429.675-1.436,1.583c-.022,3.009-.016,6.019,0,9.029.005.937.431,1.626,1.46,1.544,5.862-.468,5.9,3.44,5.714,7.539-.025.546,0,1.094,0,1.641Z" transform="translate(-2407.82 -1472.204)" fill="#314d7e"/>
      <path id="Trazado_25940" data-name="Trazado 25940" d="M2016.735,1491.947q0,7.559-.005,15.12c0,1.231.114,2.521-1.761,2.549-1.86.028-1.842-1.242-1.843-2.482q-.02-15.324-.007-30.648c0-1.351.213-2.465,1.984-2.342,1.854.129,1.622,1.493,1.626,2.684C2016.746,1481.866,2016.736,1486.906,2016.735,1491.947Z" transform="translate(-2013.118 -1473.36)" fill="#314d7e"/>
    </g>
  </g>
</svg>
