<svg xmlns="http://www.w3.org/2000/svg" xmlns:xlink="http://www.w3.org/1999/xlink" width="108" height="108" viewBox="0 0 108 108">
  <defs>
    <filter id="Elipse_5697" x="0" y="0" width="108" height="108" filterUnits="userSpaceOnUse">
      <feOffset dy="3" input="SourceAlpha"/>
      <feGaussianBlur stdDeviation="3" result="blur"/>
      <feFlood flood-opacity="0.161"/>
      <feComposite operator="in" in2="blur"/>
      <feComposite in="SourceGraphic"/>
    </filter>
  </defs>
  <g id="Grupo_1010591" data-name="Grupo 1010591" transform="translate(-801 -732)">
    <g id="Grupo_1008767" data-name="Grupo 1008767" transform="translate(210 -1191.893)">
      <g transform="matrix(1, 0, 0, 1, 591, 1923.89)" filter="url(#Elipse_5697)">
        <g id="Elipse_5697-2" data-name="Elipse 5697" transform="translate(9 6)" fill="#fff" stroke="#e1edb5" stroke-width="2">
          <circle cx="45" cy="45" r="45" stroke="none"/>
          <circle cx="45" cy="45" r="44" fill="none"/>
        </g>
      </g>
    </g>
    <g id="Grupo_16965" data-name="Grupo 16965" transform="translate(835 758)">
      <g id="Grupo_16963" data-name="Grupo 16963" transform="translate(0.711 0.711)">
        <g id="Grupo_16959" data-name="Grupo 16959">
          <path id="Trazado_26638" data-name="Trazado 26638" d="M2092.1,389.335h-24.477a6.471,6.471,0,0,1-6.471-6.471V353.691a6.471,6.471,0,0,1,6.471-6.471H2092.1a6.471,6.471,0,0,1,6.471,6.471v29.173a6.471,6.471,0,0,1-6.471,6.471Z" transform="translate(-2061.148 -342.191)" fill="#f4fbff"/>
          <path id="Trazado_26639" data-name="Trazado 26639" d="M2070.7,389.336h-3.077a6.471,6.471,0,0,1-6.472-6.472V353.692a6.47,6.47,0,0,1,6.472-6.47h3.077a6.47,6.47,0,0,0-6.47,6.47v29.172a6.47,6.47,0,0,0,6.47,6.472Z" transform="translate(-2061.148 -342.192)" fill="#e4f6ff"/>
          <path id="Trazado_26640" data-name="Trazado 26640" d="M2090.184,342.5a5.916,5.916,0,0,0-11,0H2077.1a4.048,4.048,0,1,0,0,8.1h15.167a4.048,4.048,0,0,0,0-8.1Z" transform="translate(-2065.975 -338.762)" fill="#ffe07d"/>
          <path id="Trazado_26641" data-name="Trazado 26641" d="M2086.614,339.085a5.928,5.928,0,0,0-3.572,3.412h-2.084a4.049,4.049,0,0,0,0,8.1H2077.1a4.049,4.049,0,1,1,0-8.1h2.083a5.918,5.918,0,0,1,7.429-3.412Z" transform="translate(-2065.975 -338.762)" fill="#ffd064"/>
          <ellipse id="Elipse_984" data-name="Elipse 984" cx="2.421" cy="2.421" rx="2.421" ry="2.421" transform="translate(16.289 3.496)" fill="#365e7d"/>
        </g>
        <g id="Grupo_16960" data-name="Grupo 16960" transform="translate(5.377 16.089)">
          <path id="Trazado_26642" data-name="Trazado 26642" d="M2076.748,374.784H2072.6a2.406,2.406,0,0,1-2.406-2.406v-4.151a2.406,2.406,0,0,1,2.406-2.406h4.151a2.406,2.406,0,0,1,2.406,2.406v4.151A2.406,2.406,0,0,1,2076.748,374.784Z" transform="translate(-2070.191 -365.822)" fill="#b3e59f"/>
        </g>
        <g id="Grupo_16961" data-name="Grupo 16961" transform="translate(5.377 29.635)">
          <path id="Trazado_26643" data-name="Trazado 26643" d="M2076.748,397.568H2072.6a2.406,2.406,0,0,1-2.406-2.406v-4.151a2.406,2.406,0,0,1,2.406-2.406h4.151a2.406,2.406,0,0,1,2.406,2.406v4.151A2.406,2.406,0,0,1,2076.748,397.568Z" transform="translate(-2070.191 -388.606)" fill="#b3e59f"/>
        </g>
        <g id="Grupo_16962" data-name="Grupo 16962" transform="translate(22.841 4.917)">
          <path id="Trazado_26644" data-name="Trazado 26644" d="M2123.114,368.933a2.313,2.313,0,0,0,3.249-.392l4.934-6.289a2.314,2.314,0,1,0-3.641-2.856l-4.934,6.289A2.313,2.313,0,0,0,2123.114,368.933Z" transform="translate(-2108.754 -351.685)" fill="#80b4fb"/>
          <path id="Trazado_26645" data-name="Trazado 26645" d="M2105.4,388.85l-.823,1.049a2.8,2.8,0,0,1-4.413-3.463l.823-1.049,4.4-.381Z" transform="translate(-2099.565 -362.428)" fill="#ffe07d"/>
          <path id="Trazado_26646" data-name="Trazado 26646" d="M2101.319,389.865a2.824,2.824,0,0,0,.325,1.014,2.805,2.805,0,0,1-1.48-4.442l.823-1.049,4.4-.382.006,1.511-2.671.231-.823,1.049A2.8,2.8,0,0,0,2101.319,389.865Z" transform="translate(-2099.565 -362.428)" fill="#ffd064"/>
          <path id="Trazado_26647" data-name="Trazado 26647" d="M2118.193,363.783l-11.823,15.069-4.413-3.462,11.8-15.042" transform="translate(-2100.535 -352.431)" fill="#e27f83"/>
          <path id="Trazado_26648" data-name="Trazado 26648" d="M2115.514,361.681l-11.823,15.069-1.734-1.36,11.8-15.042" transform="translate(-2100.535 -352.431)" fill="#c8646d"/>
          <path id="Trazado_26649" data-name="Trazado 26649" d="M2128.535,356.4l4.282-6.535a1.833,1.833,0,0,0-2.873-2.255l-5.328,5.714" transform="translate(-2109.722 -347.032)" fill="#9dc6fb"/>
          <path id="Trazado_26650" data-name="Trazado 26650" d="M2132.416,347.422c-.071-.055-.248.037-.481.236a6.819,6.819,0,0,0-.823.872l-4.9,6.047-1.592-1.249,5.327-5.714a1.833,1.833,0,0,1,2.472-.193Z" transform="translate(-2109.722 -347.032)" fill="#80b4fb"/>
          <path id="Trazado_26651" data-name="Trazado 26651" d="M2126.973,360.492l-3.919-3.074a1.416,1.416,0,1,0-1.749,2.228l3.919,3.074a1.416,1.416,0,0,0,1.749-2.228Z" transform="translate(-2108.16 -351.12)" fill="#9dc6fb"/>
          <path id="Trazado_26652" data-name="Trazado 26652" d="M2122.721,360.23a1.413,1.413,0,0,0,.532.944l-1.949-1.529a1.416,1.416,0,0,1,1.749-2.229l1.949,1.529a1.417,1.417,0,0,0-2.281,1.285Z" transform="translate(-2108.159 -351.12)" fill="#80b4fb"/>
        </g>
      </g>
      <g id="Grupo_16964" data-name="Grupo 16964" transform="translate(0 0)">
        <path id="Trazado_26653" data-name="Trazado 26653" d="M2090.481,343.445a3.132,3.132,0,1,0,3.132,3.132A3.135,3.135,0,0,0,2090.481,343.445Zm0,4.841a1.709,1.709,0,1,1,1.709-1.709A1.71,1.71,0,0,1,2090.481,348.286Z" transform="translate(-2071.06 -339.95)" fill="#00223d"/>
        <path id="Trazado_26654" data-name="Trazado 26654" d="M2072.112,375.01h4.151a3.12,3.12,0,0,0,3.116-3.117v-4.151a3.12,3.12,0,0,0-3.116-3.117h-4.151a3.12,3.12,0,0,0-3.116,3.117v4.151A3.12,3.12,0,0,0,2072.112,375.01Zm-1.694-7.268a1.7,1.7,0,0,1,1.694-1.694h4.151a1.7,1.7,0,0,1,1.694,1.694v4.151a1.7,1.7,0,0,1-1.694,1.694h-4.151a1.7,1.7,0,0,1-1.694-1.694Z" transform="translate(-2063.618 -348.537)" fill="#00223d"/>
        <path id="Trazado_26655" data-name="Trazado 26655" d="M2074.777,374.174a.712.712,0,0,0,.549.259h.046a.711.711,0,0,0,.557-.332l2.481-3.945a.711.711,0,0,0-1.2-.758l-1.956,3.111-1.031-1.252a.711.711,0,0,0-1.1.9Z" transform="translate(-2065.224 -350.337)" fill="#00223d"/>
        <path id="Trazado_26656" data-name="Trazado 26656" d="M2090.124,370.56h11.083a.711.711,0,0,0,0-1.423h-11.083a.711.711,0,1,0,0,1.423Z" transform="translate(-2071.896 -350.366)" fill="#00223d"/>
        <path id="Trazado_26657" data-name="Trazado 26657" d="M2090.124,376.611h5.541a.711.711,0,0,0,0-1.423h-5.541a.711.711,0,1,0,0,1.423Z" transform="translate(-2071.896 -352.82)" fill="#00223d"/>
        <path id="Trazado_26658" data-name="Trazado 26658" d="M2069,394.678a3.12,3.12,0,0,0,3.116,3.117h4.151a3.12,3.12,0,0,0,3.116-3.117v-4.151a3.12,3.12,0,0,0-3.116-3.117h-4.151a3.12,3.12,0,0,0-3.116,3.117Zm1.423-4.151a1.7,1.7,0,0,1,1.694-1.694h4.151a1.7,1.7,0,0,1,1.694,1.694v4.151a1.7,1.7,0,0,1-1.694,1.694h-4.151a1.7,1.7,0,0,1-1.694-1.694Z" transform="translate(-2063.618 -357.775)" fill="#00223d"/>
        <path id="Trazado_26659" data-name="Trazado 26659" d="M2074.777,396.958a.71.71,0,0,0,.549.259l.046,0a.709.709,0,0,0,.557-.331l2.481-3.945a.711.711,0,0,0-1.2-.757l-1.956,3.111-1.031-1.251a.711.711,0,1,0-1.1.9Z" transform="translate(-2065.224 -359.575)" fill="#00223d"/>
        <path id="Trazado_26660" data-name="Trazado 26660" d="M2095.665,399.394a.712.712,0,0,0,0-1.423h-5.541a.712.712,0,0,0,0,1.423Z" transform="translate(-2071.896 -362.057)" fill="#00223d"/>
        <path id="Trazado_26661" data-name="Trazado 26661" d="M2106.094,349.952a3.028,3.028,0,0,0-.9-.486l1.995-3.045a2.545,2.545,0,0,0-2.128-3.939,2.555,2.555,0,0,0-1.861.809l-.766.822a.711.711,0,1,0,1.041.97l.766-.821a1.121,1.121,0,0,1,1.758,1.379l-3.857,5.887-2.7-2.119,2.095-2.246a.712.712,0,0,0-1.041-.97l-1.88,2.016a7.213,7.213,0,0,0-7.009-5.614h-1.4a4.741,4.741,0,0,0-3.257-1.294h-1.62a6.627,6.627,0,0,0-11.926,0h-1.62a4.742,4.742,0,0,0-3.257,1.294h-1.4a7.191,7.191,0,0,0-7.183,7.182V378.95a7.191,7.191,0,0,0,7.183,7.183h1.654a.711.711,0,1,0,0-1.423h-1.654a5.767,5.767,0,0,1-5.76-5.76V349.776a5.766,5.766,0,0,1,5.76-5.758h.357a4.759,4.759,0,0,0,4.3,6.8h15.167a4.759,4.759,0,0,0,4.3-6.8h.357a5.783,5.783,0,0,1,5.616,4.483,2.124,2.124,0,0,0-1.661,2.938l-12.023,15.324a3.492,3.492,0,0,0-.725,2.592,3.527,3.527,0,0,0,.105.529h-4.745a.711.711,0,0,0,0,1.423h5.365l-.432.552a.711.711,0,1,0,1.119.878l.513-.654a3.479,3.479,0,0,0,1.56.368,3.577,3.577,0,0,0,.428-.026,3.493,3.493,0,0,0,2.345-1.32l8.1-10.323c.062.061.128.119.2.175V378.95a5.766,5.766,0,0,1-5.758,5.76h-19.977a.711.711,0,1,0,0,1.423h19.977a7.191,7.191,0,0,0,7.182-7.183V361.6a3.032,3.032,0,0,0,2.879-1.115l4.934-6.289a3.026,3.026,0,0,0-.513-4.247Zm-19.138-.555H2071.79a3.337,3.337,0,1,1,0-6.673h2.084a.712.712,0,0,0,.661-.45,5.2,5.2,0,0,1,9.676,0,.711.711,0,0,0,.661.45h2.084a3.337,3.337,0,0,1,0,6.673Zm10.013.773a.7.7,0,0,1,.989-.12l3.919,3.074h0a.7.7,0,1,1-.87,1.109l-3.919-3.075a.7.7,0,0,1-.119-.989Zm-7.751,18.445-1.087-.853,7.784-9.922a.711.711,0,1,0-1.119-.878l-7.784,9.922-1.088-.853,10.6-13.508,3.293,2.584Zm-2.658,2.4a2.093,2.093,0,0,1-1.9-3.37l.384-.49,3.294,2.585-.385.489A2.076,2.076,0,0,1,2086.56,371.011Zm18.928-17.69-4.934,6.289a1.6,1.6,0,0,1-2.49.037l3.035-3.868a2.191,2.191,0,0,0,.341.027,2.126,2.126,0,0,0,1.772-3.307l1.155-1.764a1.6,1.6,0,0,1,1.121,2.586Z" transform="translate(-2059.952 -337.566)" fill="#00223d"/>
      </g>
    </g>
  </g>
</svg>
