<svg xmlns="http://www.w3.org/2000/svg" width="353.088" height="277.395" viewBox="0 0 353.088 277.395">
  <g id="Grupo_1011018" data-name="Grupo 1011018" transform="translate(-623 -2646)">
    <path id="Trazado_716406" data-name="Trazado 716406" d="M13.321,13.99V19H11.633V6.2h4.72a4.742,4.742,0,0,1,3.292,1.072,3.635,3.635,0,0,1,1.191,2.839,3.587,3.587,0,0,1-1.165,2.87,4.954,4.954,0,0,1-3.335,1.006Zm0-1.38h3.032a3.032,3.032,0,0,0,2.074-.638,2.334,2.334,0,0,0,.721-1.845A2.411,2.411,0,0,0,18.427,8.3a2.84,2.84,0,0,0-1.978-.713H13.321ZM28.508,19a3.416,3.416,0,0,1-.229-1,3.628,3.628,0,0,1-2.707,1.178,3.357,3.357,0,0,1-2.307-.8,2.573,2.573,0,0,1-.9-2.017,2.688,2.688,0,0,1,1.129-2.307,5.325,5.325,0,0,1,3.177-.822h1.582v-.747a1.826,1.826,0,0,0-.51-1.358,2.049,2.049,0,0,0-1.5-.505,2.371,2.371,0,0,0-1.459.439,1.3,1.3,0,0,0-.589,1.063H22.558a2.244,2.244,0,0,1,.505-1.375A3.449,3.449,0,0,1,24.435,9.7a4.613,4.613,0,0,1,1.9-.387,3.759,3.759,0,0,1,2.575.822A2.964,2.964,0,0,1,29.88,12.4v4.377a5.351,5.351,0,0,0,.334,2.083V19Zm-2.7-1.239a2.858,2.858,0,0,0,1.45-.4,2.392,2.392,0,0,0,.993-1.028V14.386H26.979q-2.988,0-2.988,1.749a1.48,1.48,0,0,0,.51,1.2A1.959,1.959,0,0,0,25.81,17.761Zm12.155-1.283a1.2,1.2,0,0,0-.5-1.024,4.78,4.78,0,0,0-1.731-.628,8.186,8.186,0,0,1-1.96-.633,2.788,2.788,0,0,1-1.072-.879,2.1,2.1,0,0,1-.347-1.213,2.467,2.467,0,0,1,.989-1.978,3.861,3.861,0,0,1,2.527-.809,3.974,3.974,0,0,1,2.624.835A2.652,2.652,0,0,1,39.5,12.285H37.869a1.468,1.468,0,0,0-.567-1.151,2.124,2.124,0,0,0-1.428-.483,2.223,2.223,0,0,0-1.389.387,1.217,1.217,0,0,0-.5,1.011.986.986,0,0,0,.466.888,5.731,5.731,0,0,0,1.683.571,8.77,8.77,0,0,1,1.973.65,2.878,2.878,0,0,1,1.121.91,2.237,2.237,0,0,1,.365,1.3,2.434,2.434,0,0,1-1.02,2.043,4.277,4.277,0,0,1-2.646.769,4.789,4.789,0,0,1-2.021-.4,3.288,3.288,0,0,1-1.375-1.129,2.722,2.722,0,0,1-.5-1.569h1.626a1.683,1.683,0,0,0,.655,1.3,2.54,2.54,0,0,0,1.613.479,2.622,2.622,0,0,0,1.481-.374A1.148,1.148,0,0,0,37.965,16.478ZM47.581,19a3.416,3.416,0,0,1-.229-1,3.628,3.628,0,0,1-2.707,1.178,3.357,3.357,0,0,1-2.307-.8,2.573,2.573,0,0,1-.9-2.017,2.688,2.688,0,0,1,1.129-2.307,5.325,5.325,0,0,1,3.177-.822h1.582v-.747a1.826,1.826,0,0,0-.51-1.358,2.049,2.049,0,0,0-1.5-.505,2.371,2.371,0,0,0-1.459.439,1.3,1.3,0,0,0-.589,1.063H41.631a2.244,2.244,0,0,1,.505-1.375A3.449,3.449,0,0,1,43.507,9.7a4.613,4.613,0,0,1,1.9-.387,3.759,3.759,0,0,1,2.575.822,2.964,2.964,0,0,1,.967,2.263v4.377a5.351,5.351,0,0,0,.334,2.083V19Zm-2.7-1.239a2.858,2.858,0,0,0,1.45-.4,2.392,2.392,0,0,0,.993-1.028V14.386H46.051q-2.988,0-2.988,1.749a1.48,1.48,0,0,0,.51,1.2A1.959,1.959,0,0,0,44.882,17.761ZM53.039,9.49l.053,1.2a3.465,3.465,0,0,1,2.848-1.371q3.015,0,3.041,3.4V19H57.354V12.707a2.189,2.189,0,0,0-.47-1.521,1.884,1.884,0,0,0-1.437-.492,2.347,2.347,0,0,0-1.389.422,2.865,2.865,0,0,0-.932,1.107V19H51.5V9.49ZM71.724,19h-2.54V9.209l-3.032.94V8.084l5.3-1.9h.272Zm4.922,3.208-1.327-.694.316-.571a4.567,4.567,0,0,0,.606-2.136V16.838h2.145L78.378,18.6a4.566,4.566,0,0,1-.492,1.969A5.047,5.047,0,0,1,76.646,22.208Zm15.627-8.024h1.45v2.048h-1.45V19h-2.54V16.231H84.486l-.114-1.6L89.707,6.2h2.566Zm-5.37,0h2.83V9.666l-.167.29Zm8.947,8.024-1.327-.694.316-.571a4.567,4.567,0,0,0,.606-2.136V16.838H97.59L97.582,18.6a4.566,4.566,0,0,1-.492,1.969A5.047,5.047,0,0,1,95.85,22.208Zm15-16.137V8.163h-.246a4.315,4.315,0,0,0-2.773.9,3.642,3.642,0,0,0-1.261,2.417,3.46,3.46,0,0,1,2.575-1.037,3.26,3.26,0,0,1,2.654,1.2,4.792,4.792,0,0,1,.984,3.146,4.713,4.713,0,0,1-.541,2.259,3.877,3.877,0,0,1-1.529,1.573,4.443,4.443,0,0,1-2.237.563,4.15,4.15,0,0,1-3.265-1.406,5.459,5.459,0,0,1-1.244-3.753V13.1a8.215,8.215,0,0,1,.787-3.678,5.768,5.768,0,0,1,2.259-2.47,6.619,6.619,0,0,1,3.415-.883Zm-2.479,6.416a2.029,2.029,0,0,0-1.116.32,1.929,1.929,0,0,0-.738.847v.772a3.42,3.42,0,0,0,.5,1.987,1.619,1.619,0,0,0,1.406.715,1.6,1.6,0,0,0,1.323-.645,2.63,2.63,0,0,0,.505-1.671,2.625,2.625,0,0,0-.51-1.684A1.661,1.661,0,0,0,108.375,12.487Zm14.054,2.918,1.758-5.915h2.725l-3.823,10.986-.211.5a2.9,2.9,0,0,1-2.812,1.863,4,4,0,0,1-1.125-.167V20.749l.387.009a2.09,2.09,0,0,0,1.077-.22,1.443,1.443,0,0,0,.558-.729l.3-.782L117.928,9.49h2.733Zm18.563-7.784L136.043,19h-2.681l4.957-10.749h-6.363V6.2h9.035Zm1.863,10.131a1.279,1.279,0,0,1,.409-.984,1.588,1.588,0,0,1,2.057,0,1.279,1.279,0,0,1,.409.984,1.261,1.261,0,0,1-.4.971,1.614,1.614,0,0,1-2.065,0A1.261,1.261,0,0,1,142.854,17.752Z" transform="translate(720.982 2900.554)" fill="#00223d"/>
    <path id="Trazado_26779" data-name="Trazado 26779" d="M-640.312-209.44h192.676l3.129,33.375-82.4,45.891-.521,22.946-33.9,17.731-1.564-38.59-81.874-45.891Z" transform="translate(1345.7 2966.71)" fill="#ff8c8c"/>
    <path id="Trazado_716404" data-name="Trazado 716404" d="M28.856,0A28.856,28.856,0,1,1,0,28.856,28.856,28.856,0,0,1,28.856,0Z" transform="translate(629.453 2652.453)" fill="#ffcd69"/>
    <path id="Trazado_716402" data-name="Trazado 716402" d="M28.856,0A28.856,28.856,0,1,1,0,28.856,28.856,28.856,0,0,1,28.856,0Z" transform="translate(770.688 2652.453)" fill="#b3e59f"/>
    <path id="Trazado_716400" data-name="Trazado 716400" d="M28.856,0A28.856,28.856,0,1,1,0,28.856,28.856,28.856,0,0,1,28.856,0Z" transform="translate(911.924 2652.453)" fill="#03ddd7"/>
    <path id="Trazado_26780" data-name="Trazado 26780" d="M-380.783-286.253a35.344,35.344,0,0,0-35.309,35.309,35.342,35.342,0,0,0,29.424,34.779v12.3h-70.617a5.887,5.887,0,0,0-5.885,5.884v17.654h-52.963v-35.838a35.333,35.333,0,0,0,29.424-34.779,35.344,35.344,0,0,0-35.308-35.309,35.344,35.344,0,0,0-35.309,35.309A35.342,35.342,0,0,0-527.9-216.165v35.838h-52.963v-17.654a5.887,5.887,0,0,0-5.884-5.884h-70.618v-12.3a35.334,35.334,0,0,0,29.425-34.779,35.345,35.345,0,0,0-35.309-35.309,35.344,35.344,0,0,0-35.309,35.309,35.342,35.342,0,0,0,29.424,34.779v18.184a5.886,5.886,0,0,0,5.886,5.884h70.617v11.77h-29.424a5.886,5.886,0,0,0-5.884,5.886v35.309a5.888,5.888,0,0,0,2.977,5.119l79.41,45.119v38.033a5.887,5.887,0,0,0,3.107,5.19,5.886,5.886,0,0,0,2.777.7,5.926,5.926,0,0,0,3.266-.989L-501.1-69.5a5.9,5.9,0,0,0,2.618-4.9V-88.893l79.41-45.119a5.887,5.887,0,0,0,2.978-5.119v-35.309a5.887,5.887,0,0,0-5.886-5.886H-451.4V-192.1h70.618a5.886,5.886,0,0,0,5.884-5.884v-18.184a35.333,35.333,0,0,0,29.424-34.779A35.344,35.344,0,0,0-380.783-286.253Zm-306.011,35.309a23.563,23.563,0,0,1,23.539-23.54,23.563,23.563,0,0,1,23.54,23.54,23.563,23.563,0,0,1-23.54,23.539A23.563,23.563,0,0,1-686.794-250.944Zm141.236,0a23.563,23.563,0,0,1,23.539-23.54,23.563,23.563,0,0,1,23.538,23.54A23.563,23.563,0,0,1-522.019-227.4,23.563,23.563,0,0,1-545.559-250.944Zm117.7,82.387v26l-79.41,45.119a5.888,5.888,0,0,0-2.977,5.119v14.771l-23.539,15.7V-92.319a5.887,5.887,0,0,0-2.978-5.119l-79.41-45.119v-26Zm47.079-58.847a23.563,23.563,0,0,1-23.54-23.539,23.563,23.563,0,0,1,23.54-23.54,23.563,23.563,0,0,1,23.538,23.54A23.563,23.563,0,0,1-380.783-227.4Z" transform="translate(1321.564 2932.253)"/>
    <path id="Trazado_716405" data-name="Trazado 716405" d="M18.265,23H15.043L8.769,12.709V23H5.547V7.359H8.769l6.284,10.313V7.359h3.212Z" transform="translate(644.944 2667.943)" fill="#00223d"/>
    <path id="Trazado_716403" data-name="Trazado 716403" d="M14.21,23h-3.1V11.033L7.4,12.183V9.658l6.478-2.32h.333Z" transform="translate(786.699 2667.943)" fill="#00223d"/>
    <path id="Trazado_716401" data-name="Trazado 716401" d="M17.39,23H6.669V20.873l5.06-5.393a12.482,12.482,0,0,0,1.542-1.987,3.193,3.193,0,0,0,.5-1.611,2.389,2.389,0,0,0-.526-1.638,1.9,1.9,0,0,0-1.5-.6,2.049,2.049,0,0,0-1.66.725,2.872,2.872,0,0,0-.607,1.907H6.358a5.128,5.128,0,0,1,.682-2.61A4.808,4.808,0,0,1,8.968,7.816a5.861,5.861,0,0,1,2.825-.671A5.549,5.549,0,0,1,15.548,8.3a4.1,4.1,0,0,1,1.337,3.276,5.259,5.259,0,0,1-.6,2.363,13.133,13.133,0,0,1-2.063,2.8L10.665,20.5H17.39Z" transform="translate(929.337 2667.943)" fill="#00223d"/>
  </g>
</svg>
