<svg xmlns="http://www.w3.org/2000/svg" width="104.789" height="106.436" viewBox="0 0 104.789 106.436">
  <g id="Grupo_16978" data-name="Grupo 16978" transform="translate(-732.386 417.861)">
    <path id="Trazado_26720" data-name="Trazado 26720" d="M827.02-359.554a46.49,46.49,0,0,1-46.49,46.488,46.307,46.307,0,0,1-17.778-3.523,46.535,46.535,0,0,1-28.272-36.575,46.476,46.476,0,0,1-.437-6.389,46.489,46.489,0,0,1,46.488-46.49A46.49,46.49,0,0,1,827.02-359.554Z" transform="translate(-0.002 -0.014)" fill="#adce32"/>
    <path id="Trazado_26721" data-name="Trazado 26721" d="M780.577-406.044a46.951,46.951,0,0,0-7.226.559,46.5,46.5,0,0,1,39.265,45.93,46.5,46.5,0,0,1-39.261,45.927,46.889,46.889,0,0,0,7.222.56,46.49,46.49,0,0,0,46.49-46.488A46.49,46.49,0,0,0,780.577-406.044Z" transform="translate(-0.048 -0.014)" fill="#95b425"/>
    <path id="Trazado_26722" data-name="Trazado 26722" d="M832.866-363l-26.547,17.578a9.04,9.04,0,0,1-6.422,1.392,9.066,9.066,0,0,0-6.436,1.388l-3.553,2.354-19.9-29.327,4.881-21.088a22.007,22.007,0,0,0,.567-4.962A22.016,22.016,0,0,0,771.8-407.82a5.242,5.242,0,0,1-.874-2.9,5.254,5.254,0,0,1,2.356-4.391,5.259,5.259,0,0,1,6.567.608l3.162,3.063a33.814,33.814,0,0,1,8.159,12.505l1.715,4.617,17.657-11.666a6.022,6.022,0,0,1,8.436,1.837,6.1,6.1,0,0,1-1.891,8.272.065.065,0,0,0-.025.083.068.068,0,0,0,.087.034,5.96,5.96,0,0,1,2.152-.4,6.058,6.058,0,0,1,3.281.966,6.009,6.009,0,0,1,1.745,1.73,5.994,5.994,0,0,1,.885,4.493,6.156,6.156,0,0,1-2.524,3.814.129.129,0,0,0-.033.179l0,0a.127.127,0,0,0,.17.033,6.184,6.184,0,0,1,1.461-.172,6.343,6.343,0,0,1,3.4.984,5.91,5.91,0,0,1,1.756,1.723,6.021,6.021,0,0,1-1.7,8.344c-.068.046-.136.092-.2.136a.1.1,0,0,0-.031.118.058.058,0,0,0,.022.022.1.1,0,0,0,.12,0,5.894,5.894,0,0,1,5.108.658,6.1,6.1,0,0,1,1.8,1.783A6.023,6.023,0,0,1,832.866-363Z" transform="translate(-0.044 -0.002)" fill="#fdd7bd"/>
    <path id="Trazado_26723" data-name="Trazado 26723" d="M790.12-334.674l-11.2,7.416-16.169,10.708a46.538,46.538,0,0,1-28.272-36.576l18.763-12.426,11.423-7.564a2.857,2.857,0,0,1,3.96.808l22.3,33.672A2.859,2.859,0,0,1,790.12-334.674Z" transform="translate(-0.002 -0.052)" fill="#ffd947"/>
    <path id="Trazado_26724" data-name="Trazado 26724" d="M790.142-334.674l-11.2,7.416-25.678-38.3,11.423-7.564a2.857,2.857,0,0,1,3.96.808l22.3,33.672A2.859,2.859,0,0,1,790.142-334.674Z" transform="translate(-0.024 -0.052)" fill="#e7c543"/>
    <g id="Grupo_16977" data-name="Grupo 16977" transform="translate(810.057 -396.16)">
      <path id="Trazado_26725" data-name="Trazado 26725" d="M822.631-395.169l-8.833,4.726a2.862,2.862,0,0,1-3.651-.82l6.964-4.507a.067.067,0,0,0,.087.034,5.96,5.96,0,0,1,2.152-.4A6.064,6.064,0,0,1,822.631-395.169Z" transform="translate(-810.148 396.135)" fill="#fac5aa"/>
      <path id="Trazado_26726" data-name="Trazado 26726" d="M827.742-384.091l-8.641,4.621a2.86,2.86,0,0,1-3.65-.819l6.964-4.506.3-.142a.126.126,0,0,0,.17.034,6.193,6.193,0,0,1,1.461-.173A6.335,6.335,0,0,1,827.742-384.091Z" transform="translate(-810.154 396.122)" fill="#fac5aa"/>
      <path id="Trazado_26727" data-name="Trazado 26727" d="M832.822-373.083l-7.611,4.072a2.862,2.862,0,0,1-3.649-.821l6.032-3.9a.1.1,0,0,0,.12,0A5.9,5.9,0,0,1,832.822-373.083Z" transform="translate(-810.161 396.109)" fill="#fac5aa"/>
    </g>
    <path id="Trazado_26728" data-name="Trazado 26728" d="M835.9-372.264a7.617,7.617,0,0,0-4.72-3.249,7.683,7.683,0,0,0-.395-7.807,7.655,7.655,0,0,0-4.719-3.246,7.68,7.68,0,0,0,.726-2.043,7.626,7.626,0,0,0-1.123-5.767,7.619,7.619,0,0,0-4.721-3.25,7.683,7.683,0,0,0-.395-7.807,7.686,7.686,0,0,0-10.639-2.161l-7.641,5.06a47.765,47.765,0,0,0-12.9-4.366,35.492,35.492,0,0,0-4.923-5.956l-3.161-3.064a6.957,6.957,0,0,0-8.634-.8,6.925,6.925,0,0,0-1.948,9.586c.083.126.164.253.245.38a48.154,48.154,0,0,0-26.8,15.654,48.128,48.128,0,0,0-11.763,31.535,48.307,48.307,0,0,0,.453,6.614,48.29,48.29,0,0,0,29.278,37.88,47.859,47.859,0,0,0,18.411,3.648,47.826,47.826,0,0,0,27.957-8.944,48.016,48.016,0,0,0,17.339-22.847,1.654,1.654,0,0,0-.994-2.119,1.655,1.655,0,0,0-2.119.995,44.721,44.721,0,0,1-16.15,21.277,44.53,44.53,0,0,1-26.033,8.327,44.623,44.623,0,0,1-14.154-2.281l13.465-8.917,0,0h0l11.191-7.411h0a4.488,4.488,0,0,0,1.931-2.864,4.483,4.483,0,0,0-.659-3.391l-.148-.224,2.174-1.44a7.369,7.369,0,0,1,5.253-1.135,10.673,10.673,0,0,0,7.605-1.645l18.03-11.94a44.718,44.718,0,0,1-.609,4.649,1.653,1.653,0,0,0,1.325,1.929,1.573,1.573,0,0,0,.3.029,1.656,1.656,0,0,0,1.625-1.353,48.415,48.415,0,0,0,.79-7.527l5.081-3.365a7.622,7.622,0,0,0,3.284-4.871A7.623,7.623,0,0,0,835.9-372.264Zm-36.84-28.142L794-397.058,793-399.74a35.637,35.637,0,0,0-1.42-3.289A44.377,44.377,0,0,1,799.056-400.406Zm-52.407,11.473a44.847,44.847,0,0,1,25.88-14.756,20.448,20.448,0,0,1,1.032,12.384l-4.035,17.432a4.469,4.469,0,0,0-2.385-1.332,4.473,4.473,0,0,0-3.391.659l-11.43,7.568h0l-16.485,10.916c-.09-1.164-.137-2.335-.137-3.506A44.823,44.823,0,0,1,746.649-388.934Zm43.072,52.062a1.2,1.2,0,0,1-.516.765h0l-9.829,6.508L761.134-356.8a1.655,1.655,0,0,0-2.3-.453,1.654,1.654,0,0,0-.451,2.3l18.231,27.19-14.032,9.292a44.97,44.97,0,0,1-26.318-33.963l16.5-10.893,1.9,2.834a1.657,1.657,0,0,0,1.376.733,1.643,1.643,0,0,0,.92-.28,1.654,1.654,0,0,0,.453-2.3l-1.886-2.814,10.044-6.63a1.187,1.187,0,0,1,.9-.176,1.2,1.2,0,0,1,.765.515l22.3,33.674A1.2,1.2,0,0,1,789.721-336.872Zm44.055-30.285a4.337,4.337,0,0,1-1.869,2.771l-5.808,3.847-.006,0-20.732,13.73a7.369,7.369,0,0,1-5.253,1.135,10.68,10.68,0,0,0-7.605,1.645l-2.174,1.439-18.265-27.579,4.721-20.394a23.785,23.785,0,0,0-1.741-15.61,1.613,1.613,0,0,0-.07-.147,23.517,23.517,0,0,0-1.514-2.648,3.611,3.611,0,0,1,1.016-5,3.63,3.63,0,0,1,4.5.417l3.161,3.064a32.354,32.354,0,0,1,7.76,11.893l1.721,4.638.01.024.013.032a.622.622,0,0,0,.036.077,1.588,1.588,0,0,0,.113.2,1.654,1.654,0,0,0,2.293.466l17.651-11.688a4.37,4.37,0,0,1,6.051,1.23,4.372,4.372,0,0,1-1.229,6.052l-1.533,1.015h0l-3.418,2.263-.013.009c-.019.014-.038.027-.054.04a1.653,1.653,0,0,0-.4,2.244,1.656,1.656,0,0,0,2.294.466l3.42-2.266a4.34,4.34,0,0,1,3.278-.636,4.337,4.337,0,0,1,2.771,1.869,4.333,4.333,0,0,1,.639,3.279,4.336,4.336,0,0,1-1.869,2.772l-4.951,3.28a1.653,1.653,0,0,0-.466,2.293,1.655,1.655,0,0,0,1.381.741,1.649,1.649,0,0,0,.912-.276l.766-.507,2.653-1.756a4.371,4.371,0,0,1,6.051,1.23,4.372,4.372,0,0,1-1.23,6.052l-2.473,1.638-.039.026-2.439,1.615a1.653,1.653,0,0,0-.466,2.293,1.651,1.651,0,0,0,1.381.741,1.648,1.648,0,0,0,.912-.275l.766-.507h0l2.652-1.756a4.337,4.337,0,0,1,3.28-.638,4.338,4.338,0,0,1,2.772,1.868A4.342,4.342,0,0,1,833.776-367.156Z" transform="translate(0 0)" fill="#00223d"/>
  </g>
</svg>
