<svg xmlns="http://www.w3.org/2000/svg" width="353.088" height="241.278" viewBox="0 0 353.088 241.278">
  <path id="Trazado_26780" data-name="Trazado 26780" d="M-380.783-286.253a35.344,35.344,0,0,0-35.309,35.309,35.342,35.342,0,0,0,29.424,34.779v12.3h-70.617a5.887,5.887,0,0,0-5.885,5.884v17.654h-52.963v-35.838a35.333,35.333,0,0,0,29.424-34.779,35.344,35.344,0,0,0-35.308-35.309,35.344,35.344,0,0,0-35.309,35.309A35.342,35.342,0,0,0-527.9-216.165v35.838h-52.963v-17.654a5.887,5.887,0,0,0-5.884-5.884h-70.618v-12.3a35.334,35.334,0,0,0,29.425-34.779,35.345,35.345,0,0,0-35.309-35.309,35.344,35.344,0,0,0-35.309,35.309,35.342,35.342,0,0,0,29.424,34.779v18.184a5.886,5.886,0,0,0,5.886,5.884h70.617v11.77h-29.424a5.886,5.886,0,0,0-5.884,5.886v35.309a5.888,5.888,0,0,0,2.977,5.119l79.41,45.119v38.033a5.887,5.887,0,0,0,3.107,5.19,5.886,5.886,0,0,0,2.777.7,5.926,5.926,0,0,0,3.266-.989L-501.1-69.5a5.9,5.9,0,0,0,2.618-4.9V-88.893l79.41-45.119a5.887,5.887,0,0,0,2.978-5.119v-35.309a5.887,5.887,0,0,0-5.886-5.886H-451.4V-192.1h70.618a5.886,5.886,0,0,0,5.884-5.884v-18.184a35.333,35.333,0,0,0,29.424-34.779A35.344,35.344,0,0,0-380.783-286.253Zm-306.011,35.309a23.563,23.563,0,0,1,23.539-23.54,23.563,23.563,0,0,1,23.54,23.54,23.563,23.563,0,0,1-23.54,23.539A23.563,23.563,0,0,1-686.794-250.944Zm141.236,0a23.563,23.563,0,0,1,23.539-23.54,23.563,23.563,0,0,1,23.538,23.54A23.563,23.563,0,0,1-522.019-227.4,23.563,23.563,0,0,1-545.559-250.944Zm117.7,82.387v26l-79.41,45.119a5.888,5.888,0,0,0-2.977,5.119v14.771l-23.539,15.7V-92.319a5.887,5.887,0,0,0-2.978-5.119l-79.41-45.119v-26Zm47.079-58.847a23.563,23.563,0,0,1-23.54-23.539,23.563,23.563,0,0,1,23.54-23.54,23.563,23.563,0,0,1,23.538,23.54A23.563,23.563,0,0,1-380.783-227.4Z" transform="translate(698.564 286.253)"/>
</svg>
