<svg xmlns="http://www.w3.org/2000/svg" width="11.032" height="15.855" viewBox="0 0 11.032 15.855">
  <path id="Trazado_875627" data-name="Trazado 875627" d="M17.39,23H6.669V20.873l5.06-5.393a12.482,12.482,0,0,0,1.542-1.987,3.193,3.193,0,0,0,.5-1.611,2.389,2.389,0,0,0-.526-1.638,1.9,1.9,0,0,0-1.5-.6,2.049,2.049,0,0,0-1.66.725,2.872,2.872,0,0,0-.607,1.907H6.358a5.128,5.128,0,0,1,.682-2.61A4.808,4.808,0,0,1,8.968,7.816a5.861,5.861,0,0,1,2.825-.671A5.549,5.549,0,0,1,15.548,8.3a4.1,4.1,0,0,1,1.337,3.276,5.259,5.259,0,0,1-.6,2.363,13.133,13.133,0,0,1-2.063,2.8L10.665,20.5H17.39Z" transform="translate(-6.358 -7.145)" fill="#00223d"/>
</svg>
