<svg xmlns="http://www.w3.org/2000/svg" width="129.357" height="16.77" viewBox="0 0 129.357 16.77">
  <path id="Trazado_875621" data-name="Trazado 875621" d="M15.936,13.99V19H14.248V6.2h4.72a4.742,4.742,0,0,1,3.292,1.072,3.635,3.635,0,0,1,1.191,2.839,3.587,3.587,0,0,1-1.165,2.87A4.954,4.954,0,0,1,18.95,13.99Zm0-1.38h3.032a3.032,3.032,0,0,0,2.074-.638,2.334,2.334,0,0,0,.721-1.845A2.411,2.411,0,0,0,21.042,8.3a2.84,2.84,0,0,0-1.978-.713H15.936ZM31.123,19a3.416,3.416,0,0,1-.229-1,3.628,3.628,0,0,1-2.707,1.178,3.357,3.357,0,0,1-2.307-.8,2.573,2.573,0,0,1-.9-2.017,2.688,2.688,0,0,1,1.129-2.307,5.325,5.325,0,0,1,3.177-.822h1.582v-.747a1.826,1.826,0,0,0-.51-1.358,2.049,2.049,0,0,0-1.5-.505,2.371,2.371,0,0,0-1.459.439,1.3,1.3,0,0,0-.589,1.063H25.173a2.244,2.244,0,0,1,.505-1.375A3.449,3.449,0,0,1,27.049,9.7a4.613,4.613,0,0,1,1.9-.387,3.759,3.759,0,0,1,2.575.822,2.964,2.964,0,0,1,.967,2.263v4.377a5.351,5.351,0,0,0,.334,2.083V19Zm-2.7-1.239a2.858,2.858,0,0,0,1.45-.4,2.392,2.392,0,0,0,.993-1.028V14.386H29.594q-2.988,0-2.988,1.749a1.48,1.48,0,0,0,.51,1.2A1.959,1.959,0,0,0,28.425,17.761ZM40.58,16.478a1.2,1.2,0,0,0-.5-1.024,4.78,4.78,0,0,0-1.731-.628,8.186,8.186,0,0,1-1.96-.633,2.788,2.788,0,0,1-1.072-.879,2.1,2.1,0,0,1-.347-1.213,2.467,2.467,0,0,1,.989-1.978,3.861,3.861,0,0,1,2.527-.809,3.974,3.974,0,0,1,2.624.835,2.652,2.652,0,0,1,1.006,2.136H40.484a1.468,1.468,0,0,0-.567-1.151,2.124,2.124,0,0,0-1.428-.483,2.223,2.223,0,0,0-1.389.387,1.217,1.217,0,0,0-.5,1.011.986.986,0,0,0,.466.888,5.731,5.731,0,0,0,1.683.571,8.77,8.77,0,0,1,1.973.65,2.878,2.878,0,0,1,1.121.91,2.237,2.237,0,0,1,.365,1.3,2.434,2.434,0,0,1-1.02,2.043,4.277,4.277,0,0,1-2.646.769,4.789,4.789,0,0,1-2.021-.4,3.288,3.288,0,0,1-1.375-1.129,2.722,2.722,0,0,1-.5-1.569h1.626a1.683,1.683,0,0,0,.655,1.3,2.54,2.54,0,0,0,1.613.479,2.622,2.622,0,0,0,1.481-.374A1.148,1.148,0,0,0,40.58,16.478ZM50.2,19a3.416,3.416,0,0,1-.229-1,3.628,3.628,0,0,1-2.707,1.178,3.357,3.357,0,0,1-2.307-.8,2.573,2.573,0,0,1-.9-2.017,2.688,2.688,0,0,1,1.129-2.307,5.325,5.325,0,0,1,3.177-.822h1.582v-.747a1.826,1.826,0,0,0-.51-1.358,2.049,2.049,0,0,0-1.5-.505,2.371,2.371,0,0,0-1.459.439,1.3,1.3,0,0,0-.589,1.063H44.245a2.244,2.244,0,0,1,.505-1.375A3.449,3.449,0,0,1,46.122,9.7a4.613,4.613,0,0,1,1.9-.387,3.759,3.759,0,0,1,2.575.822,2.964,2.964,0,0,1,.967,2.263v4.377a5.351,5.351,0,0,0,.334,2.083V19Zm-2.7-1.239a2.858,2.858,0,0,0,1.45-.4,2.392,2.392,0,0,0,.993-1.028V14.386H48.666q-2.988,0-2.988,1.749a1.48,1.48,0,0,0,.51,1.2A1.959,1.959,0,0,0,47.5,17.761ZM55.653,9.49l.053,1.2a3.465,3.465,0,0,1,2.848-1.371q3.015,0,3.041,3.4V19H59.969V12.707a2.189,2.189,0,0,0-.47-1.521,1.884,1.884,0,0,0-1.437-.492,2.347,2.347,0,0,0-1.389.422,2.865,2.865,0,0,0-.932,1.107V19H54.115V9.49ZM74.339,19H71.8V9.209l-3.032.94V8.084l5.3-1.9h.272Zm4.922,3.208-1.327-.694.316-.571a4.567,4.567,0,0,0,.606-2.136V16.838H81L80.992,18.6a4.566,4.566,0,0,1-.492,1.969A5.047,5.047,0,0,1,79.261,22.208Zm15.627-8.024h1.45v2.048h-1.45V19h-2.54V16.231H87.1l-.114-1.6L92.321,6.2h2.566Zm-5.37,0h2.83V9.666l-.167.29Zm8.947,8.024-1.327-.694.316-.571a4.567,4.567,0,0,0,.606-2.136V16.838h2.145L100.2,18.6a4.566,4.566,0,0,1-.492,1.969A5.047,5.047,0,0,1,98.465,22.208Zm15-16.137V8.163h-.246a4.315,4.315,0,0,0-2.773.9,3.642,3.642,0,0,0-1.261,2.417,3.46,3.46,0,0,1,2.575-1.037,3.26,3.26,0,0,1,2.654,1.2,4.792,4.792,0,0,1,.984,3.146,4.713,4.713,0,0,1-.541,2.259,3.877,3.877,0,0,1-1.529,1.573,4.443,4.443,0,0,1-2.237.563,4.15,4.15,0,0,1-3.265-1.406,5.459,5.459,0,0,1-1.244-3.753V13.1a8.215,8.215,0,0,1,.787-3.678,5.768,5.768,0,0,1,2.259-2.47,6.619,6.619,0,0,1,3.415-.883Zm-2.479,6.416a2.029,2.029,0,0,0-1.116.32,1.929,1.929,0,0,0-.738.847v.772a3.42,3.42,0,0,0,.5,1.987,1.619,1.619,0,0,0,1.406.715,1.6,1.6,0,0,0,1.323-.645,2.63,2.63,0,0,0,.505-1.671,2.625,2.625,0,0,0-.51-1.684A1.661,1.661,0,0,0,110.989,12.487Zm14.054,2.918L126.8,9.49h2.725L125.7,20.477l-.211.5a2.9,2.9,0,0,1-2.812,1.863,4,4,0,0,1-1.125-.167V20.749l.387.009a2.09,2.09,0,0,0,1.077-.22,1.443,1.443,0,0,0,.558-.729l.3-.782L120.543,9.49h2.733Zm18.563-7.784L138.657,19h-2.681l4.957-10.749H134.57V6.2h9.035Z" transform="translate(-14.248 -6.071)" fill="#00223d"/>
</svg>
