<svg xmlns="http://www.w3.org/2000/svg" xmlns:xlink="http://www.w3.org/1999/xlink" width="108" height="108" viewBox="0 0 108 108">
  <defs>
    <filter id="Elipse_5699" x="0" y="0" width="108" height="108" filterUnits="userSpaceOnUse">
      <feOffset dy="3" input="SourceAlpha"/>
      <feGaussianBlur stdDeviation="3" result="blur"/>
      <feFlood flood-opacity="0.161"/>
      <feComposite operator="in" in2="blur"/>
      <feComposite in="SourceGraphic"/>
    </filter>
  </defs>
  <g id="Grupo_1008762" data-name="Grupo 1008762" transform="translate(-171 -2069.893)">
    <g transform="matrix(1, 0, 0, 1, 171, 2069.89)" filter="url(#Elipse_5699)">
      <g id="Elipse_5699-2" data-name="Elipse 5699" transform="translate(9 6)" fill="#fff" stroke="#eff3f6" stroke-width="2">
        <circle cx="45" cy="45" r="45" stroke="none"/>
        <circle cx="45" cy="45" r="44" fill="none"/>
      </g>
    </g>
    <g id="Grupo_1008759" data-name="Grupo 1008759" transform="translate(202 2098.893)">
      <path id="Trazado_26221" data-name="Trazado 26221" d="M764.012,972.028l8.332,10.592,4.534-3.9-7.69-9.988Z" transform="translate(-731.838 -958.936)" fill="#6289fa"/>
      <path id="Trazado_26222" data-name="Trazado 26222" d="M699.318,972.022l-9.147,11.144-4.534-3.9,8.5-10.535Z" transform="translate(-684.736 -958.936)" fill="#6289fa"/>
      <path id="Trazado_26223" data-name="Trazado 26223" d="M732.071,987.578l-8.332-10.592h-6.745l-5.266,1.52-5.582-1.527L697,988.124l4.521,6.092-.478.478a2.283,2.283,0,0,0,2.83,3.546l0,.106a2.283,2.283,0,0,0,3.217,3.239v.009a2.283,2.283,0,0,0,3.228,3.228l.437-.437,0,.041a2.283,2.283,0,0,0,3.228,3.228l1.065-1.065a3.482,3.482,0,0,0,.432-.6,2.339,2.339,0,0,1-.432.6l-.006.006.869.7a2.283,2.283,0,0,0,3.229-3.228l0,0a2.283,2.283,0,0,0,3.228-3.229l0,0a2.283,2.283,0,0,0,3.228-3.228l0,0a2.283,2.283,0,0,0,3.229-3.228Z" transform="translate(-691.564 -963.894)" fill="#fcc89d"/>
      <path id="Trazado_26224" data-name="Trazado 26224" d="M729.133,976.814l-7.69-9.989a.9.9,0,0,0-1.2-.21l-4.965,3.157h-6.475a.9.9,0,0,0-.248.042l-5.02,1.445-5.209-1.425-5.062-3.219a.9.9,0,0,0-1.184.194l-8.5,10.535a.9.9,0,0,0,.114,1.249l4.457,3.836,4,5.389a3.181,3.181,0,0,0,2,5.343,3.225,3.225,0,0,0-.037.487,3.184,3.184,0,0,0,3.184,3.183h.034c0,.021,0,.043,0,.065a3.184,3.184,0,0,0,3.184,3.184,3.261,3.261,0,0,0,.5-.039,3.184,3.184,0,0,0,5.418,1.938l.487-.487.2.164a170.25,170.25,0,0,1,7.7-3.268,3.181,3.181,0,0,1,3.231-3.232,3.179,3.179,0,0,1,3.232-3.231,3.189,3.189,0,0,0,.419-3.985l2.92-6.115,4.39-3.778A.9.9,0,0,0,729.133,976.814Zm-36.153-8.247,3.64,2.314-7.917,9.646-3.173-2.731Zm.514,20.451,1.1-1.1c.034-.033.068-.065.1-.094a1.38,1.38,0,0,1,.751-.3h.023c.039,0,.078-.005.118,0a1.373,1.373,0,0,1,.986.432,1.417,1.417,0,0,1-.061,1.96l-1.065,1.065a1.382,1.382,0,0,1-1.954-1.954Zm2.826,5.607a1.381,1.381,0,0,1,0-1.954l2.13-2.13a1.4,1.4,0,0,1,1.571-.271,1.378,1.378,0,0,1,.761,1.427,1.459,1.459,0,0,1-.412.832l-2.1,2.1a1.382,1.382,0,0,1-1.954,0Zm3.216,3.247a1.381,1.381,0,0,1,0-1.954l2.13-2.13a1.4,1.4,0,0,1,1.671-.219,1.376,1.376,0,0,1,.66,1.4,1.459,1.459,0,0,1-.409.81l-2.1,2.1a1.381,1.381,0,0,1-1.954,0Zm3.663,2.832a1.383,1.383,0,0,1,0-1.954l1.1-1.1a1.381,1.381,0,0,1,.1-.094l0,0a1.372,1.372,0,0,1,.613-.285l.016,0c.039-.007.078-.013.117-.016l.048,0c.032,0,.064,0,.1,0a1.373,1.373,0,0,1,.986.433,1.189,1.189,0,0,1,.089.105,1.425,1.425,0,0,1-.156,1.86l-1.059,1.06A1.383,1.383,0,0,1,703.2,1000.7ZM720,990.651a1.383,1.383,0,0,1-1.954,0,.7.7,0,0,0-.062-.055l-5.792-5.854a.9.9,0,0,0-1.281,1.268l5.855,5.916,0,0a1.382,1.382,0,1,1-1.954,1.954l-3.917-3.958a.9.9,0,0,0-1.281,1.268l3.857,3.9a.9.9,0,0,0,.063.07,1.382,1.382,0,1,1-1.955,1.954l-2.138-2.16a.9.9,0,1,0-1.281,1.267l2.078,2.1a.829.829,0,0,0,.063.071,1.382,1.382,0,0,1-1.954,1.954,1.965,1.965,0,0,0-.2-.163c-.059-.045-.074-.076-.045-.148s.074-.138.1-.211.06-.165.086-.249a3.248,3.248,0,0,0,.117-1.386,3.151,3.151,0,0,0-2.685-2.712,3.213,3.213,0,0,0-.771-2.9,3.16,3.16,0,0,0-2.269-1h-.095a3.153,3.153,0,0,0-3.121-3.248,3.238,3.238,0,0,0-.769.082,3.172,3.172,0,0,0-5.264-1.885l-3.482-4.692,8.33-10.149,2.655.726-3.467,6.119a3.185,3.185,0,0,0,1.2,4.339q.069.039.14.075l.011.005a3.2,3.2,0,0,0,.382.16,3.183,3.183,0,0,0,3.806-1.441l2.254-3.977,4.023.285L720,988.7A1.384,1.384,0,0,1,720,990.651Zm.373-4.129-10.051-10.05a.766.766,0,0,0-.059-.055.9.9,0,0,0-.514-.207l-4.926-.35a.915.915,0,0,0-.847.455l-2.533,4.471a1.382,1.382,0,1,1-2.4-1.363l3.382-5.969,1.371-.395.027-.009,5.115-1.477h6.18l7.715,9.807Zm3.634-6.554-7.134-9.075,3.641-2.316,6.667,8.66Z" transform="translate(-683.379 -957.58)" fill="#00223d"/>
      <path id="Trazado_26225" data-name="Trazado 26225" d="M751.773,958.519a.9.9,0,0,0,.637-.264l6.153-6.153a.9.9,0,0,0-1.274-1.274l-6.153,6.153a.9.9,0,0,0,.637,1.538Z" transform="translate(-723.941 -948.018)" fill="#00223d"/>
      <path id="Trazado_26226" data-name="Trazado 26226" d="M717.5,958.255a.9.9,0,0,0,1.274-1.274l-6.153-6.153a.9.9,0,0,0-1.274,1.274Z" transform="translate(-700.028 -948.018)" fill="#00223d"/>
      <path id="Trazado_26227" data-name="Trazado 26227" d="M739.59,960.118a.9.9,0,0,0,.9-.9v-5.092a.9.9,0,0,0-1.8,0v5.092A.9.9,0,0,0,739.59,960.118Z" transform="translate(-716.619 -949.617)" fill="#00223d"/>
      <path id="Trazado_26228" data-name="Trazado 26228" d="M738.761,945.427a.9.9,0,1,0,.332-1.094A.905.905,0,0,0,738.761,945.427Z" transform="translate(-716.622 -944.184)" fill="#00223d"/>
    </g>
  </g>
</svg>
