<svg xmlns="http://www.w3.org/2000/svg" xmlns:xlink="http://www.w3.org/1999/xlink" width="108" height="108" viewBox="0 0 108 108">
  <defs>
    <filter id="Elipse_5697" x="0" y="0" width="108" height="108" filterUnits="userSpaceOnUse">
      <feOffset dy="3" input="SourceAlpha"/>
      <feGaussianBlur stdDeviation="3" result="blur"/>
      <feFlood flood-opacity="0.161"/>
      <feComposite operator="in" in2="blur"/>
      <feComposite in="SourceGraphic"/>
    </filter>
  </defs>
  <g id="Grupo_1008767" data-name="Grupo 1008767" transform="translate(-591 -1923.893)">
    <g transform="matrix(1, 0, 0, 1, 591, 1923.89)" filter="url(#Elipse_5697)">
      <g id="Elipse_5697-2" data-name="Elipse 5697" transform="translate(9 6)" fill="#fff" stroke="#e1edb5" stroke-width="2">
        <circle cx="45" cy="45" r="45" stroke="none"/>
        <circle cx="45" cy="45" r="44" fill="none"/>
      </g>
    </g>
    <g id="Grupo_1008758" data-name="Grupo 1008758" transform="translate(629 1947.893)">
      <path id="Trazado_26217" data-name="Trazado 26217" d="M262.688-221.26s0,11.086.792,12.669,2.376,7.523,3.96,8.314,3.167,1.188,3.563-2.771a44.632,44.632,0,0,1,.792-5.543l3.167-3.96-.4-1.584a5.134,5.134,0,0,0,2.772-1.188c1.584-1.188-.4-3.959,1.979-5.543a37.237,37.237,0,0,1,3.168-1.98s1.188-9.106,2.771-11.482-2.771-3.958-2.771-3.958-5.939-2.375-6.731-2.771a34.613,34.613,0,0,1-6.334-5.543c-1.584-1.98-3.959-3.168-5.147-3.168s-6.731,3.168-6.731,3.168a40.991,40.991,0,0,1,0,7.127c-.4,1.979-2.771,3.563-2.771,3.563s2.375,3.96,2.375,5.543,3.96,4.355,3.96,4.355l1.584,1.584Z" transform="translate(-253.881 254.208)" fill="#a0c8ff"/>
      <path id="Trazado_26218" data-name="Trazado 26218" d="M268.357-199.6a4.732,4.732,0,0,1-2.044-.609c-1.334-.667-2.3-3.126-3.515-6.527-.325-.909-.632-1.768-.841-2.185-.843-1.686-.886-11.18-.886-13.066v-2.8l-1.269-1.269c-1.087-.767-4.274-3.178-4.274-5.038,0-.921-1.315-3.529-2.249-5.086a.889.889,0,0,1,.269-1.195,6.048,6.048,0,0,0,2.394-3,38.3,38.3,0,0,0-.015-6.884.889.889,0,0,1,.445-.84c1.729-.988,5.886-3.285,7.172-3.285,1.495,0,4.088,1.31,5.841,3.5a34.344,34.344,0,0,0,6.038,5.3c.622.311,5.021,2.084,6.663,2.741.275.1,2.942,1.117,3.55,2.971a2.578,2.578,0,0,1-.37,2.306c-1.205,1.808-2.307,8.628-2.63,11.1a.887.887,0,0,1-.483.68c-.005,0-.806.413-3.072,1.923-.864.577-.9,1.319-.889,2.485a3.358,3.358,0,0,1-1.05,3.029,7.3,7.3,0,0,1-2.216,1.168l.169.677a.893.893,0,0,1-.167.771l-3.04,3.8a51.2,51.2,0,0,0-.729,5.237c-.209,2.074-.752,3.287-1.712,3.816A2.231,2.231,0,0,1,268.357-199.6Zm-5.51-22.387c0,5.346.261,11.4.7,12.272.257.513.567,1.379.925,2.381.6,1.668,1.838,5.137,2.637,5.536.485.243,1.17.544,1.481.372.139-.076.606-.477.8-2.437a44.728,44.728,0,0,1,.814-5.671.888.888,0,0,1,.167-.34l2.892-3.615-.288-1.156a.887.887,0,0,1,.161-.763.888.888,0,0,1,.7-.342,4.521,4.521,0,0,0,2.239-1.01c.32-.239.349-.669.34-1.591-.012-1.2-.027-2.842,1.68-3.98,1.489-.992,2.374-1.531,2.84-1.8.278-2.015,1.354-9.167,2.853-11.415a.818.818,0,0,0,.161-.765c-.266-.815-1.8-1.61-2.5-1.867-.636-.254-6.021-2.41-6.823-2.811A35.388,35.388,0,0,1,268-246.773a7.556,7.556,0,0,0-4.453-2.835,31.439,31.439,0,0,0-5.807,2.776,36.08,36.08,0,0,1-.054,6.8,7.006,7.006,0,0,1-2.481,3.619c.743,1.312,2.1,3.906,2.1,5.313,0,.585,1.707,2.314,3.58,3.627a.906.906,0,0,1,.119.1l1.584,1.584a.884.884,0,0,1,.261.628v3.167Z" transform="translate(-253.152 254.937)" fill="#00223d"/>
      <path id="Trazado_26219" data-name="Trazado 26219" d="M284.136-256.236a7.8,7.8,0,0,0-7.8,7.8c0,4.307,7.8,13.517,7.8,13.517s7.8-9.211,7.8-13.517A7.8,7.8,0,0,0,284.136-256.236Zm0,10.831a3.553,3.553,0,0,1-3.553-3.553,3.552,3.552,0,0,1,3.553-3.552,3.552,3.552,0,0,1,3.552,3.552A3.552,3.552,0,0,1,284.136-245.405Z" transform="translate(-263.607 257.124)" fill="#ffcd69"/>
      <path id="Trazado_26220" data-name="Trazado 26220" d="M283.407-234.762a.89.89,0,0,1-.678-.314c-.82-.969-8.009-9.59-8.009-14.092a8.7,8.7,0,0,1,8.686-8.686,8.7,8.7,0,0,1,8.686,8.686c0,4.5-7.188,13.123-8.009,14.092A.89.89,0,0,1,283.407-234.762Zm0-21.315a6.918,6.918,0,0,0-6.91,6.91c0,2.957,4.495,9.133,6.91,12.122,2.414-2.99,6.91-9.165,6.91-12.122A6.918,6.918,0,0,0,283.407-256.078Zm0,10.831a4.446,4.446,0,0,1-4.441-4.441,4.446,4.446,0,0,1,4.441-4.441,4.446,4.446,0,0,1,4.441,4.441A4.446,4.446,0,0,1,283.407-245.247Zm0-7.1a2.667,2.667,0,0,0-2.665,2.664,2.668,2.668,0,0,0,2.665,2.665,2.668,2.668,0,0,0,2.665-2.665A2.667,2.667,0,0,0,283.407-252.352Z" transform="translate(-262.878 257.854)" fill="#00223d"/>
    </g>
  </g>
</svg>
