<svg xmlns="http://www.w3.org/2000/svg" xmlns:xlink="http://www.w3.org/1999/xlink" width="108" height="108" viewBox="0 0 108 108">
  <defs>
    <filter id="Elipse_5700" x="0" y="0" width="108" height="108" filterUnits="userSpaceOnUse">
      <feOffset dy="3" input="SourceAlpha"/>
      <feGaussianBlur stdDeviation="3" result="blur"/>
      <feFlood flood-opacity="0.161"/>
      <feComposite operator="in" in2="blur"/>
      <feComposite in="SourceGraphic"/>
    </filter>
  </defs>
  <g id="Grupo_1008768" data-name="Grupo 1008768" transform="translate(-591 -2069.893)">
    <g transform="matrix(1, 0, 0, 1, 591, 2069.89)" filter="url(#Elipse_5700)">
      <g id="Elipse_5700-2" data-name="Elipse 5700" transform="translate(9 6)" fill="#fff" stroke="#fff8da" stroke-width="2">
        <circle cx="45" cy="45" r="45" stroke="none"/>
        <circle cx="45" cy="45" r="44" fill="none"/>
      </g>
    </g>
    <g id="Page-1" transform="translate(623 2098.893)">
      <g id="Grupo_16784" data-name="Grupo 16784" transform="translate(0 0)">
        <path id="Shape" d="M1375.793,702.948v11.119a.744.744,0,0,1-.744.744h-41.661a.744.744,0,0,1-.743-.744V702.948a.739.739,0,0,1,.805-.744c2.811.307,3.078,2.192,6.381,2.192,3.594,0,3.594-2.232,7.194-2.232s3.593,2.232,7.186,2.232,3.6-2.232,7.194-2.232S1365,704.4,1368.6,704.4c3.3,0,3.571-1.886,6.388-2.19a.739.739,0,0,1,.805.742Z" transform="translate(-1331.901 -670.918)" fill="sienna"/>
        <path id="Trazado_26245" data-name="Trazado 26245" d="M1399.059,702.228a5.34,5.34,0,0,0-1.526.388.734.734,0,0,1,.1.355V714.09a.744.744,0,0,1-.744.744h2.232a.744.744,0,0,0,.744-.744V702.97a.739.739,0,0,0-.805-.742Z" transform="translate(-1355.972 -670.941)" fill="#783e22"/>
        <path id="Trazado_26246" data-name="Trazado 26246" d="M1344.542,701.275v-7.439" transform="translate(-1336.359 -667.798)" fill="none" stroke="#000" stroke-linejoin="round" stroke-width="2"/>
        <path id="Trazado_26247" data-name="Trazado 26247" d="M1350.374,677.909a5.017,5.017,0,0,0-1.369,3.444v1.778a4.471,4.471,0,0,1-4.464,4.464v-6.7a3.719,3.719,0,0,1,3.719-3.719h1.793a.434.434,0,0,1,.32.729Z" transform="translate(-1336.359 -661.557)" fill="#008a00"/>
        <path id="Trazado_26248" data-name="Trazado 26248" d="M1350.055,677.18h-1.793c-.1,0-.19.021-.287.029a.432.432,0,0,1,.168.7,5.017,5.017,0,0,0-1.369,3.444v1.778a4.463,4.463,0,0,1-2.232,3.862v.6a4.471,4.471,0,0,0,4.464-4.464v-1.778a5.017,5.017,0,0,1,1.369-3.444.434.434,0,0,0-.32-.729Z" transform="translate(-1336.359 -661.557)" fill="#007900"/>
        <path id="Trazado_26249" data-name="Trazado 26249" d="M1340.978,680.9v6.7a4.471,4.471,0,0,1-4.464-4.464v-1.778a5.014,5.014,0,0,0-1.369-3.444.434.434,0,0,1,.32-.729h1.793a3.72,3.72,0,0,1,3.72,3.719Z" transform="translate(-1332.794 -661.557)" fill="#60a917"/>
        <path id="Trazado_26250" data-name="Trazado 26250" d="M1337.43,677.18h-1.793a.435.435,0,0,0-.149.029,3.71,3.71,0,0,1,3.43,3.691v6.094a4.427,4.427,0,0,0,2.232.6v-6.7A3.72,3.72,0,0,0,1337.43,677.18Z" transform="translate(-1332.966 -661.557)" fill="#549414"/>
        <path id="Trazado_26251" data-name="Trazado 26251" d="M1372.979,669.581a5.015,5.015,0,0,0-1.369,3.444V674.8a4.471,4.471,0,0,1-4.464,4.464v-6.7a3.72,3.72,0,0,1,3.72-3.719h1.793a.434.434,0,0,1,.32.729Z" transform="translate(-1344.828 -658.437)" fill="#008a00"/>
        <path id="Trazado_26252" data-name="Trazado 26252" d="M1372.659,668.852h-1.793c-.1,0-.191.021-.287.029a.433.433,0,0,1,.168.7,5.011,5.011,0,0,0-1.369,3.444V674.8a4.465,4.465,0,0,1-2.232,3.862v.6a4.471,4.471,0,0,0,4.464-4.464v-1.778a5.015,5.015,0,0,1,1.369-3.444.434.434,0,0,0-.32-.729Z" transform="translate(-1344.828 -658.437)" fill="#007900"/>
        <path id="Trazado_26253" data-name="Trazado 26253" d="M1363.582,672.571v6.7a4.471,4.471,0,0,1-4.463-4.464v-1.778a5.017,5.017,0,0,0-1.369-3.444.434.434,0,0,1,.32-.729h1.793A3.719,3.719,0,0,1,1363.582,672.571Z" transform="translate(-1341.264 -658.437)" fill="#60a917"/>
        <path id="Trazado_26254" data-name="Trazado 26254" d="M1360.035,668.852h-1.793a.428.428,0,0,0-.149.029,3.71,3.71,0,0,1,3.429,3.691v6.094a4.429,4.429,0,0,0,2.232.6v-6.7A3.719,3.719,0,0,0,1360.035,668.852Z" transform="translate(-1341.436 -658.437)" fill="#549414"/>
        <path id="Trazado_26255" data-name="Trazado 26255" d="M1395.583,677.909a5.017,5.017,0,0,0-1.369,3.444v1.778a4.471,4.471,0,0,1-4.464,4.464v-6.7a3.719,3.719,0,0,1,3.72-3.719h1.793a.433.433,0,0,1,.32.729Z" transform="translate(-1353.297 -661.557)" fill="#008a00"/>
        <path id="Trazado_26256" data-name="Trazado 26256" d="M1395.264,677.18h-1.793c-.1,0-.191.021-.288.029a.432.432,0,0,1,.168.7,5.017,5.017,0,0,0-1.369,3.444v1.778a4.463,4.463,0,0,1-2.232,3.862v.6a4.471,4.471,0,0,0,4.464-4.464v-1.778a5.017,5.017,0,0,1,1.369-3.444.433.433,0,0,0-.32-.729Z" transform="translate(-1353.297 -661.557)" fill="#007900"/>
        <path id="Trazado_26257" data-name="Trazado 26257" d="M1386.186,680.9v6.7a4.47,4.47,0,0,1-4.463-4.464v-1.778a5.017,5.017,0,0,0-1.369-3.444.434.434,0,0,1,.32-.729h1.793a3.719,3.719,0,0,1,3.72,3.719Z" transform="translate(-1349.733 -661.557)" fill="#60a917"/>
        <path id="Trazado_26258" data-name="Trazado 26258" d="M1382.639,677.18h-1.793a.435.435,0,0,0-.149.029,3.71,3.71,0,0,1,3.43,3.691v6.094a4.428,4.428,0,0,0,2.232.6v-6.7A3.72,3.72,0,0,0,1382.639,677.18Z" transform="translate(-1349.905 -661.557)" fill="#549414"/>
        <path id="Trazado_26259" data-name="Trazado 26259" d="M1346.032,666.549v4.836a3.72,3.72,0,0,1-7.439,0v-4.836c0-2.671,1.667-4.836,3.72-4.836S1346.032,663.878,1346.032,666.549Z" transform="translate(-1334.13 -655.762)" fill="#f5b955"/>
        <path id="Trazado_26260" data-name="Trazado 26260" d="M1343.873,661.713a2.946,2.946,0,0,0-1.116.223,4.868,4.868,0,0,1,2.6,4.613v4.836a3.7,3.7,0,0,0-2.6,1.068,2.674,2.674,0,1,0,4.836-1.068v-4.836C1347.593,663.878,1345.926,661.713,1343.873,661.713Z" transform="translate(-1335.69 -655.762)" fill="#fec108"/>
        <path id="Trazado_26261" data-name="Trazado 26261" d="M1367.134,698.155l.007-12.647" transform="translate(-1344.823 -664.677)" fill="none" stroke="#000" stroke-linejoin="round" stroke-width="2"/>
        <path id="Trazado_26262" data-name="Trazado 26262" d="M1389.751,701.275v-7.439" transform="translate(-1353.298 -667.798)" fill="none" stroke="#000" stroke-linejoin="round" stroke-width="2"/>
        <path id="Trazado_26263" data-name="Trazado 26263" d="M1391.242,666.549v4.836a3.72,3.72,0,0,1-7.44,0v-4.836c0-2.671,1.667-4.836,3.72-4.836S1391.242,663.878,1391.242,666.549Z" transform="translate(-1351.069 -655.762)" fill="#f5b955"/>
        <path id="Trazado_26264" data-name="Trazado 26264" d="M1389.082,661.713a2.948,2.948,0,0,0-1.116.223,4.868,4.868,0,0,1,2.6,4.613v4.836a3.705,3.705,0,0,0-2.6,1.068,2.674,2.674,0,1,0,4.836-1.068v-4.836C1392.8,663.878,1391.136,661.713,1389.082,661.713Z" transform="translate(-1352.629 -655.762)" fill="#fec108"/>
        <path id="Trazado_26265" data-name="Trazado 26265" d="M1368.637,658.221v4.836a3.72,3.72,0,0,1-7.439,0v-4.836c0-2.671,1.667-4.836,3.719-4.836S1368.637,655.55,1368.637,658.221Z" transform="translate(-1342.599 -652.641)" fill="#f5b955"/>
        <path id="Trazado_26266" data-name="Trazado 26266" d="M1366.478,653.385a2.943,2.943,0,0,0-1.115.223,4.866,4.866,0,0,1,2.6,4.613v4.836a3.7,3.7,0,0,0-2.6,1.068,2.674,2.674,0,1,0,4.835-1.068v-4.836C1370.2,655.55,1368.531,653.385,1366.478,653.385Z" transform="translate(-1344.159 -652.641)" fill="#fec108"/>
        <path id="Trazado_26267" data-name="Trazado 26267" d="M1332.943,696.833H1374.6a1.488,1.488,0,0,0,1.488-1.488V684.225a1.483,1.483,0,0,0-1.63-1.481c-2.822.3-3.293,1.989-5.81,2.167v-5.992a5.207,5.207,0,0,0,4.463-5.148v-1.785a4.242,4.242,0,0,1,1.165-2.927,1.18,1.18,0,0,0-.862-1.983h-1.047v-4.091c0-3.077-2-5.58-4.464-5.58s-4.463,2.5-4.463,5.58v4.091H1362.4a1.18,1.18,0,0,0-.864,1.987c1.362,1.44,1.167,2.876,1.167,4.709a5.208,5.208,0,0,0,4.464,5.148v5.937c-2.339-.372-2.766-2.157-6.2-2.157-3.58,0-3.847,1.9-6.449,2.188l.007-11.175a5.206,5.206,0,0,0,4.464-5.148v-1.785a4.246,4.246,0,0,1,1.165-2.927,1.18,1.18,0,0,0-.861-1.983h-1.047v-4.091c0-3.077-2-5.58-4.464-5.58s-4.463,2.5-4.463,5.58v4.091h-1.047a1.18,1.18,0,0,0-.863,1.987c1.361,1.44,1.166,2.876,1.166,4.709a5.208,5.208,0,0,0,4.464,5.148l-.006,11.175c-2.576-.29-2.906-2.188-6.444-2.188-3.474,0-3.853,1.785-6.2,2.157v-5.937a5.208,5.208,0,0,0,4.464-5.148v-1.785a4.241,4.241,0,0,1,1.165-2.927,1.18,1.18,0,0,0-.862-1.983H1344.1v-4.091c0-3.077-2-5.58-4.464-5.58s-4.464,2.5-4.464,5.58v4.091h-1.047a1.18,1.18,0,0,0-.863,1.987c1.361,1.44,1.167,2.876,1.167,4.709a5.207,5.207,0,0,0,4.464,5.148v5.992c-2.54-.176-2.96-1.86-5.809-2.167a1.484,1.484,0,0,0-1.63,1.481v11.119A1.488,1.488,0,0,0,1332.943,696.833Zm38.686-23.063a3.726,3.726,0,0,1-2.976,3.646v-5.877a2.976,2.976,0,0,1,2.976-2.976h1.133C1371.462,670.31,1371.628,671.82,1371.628,673.77Zm-3.72-14.879c1.641,0,2.976,1.835,2.976,4.092v4.158a3.256,3.256,0,0,1-5.952,0v-4.158C1364.932,660.727,1366.267,658.891,1367.908,658.891Zm-3.72,14.879c0-1.972.171-3.452-1.133-5.208h1.133a2.976,2.976,0,0,1,2.976,2.976v5.877A3.727,3.727,0,0,1,1364.188,673.77Zm-6.7-5.208a3.726,3.726,0,0,1-2.976,3.646v-5.877a2.976,2.976,0,0,1,2.976-2.976h1.133C1357.327,665.1,1357.493,666.612,1357.493,668.562Zm-3.72-14.879c1.641,0,2.976,1.835,2.976,4.092v4.158a3.257,3.257,0,0,1-5.952,0v-4.158C1350.8,655.519,1352.132,653.684,1353.773,653.684Zm-3.719,14.879c0-1.972.171-3.452-1.133-5.208h1.133a2.976,2.976,0,0,1,2.976,2.976v5.877A3.726,3.726,0,0,1,1350.054,668.562Zm-6.7,5.208a3.726,3.726,0,0,1-2.976,3.646v-5.877a2.976,2.976,0,0,1,2.976-2.976h1.133C1343.192,670.31,1343.358,671.82,1343.358,673.77Zm-3.719-14.879c1.641,0,2.976,1.835,2.976,4.092v4.158a3.256,3.256,0,0,1-5.952,0v-4.158C1336.663,660.727,1338,658.891,1339.638,658.891Zm-3.72,14.879c0-1.972.171-3.452-1.133-5.208h1.133a2.976,2.976,0,0,1,2.976,2.976v5.877A3.726,3.726,0,0,1,1335.918,673.77Zm3.72,12.648c.022,0,.043-.008.064-.014a6.717,6.717,0,0,0,3.668-1.213,5.232,5.232,0,0,1,3.208-1.005c3.223,0,3.409,2.232,7.186,2.232s3.966-2.232,7.194-2.232c3.157,0,3.348,2.092,6.886,2.219a.517.517,0,0,0,.063.013c4.023,0,4-1.892,6.7-2.2v11.126h-41.661l-.018-11.122C1335.615,684.515,1335.621,686.418,1339.638,686.418Z" transform="translate(-1331.455 -652.196)" fill="#00223d"/>
        <path id="Trazado_26268" data-name="Trazado 26268" d="M1352.424,708.627a.728.728,0,0,0,.2-.028,5.631,5.631,0,0,1,1.533-.189,6.037,6.037,0,0,1,1.108.093.744.744,0,1,0,.268-1.464,7.584,7.584,0,0,0-1.376-.116,7.066,7.066,0,0,0-1.934.245.744.744,0,0,0,.2,1.46Z" transform="translate(-1339.033 -672.701)" fill="#00223d"/>
        <path id="Trazado_26269" data-name="Trazado 26269" d="M1369.08,712.2a.756.756,0,0,0,.2-.027,5.61,5.61,0,0,1,1.533-.19,6.109,6.109,0,0,1,1.109.093.744.744,0,1,0,.268-1.464,7.519,7.519,0,0,0-1.376-.117,7.085,7.085,0,0,0-1.934.245.744.744,0,0,0,.2,1.461Z" transform="translate(-1345.274 -674.038)" fill="#00223d"/>
        <path id="Trazado_26270" data-name="Trazado 26270" d="M1382.167,711.007a.758.758,0,0,0,.2-.028,5.584,5.584,0,0,1,1.533-.189,6.092,6.092,0,0,1,1.108.093.744.744,0,0,0,.268-1.464,7.527,7.527,0,0,0-1.376-.117,7.1,7.1,0,0,0-1.935.245.744.744,0,0,0,.2,1.461Z" transform="translate(-1350.177 -673.592)" fill="#00223d"/>
        <path id="Trazado_26271" data-name="Trazado 26271" d="M1339.337,712.2a.758.758,0,0,0,.2-.027,5.61,5.61,0,0,1,1.533-.19,6.109,6.109,0,0,1,1.109.093.744.744,0,0,0,.268-1.464,7.52,7.52,0,0,0-1.376-.117,7.085,7.085,0,0,0-1.934.245.744.744,0,0,0,.2,1.461Z" transform="translate(-1334.129 -674.038)" fill="#00223d"/>
        <path id="Trazado_26272" data-name="Trazado 26272" d="M1378.6,716.956a.759.759,0,0,0,.2-.028,5.631,5.631,0,0,1,1.533-.189,6.1,6.1,0,0,1,1.108.093.744.744,0,0,0,.268-1.464,7.589,7.589,0,0,0-1.376-.116,7.066,7.066,0,0,0-1.935.245.744.744,0,0,0,.2,1.461Z" transform="translate(-1348.84 -675.821)" fill="#00223d"/>
        <path id="Trazado_26273" data-name="Trazado 26273" d="M1390.495,715.418a.728.728,0,0,0,.2-.027,5.631,5.631,0,0,1,1.533-.189,6.092,6.092,0,0,1,1.108.093.744.744,0,0,0,.268-1.464,7.573,7.573,0,0,0-1.376-.116,7.068,7.068,0,0,0-1.935.245.744.744,0,0,0,.2,1.46Z" transform="translate(-1353.297 -675.245)" fill="#00223d"/>
        <path id="Trazado_26274" data-name="Trazado 26274" d="M1357.656,715.223a.744.744,0,0,0,.917.516,5.607,5.607,0,0,1,1.532-.19,6.161,6.161,0,0,1,1.109.093.744.744,0,1,0,.268-1.464,7.526,7.526,0,0,0-1.376-.117,7.084,7.084,0,0,0-1.934.245.744.744,0,0,0-.515.917Z" transform="translate(-1341.262 -675.376)" fill="#00223d"/>
        <path id="Trazado_26275" data-name="Trazado 26275" d="M1344.569,716.412a.743.743,0,0,0,.917.515,5.628,5.628,0,0,1,1.532-.189,6.1,6.1,0,0,1,1.109.093.744.744,0,0,0,.268-1.464,7.578,7.578,0,0,0-1.376-.116,7.064,7.064,0,0,0-1.934.245.744.744,0,0,0-.515.917Z" transform="translate(-1336.358 -675.821)" fill="#00223d"/>
      </g>
    </g>
  </g>
</svg>
