<svg xmlns="http://www.w3.org/2000/svg" xmlns:xlink="http://www.w3.org/1999/xlink" width="108" height="108" viewBox="0 0 108 108">
  <defs>
    <filter id="Elipse_5707" x="0" y="0" width="108" height="108" filterUnits="userSpaceOnUse">
      <feOffset dy="3" input="SourceAlpha"/>
      <feGaussianBlur stdDeviation="3" result="blur"/>
      <feFlood flood-opacity="0.161"/>
      <feComposite operator="in" in2="blur"/>
      <feComposite in="SourceGraphic"/>
    </filter>
  </defs>
  <g id="Grupo_1008776" data-name="Grupo 1008776" transform="translate(-1011 -2361.893)">
    <g transform="matrix(1, 0, 0, 1, 1011, 2361.89)" filter="url(#Elipse_5707)">
      <g id="Elipse_5707-2" data-name="Elipse 5707" transform="translate(9 6)" fill="#fff" stroke="#eff3f6" stroke-width="2">
        <circle cx="45" cy="45" r="45" stroke="none"/>
        <circle cx="45" cy="45" r="44" fill="none"/>
      </g>
    </g>
    <g id="Grupo_1008749" data-name="Grupo 1008749" transform="translate(1041 2389.893)">
      <path id="Trazado_26017" data-name="Trazado 26017" d="M1532.581-208.613h20.875v10.2h-20.875Z" transform="translate(-1522.897 228.504)" fill="#fea02c"/>
      <path id="Trazado_26018" data-name="Trazado 26018" d="M1544.691-197.485V-200.6h-4.058v1.788Z" transform="translate(-1527.813 223.612)" fill="#ff5d5d"/>
      <path id="Trazado_26019" data-name="Trazado 26019" d="M1519.128-178.657a42.529,42.529,0,0,1,13.3-13.622l.2-.287a42.547,42.547,0,0,0-22.553-6.466v22.677h7.639Z" transform="translate(-1509.161 222.653)" fill="#62cd4d"/>
      <path id="Trazado_26020" data-name="Trazado 26020" d="M1529.7-176.379l1.406-2.3a42.564,42.564,0,0,1,36.332-20.39v22.692Z" transform="translate(-1521.137 222.678)" fill="#a0e557"/>
      <path id="Trazado_26021" data-name="Trazado 26021" d="M1532.581-216.758l5.165-5.2,5.165,5.2Z" transform="translate(-1522.897 236.649)" fill="#fe8f8d"/>
      <path id="Trazado_26022" data-name="Trazado 26022" d="M1561.553-216.758l-5.165-5.2h-10.545l5.165,5.2Z" transform="translate(-1530.994 236.649)" fill="#ff5d5d"/>
      <g id="Grupo_16672" data-name="Grupo 16672" transform="translate(0.922 0.922)">
        <path id="Trazado_26023" data-name="Trazado 26023" d="M1596.1-237.272c-6.885-5.536-6.885-14.511,0-20.047C1602.985-251.783,1602.985-242.808,1596.1-237.272Z" transform="translate(-1559.448 257.319)" fill="#a0e557"/>
        <path id="Trazado_26024" data-name="Trazado 26024" d="M1516.751-233.677c-5.205-4.185-5.205-10.971,0-15.156C1521.956-244.648,1521.956-237.862,1516.751-233.677Z" transform="translate(-1511.771 252.138)" fill="#a0e557"/>
        <path id="Trazado_26025" data-name="Trazado 26025" d="M1526.706-177.245a35.666,35.666,0,0,0-16.623-4.143v7.424a28.177,28.177,0,0,1,11.515,2.478" transform="translate(-1510.083 210.959)" fill="#a0e557"/>
      </g>
      <path id="Trazado_26026" data-name="Trazado 26026" d="M1550.472-165.607a35.927,35.927,0,0,1,29.648-15.821V-174a28.461,28.461,0,0,0-20.088,8.4Z" transform="translate(-1533.82 211.906)" fill="#62cd4d"/>
      <path id="Trazado_26027" data-name="Trazado 26027" d="M1593.661-164.732a29.471,29.471,0,0,0-20.742,8.669.922.922,0,0,0,0,1.3.918.918,0,0,0,.651.269.92.92,0,0,0,.654-.272,27.615,27.615,0,0,1,19.434-8.125.923.923,0,0,0,.922-.923A.923.923,0,0,0,1593.661-164.732Z" transform="translate(-1547.361 201.712)" fill="#00223d"/>
      <path id="Trazado_26028" data-name="Trazado 26028" d="M1559.441-167.562a.922.922,0,0,0-1.28-.248,36.4,36.4,0,0,0-9.9,9.907.923.923,0,0,0,.251,1.28.919.919,0,0,0,.513.157.923.923,0,0,0,.767-.409,34.555,34.555,0,0,1,9.4-9.407A.923.923,0,0,0,1559.441-167.562Z" transform="translate(-1532.374 203.688)" fill="#00223d"/>
      <path id="Trazado_26029" data-name="Trazado 26029" d="M1606.619-183.8a36.271,36.271,0,0,0-12.13,2.094.922.922,0,0,0-.562,1.177.923.923,0,0,0,.87.615.918.918,0,0,0,.307-.053,34.433,34.433,0,0,1,11.515-1.988.922.922,0,0,0,.923-.922A.922.922,0,0,0,1606.619-183.8Z" transform="translate(-1560.319 213.352)" fill="#00223d"/>
      <path id="Trazado_26030" data-name="Trazado 26030" d="M1520.929-218.794a42.038,42.038,0,0,1,24.543-15.463h.005a41.113,41.113,0,0,1,8.537-.9.923.923,0,0,0,.923-.922.923.923,0,0,0-.923-.922,43.415,43.415,0,0,0-7.8.709v-1.991a13.659,13.659,0,0,0,5.163-10.458,13.757,13.757,0,0,0-5.508-10.742.922.922,0,0,0-1.156,0,13.758,13.758,0,0,0-5.508,10.742,13.661,13.661,0,0,0,5.163,10.458v2.368a43.636,43.636,0,0,0-5.17,1.519v-5.4a.919.919,0,0,0-.268-.65h0l-5.165-5.2a.924.924,0,0,0-.654-.272h-10.545a.923.923,0,0,0-.654.272l-5.165,5.2h0a.919.919,0,0,0-.268.65v3.522q-.964-.176-1.937-.31v-3.288a10.528,10.528,0,0,0,3.9-8.01,10.624,10.624,0,0,0-4.248-8.3.923.923,0,0,0-1.156,0,10.623,10.623,0,0,0-4.249,8.3,10.527,10.527,0,0,0,3.9,8.009v3.076q-2.017-.189-4.058-.19a.922.922,0,0,0-.922.922.922.922,0,0,0,.922.922,41.6,41.6,0,0,1,20.947,5.653,43.525,43.525,0,0,0-4.357,3.384,36.693,36.693,0,0,0-16.591-4.01.922.922,0,0,0-.922.922.922.922,0,0,0,.922.922,34.819,34.819,0,0,1,15.141,3.505,43.638,43.638,0,0,0-3.922,4.342,28.845,28.845,0,0,0-11.219-2.267.922.922,0,0,0-.922.922.922.922,0,0,0,.922.922,26.989,26.989,0,0,1,10.07,1.947q-.957,1.328-1.812,2.729l-1.406,2.3a.923.923,0,0,0,.307,1.268.918.918,0,0,0,.48.136.922.922,0,0,0,.788-.442l1.405-2.3a40.914,40.914,0,0,1,2.369-3.465A.865.865,0,0,0,1520.929-218.794Zm20.119-29.947a11.769,11.769,0,0,1,4.241-8.817,11.769,11.769,0,0,1,4.241,8.817,11.482,11.482,0,0,1-3.319,7.922v-7.063a.922.922,0,0,0-.922-.922.922.922,0,0,0-.922.922v7.063A11.479,11.479,0,0,1,1541.048-248.741Zm-30.412.86a8.63,8.63,0,0,1,2.982-6.362,8.63,8.63,0,0,1,2.982,6.362,8.338,8.338,0,0,1-2.059,5.4v-6.137a.922.922,0,0,0-.923-.922.922.922,0,0,0-.922.922v6.137A8.339,8.339,0,0,1,1510.636-247.881Zm25.421,7.163h-7.944l-3.331-3.351h7.944Zm-13.493-2.965,2.948,2.965h-5.9Zm-4.243,4.81h8.485v5.865q-.642-.295-1.292-.569v-3.1a.922.922,0,0,0-.922-.922h-4.058a.923.923,0,0,0-.922.922v1.1q-.643-.168-1.291-.316Zm5.349,4.568q-1.1-.4-2.214-.749v-.7h2.214Zm4.98,2.2v-6.768h8.7v5.194a43.358,43.358,0,0,0-4.62,2.242q-.718.4-1.418.833Q1530.005-231.4,1528.651-232.106Z" transform="translate(-1507.715 259.687)" fill="#00223d"/>
      <path id="Trazado_26031" data-name="Trazado 26031" d="M1583.215-173.607a.931.931,0,0,0-.27.652.928.928,0,0,0,.27.652.928.928,0,0,0,.652.27.926.926,0,0,0,.652-.27.928.928,0,0,0,.27-.652.929.929,0,0,0-.27-.652.926.926,0,0,0-.652-.271A.929.929,0,0,0,1583.215-173.607Z" transform="translate(-1553.647 207.296)" fill="#00223d"/>
    </g>
  </g>
</svg>
