<svg xmlns="http://www.w3.org/2000/svg" xmlns:xlink="http://www.w3.org/1999/xlink" width="108" height="108" viewBox="0 0 108 108">
  <defs>
    <filter id="Elipse_5703" x="0" y="0" width="108" height="108" filterUnits="userSpaceOnUse">
      <feOffset dy="3" input="SourceAlpha"/>
      <feGaussianBlur stdDeviation="3" result="blur"/>
      <feFlood flood-opacity="0.161"/>
      <feComposite operator="in" in2="blur"/>
      <feComposite in="SourceGraphic"/>
    </filter>
  </defs>
  <g id="Grupo_1008775" data-name="Grupo 1008775" transform="translate(-1011 -2215.893)">
    <g transform="matrix(1, 0, 0, 1, 1011, 2215.89)" filter="url(#Elipse_5703)">
      <g id="Elipse_5703-2" data-name="Elipse 5703" transform="translate(9 6)" fill="#fff" stroke="#fff8da" stroke-width="2">
        <circle cx="45" cy="45" r="45" stroke="none"/>
        <circle cx="45" cy="45" r="44" fill="none"/>
      </g>
    </g>
    <g id="Grupo_1008745" data-name="Grupo 1008745" transform="translate(1042 2244.893)">
      <g id="Grupo_16650" data-name="Grupo 16650" transform="translate(27.047 9.786)">
        <path id="Trazado_25981" data-name="Trazado 25981" d="M423.38-243.234c-3.608,0-6.44,2.64-6.44,8.22,2.5.656,5.084.276,6.44-2.405,1.356,2.681,3.94,3.062,6.44,2.405C429.82-240.594,427.231-243.234,423.38-243.234Z" transform="translate(-416.94 243.234)" fill="#ffcd69" fill-rule="evenodd"/>
      </g>
      <g id="Grupo_16651" data-name="Grupo 16651" transform="translate(0.901 28.338)">
        <path id="Trazado_25982" data-name="Trazado 25982" d="M359.691-180.849h10.86v-7.88c-.076-4.8-4.7-5.056-8.084-6.174a2.783,2.783,0,0,1-2.776,2.776,2.785,2.785,0,0,1-2.778-2.776c-3.386,1.118-8.006,1.371-8.085,6.174v7.88h10.863Z" transform="translate(-348.828 194.904)" fill="#ff7b79" fill-rule="evenodd"/>
      </g>
      <g id="Grupo_16652" data-name="Grupo 16652" transform="translate(22.624 28.338)">
        <path id="Trazado_25983" data-name="Trazado 25983" d="M410.242-180.849h16.9v-7.88a4.68,4.68,0,0,0-2.806-4.471,38.987,38.987,0,0,0-5.278-1.7,2.786,2.786,0,0,1-2.778,2.776,2.783,2.783,0,0,1-2.776-2.776,39.024,39.024,0,0,0-5.281,1.7,4.681,4.681,0,0,0-2.806,4.471v7.88Z" transform="translate(-405.418 194.904)" fill="#a0c8ff" fill-rule="evenodd"/>
      </g>
      <g id="Grupo_16653" data-name="Grupo 16653" transform="translate(8.986 26.515)">
        <path id="Trazado_25984" data-name="Trazado 25984" d="M369.889-197.831a2.785,2.785,0,0,0,2.778,2.776,2.783,2.783,0,0,0,2.776-2.776v-1.823l-.133.056a6.721,6.721,0,0,1-2.643.536,6.724,6.724,0,0,1-2.646-.536c-.043-.018-.087-.038-.133-.056Z" transform="translate(-369.889 199.654)" fill="#ffd0c7" fill-rule="evenodd"/>
      </g>
      <g id="Grupo_16654" data-name="Grupo 16654" transform="translate(36.265 19.896)">
        <path id="Trazado_25985" data-name="Trazado 25985" d="M446.233-206.751a38.993,38.993,0,0,0-5.278-1.7v-2.636a6.458,6.458,0,0,0,3.662-5.807c0,4.16,3.023,5.968,5.3,6.718-.577,2.329-1.476,3.113-3.679,3.427Z" transform="translate(-440.955 216.897)" fill="#ffcd69" fill-rule="evenodd"/>
      </g>
      <g id="Grupo_16655" data-name="Grupo 16655" transform="translate(21.753 19.929)">
        <path id="Trazado_25986" data-name="Trazado 25986" d="M412.108-208.4a39.026,39.026,0,0,0-5.281,1.7c-2.2-.314-3.1-1.1-3.677-3.427,2.265-.748,5.278-2.548,5.294-6.685a6.467,6.467,0,0,0,3.664,5.776Z" transform="translate(-403.15 216.811)" fill="#ffcd69" fill-rule="evenodd"/>
      </g>
      <g id="Grupo_16656" data-name="Grupo 16656" transform="translate(27.041 15.601)">
        <path id="Trazado_25987" data-name="Trazado 25987" d="M426.149-217.984a6.383,6.383,0,0,1-2.778.633,6.4,6.4,0,0,1-2.776-.631,6.464,6.464,0,0,1-3.664-5.774c-.013-2.536,0,0,0,0v-1.923c2.5.656,5.084.276,6.44-2.405,1.356,2.681,3.94,3.062,6.44,2.405v1.89a6.458,6.458,0,0,1-3.662,5.807Z" transform="translate(-416.925 228.086)" fill="#ffdcd5" fill-rule="evenodd"/>
      </g>
      <g id="Grupo_16657" data-name="Grupo 16657" transform="translate(4.941 16.676)">
        <path id="Trazado_25988" data-name="Trazado 25988" d="M359.352-221.675v-1.747c1.928-.194,3.5-.314,4.68-1.864,2.347,1.606,5.654,2.053,8.963,1.821v1.79a6.842,6.842,0,0,1-4.178,6.284,6.722,6.722,0,0,1-2.643.536,6.724,6.724,0,0,1-2.646-.536,6.842,6.842,0,0,1-4.178-6.284Z" transform="translate(-359.352 225.286)" fill="#ffdcd5" fill-rule="evenodd"/>
      </g>
      <g id="Grupo_16658" data-name="Grupo 16658" transform="translate(4.941 9.886)">
        <path id="Trazado_25989" data-name="Trazado 25989" d="M359.352-236.151a6.842,6.842,0,0,1,6.823-6.824,6.842,6.842,0,0,1,6.82,6.824v1.787c-3.31.233-6.616-.214-8.963-1.821-1.18,1.55-2.753,1.67-4.68,1.864Z" transform="translate(-359.352 242.975)" fill="#ffcd69" fill-rule="evenodd"/>
      </g>
      <g id="Grupo_16659" data-name="Grupo 16659" transform="translate(30.711 25.703)">
        <path id="Trazado_25990" data-name="Trazado 25990" d="M432.037-199.134a2.783,2.783,0,0,1-2.776,2.776,2.783,2.783,0,0,1-2.776-2.776v-2.633a6.4,6.4,0,0,0,2.776.631,6.38,6.38,0,0,0,2.778-.633Z" transform="translate(-426.486 201.77)" fill="#ffd0c7" fill-rule="evenodd"/>
      </g>
      <g id="Grupo_16660" data-name="Grupo 16660" transform="translate(17.844 29.496)">
        <path id="Trazado_25991" data-name="Trazado 25991" d="M402.694-190.263a8.089,8.089,0,0,0-9.729,0v.375a4.876,4.876,0,0,0,2.306,4.134,4.841,4.841,0,0,0,2.559.73,4.831,4.831,0,0,0,2.556-.73,4.878,4.878,0,0,0,2.309-4.134v-.375Z" transform="translate(-392.965 191.889)" fill="#ffdcd5" fill-rule="evenodd"/>
      </g>
      <g id="Grupo_16661" data-name="Grupo 16661" transform="translate(17.844 25.358)">
        <path id="Trazado_25992" data-name="Trazado 25992" d="M397.83-202.668a4.864,4.864,0,0,0-4.865,4.865v.9a8.089,8.089,0,0,1,9.729,0v-.884a4.867,4.867,0,0,0-4.864-4.88Z" transform="translate(-392.965 202.668)" fill="#ffcd69" fill-rule="evenodd"/>
      </g>
      <g id="Grupo_16662" data-name="Grupo 16662" transform="translate(20.149 35.631)">
        <path id="Trazado_25993" data-name="Trazado 25993" d="M404.087-175.9a4.832,4.832,0,0,1-2.556.73,4.841,4.841,0,0,1-2.559-.73v1.974a2.5,2.5,0,0,0,2.487,2.487,2.492,2.492,0,0,0,2.628-2.487V-175.9Z" transform="translate(-398.972 175.905)" fill="#ffd0c7" fill-rule="evenodd"/>
      </g>
      <g id="Grupo_16663" data-name="Grupo 16663" transform="translate(13.983 37.605)">
        <path id="Trazado_25994" data-name="Trazado 25994" d="M394.189-170.763a2.492,2.492,0,0,1-2.628,2.487,2.5,2.5,0,0,1-2.487-2.487c-3.034,1-6.1,1.228-6.167,5.528v1.448h17.449v-1.448c-.069-4.3-3.133-4.527-6.167-5.528Z" transform="translate(-382.907 170.763)" fill="#d5ea7a" fill-rule="evenodd"/>
      </g>
      <g id="Grupo_16664" data-name="Grupo 16664" transform="translate(17.422 0.901)">
        <path id="Trazado_25995" data-name="Trazado 25995" d="M402.337-261.109a3.077,3.077,0,0,0,.079-4.339,3.078,3.078,0,0,0-4.338-.076l-.508.49-.508-.49a3.079,3.079,0,0,0-4.338.076,3.079,3.079,0,0,0,.079,4.339l4.768,4.6Z" transform="translate(-391.868 266.381)" fill="#ff7b79" fill-rule="evenodd"/>
      </g>
      <g id="Grupo_16665" data-name="Grupo 16665" transform="translate(0 0)">
        <path id="Trazado_25996" data-name="Trazado 25996" d="M371.743-211.6a.9.9,0,0,0-.648.275.9.9,0,0,0,.022,1.274,3.1,3.1,0,0,0,4.273,0,.9.9,0,0,0,.021-1.274.9.9,0,0,0-1.274-.021,1.284,1.284,0,0,1-1.769,0,.9.9,0,0,0-.626-.253Z" transform="translate(-361.49 233.527)" fill="#00223d"/>
        <path id="Trazado_25997" data-name="Trazado 25997" d="M392.578-227.635a.9.9,0,0,0-.592-1.072c-2.134-.705-4.678-2.294-4.678-5.863v-1.89a10.372,10.372,0,0,0-1.984-6.778,6.705,6.705,0,0,0-5.357-2.343,6.686,6.686,0,0,0-5.258,2.334,10.314,10.314,0,0,0-2.083,6.787v1.89a5.5,5.5,0,0,1-2.309,4.674,5.761,5.761,0,0,0-1.129-.112,5.773,5.773,0,0,0-5.394,3.733c-.24-.068-1.5-.407-1.873-.516v-.6a7.728,7.728,0,0,0,4.044-6.788v-3.578a7.731,7.731,0,0,0-7.721-7.724,7.733,7.733,0,0,0-7.724,7.724v3.578a7.727,7.727,0,0,0,4.044,6.788v.6c-.372.109-.758.213-1.159.322-3.051.823-6.849,1.846-6.926,6.5v7.895a.9.9,0,0,0,.9.9h12.181v1.287a.9.9,0,0,0,.9.9h4.675a.9.9,0,0,0,.9-.9.9.9,0,0,0-.9-.9h-3.774v-.54a5.246,5.246,0,0,1,.255-1.649c.567-1.623,2.033-2.056,4.03-2.645l.284-.084a3.394,3.394,0,0,0,3.184,2.229,3.433,3.433,0,0,0,3.331-2.228l.277.082c2.55.752,4.234,1.249,4.285,4.294v.54h-3.782a.9.9,0,0,0-.9.9.9.9,0,0,0,.9.9h4.683a.9.9,0,0,0,.9-.9v-1.288h12.018a.9.9,0,0,0,.9-.9v-7.9a5.519,5.519,0,0,0-1.629-4.1c1.3-.608,2.011-1.694,2.476-3.568Zm-12.61-16.144a4.9,4.9,0,0,1,3.971,1.692,8.107,8.107,0,0,1,1.55,4.906,4.054,4.054,0,0,1-4.718-2.092.91.91,0,0,0-1.608,0,4.053,4.053,0,0,1-4.716,2.092c.208-4.147,2.238-6.6,5.52-6.6Zm-5.539,8.419a8.11,8.11,0,0,0,1.118.08,5.57,5.57,0,0,0,4.421-1.953,5.569,5.569,0,0,0,4.421,1.953,8.114,8.114,0,0,0,1.118-.08v.79a5.545,5.545,0,0,1-5.539,5.539,5.545,5.545,0,0,1-5.539-5.539v-.79Zm7.417,7.887v1.346a1.878,1.878,0,0,1-1.877,1.875,1.877,1.877,0,0,1-1.875-1.875v-1.345a7.312,7.312,0,0,0,1.875.244A7.319,7.319,0,0,0,381.845-227.474Zm-8.264-3.484a7.4,7.4,0,0,0,2.71,2.738v1.428c-.375.11-.763.215-1.165.323l-.562.152a5.809,5.809,0,0,0-2.349-2.829A7.15,7.15,0,0,0,373.581-230.958Zm-8.064,5.224a3.97,3.97,0,0,1,3.672-2.473,3.973,3.973,0,0,1,3.89,3.217,9.037,9.037,0,0,0-3.891-.882,9.033,9.033,0,0,0-3.891.882,3.951,3.951,0,0,1,.22-.745Zm-13.194-12.023a5.929,5.929,0,0,1,5.922-5.922,5.928,5.928,0,0,1,5.92,5.922v.932c-2.368.079-5.353-.2-7.553-1.709a.9.9,0,0,0-1.226.2,3.944,3.944,0,0,1-3.063,1.409v-.83Zm0,3.578v-.934a6.287,6.287,0,0,0,3.947-1.512,15.379,15.379,0,0,0,7.9,1.6v.843a5.926,5.926,0,0,1-5.92,5.92,5.928,5.928,0,0,1-5.922-5.92Zm7.8,7.49v.561a1.877,1.877,0,0,1-1.875,1.875,1.878,1.878,0,0,1-1.877-1.875v-.562a7.727,7.727,0,0,0,1.877.232A7.709,7.709,0,0,0,360.12-226.689Zm5.609,9.167c-.2.06-.395.119-.589.175-2.223.656-4.7,1.387-5.391,4.373H353.1v-3.645a.9.9,0,0,0-.9-.9.9.9,0,0,0-.9.9v3.645h-3.019v-6.972c.054-3.072,2.149-3.857,5.593-4.785.29-.078.585-.158.878-.241a3.684,3.684,0,0,0,3.492,2.52,3.682,3.682,0,0,0,3.489-2.52c.293.083,1.434.392,1.7.467,0,.086-.006.174-.006.261v1.274a5.759,5.759,0,0,0,2.305,4.609Zm5.115.658v0a1.6,1.6,0,0,1-1.727,1.587,1.588,1.588,0,0,1-1.587-1.587v-.586a5.549,5.549,0,0,0,.673.159,5.735,5.735,0,0,0,.985.084,5.672,5.672,0,0,0,.817-.058,5.537,5.537,0,0,0,.839-.184Zm.479-2.767a3.967,3.967,0,0,1-4.239.019,3.962,3.962,0,0,1-1.856-3.27,7.242,7.242,0,0,1,7.921,0A3.964,3.964,0,0,1,371.324-219.631Zm18.606,6.657H386.91v-3.644a.9.9,0,0,0-.9-.9.9.9,0,0,0-.9.9v3.644h-6.482c-.69-2.986-3.168-3.717-5.391-4.373-.195-.056-.392-.115-.589-.175v-.836a5.761,5.761,0,0,0,2.308-4.611v-1.259c0-.109,0-.217-.01-.324.218-.06.436-.119.65-.177.292-.079.589-.159.884-.242a3.682,3.682,0,0,0,3.489,2.52,3.684,3.684,0,0,0,3.491-2.52c.293.083.588.162.878.24,3.443.928,5.539,1.714,5.593,4.785v6.972Zm-1.775-12.383a20.716,20.716,0,0,0-3.349-1.114c-.4-.108-.787-.212-1.159-.321v-1.43a7.4,7.4,0,0,0,2.7-2.729,8.29,8.29,0,0,0,4.257,3.651A2.582,2.582,0,0,1,388.155-225.357Z" transform="translate(-346.481 254.466)" fill="#00223d"/>
        <path id="Trazado_25998" data-name="Trazado 25998" d="M395.5-257.305a.9.9,0,0,0,.626.253.9.9,0,0,0,.626-.253l4.767-4.6a3.974,3.974,0,0,0,.1-5.613,3.944,3.944,0,0,0-2.786-1.208,3.935,3.935,0,0,0-2.709,1,3.937,3.937,0,0,0-2.709-1,3.946,3.946,0,0,0-2.787,1.209,3.977,3.977,0,0,0,.1,5.611Zm-3.573-8.963a2.155,2.155,0,0,1,1.522-.658h.04a2.146,2.146,0,0,1,1.5.6l.508.49a.9.9,0,0,0,1.251,0l.509-.491a2.145,2.145,0,0,1,1.542-.6,2.153,2.153,0,0,1,1.522.658,2.169,2.169,0,0,1-.056,3.065l-4.142,4-4.142-4a2.172,2.172,0,0,1-.057-3.064Z" transform="translate(-372.998 268.728)" fill="#00223d"/>
        <path id="Trazado_25999" data-name="Trazado 25999" d="M404.179-154.935a.9.9,0,0,0-.9.9.9.9,0,0,0,.9.9h.005a.9.9,0,0,0,.9-.9.9.9,0,0,0-.9-.9Z" transform="translate(-381.476 198.616)" fill="#00223d"/>
      </g>
    </g>
  </g>
</svg>
