<svg xmlns="http://www.w3.org/2000/svg" xmlns:xlink="http://www.w3.org/1999/xlink" width="108" height="108" viewBox="0 0 108 108">
  <defs>
    <filter id="Elipse_5712" x="0" y="0" width="108" height="108" filterUnits="userSpaceOnUse">
      <feOffset dy="3" input="SourceAlpha"/>
      <feGaussianBlur stdDeviation="3" result="blur"/>
      <feFlood flood-opacity="0.161"/>
      <feComposite operator="in" in2="blur"/>
      <feComposite in="SourceGraphic"/>
    </filter>
  </defs>
  <g id="Grupo_1008765" data-name="Grupo 1008765" transform="translate(-171 -2507.893)">
    <g transform="matrix(1, 0, 0, 1, 171, 2507.89)" filter="url(#Elipse_5712)">
      <g id="Elipse_5712-2" data-name="Elipse 5712" transform="translate(9 6)" fill="#fff" stroke="#fff8da" stroke-width="2">
        <circle cx="45" cy="45" r="45" stroke="none"/>
        <circle cx="45" cy="45" r="44" fill="none"/>
      </g>
    </g>
    <g id="Grupo_1008753" data-name="Grupo 1008753" transform="translate(199 2535.893)">
      <path id="Trazado_26081" data-name="Trazado 26081" d="M1656.223,261.9V248.248h-21.5l-3.541,13.072v18.056h5.718" transform="translate(-1612.351 -241.218)" fill="#eaa50c"/>
      <path id="Trazado_26082" data-name="Trazado 26082" d="M1646.737,267.469l-6.931-.067,2.853-10.531h16.324v9.357" transform="translate(-1618.044 -246.91)" fill="#a0d9f2"/>
      <path id="Trazado_26083" data-name="Trazado 26083" d="M1665.294,297.363h2.729a15.176,15.176,0,1,0-30.352,0v4.414" transform="translate(-1616.634 -263.619)" fill="#a56b04"/>
      <path id="Trazado_26084" data-name="Trazado 26084" d="M1594.137,304.755h1.993V286.7h-14.568a3.488,3.488,0,0,0-3.489,3.49v14.567" transform="translate(-1577.298 -266.597)" fill="#eaa50c"/>
      <path id="Trazado_26085" data-name="Trazado 26085" d="M1581.562,286.7a3.488,3.488,0,0,0-3.489,3.49v3.925a3.488,3.488,0,0,1,3.489-3.49h14.568V286.7Z" transform="translate(-1577.298 -266.597)" fill="#f7b32d"/>
      <ellipse id="Elipse_952" data-name="Elipse 952" cx="12.447" cy="12.447" rx="12.447" ry="12.447" transform="translate(23.766 21.297)" fill="#444d56"/>
      <circle id="Elipse_953" data-name="Elipse 953" cx="7.763" cy="7.763" r="7.763" transform="translate(28.451 25.981)" fill="#9aa7b8"/>
      <g id="Grupo_16689" data-name="Grupo 16689" transform="translate(0.775 30.125)">
        <circle id="Elipse_954" data-name="Elipse 954" cx="2.925" cy="2.925" r="2.925" transform="translate(32.514 0.694)" fill="#444d56"/>
        <circle id="Elipse_955" data-name="Elipse 955" cx="8.032" cy="8.032" r="8.032" transform="translate(0 0)" fill="#444d56"/>
      </g>
      <circle id="Elipse_956" data-name="Elipse 956" cx="3.889" cy="3.889" r="3.889" transform="translate(4.918 34.268)" fill="#9aa7b8"/>
      <rect id="Rectángulo_4095" data-name="Rectángulo 4095" width="26.386" height="2.979" transform="translate(17.486 4.05)" fill="#a56b04"/>
      <path id="Trazado_26086" data-name="Trazado 26086" d="M1586.323,301.051a2.687,2.687,0,0,0,0-5.375Z" transform="translate(-1582.743 -272.522)" fill="#ffe300"/>
      <path id="Trazado_26087" data-name="Trazado 26087" d="M1600.765,254.571h-1.982a1.452,1.452,0,0,0-1.452,1.452v9.471h4.886v-9.471A1.451,1.451,0,0,0,1600.765,254.571Z" transform="translate(-1590.009 -245.392)" fill="#444d56"/>
      <path id="Trazado_26088" data-name="Trazado 26088" d="M1600.807,254.573l-.042,0h-1.982a1.452,1.452,0,0,0-1.452,1.452v9.47h2.066v-9.47A1.451,1.451,0,0,1,1600.807,254.573Z" transform="translate(-1590.009 -245.392)" fill="#2c343a"/>
      <path id="Trazado_26089" data-name="Trazado 26089" d="M1665.735,301.713a8.537,8.537,0,1,0,8.537,8.537A8.547,8.547,0,0,0,1665.735,301.713Zm0,15.525a6.988,6.988,0,1,1,6.988-6.988A7,7,0,0,1,1665.735,317.238Z" transform="translate(-1629.522 -276.507)" fill="#00223d"/>
      <path id="Trazado_26090" data-name="Trazado 26090" d="M1675.127,315.943a3.7,3.7,0,1,0,3.7,3.7A3.7,3.7,0,0,0,1675.127,315.943Zm0,5.849a2.15,2.15,0,1,1,2.15-2.15A2.152,2.152,0,0,1,1675.127,321.792Z" transform="translate(-1638.914 -285.899)" fill="#00223d"/>
      <path id="Trazado_26091" data-name="Trazado 26091" d="M1620.439,247.782v-16.16a.775.775,0,0,0-.775-.775H1616.8a.775.775,0,0,0-.775.775h0a.775.775,0,0,0,.775.775h2.088v1.43h-24.836V232.4h19.132a.775.775,0,0,0,.775-.775h0a.775.775,0,0,0-.775-.775h-19.907a.775.775,0,0,0-.774.775V234.6a.775.775,0,0,0,.774.774h3.874l-3.121,11.523h-5.255v-8.7a2.227,2.227,0,0,0-2.227-2.227h-.309v-5.037a1.818,1.818,0,0,1,1.818-1.817h.788a.775.775,0,0,0,.775-.775h0a.775.775,0,0,0-.775-.775h-.788a3.367,3.367,0,0,0-3.367,3.367v5.038h-.124a2.227,2.227,0,0,0-2.227,2.227v8.7h-2.284a4.264,4.264,0,0,0-4.263,4.264V265.73a8.806,8.806,0,0,0,17.578.775h6.475a13.221,13.221,0,0,0,25.358-4.414h1.978a.775.775,0,0,0,.775-.775A15.955,15.955,0,0,0,1620.439,247.782Zm-36.548-9.579a.678.678,0,0,1,.677-.677h1.983a.678.678,0,0,1,.677.677v8.7h-3.337Zm.71,34.785a7.266,7.266,0,0,1-7.258-7.257h0v-.012a7.257,7.257,0,1,1,7.257,7.269Zm9.249-14.416v6.384h-.479a8.8,8.8,0,0,0-16.028-4.208v-9.585a2.715,2.715,0,0,1,2.715-2.715h13.792v6.507a.775.775,0,0,0,.775.775h0a.775.775,0,0,0,.775-.775v-7.179l3.359-12.4h20.132v11.552q-.674-.324-1.382-.585v-8.81a.775.775,0,0,0-.775-.775h-16.324a.775.775,0,0,0-.748.572l-2.853,10.531a.776.776,0,0,0,.3.836.806.806,0,0,0,.461.141l4.456.043a15.928,15.928,0,0,0-5.971,12.434v3.639h-.656v-6.384a.775.775,0,0,0-.775-.775h0A.775.775,0,0,0,1593.849,258.571Zm10.449-11.217-5.733-.056,2.436-8.991h14.956v7.553a15.943,15.943,0,0,0-11.659,1.494Zm7.707,25.633a11.672,11.672,0,1,1,11.672-11.672A11.685,11.685,0,0,1,1612.006,272.987Zm13.2-12.446a13.221,13.221,0,1,0-25.91,4.414H1597.6v-3.639a14.4,14.4,0,0,1,28.782-.775Z" transform="translate(-1575.793 -227.572)" fill="#00223d"/>
      <path id="Trazado_26092" data-name="Trazado 26092" d="M1592.643,326.09a4.664,4.664,0,1,0,4.664,4.664A4.669,4.669,0,0,0,1592.643,326.09Zm0,7.779a3.115,3.115,0,1,1,3.115-3.115A3.118,3.118,0,0,1,1592.643,333.869Z" transform="translate(-1583.836 -292.596)" fill="#00223d"/>
      <path id="Trazado_26093" data-name="Trazado 26093" d="M1584.819,293.4a.775.775,0,0,0-.775.774v5.375a.775.775,0,0,0,.775.774,3.462,3.462,0,1,0,0-6.924Zm.775,5.211v-3.5a1.912,1.912,0,0,1,0,3.5Z" transform="translate(-1581.239 -271.018)" fill="#00223d"/>
      <path id="Trazado_26094" data-name="Trazado 26094" d="M1611.418,291.959H1607.9a.775.775,0,1,0,0,1.55h3.518a.775.775,0,1,0,0-1.55Z" transform="translate(-1596.474 -270.069)" fill="#00223d"/>
      <path id="Trazado_26095" data-name="Trazado 26095" d="M1611.418,299.146H1607.9a.775.775,0,1,0,0,1.549h3.518a.775.775,0,1,0,0-1.549Z" transform="translate(-1596.474 -274.813)" fill="#00223d"/>
      <path id="Trazado_26096" data-name="Trazado 26096" d="M1611.418,306.333H1607.9a.775.775,0,1,0,0,1.549h3.518a.775.775,0,1,0,0-1.549Z" transform="translate(-1596.474 -279.556)" fill="#00223d"/>
    </g>
  </g>
</svg>
