<svg xmlns="http://www.w3.org/2000/svg" xmlns:xlink="http://www.w3.org/1999/xlink" width="108" height="108" viewBox="0 0 108 108">
  <defs>
    <filter id="Elipse_5701" x="0" y="0" width="108" height="108" filterUnits="userSpaceOnUse">
      <feOffset dy="3" input="SourceAlpha"/>
      <feGaussianBlur stdDeviation="3" result="blur"/>
      <feFlood flood-opacity="0.161"/>
      <feComposite operator="in" in2="blur"/>
      <feComposite in="SourceGraphic"/>
    </filter>
  </defs>
  <g id="Grupo_1008774" data-name="Grupo 1008774" transform="translate(-1011 -2069.893)">
    <g transform="matrix(1, 0, 0, 1, 1011, 2069.89)" filter="url(#Elipse_5701)">
      <g id="Elipse_5701-2" data-name="Elipse 5701" transform="translate(9 6)" fill="#fff" stroke="#e1edb5" stroke-width="2">
        <circle cx="45" cy="45" r="45" stroke="none"/>
        <circle cx="45" cy="45" r="44" fill="none"/>
      </g>
    </g>
    <g id="Grupo_1008748" data-name="Grupo 1008748" transform="translate(1043 2091.893)">
      <g id="Grupo_16669" data-name="Grupo 16669" transform="translate(1.138 1.138)">
        <path id="Trazado_26012" data-name="Trazado 26012" d="M1201.143-234.115v-2.843h3.006l-2.514-3.608h5.958l2.241-1.53-1.257-2.624,1.65-1.312-1.08-3.389v-5.685h-5.926l-2.3-3.717h-7.489v-3.826l-3.662-2.952,3.191-3.818,6.236-3.867-4.234-3.356-5.138,4.482h-4.974l-2.679,2.405v3.5l-7.762,6.4,1.257,2.241v8.527l1.4,3.4-3.129.977-3.849,4.154,5.867,4.373h5.491l8.758,6.821v2.472h7.275l.875-.765-1.6,5.685h1.7l2.682,1.312,1.859-10.55Z" transform="translate(-1170.095 276.643)" fill="#ffea60"/>
        <path id="Trazado_26013" data-name="Trazado 26013" d="M1226.46-152.3v-.888H1208.3l7.231,5.632v2.472h7.275l.875-.765-1.6,5.685h1.7l2.682,1.312,1.859-10.55Z" transform="translate(-1195.412 194.825)" fill="#ed1f34"/>
        <path id="Trazado_26014" data-name="Trazado 26014" d="M1175.67-195.442l1.4,3.4-3.129.977-3.849,4.154,5.867,4.373h5.491l1.527,1.189h18.163v-1.955h3.006l-2.514-3.608h5.958l2.241-1.53-1.257-2.624,1.65-1.312-1.054-3.306h-33.5Z" transform="translate(-1170.095 222.992)" fill="#164fce"/>
      </g>
      <g id="Grupo_16670" data-name="Grupo 16670" transform="translate(0 0)">
        <path id="Trazado_26015" data-name="Trazado 26015" d="M1209.87-242.224l-1.245-2.6-.865-1.806.94-.747a1.138,1.138,0,0,0,.376-1.236l-1.026-3.221v-5.508a1.138,1.138,0,0,0-1.138-1.138h-5.292l-1.962-3.177a1.138,1.138,0,0,0-.968-.54h-6.351v-2.688a1.137,1.137,0,0,0-.424-.886l-2.76-2.225,2.331-2.789,6.08-3.771a1.137,1.137,0,0,0,.536-.9,1.139,1.139,0,0,0-.429-.957l-4.234-3.356a1.138,1.138,0,0,0-1.455.034l-4.817,4.2h-4.548a1.137,1.137,0,0,0-.76.291l-2.679,2.405a1.139,1.139,0,0,0-.377.847v2.962l-6.3,5.189-.3-.529a1.138,1.138,0,0,0-1.549-.436,1.138,1.138,0,0,0-.435,1.549l2.074,3.7v8.23a1.139,1.139,0,0,0,.086.434l.927,2.246-1.942.607a1.138,1.138,0,0,0-.5.313l-3.849,4.155a1.137,1.137,0,0,0-.3.877,1.138,1.138,0,0,0,.453.808l5.867,4.373a1.139,1.139,0,0,0,.68.225h5.1l8.011,6.239v1.916a1.138,1.138,0,0,0,1.138,1.138h6.433l-.977,3.474a1.138,1.138,0,0,0,.188.995,1.138,1.138,0,0,0,.907.451h1.436l2.446,1.2a1.136,1.136,0,0,0,.5.116,1.14,1.14,0,0,0,.516-.124,1.137,1.137,0,0,0,.6-.817l1.859-10.55a1.138,1.138,0,0,0-.163-.812l-1.678-2.616v-1.371h1.868a1.138,1.138,0,0,0,1.009-.611,1.139,1.139,0,0,0-.075-1.177l-1.268-1.819h3.778a1.138,1.138,0,0,0,.642-.2l1.146-.783.672,1.4a1.138,1.138,0,0,0,1.027.646,1.134,1.134,0,0,0,.491-.112,1.138,1.138,0,0,0,.534-1.517ZM1198.05-224.59l-1.324-.648a1.138,1.138,0,0,0-.5-.116h-.2l1.192-4.239a1.137,1.137,0,0,0-.488-1.27,1.137,1.137,0,0,0-1.356.106l-.553.484h-5.71v-1.334a1.138,1.138,0,0,0-.438-.9l-4.618-3.6H1197.8a1.128,1.128,0,0,0,.149.365l1.619,2.523Zm-23.622-35.822-.792-1.411,7.028-5.791a1.136,1.136,0,0,0,.414-.878v-2.991l1.977-1.775h4.538a1.139,1.139,0,0,0,.748-.281l4.425-3.86,2.224,1.763-4.86,3.015a1.131,1.131,0,0,0-.273.237l-3.191,3.818a1.137,1.137,0,0,0-.259.841,1.138,1.138,0,0,0,.418.774l3.239,2.61v3.282a1.138,1.138,0,0,0,1.138,1.138h6.854l1.962,3.177a1.138,1.138,0,0,0,.968.54h4.788v3.492h-9.9a1.138,1.138,0,0,0-1.138,1.138,1.138,1.138,0,0,0,1.138,1.138h10.231l.563,1.767-1.035.824a1.138,1.138,0,0,0-.318,1.382l.835,1.743-1.145.781H1199.4a1.138,1.138,0,0,0-1.009.611,1.138,1.138,0,0,0,.075,1.177l1.268,1.82h-.827a1.138,1.138,0,0,0-1.138,1.138v.817h-16.635l-1.219-.949a1.136,1.136,0,0,0-.7-.24H1174.1l-4.549-3.391,2.782-3,2.839-.887a1.136,1.136,0,0,0,.691-.6,1.137,1.137,0,0,0,.022-.917l-.854-2.069h10.6a1.138,1.138,0,0,0,1.137-1.138,1.137,1.137,0,0,0-1.137-1.138h-11.063v-7.144a1.076,1.076,0,0,0-.048-.338,1.085,1.085,0,0,0-.1-.219Z" transform="translate(-1166.722 280.016)" fill="#00223d"/>
        <path id="Trazado_26016" data-name="Trazado 26016" d="M1235.742-199.061a1.146,1.146,0,0,0-.8.334,1.146,1.146,0,0,0-.333.8,1.146,1.146,0,0,0,.333.8,1.146,1.146,0,0,0,.8.334,1.151,1.151,0,0,0,.806-.334,1.144,1.144,0,0,0,.332-.8,1.143,1.143,0,0,0-.332-.8A1.148,1.148,0,0,0,1235.742-199.061Z" transform="translate(-1211.709 226.366)" fill="#00223d"/>
      </g>
    </g>
  </g>
</svg>
