<svg xmlns="http://www.w3.org/2000/svg" xmlns:xlink="http://www.w3.org/1999/xlink" width="108" height="108" viewBox="0 0 108 108">
  <defs>
    <filter id="Elipse_5702" x="0" y="0" width="108" height="108" filterUnits="userSpaceOnUse">
      <feOffset dy="3" input="SourceAlpha"/>
      <feGaussianBlur stdDeviation="3" result="blur"/>
      <feFlood flood-opacity="0.161"/>
      <feComposite operator="in" in2="blur"/>
      <feComposite in="SourceGraphic"/>
    </filter>
  </defs>
  <g id="Grupo_1008769" data-name="Grupo 1008769" transform="translate(-591 -2215.893)">
    <g transform="matrix(1, 0, 0, 1, 591, 2215.89)" filter="url(#Elipse_5702)">
      <g id="Elipse_5702-2" data-name="Elipse 5702" transform="translate(9 6)" fill="#fff" stroke="#eff3f6" stroke-width="2">
        <circle cx="45" cy="45" r="45" stroke="none"/>
        <circle cx="45" cy="45" r="44" fill="none"/>
      </g>
    </g>
    <g id="Grupo_1008747" data-name="Grupo 1008747" transform="translate(625 2243.893)">
      <path id="Trazado_26005" data-name="Trazado 26005" d="M547.207-187.457h-7.119l-3.955,3.955-3.955-3.955h-7.119a4.746,4.746,0,0,0-4.746,4.746v8.7h31.64v-8.7A4.746,4.746,0,0,0,547.207-187.457Z" transform="translate(-516.368 220.68)" fill="#5cd6b3"/>
      <path id="Trazado_26006" data-name="Trazado 26006" d="M548.8-236.632a4.745,4.745,0,0,0-.373-6.7,4.746,4.746,0,0,0-3.164-1.209h-.791a2.373,2.373,0,0,0,2.373-2.373,2.373,2.373,0,0,0-2.373-2.373h-.791v-9.926a12.892,12.892,0,0,0-12.044-13,12.657,12.657,0,0,0-13.253,12.03q-.014.306-.015.612v10.283h-.791a2.373,2.373,0,0,0-2.373,2.373,2.373,2.373,0,0,0,2.373,2.373h-.791a4.746,4.746,0,0,0-4.746,4.746c0,2.493.721,4.532,3.164,4.727v1.6a3.164,3.164,0,0,0,3.164,3.164h3.955a4.746,4.746,0,0,0,4.746-4.746,4.746,4.746,0,0,0-4.746-4.746h21.357l2.373,2.373v.791h2.373" transform="translate(-511.262 273.019)" fill="#eaca65"/>
      <path id="Trazado_26007" data-name="Trazado 26007" d="M555.629-249.052a3.165,3.165,0,0,1-3.069-2.4l-1.774-6.3-1.624,5.705a3.955,3.955,0,0,1-3.834,3h-6.407v4.746a8.693,8.693,0,0,0,4.746,7.744h0v5.7l3.955,3.955,3.955-3.955v-5.7h0a8.693,8.693,0,0,0,4.746-7.744v-4.746Z" transform="translate(-527.857 264.082)" fill="#f2dbc0"/>
      <path id="Trazado_26008" data-name="Trazado 26008" d="M518.245-218.689a.791.791,0,0,0,.791.791h31.64a.791.791,0,0,0,.791-.791v-8.7a5.544,5.544,0,0,0-5.537-5.537H539.6v-4.448a9.492,9.492,0,0,0,4.746-8.208v-3.955h.791v-1.582h-2.276a2.378,2.378,0,0,1-2.308-1.819l-1.773-6.3a.791.791,0,0,0-.762-.578h0a.791.791,0,0,0-.761.574l-1.629,5.73a3.164,3.164,0,0,1-3.068,2.4h-7.989v1.582h.791v3.955a9.492,9.492,0,0,0,4.746,8.208v5.239a.791.791,0,0,0,.232.559l3.955,3.955a.79.79,0,0,0,1.118,0l3.723-3.723h6.792a3.96,3.96,0,0,1,3.955,3.955v7.91H519.827v-.791h-1.582v1.582Zm8.7-26.894v-3.955h5.616a4.731,4.731,0,0,0,4.6-3.57l.859-3.017,1.011,3.592a3.945,3.945,0,0,0,3.737,2.988v3.963a7.91,7.91,0,0,1-7.91,7.91A7.91,7.91,0,0,1,526.946-245.583Zm7.91,16.283-3.164-3.164v-4.181a9.316,9.316,0,0,0,6.328,0v4.181Z" transform="translate(-515.091 265.359)" fill="#00223d"/>
      <path id="Trazado_26009" data-name="Trazado 26009" d="M526.155-180.033H522.2a2.373,2.373,0,0,1-2.373-2.373h-1.582a3.96,3.96,0,0,0,3.955,3.955h3.955a5.537,5.537,0,0,0,5.537-5.537,5.537,5.537,0,0,0-5.537-5.537h-2.373v1.582h2.373a3.955,3.955,0,0,1,3.955,3.955A3.955,3.955,0,0,1,526.155-180.033Z" transform="translate(-515.091 221.957)" fill="#00223d"/>
      <path id="Trazado_26010" data-name="Trazado 26010" d="M545.753-246.323a3.135,3.135,0,0,0,.625-1.869,3.164,3.164,0,0,0-3.164-3.164v-9.134a13.612,13.612,0,0,0-12.8-13.789,13.447,13.447,0,0,0-14.08,12.783q-.015.324-.016.649v9.492a3.164,3.164,0,0,0-3.164,3.164,3.134,3.134,0,0,0,.625,1.869,5.537,5.537,0,0,0-3.49,7.01,5.538,5.538,0,0,0,5.238,3.777h4.746v-1.582h-4.746a3.955,3.955,0,0,1-3.955-3.955,3.955,3.955,0,0,1,3.955-3.955h4.746v-1.582h-3.955a1.582,1.582,0,0,1-1.582-1.582,1.582,1.582,0,0,1,1.582-1.582h.791a.791.791,0,0,0,.791-.791v-10.283a11.866,11.866,0,0,1,11.865-11.866q.288,0,.576.014a12.034,12.034,0,0,1,11.29,12.209v9.926a.791.791,0,0,0,.791.791h.791a1.582,1.582,0,0,1,1.582,1.582,1.582,1.582,0,0,1-1.582,1.582h-3.955v1.582H544a3.955,3.955,0,0,1,3.955,3.955,3.956,3.956,0,0,1-1.007,2.636l1.178,1.055a5.537,5.537,0,0,0-.445-7.818,5.535,5.535,0,0,0-1.933-1.121Z" transform="translate(-510.002 274.296)" fill="#00223d"/>
      <path id="Trazado_26011" data-name="Trazado 26011" d="M559.843-214.335h-1.187a1.78,1.78,0,0,1-1.779,1.78,1.78,1.78,0,0,1-1.78-1.78H553.91a2.966,2.966,0,0,0,2.967,2.966A2.966,2.966,0,0,0,559.843-214.335Z" transform="translate(-537.111 237.275)" fill="#00223d"/>
    </g>
  </g>
</svg>
