<svg xmlns="http://www.w3.org/2000/svg" xmlns:xlink="http://www.w3.org/1999/xlink" width="108" height="108" viewBox="0 0 108 108">
  <defs>
    <filter id="Elipse_5711" x="0" y="0" width="108" height="108" filterUnits="userSpaceOnUse">
      <feOffset dy="3" input="SourceAlpha"/>
      <feGaussianBlur stdDeviation="3" result="blur"/>
      <feFlood flood-opacity="0.161"/>
      <feComposite operator="in" in2="blur"/>
      <feComposite in="SourceGraphic"/>
    </filter>
  </defs>
  <g id="Grupo_1008772" data-name="Grupo 1008772" transform="translate(-591 -2653.893)">
    <g transform="matrix(1, 0, 0, 1, 591, 2653.89)" filter="url(#Elipse_5711)">
      <g id="Elipse_5711-2" data-name="Elipse 5711" transform="translate(9 6)" fill="#fff" stroke="#fff8da" stroke-width="2">
        <circle cx="45" cy="45" r="45" stroke="none"/>
        <circle cx="45" cy="45" r="44" fill="none"/>
      </g>
    </g>
    <g id="Grupo_1008760" data-name="Grupo 1008760" transform="translate(621 2681.893)">
      <path id="Trazado_26229" data-name="Trazado 26229" d="M1538.84,540.707h-3.092v-3.092h3.092Z" transform="translate(-1504.053 -503.601)" fill="#268c56"/>
      <path id="Trazado_26230" data-name="Trazado 26230" d="M1476.279,486.677h-3.092v-3.092h3.092Z" transform="translate(-1458.499 -464.259)" fill="#268c56"/>
      <path id="Trazado_26231" data-name="Trazado 26231" d="M1459.217,486.677h-3.092v-3.092h3.092Z" transform="translate(-1446.076 -464.259)" fill="#116035"/>
      <path id="Trazado_26232" data-name="Trazado 26232" d="M1453.5,528.188l3.865,1.546,2.319-3.092h6.185l.84,4.638,11.529-4.638-.773-6.958h3.092l2.319-4.638-6.185-3.865-1.36-.314.579,5.169a1.555,1.555,0,0,1-.959,1.608l-8.6,3.456-2.938,1.183a1.568,1.568,0,0,1-.819.085,1.339,1.339,0,0,1-.5-.17,1.537,1.537,0,0,1-.773-1.074l-.611-3.371h-4.12l-1.546,2.064-.309.41a1.553,1.553,0,0,1-1.809.51l-3.865-1.546a1.554,1.554,0,0,1-.974-1.438v-2.7l-1.993-.571-3.573,2.674a1.535,1.535,0,0,0-.595,1.492l.414,2.486,11.158,3.188Z" transform="translate(-1435.725 -484.124)" fill="#33b575"/>
      <path id="Trazado_26233" data-name="Trazado 26233" d="M1444.181,526.839l3.573-2.674h0Z" transform="translate(-1437.378 -493.806)" fill="#48d88d"/>
      <path id="Trazado_26234" data-name="Trazado 26234" d="M1461.419,446.475l-.579-5.169-8.69-2.005-.773-3.865-3.092-1.546.773-4.638-3.865-5.411,3.092-4.638-.754-.541-.46.409.459-.409-4.657-3.324-6.957,6.184,2.319,3.092-8.5,3.865-3.865,8.5,2.319,3.865L1422,445.486l.773,4.638,5.076,1.45-.414-2.486a1.536,1.536,0,0,1,.6-1.492h0l3.572-2.675,1.494-1.116-1.492,1.117,1.993.571v2.7a1.554,1.554,0,0,0,.974,1.438l3.865,1.546a1.554,1.554,0,0,0,1.809-.51l.309-.41,1.546-2.064h4.12l.611,3.371a1.538,1.538,0,0,0,.773,1.074,1.336,1.336,0,0,0,.5.17,1.568,1.568,0,0,0,.819-.085l2.938-1.183,8.6-3.456A1.555,1.555,0,0,0,1461.419,446.475ZM1441.636,425.8h0l.5.667Z" transform="translate(-1421.228 -414.564)" fill="#48d88d"/>
      <path id="Trazado_26235" data-name="Trazado 26235" d="M1537.543,541.232a.773.773,0,0,1-.773.773h-3.092a.773.773,0,1,1,0-1.546h3.092A.773.773,0,0,1,1537.543,541.232Z" transform="translate(-1501.982 -505.672)" fill="#00223d"/>
      <path id="Trazado_26236" data-name="Trazado 26236" d="M1474.981,487.2a.773.773,0,0,1-.773.773h-3.092a.773.773,0,1,1,0-1.546h3.092A.773.773,0,0,1,1474.981,487.2Z" transform="translate(-1456.428 -466.33)" fill="#00223d"/>
      <path id="Trazado_26237" data-name="Trazado 26237" d="M1463.607,474.105a.773.773,0,0,1-.773.773h-3.092a.773.773,0,0,1,0-1.546h3.092A.773.773,0,0,1,1463.607,474.105Z" transform="translate(-1448.146 -456.793)" fill="#00223d"/>
      <path id="Trazado_26238" data-name="Trazado 26238" d="M1424.85,483.585a.773.773,0,0,1,.7,1.094l-.886,1.95,2.11,3.517a.773.773,0,0,1-.2,1.016l-5.809,4.356.618,3.693,15.762,4.5a.773.773,0,0,1,.56.743V507.8l2.829,1.132,1.964-2.618a.773.773,0,0,1,.618-.309h6.185a.773.773,0,0,1,.76.635l.671,3.7,10.1-4.066-.708-6.374a.773.773,0,0,1,.683-.853.738.738,0,0,1,.085,0h2.614l1.792-3.582-5.479-3.424-1.419-.327a.773.773,0,0,1,.347-1.507l1.546.356a.776.776,0,0,1,.236.1l6.184,3.865a.773.773,0,0,1,.282,1.005l-2.319,4.638a.773.773,0,0,1-.693.424h-2.229l.678,6.1a.773.773,0,0,1-.48.8l-11.529,4.638a.772.772,0,0,1-1.049-.58l-.725-4h-5.152l-2.087,2.783a.773.773,0,0,1-.905.254l-3.865-1.546a.773.773,0,0,1-.486-.718V505.04l-15.674-4.478a.773.773,0,0,1-.55-.618l-.773-4.638a.773.773,0,0,1,.3-.745l5.627-4.22-1.961-3.268a.774.774,0,0,1-.041-.718l1.054-2.319a.774.774,0,0,1,.7-.45Z" transform="translate(-1419.158 -464.259)" fill="#00223d"/>
      <path id="Trazado_26239" data-name="Trazado 26239" d="M1457.77,412.493a.773.773,0,0,1,.449.144l5.411,3.865a.773.773,0,0,1,.194,1.058l-2.8,4.195,3.556,4.977a.772.772,0,0,1,.133.577l-.678,4.075,2.581,1.29a.773.773,0,0,1,.412.541l.676,3.376,4.925,1.136a.773.773,0,0,1-.348,1.507l-5.411-1.249a.772.772,0,0,1-.584-.6l-.7-3.495-2.754-1.377a.774.774,0,0,1-.417-.819l.721-4.322-3.679-5.151a.773.773,0,0,1-.014-.878l2.677-4.015-4.3-3.072-5.965,5.3,1.888,2.522a.773.773,0,0,1-.155,1.082.762.762,0,0,1-.144.085l-8.239,3.745-1.286,2.829a.773.773,0,0,1-1.407-.639l1.405-3.092a.771.771,0,0,1,.387-.387l7.625-3.469-1.742-2.319a.773.773,0,0,1,.1-1.042l6.957-6.185a.774.774,0,0,1,.513-.195Z" transform="translate(-1436.125 -412.493)" fill="#00223d"/>
      <g id="Grupo_16782" data-name="Grupo 16782" transform="translate(31.614 14.171)">
        <path id="Trazado_26240" data-name="Trazado 26240" d="M1553.64,472.105c0,.032-.006.064-.006.1h2.039v-4.735h-4.128A6.163,6.163,0,0,1,1553.64,472.105Z" transform="translate(-1547.169 -466.694)" fill="#f8dc32"/>
        <path id="Trazado_26241" data-name="Trazado 26241" d="M1538.294,472.2h5.691c0-.032.006-.064.006-.1a6.163,6.163,0,0,0-2.095-4.638h-3.6Z" transform="translate(-1537.521 -466.694)" fill="#d6ae03"/>
        <path id="Trazado_26242" data-name="Trazado 26242" d="M1536.223,479.7a.773.773,0,0,1-.773-.773V465.4a.773.773,0,1,1,1.546,0v13.528A.773.773,0,0,1,1536.223,479.7Z" transform="translate(-1535.45 -464.623)" fill="#00223d"/>
        <path id="Trazado_26243" data-name="Trazado 26243" d="M1543.954,470.807h-7.731a.773.773,0,0,1-.773-.773V465.4a.773.773,0,0,1,.773-.773h2.319a.773.773,0,0,1,0,1.546H1537v3.092h6.184v-3.092h-1.546a.773.773,0,0,1,0-1.546h2.319a.773.773,0,0,1,.773.773v4.638A.773.773,0,0,1,1543.954,470.807Z" transform="translate(-1535.45 -464.623)" fill="#00223d"/>
      </g>
      <path id="Trazado_26244" data-name="Trazado 26244" d="M1505.241,526.24h.773a.773.773,0,0,1,0,1.546h-.773a.773.773,0,0,1,0-1.546Z" transform="translate(-1481.277 -495.318)" fill="#00223d"/>
    </g>
  </g>
</svg>
