<svg xmlns="http://www.w3.org/2000/svg" xmlns:xlink="http://www.w3.org/1999/xlink" width="155.887" height="156.718" viewBox="0 0 155.887 156.718">
  <defs>
    <filter id="AdobeStock_309450420" x="0" y="0" width="155.887" height="156.718" filterUnits="userSpaceOnUse">
      <feOffset dx="3" dy="3" input="SourceAlpha"/>
      <feGaussianBlur stdDeviation="3" result="blur"/>
      <feFlood flood-opacity="0.161"/>
      <feComposite operator="in" in2="blur"/>
      <feComposite in="SourceGraphic"/>
    </filter>
  </defs>
  <g id="Grupo_1008803" data-name="Grupo 1008803" transform="translate(-382 -5319.893)">
    <g transform="matrix(1, 0, 0, 1, 382, 5319.89)" filter="url(#AdobeStock_309450420)">
      <g id="AdobeStock_309450420-2" data-name="AdobeStock_309450420" transform="translate(6 6)" fill="#fff" stroke="#fff" stroke-width="3">
        <ellipse cx="68.944" cy="69.359" rx="68.944" ry="69.359" stroke="none"/>
        <ellipse cx="68.944" cy="69.359" rx="67.444" ry="67.859" fill="none"/>
      </g>
    </g>
    <g id="Layer_1" data-name="Layer 1" transform="translate(419 5357.893)">
      <g id="Grupo_16843" data-name="Grupo 16843" transform="translate(0)">
        <path id="Trazado_26407" data-name="Trazado 26407" d="M1164.136,467.884v49.338h-3.328a4.654,4.654,0,0,1-.693-.053,4.823,4.823,0,0,1-3.183-1.9l-1.85-2.484a4.829,4.829,0,0,0-3.876-1.945h-5.487a4.336,4.336,0,0,0-2.6-.873h-9.667a6.18,6.18,0,0,0-4.414,1.85l-1.5,1.525a6.183,6.183,0,0,1-3.721,1.813,5.757,5.757,0,0,1-.693.041h-3.329V467.884a1.547,1.547,0,0,1,1.547-1.546h41.249a1.547,1.547,0,0,1,1.546,1.546Z" transform="translate(-1103.555 -465.564)" fill="#f0c020"/>
        <path id="Trazado_26408" data-name="Trazado 26408" d="M1162.738,472.982v46.81a4.823,4.823,0,0,1-3.183-1.9l-1.85-2.484a4.829,4.829,0,0,0-3.876-1.945h-5.487a4.336,4.336,0,0,0-2.6-.873h-9.667a6.18,6.18,0,0,0-4.414,1.85l-1.5,1.525a6.183,6.183,0,0,1-3.721,1.813v-44.8Z" transform="translate(-1106.178 -468.187)" fill="#efefef"/>
        <path id="Trazado_26409" data-name="Trazado 26409" d="M1204.81,543.829h8.351v27.143h-8.351Z" transform="translate(-1137.113 -496.152)" fill="#36687a"/>
        <path id="Trazado_26410" data-name="Trazado 26410" d="M1094.241,540.484h8.351v27.143h-8.351Z" transform="translate(-1093.468 -494.832)" fill="#f9a825"/>
        <path id="Trazado_26411" data-name="Trazado 26411" d="M1165.177,545.678v19.183h-8.349a6.2,6.2,0,0,0-2.7.622l-3.022,1.47a6.223,6.223,0,0,1-2.7.622H1131.39a2.742,2.742,0,0,1-2.589-1.853h-2.543a6.083,6.083,0,0,1-3.932-1.442,6.072,6.072,0,0,0-3.932-1.445h-3.542V543.655h6.32a5.757,5.757,0,0,0,.693-.041,6.183,6.183,0,0,0,3.721-1.813l1.5-1.525a6.18,6.18,0,0,1,4.414-1.85h9.667a4.336,4.336,0,0,1,2.6.873h5.487a4.829,4.829,0,0,1,3.876,1.945l1.85,2.484a4.823,4.823,0,0,0,3.183,1.9,4.651,4.651,0,0,0,.693.053Z" transform="translate(-1101.604 -494.02)" fill="#ffb69f"/>
        <path id="Trazado_26412" data-name="Trazado 26412" d="M1198,547.441v22.038a.928.928,0,0,0,.928.928h3.2V546.513h-3.2A.928.928,0,0,0,1198,547.441Z" transform="translate(-1134.423 -497.212)" fill="#efefef"/>
        <path id="Trazado_26413" data-name="Trazado 26413" d="M1112.163,566.134V544.1a.928.928,0,0,0-.928-.928h-3.2v23.894h3.2A.929.929,0,0,0,1112.163,566.134Z" transform="translate(-1098.914 -495.892)" fill="#efefef"/>
        <path id="Trazado_26414" data-name="Trazado 26414" d="M1159.414,497.339l-3.182.671.346,3.23a1.508,1.508,0,0,1-2.115,1.537l-.8-.359-2.162-.968-1.619,2.819a1.508,1.508,0,0,1-2.616,0l-1.619-2.819-2.162.968-.8.359a1.508,1.508,0,0,1-2.115-1.537l.346-3.23-3.182-.671a1.508,1.508,0,0,1-.807-2.488l2.178-2.41-2.179-2.411a1.508,1.508,0,0,1,.809-2.487l3.181-.669-.347-3.232a1.508,1.508,0,0,1,2.116-1.537l2.965,1.327,1.619-2.818a1.508,1.508,0,0,1,2.615,0l1.62,2.818,2.964-1.327a1.508,1.508,0,0,1,2.116,1.537l-.346,3.232,3.181.669a1.508,1.508,0,0,1,.809,2.487l-2.179,2.411,2.179,2.41A1.508,1.508,0,0,1,1159.414,497.339Z" transform="translate(-1110.16 -470.902)" fill="#f0c020"/>
        <path id="Trazado_26415" data-name="Trazado 26415" d="M1158.194,516.5v9a.56.56,0,0,1-.93.421l-4.159-3.655-4.159,3.655a.56.56,0,0,1-.93-.421v-9l2.162-.968,1.62,2.819a1.508,1.508,0,0,0,2.615,0l1.62-2.819Z" transform="translate(-1114.695 -484.982)" fill="#fc5d3d"/>
        <ellipse id="Elipse_965" data-name="Elipse 965" cx="5.819" cy="5.819" rx="5.819" ry="5.819" transform="translate(32.591 15.721)" fill="#72c2e9"/>
        <path id="Trazado_26416" data-name="Trazado 26416" d="M1154.547,501.91a.773.773,0,0,1,.547-.947,2.329,2.329,0,0,0,1.042-3.9.773.773,0,1,1,1.094-1.093,3.875,3.875,0,0,1-1.735,6.483.773.773,0,0,1-.948-.547Zm-2.656-.322c-.048-.044-.1-.09-.142-.136a.774.774,0,1,1,1.1-1.092c.027.028.056.055.084.081a.773.773,0,1,1-1.038,1.147Z" transform="translate(-1116.079 -477.173)" fill="#c5e5ff"/>
        <g id="Grupo_16842" data-name="Grupo 16842">
          <path id="Trazado_26417" data-name="Trazado 26417" d="M1155.4,567.217h-3.712a.773.773,0,1,0,0,1.546h3.712a.773.773,0,1,0,0-1.546Z" transform="translate(-1115.839 -505.385)" fill="#00223d"/>
          <ellipse id="Elipse_966" data-name="Elipse 966" cx="0.773" cy="0.773" rx="0.773" ry="0.773" transform="translate(31.982 61.832)" fill="#00223d"/>
          <path id="Trazado_26418" data-name="Trazado 26418" d="M1169.012,539.106h-7.577v-25.6h7.577a.774.774,0,0,0,0-1.547h-8.351a.773.773,0,0,0-.774.773v.85h-2.422a1.7,1.7,0,0,0-1.7,1.7v.656h-1.445V467.38a2.323,2.323,0,0,0-2.32-2.32H1110.75a2.325,2.325,0,0,0-2.32,2.32v19.474a.773.773,0,0,0,1.547,0V467.38a.773.773,0,0,1,.773-.773H1152a.774.774,0,0,1,.774.773v48.564H1150.3V469.855a.773.773,0,0,0-.774-.773h-36.3a.773.773,0,0,0-.773.773v44.067h-2.475V493.04a.773.773,0,0,0-1.547,0v20.881h-1.444v-.657a1.7,1.7,0,0,0-1.7-1.7h-2.423v-.851a.773.773,0,0,0-.774-.773h-8.351a.773.773,0,0,0,0,1.546h7.578v25.6h-7.578a.773.773,0,0,0,0,1.547h8.351a.773.773,0,0,0,.774-.773V537h2.423a1.7,1.7,0,0,0,1.7-1.7v-.654h2.768a5.285,5.285,0,0,1,3.432,1.261,6.858,6.858,0,0,0,4.432,1.625h2.038a3.508,3.508,0,0,0,3.094,1.853h17.007a7.025,7.025,0,0,0,3.042-.7l3.022-1.469a5.454,5.454,0,0,1,2.365-.544h7.576v.652a1.7,1.7,0,0,0,1.7,1.7h2.423v.851a.773.773,0,0,0,.774.773h8.351a.773.773,0,0,0,0-1.546Zm-63.572-3.8a.155.155,0,0,1-.155.154h-2.423V513.109h2.423a.155.155,0,0,1,.155.154ZM1114,470.628h34.752v45.035a4.086,4.086,0,0,1-1.789-1.356l-1.85-2.484a5.632,5.632,0,0,0-4.5-2.257h-5.242a5.144,5.144,0,0,0-2.848-.872h-9.667a7,7,0,0,0-4.966,2.081l-1.5,1.525a5.43,5.43,0,0,1-2.4,1.415V470.628Zm5.247,65.359h-1.627a5.308,5.308,0,0,1-3.429-1.257,6.83,6.83,0,0,0-4.434-1.629h-2.768V515.468h5.546a7,7,0,0,0,4.966-2.085l1.5-1.525a5.445,5.445,0,0,1,3.862-1.618h9.667a3.6,3.6,0,0,1,2.994,1.625l0,.007.005.008,2.76,4.155a2,2,0,0,1-3.337,2.213l-1.3-1.958a.773.773,0,0,0-.645-.346H1120.6a3.513,3.513,0,0,0-2.907,5.473,3.512,3.512,0,0,0-1.24,6.843,3.514,3.514,0,0,0,2.779,5.654h.624a3.406,3.406,0,0,0-.611,2.073Zm40.642,1.494h-2.422a.155.155,0,0,1-.155-.155V526.1a.773.773,0,0,0-1.547-.007v9.033h-7.576a7.007,7.007,0,0,0-3.042.7l-3.021,1.468a5.467,5.467,0,0,1-2.367.545H1122.75a1.96,1.96,0,0,1-1.957-2.086,2.015,2.015,0,0,1,2.056-1.84l.024,0h9.871a.774.774,0,1,0,0-1.547c-.119,0-13.408,0-13.527,0a1.964,1.964,0,0,1,.016-3.928h3.394a.774.774,0,0,0,0-1.547h-5.067a1.964,1.964,0,0,1,0-3.929c5.968.006-1.374,0,14.966,0a.773.773,0,1,0,0-1.547c-.124,0-11.822,0-11.947,0a1.964,1.964,0,0,1,.022-3.928h11.993l1.068,1.609a3.548,3.548,0,1,0,5.915-3.921l-2.7-4.067h3.739a4.078,4.078,0,0,1,3.256,1.634l1.85,2.485a5.648,5.648,0,0,0,4.5,2.26h5.547v2.422a.773.773,0,0,0,1.547,0v-4.625a.153.153,0,0,1,.155-.155h2.422Z" transform="translate(-1092.964 -465.06)" fill="#00223d"/>
          <ellipse id="Elipse_967" data-name="Elipse 967" cx="0.773" cy="0.773" rx="0.773" ry="0.773" transform="translate(62.8 57.174)" fill="#00223d"/>
          <path id="Trazado_26419" data-name="Trazado 26419" d="M1137.551,491.937l-1.71,1.891a2.281,2.281,0,0,0,1.221,3.763l2.5.527-.272,2.534a2.281,2.281,0,0,0,2.914,2.432v7.827a1.333,1.333,0,0,0,2.214,1l3.649-3.206,3.649,3.207a1.333,1.333,0,0,0,2.213-1v-7.827a2.281,2.281,0,0,0,2.914-2.432l-.272-2.534,2.5-.527a2.281,2.281,0,0,0,1.221-3.763l-1.71-1.891,1.71-1.892a2.281,2.281,0,0,0-1.223-3.763l-2.5-.525.272-2.537a2.281,2.281,0,0,0-3.2-2.325l-2.327,1.041-1.27-2.211a2.282,2.282,0,0,0-3.957,0l-1.271,2.211-2.327-1.041a2.281,2.281,0,0,0-3.2,2.325l.272,2.537-2.5.525a2.282,2.282,0,0,0-1.224,3.763Zm14.83,18.5-3.8-3.344a.774.774,0,0,0-1.022,0l-3.805,3.344v-8.026l1.067-.478,1.271,2.212a2.281,2.281,0,0,0,3.957,0l1.27-2.212,1.066.478v8.026Zm-15-22.644,3.181-.669a.773.773,0,0,0,.609-.84l-.346-3.232a.734.734,0,0,1,1.031-.749l2.964,1.327a.774.774,0,0,0,.987-.321l1.62-2.817a.735.735,0,0,1,1.274,0l1.62,2.818a.773.773,0,0,0,.986.32l2.965-1.327a.734.734,0,0,1,1.031.749l-.346,3.232a.773.773,0,0,0,.609.84l3.181.669a.735.735,0,0,1,.394,1.212l-2.179,2.411a.773.773,0,0,0,0,1.037l2.178,2.409a.734.734,0,0,1-.393,1.212l-3.182.671a.774.774,0,0,0-.609.84l.346,3.23a.734.734,0,0,1-1.031.749l-2.965-1.327a.773.773,0,0,0-.986.321l-1.619,2.819a.735.735,0,0,1-1.274,0l-1.619-2.819a.778.778,0,0,0-.987-.321l-2.964,1.327a.735.735,0,0,1-1.031-.749l.346-3.23a.774.774,0,0,0-.609-.84l-3.181-.671a.734.734,0,0,1-.393-1.212l2.179-2.409a.773.773,0,0,0,0-1.037l-2.179-2.411a.734.734,0,0,1,.393-1.212Z" transform="translate(-1109.655 -470.397)" fill="#00223d"/>
          <path id="Trazado_26420" data-name="Trazado 26420" d="M1152.125,502.942a6.593,6.593,0,1,0-6.593-6.593,6.6,6.6,0,0,0,6.593,6.593Zm0-11.639a5.046,5.046,0,1,1-5.046,5.046A5.051,5.051,0,0,1,1152.125,491.3Z" transform="translate(-1113.714 -474.808)" fill="#00223d"/>
          <ellipse id="Elipse_968" data-name="Elipse 968" cx="0.773" cy="0.773" rx="0.773" ry="0.773" transform="translate(15.466 24.114)" fill="#00223d"/>
        </g>
      </g>
    </g>
  </g>
</svg>
