<svg xmlns="http://www.w3.org/2000/svg" width="124" height="124" viewBox="0 0 124 124">
  <g id="Grupo_1011022" data-name="Grupo 1011022" transform="translate(4706 8267)">
    <circle id="Elipse_5716" data-name="Elipse 5716" cx="62" cy="62" r="62" transform="translate(-4706 -8267)" fill="#fff" opacity="0.75"/>
    <g id="Grupo_17054" data-name="Grupo 17054" transform="translate(-5591.926 -7840.473)">
      <g id="Grupo_17052" data-name="Grupo 17052">
        <path id="Trazado_26847" data-name="Trazado 26847" d="M917.968-413.712c.242-.491.639-.491.882,0l5.455,11.048a2.13,2.13,0,0,0,1.426,1.036l12.2,1.771c.542.079.665.456.272.838l-8.828,8.6a2.122,2.122,0,0,0-.545,1.676l2.085,12.142c.092.54-.229.773-.713.518l-10.914-5.733a2.127,2.127,0,0,0-1.763,0l-10.915,5.733c-.485.255-.806.022-.713-.518l2.085-12.142a2.129,2.129,0,0,0-.545-1.676l-8.829-8.6c-.392-.382-.269-.759.272-.838l12.2-1.771a2.128,2.128,0,0,0,1.426-1.036Z" fill="#fed953"/>
        <g id="Grupo_17051" data-name="Grupo 17051">
          <path id="Trazado_26848" data-name="Trazado 26848" d="M918.85-413.712c-.243-.491-.64-.491-.882,0" fill="#e0b93f"/>
          <path id="Trazado_26849" data-name="Trazado 26849" d="M938.205-399.019c.393-.382.27-.759-.272-.838l-7.7-1.117c.3.147.323.452.006.76l-8.828,8.6a2.126,2.126,0,0,0-.545,1.676l1.689,9.838,7.647,4.017c.484.255.8.022.713-.518l-2.085-12.142a2.125,2.125,0,0,1,.545-1.676Z" fill="#e0b93f"/>
        </g>
        <path id="Trazado_26850" data-name="Trazado 26850" d="M912.815-363.359h30.666v-15.8c0-5.952.689-19.608,9.569-19.608,4.891,0,4.8,5.278,4.8,8.819,0,4.753-.592,9.9.839,14.506,2.541,8.18,10.43,12.733,18.7,12.82l1.329,20.515-1.329,17.372s-8.323,9.606-23.648,9.606H912.815v-48.231Z" fill="#ffe4c2"/>
        <path id="Trazado_26851" data-name="Trazado 26851" d="M958.688-375.441c-1.431-4.607-.839-9.753-.839-14.506,0-3.541.092-8.819-4.8-8.819a7.443,7.443,0,0,0-2.283.342c2.966,1.221,2.9,5.473,2.9,8.477,0,4.753-.593,9.9.838,14.506,2.542,8.18,6.385,12.012,11.867,18.2,10.751,12.145,9.357,42.109-16.814,42.109h4.181c15.325,0,23.647-9.606,23.647-9.606l1.33-17.372-1.33-20.515C969.118-362.708,961.229-367.261,958.688-375.441Z" fill="#f2d0a5"/>
        <path id="Trazado_26852" data-name="Trazado 26852" d="M978.388-317.386a1,1,0,0,1-.995-1v-46.935a1,1,0,0,1,.995-.995h17.949a1,1,0,0,1,1,.995v46.935a1,1,0,0,1-1,1Z" fill="#c3ddff"/>
        <path id="Trazado_26853" data-name="Trazado 26853" d="M996.337-366.311h-7.964a1,1,0,0,1,1,.995v46.935a1,1,0,0,1-1,1h7.964a1,1,0,0,0,1-1v-46.935A1,1,0,0,0,996.337-366.311Z" fill="#a4ccff"/>
        <path id="Trazado_26854" data-name="Trazado 26854" d="M932.918-321.169a6.032,6.032,0,0,1-6.033,6.03H910.4a6.03,6.03,0,0,1-6.033-6.03h0a6.03,6.03,0,0,1,6.033-6.03h16.489a6.031,6.031,0,0,1,6.033,6.03Z" fill="#ffe4c2"/>
        <path id="Trazado_26855" data-name="Trazado 26855" d="M928.669-326.931a6.048,6.048,0,0,1,.267,1.78,6.032,6.032,0,0,1-6.033,6.03H906.414a6.041,6.041,0,0,1-1.784-.268,6.033,6.033,0,0,0,5.766,4.25h16.489a6.032,6.032,0,0,0,6.033-6.03A6.032,6.032,0,0,0,928.669-326.931Z" fill="#f2d0a5"/>
        <path id="Trazado_26856" data-name="Trazado 26856" d="M935.42-333.228a6.032,6.032,0,0,1-6.035,6.029H905.471a6.033,6.033,0,0,1-6.034-6.029h0a6,6,0,0,1,5.993-6.03h23.955a6.032,6.032,0,0,1,6.035,6.03Z" fill="#ffe4c2"/>
        <path id="Trazado_26857" data-name="Trazado 26857" d="M931.171-338.99a6.017,6.017,0,0,1,.268,1.78,6.033,6.033,0,0,1-6.036,6.029H901.489a6.009,6.009,0,0,1-1.784-.269,6.037,6.037,0,0,0,5.766,4.251h23.914a6.032,6.032,0,0,0,6.035-6.029A6.034,6.034,0,0,0,931.171-338.99Z" fill="#f2d0a5"/>
        <path id="Trazado_26858" data-name="Trazado 26858" d="M938.74-345.288a6.032,6.032,0,0,1-6.034,6.03H904.414a6.033,6.033,0,0,1-6.034-6.03h0a6.032,6.032,0,0,1,6.034-6.029h28.292a6.032,6.032,0,0,1,6.034,6.029Z" fill="#ffe4c2"/>
        <path id="Trazado_26859" data-name="Trazado 26859" d="M934.491-351.049a6.047,6.047,0,0,1,.267,1.779,6.032,6.032,0,0,1-6.034,6.03H900.432a6.042,6.042,0,0,1-1.784-.268,6.037,6.037,0,0,0,5.766,4.25h28.292a6.032,6.032,0,0,0,6.034-6.03A6.034,6.034,0,0,0,934.491-351.049Z" fill="#f2d0a5"/>
        <path id="Trazado_26860" data-name="Trazado 26860" d="M934.59-357.328a6.033,6.033,0,0,1-6.035,6.03h-19.6a6.033,6.033,0,0,1-6.036-6.03h0a6.033,6.033,0,0,1,6.036-6.03h19.6a6.033,6.033,0,0,1,6.035,6.03Z" fill="#ffe4c2"/>
        <path id="Trazado_26861" data-name="Trazado 26861" d="M930.34-363.09a6.017,6.017,0,0,1,.268,1.78,6.033,6.033,0,0,1-6.035,6.03h-19.6a6.029,6.029,0,0,1-1.787-.269,6.038,6.038,0,0,0,5.769,4.251h19.6a6.033,6.033,0,0,0,6.035-6.03A6.033,6.033,0,0,0,930.34-363.09Z" fill="#f2d0a5"/>
        <circle id="Elipse_998" data-name="Elipse 998" cx="3.683" cy="3.683" r="3.683" transform="translate(983.68 -359.59)" fill="#f0eef0"/>
      </g>
      <g id="Grupo_17053" data-name="Grupo 17053">
        <path id="Trazado_26862" data-name="Trazado 26862" d="M906.386-389.361a.819.819,0,0,1,.126.365l-2.085,12.143a1.942,1.942,0,0,0,2.879,2.092l10.9-5.727a.824.824,0,0,1,.388-.007l10.913,5.734a1.949,1.949,0,0,0,2.879-2.093l-2.082-12.127a.811.811,0,0,1,.112-.369l8.829-8.6a1.949,1.949,0,0,0-1.1-3.385L925.961-403.1a.8.8,0,0,1-.317-.221l-5.456-11.048a1.949,1.949,0,0,0-3.559,0l-5.45,11.035a.815.815,0,0,1-.309.233l-12.2,1.771a1.949,1.949,0,0,0-1.1,3.385ZM911.3-400.15a3.634,3.634,0,0,0,2.55-1.852l4.56-9.231,4.557,9.23a3.63,3.63,0,0,0,2.551,1.852l10.191,1.48-7.373,7.182a3.631,3.631,0,0,0-.975,3l1.742,10.143-9.117-4.79a3.63,3.63,0,0,0-3.152,0l-9.119,4.79,1.741-10.143a3.627,3.627,0,0,0-.974-3l-7.373-7.182Z" fill="#00223d"/>
        <path id="Trazado_26863" data-name="Trazado 26863" d="M996.337-367.8H978.388a2.492,2.492,0,0,0-2.489,2.488,4.808,4.808,0,0,1,0,1.131c-9.433-.776-16.132-7.546-16.624-16.966-.285-5.461,2.64-19.108-6.225-19.108-5.687,0-8.327,4.69-9.541,8.625a43.3,43.3,0,0,0-1.521,12.475,1.494,1.494,0,0,0,2.987,0,40.414,40.414,0,0,1,1.388-11.6c1.353-4.386,3.54-6.518,6.687-6.518,3.64,0,3.311,4.8,3.306,7.325-.009,4.822-.563,9.759.771,14.47,2.378,8.4,10.267,13.694,18.767,14.289v35.858a31.8,31.8,0,0,1-22.154,8.709H932.875a7.577,7.577,0,0,0-.513-9.7,7.587,7.587,0,0,0,2.712-11.827c7.035-2.337,6.564-12.782-.659-14.465a7.572,7.572,0,0,0,.14-9.253h7.419a41.033,41.033,0,0,0,2.011,12.032c3.139,9.322,9.583,14.813,18.635,15.88a1.494,1.494,0,0,0,.35-2.965c-10.906-1.287-16.392-10.574-17.692-20.732-.619-4.836-.3-9.86-.3-14.722a1.494,1.494,0,0,0-2.986,0v7.52H908.956a7.582,7.582,0,0,0-5.916,12.169c-6.633,1.229-8.308,10.279-2.552,13.811a7.589,7.589,0,0,0,3.965,13.1,7.583,7.583,0,0,0,5.943,12.131l43.345.011a34.89,34.89,0,0,0,22.159-7.673v2.927a2.491,2.491,0,0,0,2.488,2.488h6.264a1.494,1.494,0,0,0,0-2.986h-5.766v-45.939H995.84v45.939h-4.6a1.494,1.494,0,0,0,0,2.986h5.1a2.491,2.491,0,0,0,2.488-2.488v-46.935A2.491,2.491,0,0,0,996.337-367.8Zm-87.381,5.939h19.6a4.545,4.545,0,0,1,4.542,4.537,4.544,4.544,0,0,1-4.136,4.518H908.55a4.545,4.545,0,0,1-4.137-4.518A4.545,4.545,0,0,1,908.956-361.865Zm-4.542,21.114a4.544,4.544,0,0,1-4.54-4.537,4.543,4.543,0,0,1,4.54-4.536h28.292a4.544,4.544,0,0,1,4.541,4.536,4.545,4.545,0,0,1-4.541,4.537Zm-3.483,7.523a4.524,4.524,0,0,1,4.476-4.537h24a4.545,4.545,0,0,1,4.519,4.537,4.544,4.544,0,0,1-4.542,4.536H905.471A4.543,4.543,0,0,1,900.931-333.228Zm4.925,12.059a4.544,4.544,0,0,1,4.54-4.537h16.489a4.544,4.544,0,0,1,4.54,4.537,4.544,4.544,0,0,1-4.54,4.537H910.4A4.544,4.544,0,0,1,905.856-321.169Z" fill="#00223d"/>
        <path id="Trazado_26864" data-name="Trazado 26864" d="M992.54-355.907a5.183,5.183,0,0,0-5.177-5.177,5.183,5.183,0,0,0-5.176,5.177,5.182,5.182,0,0,0,5.176,5.176A5.182,5.182,0,0,0,992.54-355.907Zm-5.177,2.19a2.193,2.193,0,0,1-2.19-2.19,2.193,2.193,0,0,1,2.19-2.19,2.192,2.192,0,0,1,2.19,2.19A2.192,2.192,0,0,1,987.363-353.717Z" fill="#00223d"/>
      </g>
    </g>
  </g>
</svg>
