<svg xmlns="http://www.w3.org/2000/svg" xmlns:xlink="http://www.w3.org/1999/xlink" width="108" height="108" viewBox="0 0 108 108">
  <defs>
    <filter id="Elipse_5713" x="0" y="0" width="108" height="108" filterUnits="userSpaceOnUse">
      <feOffset dy="3" input="SourceAlpha"/>
      <feGaussianBlur stdDeviation="3" result="blur"/>
      <feFlood flood-opacity="0.161"/>
      <feComposite operator="in" in2="blur"/>
      <feComposite in="SourceGraphic"/>
    </filter>
  </defs>
  <g id="Grupo_1008766" data-name="Grupo 1008766" transform="translate(-171 -2653.893)">
    <g transform="matrix(1, 0, 0, 1, 171, 2653.89)" filter="url(#Elipse_5713)">
      <g id="Elipse_5713-2" data-name="Elipse 5713" transform="translate(9 6)" fill="#fff" stroke="#eff3f6" stroke-width="2">
        <circle cx="45" cy="45" r="45" stroke="none"/>
        <circle cx="45" cy="45" r="44" fill="none"/>
      </g>
    </g>
    <g id="Grupo_1008750" data-name="Grupo 1008750" transform="translate(201 2681.893)">
      <g id="Grupo_16681" data-name="Grupo 16681" transform="translate(0.692 0.691)">
        <g id="Grupo_16679" data-name="Grupo 16679" transform="translate(0 0)">
          <path id="Trazado_26032" data-name="Trazado 26032" d="M1019.412-259.561v28.538a1.265,1.265,0,0,0,1.265,1.265h37.29a1.265,1.265,0,0,0,1.265-1.265v-28.538a1.265,1.265,0,0,0-1.265-1.265h-37.29A1.265,1.265,0,0,0,1019.412-259.561Z" transform="translate(-1019.412 263.921)" fill="#ebeef2"/>
          <path id="Trazado_26033" data-name="Trazado 26033" d="M1129.59-260.825h-2.29a1.265,1.265,0,0,1,1.265,1.265v28.538a1.265,1.265,0,0,1-1.265,1.265h2.29a1.265,1.265,0,0,0,1.265-1.265V-259.56A1.265,1.265,0,0,0,1129.59-260.825Z" transform="translate(-1091.036 263.92)" fill="#d1d6de"/>
          <g id="Grupo_16678" data-name="Grupo 16678" transform="translate(8.772 7.056)">
            <g id="Grupo_16674" data-name="Grupo 16674" transform="translate(0 8.87)">
              <ellipse id="Elipse_944" data-name="Elipse 944" cx="1.614" cy="1.614" rx="1.614" ry="1.614" fill="#5c9cee"/>
            </g>
            <g id="Grupo_16675" data-name="Grupo 16675" transform="translate(6.349 5.265)">
              <circle id="Elipse_945" data-name="Elipse 945" cx="1.614" cy="1.614" r="1.614" fill="#f2df33"/>
            </g>
            <g id="Grupo_16676" data-name="Grupo 16676" transform="translate(12.698 8.87)">
              <circle id="Elipse_946" data-name="Elipse 946" cx="1.614" cy="1.614" r="1.614" fill="#ed5575"/>
            </g>
            <g id="Grupo_16677" data-name="Grupo 16677" transform="translate(19.046)">
              <circle id="Elipse_947" data-name="Elipse 947" cx="1.614" cy="1.614" r="1.614" fill="#9fd479"/>
            </g>
          </g>
          <path id="Trazado_26034" data-name="Trazado 26034" d="M1039.423-166.182V-168.4h26.367v2.214a.881.881,0,0,1-.881.881H1040.3A.881.881,0,0,1,1039.423-166.182Z" transform="translate(-1032.697 202.559)" fill="#f2df33"/>
          <path id="Trazado_26035" data-name="Trazado 26035" d="M1109.473-168.4v2.214a.881.881,0,0,1-.881.881h2.237a.881.881,0,0,0,.881-.881V-168.4Z" transform="translate(-1078.616 202.559)" fill="#fcab29"/>
          <path id="Trazado_26036" data-name="Trazado 26036" d="M1069.281-266.939v-2.051a1.044,1.044,0,0,1,1.044-1.044h4.207a1.044,1.044,0,0,1,1.044,1.044v2.051h-6.295Z" transform="translate(-1052.519 270.034)" fill="#f2df33"/>
          <path id="Trazado_26037" data-name="Trazado 26037" d="M1080.454-270.033H1078.2a1.044,1.044,0,0,1,1.044,1.044v2.051h2.253v-2.051A1.044,1.044,0,0,0,1080.454-270.033Z" transform="translate(-1058.441 270.033)" fill="#fcab29"/>
          <rect id="Rectángulo_4091" data-name="Rectángulo 4091" width="2.806" height="6.112" transform="translate(8.983 24.074)" fill="#48cfb7"/>
          <rect id="Rectángulo_4092" data-name="Rectángulo 4092" width="2.806" height="9.647" transform="translate(15.332 20.539)" fill="#48cfb7"/>
          <rect id="Rectángulo_4093" data-name="Rectángulo 4093" width="2.806" height="6.112" transform="translate(21.681 24.074)" fill="#48cfb7"/>
          <rect id="Rectángulo_4094" data-name="Rectángulo 4094" width="2.806" height="12.404" transform="translate(28.03 17.783)" fill="#48cfb7"/>
        </g>
        <g id="Grupo_16680" data-name="Grupo 16680" transform="translate(27.255 12.719)">
          <path id="Trazado_26038" data-name="Trazado 26038" d="M1129.706-192.088l5.149,8.919a1.938,1.938,0,0,0,2.647.709h0a1.938,1.938,0,0,0,.71-2.647l-5.149-8.919Z" transform="translate(-1119.889 206.856)" fill="#ed5575"/>
          <path id="Trazado_26039" data-name="Trazado 26039" d="M1133.063-194.026l-3.357,1.938,2.007,3.477a10.539,10.539,0,0,0,1.768-.813,10.543,10.543,0,0,0,1.589-1.124Z" transform="translate(-1119.889 206.856)" fill="#cc3a60"/>
          <circle id="Elipse_948" data-name="Elipse 948" cx="8.349" cy="8.349" r="8.349" fill="#f2df33"/>
          <circle id="Elipse_949" data-name="Elipse 949" cx="5.876" cy="5.876" r="5.876" transform="translate(2.473 2.473)" fill="#5c9cee"/>
        </g>
      </g>
      <g id="Grupo_16682" data-name="Grupo 16682" transform="translate(0 0)">
        <path id="Trazado_26040" data-name="Trazado 26040" d="M1064.806-246.488a2.308,2.308,0,0,0,2.306-2.306,2.308,2.308,0,0,0-2.306-2.306,2.308,2.308,0,0,0-2.306,2.306,2.294,2.294,0,0,0,.463,1.385l-3.788,5.294a2.3,2.3,0,0,0-.718-.115,2.3,2.3,0,0,0-1.569.619l-2.525-1.433a2.3,2.3,0,0,0,.052-.485,2.308,2.308,0,0,0-2.306-2.306,2.309,2.309,0,0,0-2.306,2.306,2.3,2.3,0,0,0,.052.485l-2.525,1.433a2.3,2.3,0,0,0-1.57-.619,2.308,2.308,0,0,0-2.306,2.306,2.308,2.308,0,0,0,2.306,2.306,2.308,2.308,0,0,0,2.306-2.306,2.306,2.306,0,0,0-.052-.485l2.525-1.433a2.3,2.3,0,0,0,1.569.619,2.3,2.3,0,0,0,1.57-.619l2.525,1.433a2.3,2.3,0,0,0-.052.485,2.309,2.309,0,0,0,2.306,2.306,2.308,2.308,0,0,0,2.306-2.306,2.294,2.294,0,0,0-.464-1.385l3.788-5.294A2.3,2.3,0,0,0,1064.806-246.488Zm0-3.228a.923.923,0,0,1,.922.923.923.923,0,0,1-.922.922.923.923,0,0,1-.922-.922A.923.923,0,0,1,1064.806-249.716ZM1045.76-239a.923.923,0,0,1-.922-.922.923.923,0,0,1,.922-.923.923.923,0,0,1,.922.923A.923.923,0,0,1,1045.76-239Zm6.349-3.6a.923.923,0,0,1-.922-.922.923.923,0,0,1,.922-.922.923.923,0,0,1,.922.922A.923.923,0,0,1,1052.108-242.606Zm6.349,3.6a.923.923,0,0,1-.922-.922.923.923,0,0,1,.922-.923.923.923,0,0,1,.922.923A.923.923,0,0,1,1058.457-239Z" transform="translate(-1034.681 258.155)" fill="#00223d"/>
        <path id="Trazado_26041" data-name="Trazado 26041" d="M1055.98-231.815h-36.669a.574.574,0,0,1-.573-.573v-28.538a.574.574,0,0,1,.573-.573h3.261a.692.692,0,0,0,.691-.692.691.691,0,0,0-.691-.692h-3.261a1.959,1.959,0,0,0-1.957,1.957v28.538a1.959,1.959,0,0,0,1.957,1.957h4.77v1.522a1.575,1.575,0,0,0,1.573,1.573h6.924l-3.259,6.364a.692.692,0,0,0,.3.931.688.688,0,0,0,.315.076.691.691,0,0,0,.616-.376l3.582-6.994h7.648l3.583,6.994a.69.69,0,0,0,.616.376.691.691,0,0,0,.315-.076.692.692,0,0,0,.3-.931l-3.259-6.364h6.924a1.574,1.574,0,0,0,1.573-1.573v-1.522h4.149a.692.692,0,0,0,.692-.692A.692.692,0,0,0,1055.98-231.815Zm-5.533,2.906a.189.189,0,0,1-.189.189h-24.605a.189.189,0,0,1-.189-.189v-1.522h24.984Z" transform="translate(-1017.354 265.978)" fill="#00223d"/>
        <path id="Trazado_26042" data-name="Trazado 26042" d="M1039.742-267.612H1071a.574.574,0,0,1,.573.573v6.577a.692.692,0,0,0,.692.692.692.692,0,0,0,.692-.692v-6.577A1.959,1.959,0,0,0,1071-269H1056.2v-1.36a1.737,1.737,0,0,0-1.736-1.735h-4.207a1.737,1.737,0,0,0-1.735,1.735V-269h-8.778a.692.692,0,0,0-.692.692A.692.692,0,0,0,1039.742-267.612Zm10.161-2.743a.352.352,0,0,1,.352-.352h4.207a.352.352,0,0,1,.352.352V-269H1049.9v-1.36Z" transform="translate(-1031.757 272.091)" fill="#00223d"/>
        <path id="Trazado_26043" data-name="Trazado 26043" d="M1044.772-200.47a.692.692,0,0,0-.692.692v6.112a.692.692,0,0,0,.692.692h2.806a.692.692,0,0,0,.692-.692v-6.112a.692.692,0,0,0-.692-.692Zm2.115,6.112h-1.423v-4.729h1.423Z" transform="translate(-1035.097 224.544)" fill="#00223d"/>
        <path id="Trazado_26044" data-name="Trazado 26044" d="M1063.66-210.987a.692.692,0,0,0-.692.692v9.648a.692.692,0,0,0,.692.692h2.806a.692.692,0,0,0,.692-.692V-210.3a.692.692,0,0,0-.692-.692Zm2.115,9.648h-1.423V-209.6h1.423Z" transform="translate(-1047.636 231.526)" fill="#00223d"/>
        <path id="Trazado_26045" data-name="Trazado 26045" d="M1082.548-200.47a.692.692,0,0,0-.692.692v6.112a.692.692,0,0,0,.692.692h2.806a.692.692,0,0,0,.692-.692v-6.112a.692.692,0,0,0-.692-.692Zm2.115,6.112h-1.423v-4.729h1.423Z" transform="translate(-1060.175 224.544)" fill="#00223d"/>
        <path id="Trazado_26046" data-name="Trazado 26046" d="M1101.436-188.326a.692.692,0,0,0-.692.692v2.031a.692.692,0,0,0,.692.692h2.806a.692.692,0,0,0,.692-.692.692.692,0,0,0-.692-.692h-2.115v-1.339A.691.691,0,0,0,1101.436-188.326Z" transform="translate(-1072.714 216.482)" fill="#00223d"/>
        <path id="Trazado_26047" data-name="Trazado 26047" d="M1118.059-212.155l-3.969-6.873a8.992,8.992,0,0,0,2.129-3.841,8.982,8.982,0,0,0-.9-6.86,9.052,9.052,0,0,0-12.35-3.309,9.051,9.051,0,0,0-3.309,12.351,8.982,8.982,0,0,0,5.49,4.212,9.09,9.09,0,0,0,2.354.312,8.923,8.923,0,0,0,2.036-.235l3.968,6.874a2.63,2.63,0,0,0,2.282,1.314,2.615,2.615,0,0,0,1.31-.352,2.638,2.638,0,0,0,1.315-2.279A2.632,2.632,0,0,0,1118.059-212.155Zm-12.555-5.657a7.607,7.607,0,0,1-4.65-3.568,7.666,7.666,0,0,1,2.8-10.461,7.608,7.608,0,0,1,3.816-1.025,7.663,7.663,0,0,1,6.645,3.827,7.607,7.607,0,0,1,.765,5.811,7.607,7.607,0,0,1-3.568,4.65A7.606,7.606,0,0,1,1105.5-217.812Zm10.9,8.051a1.247,1.247,0,0,1-1.7-.456l-3.817-6.613a9.231,9.231,0,0,0,1.121-.549,9.178,9.178,0,0,0,1.036-.7l3.818,6.614a1.246,1.246,0,0,1,.167.622A1.25,1.25,0,0,1,1116.4-209.761Z" transform="translate(-1071.189 246.968)" fill="#00223d"/>
        <path id="Trazado_26048" data-name="Trazado 26048" d="M1118.633-218.384a6.547,6.547,0,0,0-.327-4.742.692.692,0,0,0-.921-.331.692.692,0,0,0-.331.921,5.166,5.166,0,0,1,.258,3.742,5.167,5.167,0,0,1-2.359,2.951,5.15,5.15,0,0,1-3.934.518,5.149,5.149,0,0,1-3.148-2.415,5.19,5.19,0,0,1,1.9-7.082,5.177,5.177,0,0,1,5.723.356.691.691,0,0,0,.969-.134.692.692,0,0,0-.134-.969,6.557,6.557,0,0,0-7.25-.451,6.525,6.525,0,0,0-3.06,3.988,6.526,6.526,0,0,0,.656,4.984,6.525,6.525,0,0,0,3.988,3.06,6.606,6.606,0,0,0,1.71.227,6.53,6.53,0,0,0,3.273-.883A6.548,6.548,0,0,0,1118.633-218.384Z" transform="translate(-1076.065 242.092)" fill="#00223d"/>
      </g>
    </g>
  </g>
</svg>
