<svg xmlns="http://www.w3.org/2000/svg" xmlns:xlink="http://www.w3.org/1999/xlink" width="155.887" height="156.718" viewBox="0 0 155.887 156.718">
  <defs>
    <filter id="AdobeStock_503024245" x="0" y="0" width="155.887" height="156.718" filterUnits="userSpaceOnUse">
      <feOffset dx="3" dy="3" input="SourceAlpha"/>
      <feGaussianBlur stdDeviation="3" result="blur"/>
      <feFlood flood-opacity="0.161"/>
      <feComposite operator="in" in2="blur"/>
      <feComposite in="SourceGraphic"/>
    </filter>
  </defs>
  <g id="Grupo_1008799" data-name="Grupo 1008799" transform="translate(-1069 -5319.893)">
    <g transform="matrix(1, 0, 0, 1, 1069, 5319.89)" filter="url(#AdobeStock_503024245)">
      <g id="AdobeStock_503024245-2" data-name="AdobeStock_503024245" transform="translate(6 6)" fill="#fff" stroke="#fff" stroke-width="3">
        <ellipse cx="68.944" cy="69.359" rx="68.944" ry="69.359" stroke="none"/>
        <ellipse cx="68.944" cy="69.359" rx="67.444" ry="67.859" fill="none"/>
      </g>
    </g>
    <g id="Grupo_16840" data-name="Grupo 16840" transform="translate(1102 5357.893)">
      <path id="Trazado_26354" data-name="Trazado 26354" d="M2286.33-174.5a.563.563,0,0,1-.563-.563v-19.918l.039-.024a10.4,10.4,0,0,1-5.312,1.453,10.4,10.4,0,0,1-5.47-1.546,11.661,11.661,0,0,0-7.07,5.8h.891a.81.81,0,0,1,.811.81v3.25a.81.81,0,0,1-.811.81h-.313v22.669h26.031V-174.5h-8.234Z" transform="translate(-2236.396 235.936)" fill="#80d261"/>
      <g id="Grupo_16824" data-name="Grupo 16824" transform="translate(31.558 40.843)">
        <path id="Trazado_26355" data-name="Trazado 26355" d="M2277.078-194.121a10.413,10.413,0,0,1-2.055-.972,11.657,11.657,0,0,0-7.07,5.8h.891a.81.81,0,0,1,.811.81v3.25a.811.811,0,0,1-.811.811h-.313v22.668h3.582v-22.172a11.6,11.6,0,0,1,4.964-9.522v-.67Z" transform="translate(-2267.954 195.093)" fill="#68ca44"/>
      </g>
      <path id="Trazado_26356" data-name="Trazado 26356" d="M2273.216-168.749h-4.5v8.916h4.5a.487.487,0,0,0,.487-.487v-7.943A.487.487,0,0,0,2273.216-168.749Z" transform="translate(-2236.584 229.462)" fill="#fff"/>
      <path id="Trazado_26357" data-name="Trazado 26357" d="M2299.243-185.85v-3.25a.811.811,0,0,1,.811-.81h2.2v-5.808a1.873,1.873,0,0,0-1.874-1.873h-6.338a10.509,10.509,0,0,1-2.466,2v19.919a.562.562,0,0,0,.562.562h8.234v-9.929h-.313a.811.811,0,0,1-.811-.811Z" transform="translate(-2242.199 236.549)" fill="#fe9901"/>
      <path id="Trazado_26358" data-name="Trazado 26358" d="M2295.688-175.672v-21.919h-1.65a10.5,10.5,0,0,1-2.467,2v19.919a.563.563,0,0,0,.563.562h4.117a.563.563,0,0,1-.562-.563Z" transform="translate(-2242.199 236.549)" fill="#fb8801"/>
      <path id="Trazado_26359" data-name="Trazado 26359" d="M2279.434-239.907h5.572a10.966,10.966,0,0,1,3.224.483,4.925,4.925,0,0,0,1.231-3.256,4.963,4.963,0,0,0-4.949-4.949h-4.583a4.963,4.963,0,0,0-4.949,4.949,4.925,4.925,0,0,0,1.231,3.256,10.97,10.97,0,0,1,3.224-.483Z" transform="translate(-2238.122 248.845)" fill="#838383"/>
      <path id="Trazado_26360" data-name="Trazado 26360" d="M2279.434-239.907h1.287a4.908,4.908,0,0,1-.858-2.773,4.963,4.963,0,0,1,4.8-4.946c-.051,0-.1,0-.153,0h-4.583a4.964,4.964,0,0,0-4.949,4.95,4.925,4.925,0,0,0,1.231,3.255A10.97,10.97,0,0,1,2279.434-239.907Z" transform="translate(-2238.122 248.845)" fill="#5a5a5a"/>
      <path id="Trazado_26361" data-name="Trazado 26361" d="M2283.466-193.231a10.422,10.422,0,0,1-3.416-.574v3.433a3.425,3.425,0,0,0,3.416,3.415,3.426,3.426,0,0,0,3.415-3.415v-3.433A10.426,10.426,0,0,1,2283.466-193.231Z" transform="translate(-2239.368 235.619)" fill="#ffc495"/>
      <path id="Trazado_26362" data-name="Trazado 26362" d="M2282.784-190.372v-2.884a10.384,10.384,0,0,1-2.734-.549v3.433a3.425,3.425,0,0,0,3.416,3.415,3.381,3.381,0,0,0,1.367-.29,3.425,3.425,0,0,1-2.049-3.126Z" transform="translate(-2239.368 235.619)" fill="#ffb392"/>
      <path id="Trazado_26363" data-name="Trazado 26363" d="M2268.274-221.387h1.377v-1.124a.764.764,0,0,1,.452-.7l11.281-5.051a2.814,2.814,0,0,1,1.151-.246h5.2a2.816,2.816,0,0,1,2.816,2.816v4.3h1.377a3.922,3.922,0,0,1,1.922.5v-5.542a10.963,10.963,0,0,0-10.963-10.963h-5.571a10.963,10.963,0,0,0-10.963,10.963v5.542a3.919,3.919,0,0,1,1.922-.5Z" transform="translate(-2236.002 246.329)" fill="#5a5a5a"/>
      <g id="Grupo_16825" data-name="Grupo 16825" transform="translate(33.649 17.824)">
        <path id="Trazado_26364" data-name="Trazado 26364" d="M2270.726-219.616v8.121a10.449,10.449,0,0,0,10.449,10.449,10.449,10.449,0,0,0,10.449-10.449v-11.3a2.816,2.816,0,0,0-2.816-2.816h-5.2a2.817,2.817,0,0,0-1.151.246l-11.281,5.051A.764.764,0,0,0,2270.726-219.616Z" transform="translate(-2270.726 225.61)" fill="#ffe6c3"/>
      </g>
      <path id="Trazado_26365" data-name="Trazado 26365" d="M2277.314-237.391a10.964,10.964,0,0,0-10.963,10.963v5.542a3.924,3.924,0,0,1,1.922-.5h1.377v-1.124a.763.763,0,0,1,.452-.7l1.72-.771v-2.449a10.963,10.963,0,0,1,10.962-10.963h-5.472Z" transform="translate(-2236.002 246.329)" fill="#444"/>
      <g id="Grupo_16826" data-name="Grupo 16826" transform="translate(28.333 24.942)">
        <path id="Trazado_26366" data-name="Trazado 26366" d="M2268.994-209.176v-7h-1.377a3.939,3.939,0,0,0-3.939,3.939v1.655a3.938,3.938,0,0,0,3.939,3.938h1.689a10.486,10.486,0,0,1-.312-2.535Z" transform="translate(-2263.678 216.173)" fill="#ffc495"/>
        <path id="Trazado_26367" data-name="Trazado 26367" d="M2299.707-216.173h-1.377v7a10.474,10.474,0,0,1-.311,2.535h1.688a3.939,3.939,0,0,0,3.939-3.938v-1.655a3.939,3.939,0,0,0-3.939-3.939Z" transform="translate(-2272.116 216.173)" fill="#ffc495"/>
      </g>
      <g id="Grupo_16827" data-name="Grupo 16827" transform="translate(33.649 21.48)">
        <path id="Trazado_26368" data-name="Trazado 26368" d="M2274.844-211.688v-9.076l-3.666,1.641a.765.765,0,0,0-.452.7v8.121a10.449,10.449,0,0,0,10.449,10.449,10.456,10.456,0,0,0,2.666-.345,11.834,11.834,0,0,1-9-11.488Z" transform="translate(-2270.726 220.764)" fill="#ffd2a9"/>
      </g>
      <path id="Trazado_26369" data-name="Trazado 26369" d="M2255.008-197.7H2250.9a1.868,1.868,0,0,1-.57-.089v7.826h5.246v-7.827a1.855,1.855,0,0,1-.571.09Z" transform="translate(-2232.066 236.597)" fill="#ffc495"/>
      <path id="Trazado_26370" data-name="Trazado 26370" d="M2238.915-180.95V-159.9a1.621,1.621,0,0,0,1.621,1.621h20.86V-180.95Z" transform="translate(-2229.26 232.46)" fill="#d8ecfe"/>
      <path id="Trazado_26371" data-name="Trazado 26371" d="M2243.038-159.9V-180.95h-4.123V-159.9a1.621,1.621,0,0,0,1.621,1.621h4.123A1.621,1.621,0,0,1,2243.038-159.9Z" transform="translate(-2229.26 232.46)" fill="#c4e2ff"/>
      <g id="Grupo_16828" data-name="Grupo 16828" transform="translate(8.531 46.639)">
        <path id="Trazado_26372" data-name="Trazado 26372" d="M2261.344-182.537h-23.109a.811.811,0,0,1-.81-.811v-3.25a.81.81,0,0,1,.81-.81h23.109a.81.81,0,0,1,.81.81v3.25A.811.811,0,0,1,2261.344-182.537Z" transform="translate(-2237.425 187.408)" fill="#c4e2ff"/>
      </g>
      <g id="Grupo_16829" data-name="Grupo 16829" transform="translate(8.531 46.639)">
        <path id="Trazado_26373" data-name="Trazado 26373" d="M2241.812-184.68a.81.81,0,0,1-.81-.81v-1.918h-2.767a.81.81,0,0,0-.81.81v3.25a.811.811,0,0,0,.81.811h23.109a.811.811,0,0,0,.81-.811v-1.332Z" transform="translate(-2237.425 187.408)" fill="#b3dafe"/>
      </g>
      <g id="Grupo_16830" data-name="Grupo 16830" transform="translate(16.971 32.743)">
        <path id="Trazado_26374" data-name="Trazado 26374" d="M2248.614-201.538v-2.426a1.866,1.866,0,0,1,1.866-1.866h4.105a1.867,1.867,0,0,1,1.867,1.866v2.426a1.867,1.867,0,0,1-1.867,1.866h-4.105A1.866,1.866,0,0,1,2248.614-201.538Z" transform="translate(-2248.614 205.831)" fill="#ffe6c3"/>
      </g>
      <g id="Grupo_16831" data-name="Grupo 16831" transform="translate(16.97 32.743)">
        <path id="Trazado_26375" data-name="Trazado 26375" d="M2251.959-201.538v-2.426a1.866,1.866,0,0,1,1.866-1.866h-3.345a1.867,1.867,0,0,0-1.867,1.866v2.426a1.867,1.867,0,0,0,1.867,1.866h3.345A1.866,1.866,0,0,1,2251.959-201.538Z" transform="translate(-2248.613 205.831)" fill="#ffd2a9"/>
      </g>
      <path id="Trazado_26376" data-name="Trazado 26376" d="M2319.326-197.7h-4.106a1.871,1.871,0,0,1-.57-.089v7.826h5.246v-7.827a1.856,1.856,0,0,1-.57.09Z" transform="translate(-2247.87 236.597)" fill="#ffc495"/>
      <path id="Trazado_26377" data-name="Trazado 26377" d="M2303.233-180.95v22.668h20.86a1.621,1.621,0,0,0,1.621-1.621V-180.95Z" transform="translate(-2245.065 232.46)" fill="#d8ecfe"/>
      <path id="Trazado_26378" data-name="Trazado 26378" d="M2307.356-159.9V-180.95h-4.123v22.668h5.743A1.62,1.62,0,0,1,2307.356-159.9Z" transform="translate(-2245.065 232.46)" fill="#c4e2ff"/>
      <g id="Grupo_16832" data-name="Grupo 16832" transform="translate(57.044 46.639)">
        <path id="Trazado_26379" data-name="Trazado 26379" d="M2325.662-182.537h-23.109a.812.812,0,0,1-.811-.811v-3.25a.811.811,0,0,1,.811-.81h23.109a.81.81,0,0,1,.81.81v3.25A.811.811,0,0,1,2325.662-182.537Z" transform="translate(-2301.742 187.408)" fill="#c4e2ff"/>
      </g>
      <g id="Grupo_16833" data-name="Grupo 16833" transform="translate(57.044 46.639)">
        <path id="Trazado_26380" data-name="Trazado 26380" d="M2306.13-184.68a.81.81,0,0,1-.81-.81v-1.918h-2.767a.811.811,0,0,0-.811.81v3.25a.812.812,0,0,0,.811.811h23.109a.811.811,0,0,0,.81-.811v-1.332Z" transform="translate(-2301.742 187.408)" fill="#b3dafe"/>
      </g>
      <g id="Grupo_16834" data-name="Grupo 16834" transform="translate(65.483 32.743)">
        <path id="Trazado_26381" data-name="Trazado 26381" d="M2312.931-201.538v-2.426a1.867,1.867,0,0,1,1.867-1.866h4.106a1.866,1.866,0,0,1,1.866,1.866v2.426a1.866,1.866,0,0,1-1.866,1.866H2314.8A1.867,1.867,0,0,1,2312.931-201.538Z" transform="translate(-2312.931 205.831)" fill="#ffe6c3"/>
      </g>
      <g id="Grupo_16835" data-name="Grupo 16835" transform="translate(65.483 32.743)">
        <path id="Trazado_26382" data-name="Trazado 26382" d="M2316.277-201.538v-2.426a1.867,1.867,0,0,1,1.866-1.866H2314.8a1.867,1.867,0,0,0-1.867,1.866v2.426a1.867,1.867,0,0,0,1.867,1.866h3.345A1.867,1.867,0,0,1,2316.277-201.538Z" transform="translate(-2312.931 205.831)" fill="#ffd2a9"/>
      </g>
      <g id="Grupo_16836" data-name="Grupo 16836" transform="translate(1.215 4.486)">
        <path id="Trazado_26383" data-name="Trazado 26383" d="M2250.4-220.987l-1.527-5.7a11.2,11.2,0,0,0,1.353-5.352,11.251,11.251,0,0,0-11.251-11.251,11.251,11.251,0,0,0-11.251,11.251,11.251,11.251,0,0,0,11.251,11.251,11.2,11.2,0,0,0,5.906-1.674Z" transform="translate(-2227.726 243.293)" fill="#d8ecfe"/>
      </g>
      <g id="Grupo_16837" data-name="Grupo 16837" transform="translate(8.833 9.976)">
        <path id="Trazado_26384" data-name="Trazado 26384" d="M2241.459-236.015l-3.142,5.442a3.628,3.628,0,0,0,3.141,5.442,3.628,3.628,0,0,0,3.143-5.442Z" transform="translate(-2237.825 236.015)" fill="#00a7d3"/>
      </g>
      <g id="Grupo_16838" data-name="Grupo 16838" transform="translate(8.833 9.976)">
        <path id="Trazado_26385" data-name="Trazado 26385" d="M2241.505-230.573l1.548-2.681-1.594-2.761-3.142,5.442a3.628,3.628,0,0,0,3.141,5.442,3.617,3.617,0,0,0,1.595-.364A3.632,3.632,0,0,1,2241.505-230.573Z" transform="translate(-2237.825 236.015)" fill="#0096d3"/>
      </g>
      <g id="Grupo_16839" data-name="Grupo 16839" transform="translate(0 0)">
        <path id="Trazado_26386" data-name="Trazado 26386" d="M2244.664-221.556l5.029,1.347a1.213,1.213,0,0,0,1.174-.315,1.214,1.214,0,0,0,.314-1.174l-1.407-5.249a12.5,12.5,0,0,0,1.272-5.491,12.486,12.486,0,0,0-1.453-5.84,1.215,1.215,0,0,0-1.644-.5,1.215,1.215,0,0,0-.5,1.644,10.062,10.062,0,0,1,1.168,4.7,10.047,10.047,0,0,1-1.207,4.773,1.218,1.218,0,0,0-.1.894l.983,3.669-3.486-.935a1.214,1.214,0,0,0-.954.14,10.012,10.012,0,0,1-5.267,1.493,10.047,10.047,0,0,1-10.035-10.036,10.046,10.046,0,0,1,10.036-10.035,9.991,9.991,0,0,1,5.438,1.6,1.216,1.216,0,0,0,1.681-.361,1.216,1.216,0,0,0-.36-1.681,12.423,12.423,0,0,0-6.759-1.994,12.481,12.481,0,0,0-12.467,12.467,12.481,12.481,0,0,0,12.467,12.467,12.438,12.438,0,0,0,6.082-1.585Z" transform="translate(-2226.115 248.176)" fill="#00223d"/>
        <path id="Trazado_26387" data-name="Trazado 26387" d="M2241.062-237.627a1.214,1.214,0,0,0-1.052.608l-3.142,5.442a4.793,4.793,0,0,0,0,4.844,4.793,4.793,0,0,0,4.194,2.422,4.8,4.8,0,0,0,4.2-2.422,4.8,4.8,0,0,0,0-4.844l-3.143-5.442A1.215,1.215,0,0,0,2241.062-237.627Zm2.089,9.678a2.387,2.387,0,0,1-2.089,1.207,2.389,2.389,0,0,1-2.089-1.207,2.388,2.388,0,0,1,0-2.412l2.089-3.619,2.089,3.619a2.385,2.385,0,0,1,0,2.412Z" transform="translate(-2228.596 246.387)" fill="#00223d"/>
        <path id="Trazado_26388" data-name="Trazado 26388" d="M2309.461-203.818h-1.346v-1.519a10.211,10.211,0,0,0-5.079-8.82v-.474a3.085,3.085,0,0,0-3.082-3.082h-4.105a3.086,3.086,0,0,0-3.083,3.082v.481a10.286,10.286,0,0,0-3.724,3.76,3.084,3.084,0,0,0-2.367-1.108h-3.967a11.624,11.624,0,0,0,.93-2.052h.784a5.161,5.161,0,0,0,5.155-5.154v-1.655a5.146,5.146,0,0,0-2.016-4.085v-4.9c0-.092,0-.185-.005-.277h1.888a1.215,1.215,0,0,0,1.216-1.215,1.216,1.216,0,0,0-1.216-1.216h-2.187a12.147,12.147,0,0,0-2.537-5.1l1.224-1.223a1.215,1.215,0,0,0,0-1.719,1.215,1.215,0,0,0-1.719,0l-1.242,1.242a12.2,12.2,0,0,0-2.535-1.565,6.124,6.124,0,0,0,.606-2.665,6.172,6.172,0,0,0-6.165-6.165H2270.3a6.172,6.172,0,0,0-6.165,6.165,6.128,6.128,0,0,0,.607,2.665,12.2,12.2,0,0,0-2.913,1.881l-1.651-1.651a1.215,1.215,0,0,0-1.719,0,1.214,1.214,0,0,0,0,1.719l1.7,1.7a12.108,12.108,0,0,0-2.532,7.421v4.895a5.149,5.149,0,0,0-2.016,4.085v1.655a5.161,5.161,0,0,0,5.155,5.155h.784a11.7,11.7,0,0,0,3.133,4.805,12.932,12.932,0,0,0-5.086,4.524v-1.116a10.21,10.21,0,0,0-5.079-8.82v-.474a3.085,3.085,0,0,0-3.082-3.082h-4.106a3.086,3.086,0,0,0-3.082,3.082v.481a10.211,10.211,0,0,0-5.067,8.814v1.52h-1.346a2.028,2.028,0,0,0-2.026,2.026v3.25a2.025,2.025,0,0,0,1.124,1.811v20.046a2.84,2.84,0,0,0,2.837,2.837h4.933a1.216,1.216,0,0,0,1.216-1.216,1.215,1.215,0,0,0-1.216-1.215h-4.933a.406.406,0,0,1-.406-.406v-19.832h20.05v20.237h-9.039a1.216,1.216,0,0,0-1.215,1.216,1.216,1.216,0,0,0,1.215,1.216h57.147a2.84,2.84,0,0,0,2.836-2.837v-6.74a1.215,1.215,0,0,0-1.215-1.216,1.216,1.216,0,0,0-1.216,1.216v6.74a.406.406,0,0,1-.405.405h-19.645v-20.237h20.05v7.418a1.216,1.216,0,0,0,1.216,1.216,1.215,1.215,0,0,0,1.215-1.216v-7.633a2.027,2.027,0,0,0,1.125-1.812v-3.25a2.028,2.028,0,0,0-2.026-2.026Zm-56.235-5.88a3.094,3.094,0,0,0,1.157-1.593,7.756,7.756,0,0,1,2.787,5.953v1.519h-3.944Zm-6.542-4.934a.652.652,0,0,1,.651-.651h4.106a.651.651,0,0,1,.651.651v2.427a.651.651,0,0,1-.651.65h-4.106a.651.651,0,0,1-.651-.65Zm4.111,5.508v5.306h-2.814v-5.306Zm-9.178,3.786a7.755,7.755,0,0,1,2.777-5.946,3.093,3.093,0,0,0,1.156,1.585v5.88h-3.933Zm18.925,6.39h-22.3v-2.439h22.3Zm41.2-10.751a3.092,3.092,0,0,0,1.158-1.592,7.755,7.755,0,0,1,2.786,5.953v1.52h-3.944Zm-6.542-4.934a.651.651,0,0,1,.651-.651h4.105a.651.651,0,0,1,.651.651v2.427a.651.651,0,0,1-.651.65h-4.105a.651.651,0,0,1-.651-.65Zm4.111,5.508v5.306h-2.814v-5.306Zm-9.178,3.786a7.756,7.756,0,0,1,2.777-5.946,3.1,3.1,0,0,0,1.155,1.585v5.88h-3.932Zm-2.984-15.023v1.655a2.727,2.727,0,0,1-2.724,2.723h-.239a11.726,11.726,0,0,0,.077-1.32v-5.781h.161A2.726,2.726,0,0,1,2287.146-220.36ZM2270.3-246.809h4.583a3.738,3.738,0,0,1,3.733,3.734,3.7,3.7,0,0,1-.505,1.871,12.142,12.142,0,0,0-2.734-.313h-5.571a12.146,12.146,0,0,0-2.734.313,3.709,3.709,0,0,1-.505-1.871,3.738,3.738,0,0,1,3.734-3.734Zm-9.535,30.827a2.726,2.726,0,0,1-2.723-2.723v-1.655a2.726,2.726,0,0,1,2.723-2.723h.162v5.781a11.784,11.784,0,0,0,.077,1.32Zm.165-9.533h-.165a5.2,5.2,0,0,0-.707.05v-3.875a9.758,9.758,0,0,1,9.748-9.747h5.571a9.758,9.758,0,0,1,9.747,9.747v3.875a5.2,5.2,0,0,0-.706-.05h-.162V-228.6a4.036,4.036,0,0,0-4.032-4.032h-5.2a4,4,0,0,0-1.647.352L2262.1-227.23a1.983,1.983,0,0,0-1.168,1.715Zm2.428,8.213v-7.828l11.014-4.931a1.586,1.586,0,0,1,.654-.14h.242l-3.321,3.322a1.214,1.214,0,0,0,0,1.719,1.212,1.212,0,0,0,.859.356,1.214,1.214,0,0,0,.86-.356l5.041-5.041h1.517a1.6,1.6,0,0,1,1.6,1.6v11.3a9.243,9.243,0,0,1-9.233,9.233,9.243,9.243,0,0,1-9.233-9.233Zm11.433,11.454v1.855a2.2,2.2,0,0,1-2.2,2.2,2.2,2.2,0,0,1-2.2-2.2v-1.854a11.675,11.675,0,0,0,2.2.21,11.625,11.625,0,0,0,2.2-.21Zm-12.946,18.536h2.55v.187a1.215,1.215,0,0,0-.972,1.191,1.215,1.215,0,0,0,.972,1.191v1.183a1.216,1.216,0,0,0-.972,1.191,1.217,1.217,0,0,0,.972,1.192v.348h-2.55Zm23.6,11.034h-23.6V-178.4h3.279a1.7,1.7,0,0,0,1.7-1.7v-1.078a1.216,1.216,0,0,0,.972-1.191,1.216,1.216,0,0,0-.972-1.192v-1.183a1.215,1.215,0,0,0,.972-1.191,1.215,1.215,0,0,0-.972-1.191v-.916a1.7,1.7,0,0,0-1.7-1.7h-3.279v-6.987a2.027,2.027,0,0,0,1.124-1.812v-3.249a2.025,2.025,0,0,0-.918-1.695,10.456,10.456,0,0,1,4.94-3.593c.315.173.638.336.97.48v2.605a4.637,4.637,0,0,0,4.631,4.631,4.635,4.635,0,0,0,4.058-2.4v13.4a1.779,1.779,0,0,0,1.778,1.777h7.019v10.308Zm0-20.451v7.712h-6.366v-18.6a11.737,11.737,0,0,0,1.761-1.453h5.829a.658.658,0,0,1,.658.658v4.592h-.98a2.028,2.028,0,0,0-2.026,2.027v3.249a2.026,2.026,0,0,0,1.124,1.812Zm23.6-2.217h-22.3v-2.439h22.3Z" transform="translate(-2228.498 249.241)" fill="#00223d"/>
      </g>
    </g>
  </g>
</svg>
