<svg xmlns="http://www.w3.org/2000/svg" xmlns:xlink="http://www.w3.org/1999/xlink" width="155.887" height="156.718" viewBox="0 0 155.887 156.718">
  <defs>
    <filter id="_52" x="0" y="0" width="155.887" height="156.718" filterUnits="userSpaceOnUse">
      <feOffset dx="3" dy="3" input="SourceAlpha"/>
      <feGaussianBlur stdDeviation="3" result="blur"/>
      <feFlood flood-opacity="0.161"/>
      <feComposite operator="in" in2="blur"/>
      <feComposite in="SourceGraphic"/>
    </filter>
  </defs>
  <g id="Grupo_1008833" data-name="Grupo 1008833" transform="translate(-723 -5029.893)">
    <g transform="matrix(1, 0, 0, 1, 723, 5029.89)" filter="url(#_52)">
      <g id="_52-2" data-name="52" transform="translate(6 6)" fill="#fff" stroke="#fff" stroke-width="3">
        <ellipse cx="68.944" cy="69.359" rx="68.944" ry="69.359" stroke="none"/>
        <ellipse cx="68.944" cy="69.359" rx="67.444" ry="67.859" fill="none"/>
      </g>
    </g>
    <g id="pobre" transform="translate(761.629 5068.893)">
      <g id="Grupo_1008831" data-name="Grupo 1008831" transform="translate(2.244 2.15)">
        <g id="Grupo_1008820" data-name="Grupo 1008820" transform="translate(24.142 0)">
          <circle id="Elipse_5727" data-name="Elipse 5727" cx="10.347" cy="10.347" r="10.347" fill="#fcd770"/>
        </g>
        <g id="Grupo_1008821" data-name="Grupo 1008821" transform="translate(0 36.788)">
          <path id="Trazado_715363" data-name="Trazado 715363" d="M17.911,37.357A11.881,11.881,0,0,0,16.945,34s11.5,1.15,10.347,13.8h-4.6a4.252,4.252,0,0,0-3.449-2.3A4.252,4.252,0,0,0,15.8,47.8s-4.6,0-4.6,3.449v2.3s0,2.3,3.449,3.449c0,0,0,2.2-3.219,2.288A11.714,11.714,0,0,0,6.6,55.843a4.252,4.252,0,0,0-2.3,3.449s-1.15-8.047,1.15-10.347A5.676,5.676,0,0,0,2,50.095s1.069-5.357,4.254-7.783A8.487,8.487,0,0,0,2,40.9S6.553,31.8,17.911,37.357Z" transform="translate(-2 -34)" fill="#b27946"/>
        </g>
        <g id="Grupo_1008822" data-name="Grupo 1008822" transform="translate(36.788 44.836)">
          <path id="Trazado_715364" data-name="Trazado 715364" d="M56.947,57.256c1,.241,1.839.483,2.437.667l-.092.322v6.9H43.2s-5.886.736-8.231-3.092A7.018,7.018,0,0,1,34,58.244c0-6.656,3.932-8.6,9.209-9.059l-.011-.138V41s14.945,0,16.095,8.047-2.3,8.047-2.3,8.047Z" transform="translate(-34 -41)" fill="#969faa"/>
        </g>
        <g id="Grupo_1008823" data-name="Grupo 1008823" transform="translate(21.843 44.836)">
          <path id="Trazado_715365" data-name="Trazado 715365" d="M45.142,49.047l.011.138c-5.277.46-9.209,2.4-9.209,9.059a7.018,7.018,0,0,0,.966,3.805C34.888,65.142,21,65.142,21,65.142V59.394c6.9,0,6.9-4.6,6.9-4.6V47.9c0-.4.023-.782.057-1.138C28.553,41,33.646,41,33.646,41h11.5v8.047Z" transform="translate(-21 -41)" fill="#b4dd7f"/>
        </g>
        <g id="Grupo_1008824" data-name="Grupo 1008824" transform="translate(52.883 20.693)">
          <path id="Trazado_715366" data-name="Trazado 715366" d="M59.5,20V32.646L48,31.5V23.449Z" transform="translate(-48 -20)" fill="#b4dd7f"/>
        </g>
        <g id="Grupo_1008825" data-name="Grupo 1008825" transform="translate(4.599 20.693)">
          <path id="Trazado_715367" data-name="Trazado 715367" d="M17.5,23.449V31.5L6,32.646V20Z" transform="translate(-6 -20)" fill="#b4dd7f"/>
        </g>
        <g id="Grupo_1008826" data-name="Grupo 1008826" transform="translate(16.095 21.843)">
          <path id="Trazado_715368" data-name="Trazado 715368" d="M26.347,24.449V25.6H29.8a1.153,1.153,0,0,1,1.15,1.15v2.3a2.306,2.306,0,0,1-2.3,2.3H16V23.3S17.15,21,18.3,21c.839,0,4.863,1.644,6.9,2.3C25.933,23.541,26.347,23.679,26.347,24.449Z" transform="translate(-16 -21)" fill="#f0d0b4"/>
        </g>
        <g id="Grupo_1008827" data-name="Grupo 1008827" transform="translate(37.938 21.843)">
          <path id="Trazado_715369" data-name="Trazado 715369" d="M39.6,25.6v-1.15c0-.77.414-.908,1.15-1.15,2.035-.655,6.059-2.3,6.9-2.3,1.15,0,2.3,2.3,2.3,2.3v8.047H37.3a2.306,2.306,0,0,1-2.3-2.3v-2.3a1.153,1.153,0,0,1,1.15-1.15Z" transform="translate(-35 -21)" fill="#f0d0b4"/>
        </g>
        <g id="Grupo_1008828" data-name="Grupo 1008828" transform="translate(62.08 61.758)">
          <path id="Trazado_715370" data-name="Trazado 715370" d="M57.15,56.042c5.748,0,5.748,6.9,5.748,6.9H56v-6.9l.092-.322C56.77,55.915,57.15,56.042,57.15,56.042Z" transform="translate(-56 -55.72)" fill="#f0d0b4"/>
        </g>
        <g id="Grupo_1008829" data-name="Grupo 1008829" transform="translate(9.197 48.284)">
          <path id="Trazado_715371" data-name="Trazado 715371" d="M29.544,46.3l.057.011c-.034.356-.057.736-.057,1.138V50.9h-4.5a5.577,5.577,0,0,1,1.046,3.449c0,3.449-3.449,4.6-3.449,4.6H11.15a10.665,10.665,0,0,0-.92-1.161c3.219-.092,3.219-2.288,3.219-2.288C10,54.347,10,52.047,10,52.047v-2.3C10,46.3,14.6,46.3,14.6,46.3A4.252,4.252,0,0,1,18.047,44,4.252,4.252,0,0,1,21.5,46.3h8.047Z" transform="translate(-10 -44)" fill="#f0d0b4"/>
        </g>
        <g id="Grupo_1008830" data-name="Grupo 1008830" transform="translate(2.299 63.23)">
          <path id="Trazado_715372" data-name="Trazado 715372" d="M23.544,57v5.748H4C4,58.15,8.6,57,8.6,57H23.544Z" transform="translate(-4 -57)" fill="#f0d0b4"/>
        </g>
      </g>
      <g id="Grupo_1008832" data-name="Grupo 1008832" transform="translate(0.371 1)">
        <path id="Trazado_715373" data-name="Trazado 715373" d="M30.292,32.847A3.453,3.453,0,0,0,33.741,29.4V27.1a2.3,2.3,0,0,0-2.3-2.3h-2.3A2.263,2.263,0,0,0,27.2,22.557c-.7-.225-1.629-.569-2.584-.919-2.72-1-3.983-1.437-4.667-1.437-1.251,0-2.249,1.175-2.838,2.087L5,18.656V34.117l12.7-1.27Zm-11.5-8.91A4.7,4.7,0,0,1,19.922,22.5a34.884,34.884,0,0,1,3.9,1.3c.986.362,1.95.715,2.668.947.052.017.112.036.17.056H23.394v2.3h8.047v2.3a1.152,1.152,0,0,1-1.15,1.15H18.8ZM7.3,21.746l9.2,2.759v6.152l-9.2.92Z" transform="translate(0.322 1.642)"/>
        <path id="Trazado_715374" data-name="Trazado 715374" d="M40.544,22.557A2.263,2.263,0,0,0,38.6,24.8H36.3A2.3,2.3,0,0,0,34,27.1v2.3a3.453,3.453,0,0,0,3.449,3.449H50.036l12.7,1.27V18.656L50.634,22.288c-.59-.912-1.588-2.087-2.838-2.087-.684,0-1.947.438-4.667,1.437-.955.349-1.888.693-2.584.919Zm19.9,9.02-9.2-.92V24.505l9.2-2.759Zm-12.7-9.082a3.927,3.927,0,0,1,1.2,1.442v6.612h-11.5A1.152,1.152,0,0,1,36.3,29.4V27.1h8.047V24.8H41.082l.17-.056c.719-.232,1.682-.585,2.668-.947,1.365-.5,3.426-1.258,3.825-1.3Z" transform="translate(4.661 1.642)"/>
        <path id="Trazado_715375" data-name="Trazado 715375" d="M33.5,23.993A11.5,11.5,0,1,0,22,12.5,11.509,11.509,0,0,0,33.5,23.993ZM33.5,3.3a9.2,9.2,0,1,1-9.2,9.2A9.208,9.208,0,0,1,33.5,3.3Z" transform="translate(2.865 -1)"/>
        <path id="Trazado_715376" data-name="Trazado 715376" d="M0,0H2.3V9.268H0Z" transform="translate(15.095 3.302) rotate(-60.255)"/>
        <path id="Trazado_715377" data-name="Trazado 715377" d="M16,10h4.6v2.3H16Z" transform="translate(1.968 0.347)"/>
        <path id="Trazado_715378" data-name="Trazado 715378" d="M0,0H7.271V2.3H0Z" transform="matrix(0.949, -0.316, 0.316, 0.949, 16.456, 18.463)"/>
        <path id="Trazado_715379" data-name="Trazado 715379" d="M0,0H9.268V2.3H0Z" transform="translate(48.425 5.905) rotate(-29.745)"/>
        <path id="Trazado_715380" data-name="Trazado 715380" d="M44,10h4.6v2.3H44Z" transform="translate(6.157 0.347)"/>
        <path id="Trazado_715381" data-name="Trazado 715381" d="M0,0H2.3V7.271H0Z" transform="matrix(0.316, -0.949, 0.949, 0.316, 48.638, 18.316)"/>
        <path id="Trazado_715382" data-name="Trazado 715382" d="M65.663,58.32c-.213-.069-.614-.194-1.138-.347,1.136-1.582,1.458-4.215.937-7.865-1.276-8.933-16.582-9.035-17.233-9.035h-11.5a6.882,6.882,0,0,0-6.668,5.748H28.758c.385-12.456-11.332-13.777-11.454-13.79l-2.076-.208.933,1.866a6.893,6.893,0,0,1,.364.9c-10.71-3.913-15.262,4.874-15.31,4.97L.384,42.223h1.86a5.94,5.94,0,0,1,2.3.535,17.836,17.836,0,0,0-3.425,7.286L.371,53.768l2.684-2.684a1.964,1.964,0,0,1,.544-.367c-.92,3.227-.354,7.807-.2,8.914l2.289-.163A2.836,2.836,0,0,1,6.972,57.3a10.259,10.259,0,0,1,3.117,2.173H9.142l-.279.034a7.191,7.191,0,0,0-5.469,6.863v1.15H24.087c3.094,0,12.088-.222,15.728-2.588a6.536,6.536,0,0,0,.475.469,10.443,10.443,0,0,0,6.782,2.176,12.049,12.049,0,0,0,1.222-.057H72.371v-1.15c0-2.751-1.408-7.926-6.708-8.045Zm-37.322-4.6h1.493V56a3.239,3.239,0,0,1-1.75,2.6,5.613,5.613,0,0,0,.6-2.581A7.5,7.5,0,0,0,28.341,53.72Zm1.493-2.3h-2.8a4.953,4.953,0,0,0-1.281-1.029L24.706,52.44a4.038,4.038,0,0,1-.832,7.028H14.948a3.249,3.249,0,0,0,1.091-2.3V56.34l-.786-.262c-2.544-.848-2.66-2.327-2.663-2.358v-2.3c0-2.251,3.311-2.3,3.449-2.3l.7-.007.322-.622a3.131,3.131,0,0,1,2.423-1.67,3.129,3.129,0,0,1,2.42,1.664l.318.636h7.608ZM6.754,54.777l-.427.213a5.688,5.688,0,0,0-.922.61c-.029-2.426.252-4.82,1.1-5.668l1.964-1.961H5.693a8.267,8.267,0,0,0-1.621.185A12.048,12.048,0,0,1,6.6,43.925,15.218,15.218,0,0,1,8.33,45.337L9.954,43.71a15.108,15.108,0,0,0-5.738-3.5c1.68-2.013,5.7-5.142,12.868-1.9.1.92.106,1.595.106,1.609h2.3a19.16,19.16,0,0,0-.529-4.195c2.817.863,7.735,3.48,7.483,11.093H23.572a5.094,5.094,0,0,0-4.083-2.3,5.107,5.107,0,0,0-4.105,2.33c-2.058.192-5.092,1.3-5.092,4.567v2.3c0,.115.039,2.567,3.095,4.074a2.26,2.26,0,0,1-1.235.481,12.548,12.548,0,0,0-4.946-3.347ZM5.825,65.216A5.108,5.108,0,0,1,9.3,61.767H22.937v3.449Zm19.411-3.491c6.815-.52,6.9-5.652,6.9-5.706v-6.9c0-5.529,4.134-5.742,4.6-5.748H47.079v5.985c-4.374.585-9.2,2.665-9.2,10.11a8.738,8.738,0,0,0,.715,3.616c-1.676,1.114-7.239,2.02-13.361,2.123Zm22.993,3.491-.14.008c-.039,0-4.01.458-6.285-1.558a5.267,5.267,0,0,1-1.622-4.2c0-6.73,4.216-8.047,11.5-8.047v-2.3c-.671,0-1.459,0-2.3.039V43.414c3.362.19,12.982,1.239,13.807,7.018.582,4.071-.1,5.677-.561,6.271a1.08,1.08,0,0,1-.656.466l0,.113c-3.735-.928-9.457-1.993-13.931-1.248l.378,2.268c4.805-.8,11.5.776,14.757,1.681v5.233Zm17.244,0v-4.6c3.286,0,4.224,2.918,4.492,4.6Z" transform="translate(-0.371 3.762)"/>
        <path id="Trazado_715383" data-name="Trazado 715383" d="M31.449,20.095h2.3V17.8H37.2V10.9H30.3V8.6h6.9V6.3H33.748V4h-2.3V6.3H28v6.9h6.9v2.3H28v2.3h3.449Z" transform="translate(3.763 -0.551)"/>
      </g>
    </g>
  </g>
</svg>
