<svg xmlns="http://www.w3.org/2000/svg" xmlns:xlink="http://www.w3.org/1999/xlink" width="108" height="108" viewBox="0 0 108 108">
  <defs>
    <filter id="Elipse_5696" x="0" y="0" width="108" height="108" filterUnits="userSpaceOnUse">
      <feOffset dy="3" input="SourceAlpha"/>
      <feGaussianBlur stdDeviation="3" result="blur"/>
      <feFlood flood-opacity="0.161"/>
      <feComposite operator="in" in2="blur"/>
      <feComposite in="SourceGraphic"/>
    </filter>
  </defs>
  <g id="Grupo_1008761" data-name="Grupo 1008761" transform="translate(-171 -1923.893)">
    <g transform="matrix(1, 0, 0, 1, 171, 1923.89)" filter="url(#Elipse_5696)">
      <g id="Elipse_5696-2" data-name="Elipse 5696" transform="translate(9 6)" fill="#fff" stroke="#fff8da" stroke-width="2">
        <circle cx="45" cy="45" r="45" stroke="none"/>
        <circle cx="45" cy="45" r="44" fill="none"/>
      </g>
    </g>
    <g id="Grupo_1008751" data-name="Grupo 1008751" transform="translate(203 1952.893)">
      <path id="Trazado_26049" data-name="Trazado 26049" d="M653.237-207.663l-2.16,3.73h41.037v-30.958Z" transform="translate(-648.197 247.851)" fill="#cf9e76"/>
      <path id="Trazado_26050" data-name="Trazado 26050" d="M717.945-257.252a7.915,7.915,0,0,1,7.919,7.919,7.915,7.915,0,0,1-7.919,7.919,7.915,7.915,0,0,1-7.919-7.919A7.915,7.915,0,0,1,717.945-257.252Zm3.6,7.919a3.6,3.6,0,0,0-3.6-3.6,3.6,3.6,0,0,0-3.6,3.6,3.6,3.6,0,0,0,3.6,3.6A3.6,3.6,0,0,0,721.545-249.333Z" transform="translate(-686.268 262.292)" fill="#fcd770"/>
      <path id="Trazado_26051" data-name="Trazado 26051" d="M707.492-246.726v-.007a10.555,10.555,0,0,1-3.01-1.246l-1.541.95-3.053-3.053.951-1.541a10.546,10.546,0,0,1-1.246-3.009l-.137-.036a1.887,1.887,0,0,0,.533-1.325,1.932,1.932,0,0,0-1.937-1.937h-.223v-1.44l1.764-.418a10.546,10.546,0,0,1,1.246-3.009l-.951-1.541,3.053-3.053,1.541.951a10.546,10.546,0,0,1,3.01-1.246l.418-1.764h4.32l.418,1.764a10.546,10.546,0,0,1,3.009,1.246l1.541-.951,3.053,3.053-.95,1.541a10.556,10.556,0,0,1,1.246,3.009l1.764.418v4.32l-1.764.418a10.556,10.556,0,0,1-1.246,3.009l.95,1.541-3.053,3.053-1.541-.95a10.556,10.556,0,0,1-3.009,1.246l-.418,1.764h-4.32Zm10.5-10.483a7.915,7.915,0,0,0-7.919-7.919,7.915,7.915,0,0,0-7.919,7.919,7.915,7.915,0,0,0,7.919,7.919A7.915,7.915,0,0,0,717.988-257.209Z" transform="translate(-678.391 270.168)" fill="#ffc729"/>
      <path id="Trazado_26052" data-name="Trazado 26052" d="M649.3-180.095v1.57a2.154,2.154,0,0,1-.634,1.526,2.154,2.154,0,0,1-1.526.634,2.157,2.157,0,0,1-2.16-2.16V-192.2a2.879,2.879,0,0,0,2.88,2.88h1.44Z" transform="translate(-644.259 220.282)" fill="#838f9b"/>
      <path id="Trazado_26053" data-name="Trazado 26053" d="M657.938-188.732v1.822a2.157,2.157,0,0,1-2.16,2.16,2.155,2.155,0,0,1-1.526-.634,2.367,2.367,0,0,1-.389-.526,2.117,2.117,0,0,1-.245-1v-4.32a.722.722,0,0,0-.72-.72h-5.04a2.879,2.879,0,0,1-2.88-2.88v-1.44h10.079a2.879,2.879,0,0,1,2.88,2.88Z" transform="translate(-644.259 222.908)" fill="#838f9b"/>
      <path id="Trazado_26054" data-name="Trazado 26054" d="M665.858-234.987a1.887,1.887,0,0,1-.533,1.325,1.93,1.93,0,0,1-.216.2l-4.565,3.549a4.291,4.291,0,0,1-2.649.907h-5v6.479h-7.919v-4.32a5.758,5.758,0,0,1,5.76-5.76h6a1.418,1.418,0,0,0,.864-.288l4.86-3.643a1.943,1.943,0,0,1,1.166-.389h.3a1.933,1.933,0,0,1,1.937,1.937Z" transform="translate(-644.259 249.163)" fill="#5cd6b3"/>
      <circle id="Elipse_950" data-name="Elipse 950" cx="4.32" cy="4.32" r="4.32" transform="translate(2.88 7.919)" fill="#f0d0b4"/>
      <path id="Trazado_26055" data-name="Trazado 26055" d="M685.686-261.7a11.448,11.448,0,0,0-.994-2.4l1.027-1.658-3.861-3.861L680.2-268.59a11.45,11.45,0,0,0-2.4-.994l-.447-1.9h-5.46l-.446,1.9a11.44,11.44,0,0,0-2.4.994l-1.658-1.026-3.861,3.861,1.026,1.658a11.442,11.442,0,0,0-.994,2.4l-1.9.446v1.38a2.645,2.645,0,0,0-.948.442l-4.86,3.645a.726.726,0,0,1-.432.144h-1.76a5.019,5.019,0,0,0,1.52-3.6,5.046,5.046,0,0,0-5.04-5.04,5.046,5.046,0,0,0-5.04,5.04,5.028,5.028,0,0,0,2.024,4.027,6.484,6.484,0,0,0-4.184,6.052v19.439a2.883,2.883,0,0,0,2.88,2.88h41.757v-34.408Zm-39.14,2.457a3.6,3.6,0,0,1,3.6-3.6,3.6,3.6,0,0,1,3.6,3.6,3.6,3.6,0,0,1-3.6,3.6A3.6,3.6,0,0,1,646.546-259.242Zm2.88,5.04h6a2.17,2.17,0,0,0,1.3-.433l4.86-3.645a1.228,1.228,0,0,1,.729-.243h.3a1.216,1.216,0,0,1,1.214,1.214,1.206,1.206,0,0,1-.469.958l-4.563,3.549a3.615,3.615,0,0,1-2.21.758h-5.717v6.479h-6.48v-3.6A5.046,5.046,0,0,1,649.426-254.2Zm4.32,8.639h-1.44v-5.04h4.277a5.058,5.058,0,0,0,3.094-1.062l4.055-3.154a11.374,11.374,0,0,0,.823,1.872l-1.026,1.658,3.861,3.861,1.658-1.027a11.4,11.4,0,0,0,1.406.647l-13.11,9.125v-3.281A3.6,3.6,0,0,0,653.745-245.563Zm-9.36,1.44h9.36a2.162,2.162,0,0,1,2.16,2.16v6.479a1.441,1.441,0,0,1-1.44,1.44,1.433,1.433,0,0,1-1.019-.422,1.433,1.433,0,0,1-.421-1.018v-4.32a1.441,1.441,0,0,0-1.44-1.44h-5.04a2.162,2.162,0,0,1-2.16-2.16Zm4.32,4.32h2.88v4.319h0a2.9,2.9,0,0,0,.1.728l-2.983,2.084Zm-4.32,10.08v-10.818a3.563,3.563,0,0,0,2.16.738h.72v10.08a1.441,1.441,0,0,1-1.44,1.44A1.441,1.441,0,0,1,644.386-229.724Zm41.757,1.44H648.305a2.85,2.85,0,0,0,.4-1.44v-1.192l3.686-2.576c.013.014.022.03.036.044a2.862,2.862,0,0,0,2.037.844,2.884,2.884,0,0,0,2.881-2.881v-1.444l14.247-9.917.3,1.281h5.46l.447-1.9a11.453,11.453,0,0,0,2.4-.994l1.658,1.027,3.861-3.861-1.027-1.658a11.457,11.457,0,0,0,.994-2.4l.457-.107Zm0-28.648-1.636.385-.105.429a9.986,9.986,0,0,1-1.164,2.81l-.229.376.885,1.43-2.249,2.249-1.43-.885-.376.229a9.989,9.989,0,0,1-2.81,1.164l-.429.105L676.214-247h-3.18l-.385-1.636-.429-.105a10,10,0,0,1-2.81-1.164l-.376-.229-1.43.885-2.248-2.249.885-1.43-.229-.376a9.962,9.962,0,0,1-1.122-2.664,2.633,2.633,0,0,0,.376-1.336,2.656,2.656,0,0,0-2.16-2.6v-.2l1.637-.385.105-.429a10,10,0,0,1,1.164-2.81l.229-.376-.885-1.43,2.248-2.248,1.43.885.376-.229a10,10,0,0,1,2.81-1.164l.429-.105.386-1.638h3.18l.385,1.637.429.105a9.988,9.988,0,0,1,2.81,1.164l.377.229,1.43-.885,2.249,2.248-.885,1.43.229.376a9.994,9.994,0,0,1,1.164,2.81l.105.429,1.637.386v3.179Z" transform="translate(-642.946 271.481)" fill="#00223d"/>
      <g id="Grupo_16684" data-name="Grupo 16684" transform="translate(7.199 4.32)">
        <path id="Trazado_26056" data-name="Trazado 26056" d="M687.327-172.987l1.174-.818.823,1.182-1.174.818Z" transform="translate(-678.808 204.08)" fill="#00223d"/>
        <path id="Trazado_26057" data-name="Trazado 26057" d="M694.7-189.088l9.8-6.829.823,1.182-9.8,6.829Z" transform="translate(-683.571 218.361)" fill="#00223d"/>
        <path id="Trazado_26058" data-name="Trazado 26058" d="M716.632-259.285a8.649,8.649,0,0,0-8.639,8.639,8.649,8.649,0,0,0,8.639,8.639,8.649,8.649,0,0,0,8.64-8.639A8.649,8.649,0,0,0,716.632-259.285Zm0,15.839a7.208,7.208,0,0,1-7.2-7.2,7.208,7.208,0,0,1,7.2-7.2,7.208,7.208,0,0,1,7.2,7.2A7.208,7.208,0,0,1,716.632-243.446Z" transform="translate(-692.154 259.285)" fill="#00223d"/>
        <path id="Trazado_26059" data-name="Trazado 26059" d="M724.51-247.088a4.324,4.324,0,0,0-4.32,4.32,4.324,4.324,0,0,0,4.32,4.32,4.324,4.324,0,0,0,4.32-4.32A4.324,4.324,0,0,0,724.51-247.088Zm0,7.2a2.883,2.883,0,0,1-2.88-2.88,2.883,2.883,0,0,1,2.88-2.88,2.883,2.883,0,0,1,2.88,2.88A2.883,2.883,0,0,1,724.51-239.889Z" transform="translate(-700.031 251.408)" fill="#00223d"/>
        <path id="Trazado_26060" data-name="Trazado 26060" d="M756.779-157.648h1.44v1.44h-1.44Z" transform="translate(-723.661 193.646)" fill="#00223d"/>
        <path id="Trazado_26061" data-name="Trazado 26061" d="M756.779-165.779h1.44v1.44h-1.44Z" transform="translate(-723.661 198.897)" fill="#00223d"/>
        <path id="Trazado_26062" data-name="Trazado 26062" d="M756.779-173.91h1.44v1.44h-1.44Z" transform="translate(-723.661 204.148)" fill="#00223d"/>
        <path id="Trazado_26063" data-name="Trazado 26063" d="M663.273-157.648h1.44v1.44h-1.44Z" transform="translate(-663.273 193.646)" fill="#00223d"/>
        <path id="Trazado_26064" data-name="Trazado 26064" d="M671.4-157.648h1.44v1.44H671.4Z" transform="translate(-668.524 193.646)" fill="#00223d"/>
        <path id="Trazado_26065" data-name="Trazado 26065" d="M679.535-157.648h1.44v1.44h-1.44Z" transform="translate(-673.775 193.646)" fill="#00223d"/>
      </g>
    </g>
  </g>
</svg>
