<svg xmlns="http://www.w3.org/2000/svg" xmlns:xlink="http://www.w3.org/1999/xlink" width="155.887" height="156.718" viewBox="0 0 155.887 156.718">
  <defs>
    <filter id="_52" x="0" y="0" width="155.887" height="156.718" filterUnits="userSpaceOnUse">
      <feOffset dx="3" dy="3" input="SourceAlpha"/>
      <feGaussianBlur stdDeviation="3" result="blur"/>
      <feFlood flood-opacity="0.161"/>
      <feComposite operator="in" in2="blur"/>
      <feComposite in="SourceGraphic"/>
    </filter>
  </defs>
  <g id="Grupo_1008801" data-name="Grupo 1008801" transform="translate(-723 -5319.893)">
    <g transform="matrix(1, 0, 0, 1, 723, 5319.89)" filter="url(#_52)">
      <g id="_52-2" data-name="52" transform="translate(6 6)" fill="#fff" stroke="#fff" stroke-width="3">
        <ellipse cx="68.944" cy="69.359" rx="68.944" ry="69.359" stroke="none"/>
        <ellipse cx="68.944" cy="69.359" rx="67.444" ry="67.859" fill="none"/>
      </g>
    </g>
    <g id="Grupo_16798" data-name="Grupo 16798" transform="translate(760 5357.893)">
      <rect id="Rectángulo_4096" data-name="Rectángulo 4096" width="35.184" height="67.855" transform="translate(20.105 6.283)" fill="#4398d1"/>
      <path id="Trazado_26292" data-name="Trazado 26292" d="M1994.969-205.467v18.848h35.184V-244.56Z" transform="translate(-1974.862 260.757)" fill="#3f8fc4"/>
      <rect id="Rectángulo_4097" data-name="Rectángulo 4097" width="25.131" height="5.026" transform="translate(25.132 1.257)" fill="#4398d1"/>
      <rect id="Rectángulo_4098" data-name="Rectángulo 4098" width="25.131" height="2.513" transform="translate(25.132 3.77)" fill="#3f8fc4"/>
      <g id="Grupo_16797" data-name="Grupo 16797" transform="translate(25.132 12.566)">
        <rect id="Rectángulo_4099" data-name="Rectángulo 4099" width="5.026" height="5.026" fill="#87ced9"/>
        <rect id="Rectángulo_4100" data-name="Rectángulo 4100" width="5.026" height="5.026" transform="translate(10.053)" fill="#87ced9"/>
        <rect id="Rectángulo_4101" data-name="Rectángulo 4101" width="5.026" height="5.026" transform="translate(20.105)" fill="#87ced9"/>
        <rect id="Rectángulo_4102" data-name="Rectángulo 4102" width="5.026" height="5.026" transform="translate(0 10.053)" fill="#87ced9"/>
        <rect id="Rectángulo_4103" data-name="Rectángulo 4103" width="5.026" height="5.026" transform="translate(10.053 10.053)" fill="#87ced9"/>
        <rect id="Rectángulo_4104" data-name="Rectángulo 4104" width="5.026" height="5.026" transform="translate(20.105 10.053)" fill="#87ced9"/>
        <rect id="Rectángulo_4105" data-name="Rectángulo 4105" width="5.026" height="5.026" transform="translate(0 20.105)" fill="#87ced9"/>
        <rect id="Rectángulo_4106" data-name="Rectángulo 4106" width="5.026" height="5.026" transform="translate(10.053 20.105)" fill="#87ced9"/>
        <rect id="Rectángulo_4107" data-name="Rectángulo 4107" width="5.026" height="5.026" transform="translate(20.105 20.105)" fill="#87ced9"/>
        <rect id="Rectángulo_4108" data-name="Rectángulo 4108" width="5.026" height="5.026" transform="translate(0 30.158)" fill="#87ced9"/>
        <rect id="Rectángulo_4109" data-name="Rectángulo 4109" width="5.026" height="5.026" transform="translate(10.053 30.158)" fill="#87ced9"/>
        <rect id="Rectángulo_4110" data-name="Rectángulo 4110" width="5.026" height="5.026" transform="translate(20.105 30.158)" fill="#87ced9"/>
        <rect id="Rectángulo_4111" data-name="Rectángulo 4111" width="5.026" height="5.026" transform="translate(0 40.21)" fill="#87ced9"/>
        <rect id="Rectángulo_4112" data-name="Rectángulo 4112" width="5.026" height="5.026" transform="translate(10.053 40.21)" fill="#87ced9"/>
        <rect id="Rectángulo_4113" data-name="Rectángulo 4113" width="5.026" height="5.026" transform="translate(20.105 40.21)" fill="#87ced9"/>
        <rect id="Rectángulo_4114" data-name="Rectángulo 4114" width="15.079" height="10.053" transform="translate(5.026 51.519)" fill="#87ced9"/>
      </g>
      <rect id="Rectángulo_4115" data-name="Rectángulo 4115" width="2.513" height="10.053" transform="translate(36.441 64.086)" fill="#61acc9"/>
      <path id="Trazado_26293" data-name="Trazado 26293" d="M1976.479-188.5a5.061,5.061,0,0,0,.1-2.84,4.979,4.979,0,0,0-3.662-3.615,5.034,5.034,0,0,0-6.09,3.688,5,5,0,0,0-.146,1.2,5.007,5.007,0,0,0,.176,1.316,7.263,7.263,0,0,1-.591,5.6,6.283,6.283,0,0,0,2.3,8.582,6.282,6.282,0,0,0,8.582-2.3,6.284,6.284,0,0,0,.1-6.1A7.069,7.069,0,0,1,1976.479-188.5Z" transform="translate(-1964.163 242.849)" fill="#88b337"/>
      <rect id="Rectángulo_4116" data-name="Rectángulo 4116" width="2.513" height="22.618" transform="translate(6.283 52.776)" fill="#79a125"/>
      <path id="Trazado_26294" data-name="Trazado 26294" d="M2071.031-188.5a5.063,5.063,0,0,0,.1-2.84,4.978,4.978,0,0,0-3.662-3.615,5.035,5.035,0,0,0-6.091,3.688,5.036,5.036,0,0,0-.145,1.2,5.007,5.007,0,0,0,.176,1.316,7.264,7.264,0,0,1-.591,5.6,6.283,6.283,0,0,0,2.3,8.582,6.283,6.283,0,0,0,8.583-2.3,6.283,6.283,0,0,0,.1-6.1A7.069,7.069,0,0,1,2071.031-188.5Z" transform="translate(-1998.399 242.849)" fill="#88b337"/>
      <rect id="Rectángulo_4117" data-name="Rectángulo 4117" width="2.513" height="22.618" transform="translate(66.598 52.776)" fill="#79a125"/>
      <rect id="Rectángulo_4118" data-name="Rectángulo 4118" width="75.394" height="2.513" transform="translate(0 72.882)" fill="#e0d2c1"/>
      <path id="Trazado_26295" data-name="Trazado 26295" d="M2007.161-252.221h-5.026a1.257,1.257,0,0,0-1.257,1.257v5.026a1.257,1.257,0,0,0,1.257,1.257h5.026a1.257,1.257,0,0,0,1.257-1.257v-5.026A1.257,1.257,0,0,0,2007.161-252.221Zm-1.257,5.026h-2.513v-2.513h2.513Z" transform="translate(-1977.002 263.53)" fill="#00223d"/>
      <path id="Trazado_26296" data-name="Trazado 26296" d="M2022.92-252.221h-5.026a1.257,1.257,0,0,0-1.257,1.257v5.026a1.257,1.257,0,0,0,1.257,1.257h5.026a1.257,1.257,0,0,0,1.257-1.257v-5.026A1.257,1.257,0,0,0,2022.92-252.221Zm-1.257,5.026h-2.513v-2.513h2.513Z" transform="translate(-1982.708 263.53)" fill="#00223d"/>
      <path id="Trazado_26297" data-name="Trazado 26297" d="M2033.652-252.221a1.257,1.257,0,0,0-1.257,1.257v5.026a1.257,1.257,0,0,0,1.257,1.257h5.027a1.256,1.256,0,0,0,1.256-1.257v-5.026a1.257,1.257,0,0,0-1.256-1.257Zm3.77,5.026h-2.513v-2.513h2.513Z" transform="translate(-1988.414 263.53)" fill="#00223d"/>
      <path id="Trazado_26298" data-name="Trazado 26298" d="M2007.161-236.462h-5.026a1.257,1.257,0,0,0-1.257,1.256v5.027a1.257,1.257,0,0,0,1.257,1.257h5.026a1.257,1.257,0,0,0,1.257-1.257v-5.027A1.257,1.257,0,0,0,2007.161-236.462Zm-1.257,5.026h-2.513v-2.513h2.513Z" transform="translate(-1977.002 257.824)" fill="#00223d"/>
      <path id="Trazado_26299" data-name="Trazado 26299" d="M2022.92-236.462h-5.026a1.257,1.257,0,0,0-1.257,1.256v5.027a1.257,1.257,0,0,0,1.257,1.257h5.026a1.257,1.257,0,0,0,1.257-1.257v-5.027A1.257,1.257,0,0,0,2022.92-236.462Zm-1.257,5.026h-2.513v-2.513h2.513Z" transform="translate(-1982.708 257.824)" fill="#00223d"/>
      <path id="Trazado_26300" data-name="Trazado 26300" d="M2038.678-236.462h-5.027a1.257,1.257,0,0,0-1.257,1.256v5.027a1.257,1.257,0,0,0,1.257,1.257h5.027a1.257,1.257,0,0,0,1.256-1.257v-5.027A1.256,1.256,0,0,0,2038.678-236.462Zm-1.257,5.026h-2.513v-2.513h2.513Z" transform="translate(-1988.414 257.824)" fill="#00223d"/>
      <path id="Trazado_26301" data-name="Trazado 26301" d="M2007.161-220.7h-5.026a1.257,1.257,0,0,0-1.257,1.257v5.027a1.257,1.257,0,0,0,1.257,1.256h5.026a1.257,1.257,0,0,0,1.257-1.256v-5.027A1.257,1.257,0,0,0,2007.161-220.7Zm-1.257,5.027h-2.513v-2.513h2.513Z" transform="translate(-1977.002 252.118)" fill="#00223d"/>
      <path id="Trazado_26302" data-name="Trazado 26302" d="M2022.92-220.7h-5.026a1.257,1.257,0,0,0-1.257,1.257v5.027a1.257,1.257,0,0,0,1.257,1.256h5.026a1.257,1.257,0,0,0,1.257-1.256v-5.027A1.257,1.257,0,0,0,2022.92-220.7Zm-1.257,5.027h-2.513v-2.513h2.513Z" transform="translate(-1982.708 252.118)" fill="#00223d"/>
      <path id="Trazado_26303" data-name="Trazado 26303" d="M2038.678-220.7h-5.027a1.257,1.257,0,0,0-1.257,1.257v5.027a1.257,1.257,0,0,0,1.257,1.256h5.027a1.256,1.256,0,0,0,1.256-1.256v-5.027A1.257,1.257,0,0,0,2038.678-220.7Zm-1.257,5.027h-2.513v-2.513h2.513Z" transform="translate(-1988.414 252.118)" fill="#00223d"/>
      <path id="Trazado_26304" data-name="Trazado 26304" d="M2007.161-204.945h-5.026a1.257,1.257,0,0,0-1.257,1.257v5.026a1.257,1.257,0,0,0,1.257,1.257h5.026a1.257,1.257,0,0,0,1.257-1.257v-5.026A1.257,1.257,0,0,0,2007.161-204.945Zm-1.257,5.026h-2.513v-2.513h2.513Z" transform="translate(-1977.002 246.412)" fill="#00223d"/>
      <path id="Trazado_26305" data-name="Trazado 26305" d="M2022.92-204.945h-5.026a1.257,1.257,0,0,0-1.257,1.257v5.026a1.257,1.257,0,0,0,1.257,1.257h5.026a1.257,1.257,0,0,0,1.257-1.257v-5.026A1.257,1.257,0,0,0,2022.92-204.945Zm-1.257,5.026h-2.513v-2.513h2.513Z" transform="translate(-1982.708 246.412)" fill="#00223d"/>
      <path id="Trazado_26306" data-name="Trazado 26306" d="M2038.678-204.945h-5.027a1.257,1.257,0,0,0-1.257,1.257v5.026a1.257,1.257,0,0,0,1.257,1.257h5.027a1.256,1.256,0,0,0,1.256-1.257v-5.026A1.256,1.256,0,0,0,2038.678-204.945Zm-1.257,5.026h-2.513v-2.513h2.513Z" transform="translate(-1988.414 246.412)" fill="#00223d"/>
      <path id="Trazado_26307" data-name="Trazado 26307" d="M2007.161-189.186h-5.026a1.257,1.257,0,0,0-1.257,1.256v5.027a1.257,1.257,0,0,0,1.257,1.257h5.026a1.257,1.257,0,0,0,1.257-1.257v-5.027A1.257,1.257,0,0,0,2007.161-189.186Zm-1.257,5.026h-2.513v-2.513h2.513Z" transform="translate(-1977.002 240.706)" fill="#00223d"/>
      <path id="Trazado_26308" data-name="Trazado 26308" d="M2022.92-189.186h-5.026a1.257,1.257,0,0,0-1.257,1.256v5.027a1.257,1.257,0,0,0,1.257,1.257h5.026a1.257,1.257,0,0,0,1.257-1.257v-5.027A1.257,1.257,0,0,0,2022.92-189.186Zm-1.257,5.026h-2.513v-2.513h2.513Z" transform="translate(-1982.708 240.706)" fill="#00223d"/>
      <path id="Trazado_26309" data-name="Trazado 26309" d="M2038.678-189.186h-5.027a1.257,1.257,0,0,0-1.257,1.256v5.027a1.257,1.257,0,0,0,1.257,1.257h5.027a1.257,1.257,0,0,0,1.256-1.257v-5.027A1.256,1.256,0,0,0,2038.678-189.186Zm-1.257,5.026h-2.513v-2.513h2.513Z" transform="translate(-1988.414 240.706)" fill="#00223d"/>
      <path id="Trazado_26310" data-name="Trazado 26310" d="M2036.058-201.268a7.54,7.54,0,0,0,1.9-9.4,5.91,5.91,0,0,1-.688-4.54,6.337,6.337,0,0,0,.126-3.538,6.23,6.23,0,0,0-4.6-4.536,6.281,6.281,0,0,0-7.594,4.612,6.281,6.281,0,0,0,.042,3.145,6.015,6.015,0,0,1-.466,4.634,7.54,7.54,0,0,0,2.756,10.3,7.544,7.544,0,0,0,2.16.837c.118.025.238.036.355.055v2.63H2020v-66.6a1.257,1.257,0,0,0-1.257-1.257h-3.77v-3.77a1.257,1.257,0,0,0-1.257-1.257h-25.131a1.257,1.257,0,0,0-1.257,1.257v3.77h-3.77a1.256,1.256,0,0,0-1.256,1.257v66.6h-10.053v-2.622a7.532,7.532,0,0,0,6.179-8.677,7.556,7.556,0,0,0-.784-2.3,5.909,5.909,0,0,1-.688-4.54,6.34,6.34,0,0,0,.126-3.538,6.23,6.23,0,0,0-4.6-4.536,6.281,6.281,0,0,0-7.594,4.611,6.286,6.286,0,0,0,.041,3.146,6.015,6.015,0,0,1-.466,4.634,7.54,7.54,0,0,0,2.756,10.3,7.543,7.543,0,0,0,2.16.836c.118.026.237.036.355.056v2.63h-6.283v2.513h75.394v-2.513h-6.283v-2.622A7.5,7.5,0,0,0,2036.058-201.268Zm-66.324-15.906v14.917a5.014,5.014,0,0,1-3.618-6.1,5.034,5.034,0,0,1,.521-1.273,8.5,8.5,0,0,0,.71-6.565,3.7,3.7,0,0,1-.126-.981,3.75,3.75,0,0,1,1.428-2.954,3.707,3.707,0,0,1,2.333-.816,4.051,4.051,0,0,1,.931.108,3.76,3.76,0,0,1,2.738,4.56c-.022.092-.049.184-.079.273h0a8.325,8.325,0,0,0,.855,6.52,4.95,4.95,0,0,1,.591,2.361,5.007,5.007,0,0,1-3.77,4.862v-14.914h-2.513Zm20.105-50.263h22.618v2.513h-22.618Zm10.052,70.368h-5.026v-7.539h5.026Zm7.539,0H2002.4v-7.539h5.026Zm10.053,0h-7.54v-8.8a1.257,1.257,0,0,0-1.257-1.257h-15.079a1.258,1.258,0,0,0-1.257,1.257v8.8h-7.539v-65.342h32.671v65.342Zm12.566-20.106v14.917a5.014,5.014,0,0,1-3.618-6.1,5.061,5.061,0,0,1,.521-1.273,8.5,8.5,0,0,0,.715-6.565,3.751,3.751,0,0,1-.131-.981,3.748,3.748,0,0,1,1.429-2.954,3.706,3.706,0,0,1,2.332-.816,4.051,4.051,0,0,1,.931.108,3.761,3.761,0,0,1,2.739,4.56c-.023.092-.049.184-.08.273h0a8.325,8.325,0,0,0,.855,6.52,4.941,4.941,0,0,1,.591,2.361,5.007,5.007,0,0,1-3.77,4.862v-14.914h-2.513Z" transform="translate(-1963.449 269.95)" fill="#00223d"/>
    </g>
  </g>
</svg>
