<svg xmlns="http://www.w3.org/2000/svg" xmlns:xlink="http://www.w3.org/1999/xlink" width="172" height="172" viewBox="0 0 172 172">
  <defs>
    <filter id="Elipse_5722" x="0" y="0" width="172" height="172" filterUnits="userSpaceOnUse">
      <feOffset dy="3" input="SourceAlpha"/>
      <feGaussianBlur stdDeviation="3" result="blur"/>
      <feFlood flood-opacity="0.161"/>
      <feComposite operator="in" in2="blur"/>
      <feComposite in="SourceGraphic"/>
    </filter>
  </defs>
  <g id="Grupo_1008814" data-name="Grupo 1008814" transform="translate(-1067 -7148.893)">
    <g transform="matrix(1, 0, 0, 1, 1067, 7148.89)" filter="url(#Elipse_5722)">
      <circle id="Elipse_5722-2" data-name="Elipse 5722" cx="77" cy="77" r="77" transform="translate(9 6)" fill="#fff"/>
    </g>
    <g id="Grupo_17063" data-name="Grupo 17063" transform="translate(-200.048 7611.476)">
      <g id="Grupo_17062" data-name="Grupo 17062" transform="translate(1313.048 -426.583)">
        <path id="Trazado_26886" data-name="Trazado 26886" d="M1362.384-406.947h.038c7.8-.077,6.661-10.5,6.661-10.5-.309-6.97-6.121-6.912-6.7-6.892-.579-.02-6.391-.078-6.719,6.873,0,0-1.139,10.426,6.68,10.5h0C1362.345-406.947,1362.364-406.947,1362.384-406.947Z" transform="translate(-1322.233 426.1)" fill="#ffd947"/>
        <path id="Trazado_26887" data-name="Trazado 26887" d="M1360.333-387.551l5.039-6.951a33.468,33.468,0,0,1,6.448,3.572,13.557,13.557,0,0,1,1.776,1.564c1.6,1.6.927,10.889,0,14.288a48.106,48.106,0,0,1-3.649,8.283,13.062,13.062,0,0,0-1.024,3.9l-3.475,34.078a2.131,2.131,0,0,1-2.1,1.912h-6.023a2.117,2.117,0,0,1-2.1-1.912l-3.475-34.078a12.92,12.92,0,0,0-1.023-3.9,47.368,47.368,0,0,1-3.649-8.283c-.927-3.4-1.6-12.685,0-14.288a13.566,13.566,0,0,1,1.776-1.564,34.74,34.74,0,0,1,6.449-3.572Z" transform="translate(-1320.182 419.66)" fill="#ffd947"/>
        <path id="Trazado_26888" data-name="Trazado 26888" d="M1314-370.948a47.171,47.171,0,0,0,3.534,8.09,9.982,9.982,0,0,1,.791,3.07l3.263,31.973a3.733,3.733,0,0,0,3.727,3.359h5.637a3.732,3.732,0,0,0,3.726-3.359l3.263-31.973a10.291,10.291,0,0,1,.83-3.128,1.75,1.75,0,0,0-.889-2.3,1.751,1.751,0,0,0-2.3.888,13.716,13.716,0,0,0-1.1,4.189l-3.263,31.973a.246.246,0,0,1-.231.213h-5.638a.232.232,0,0,1-.231-.213l-3.3-31.992a14.285,14.285,0,0,0-1.1-4.19.57.57,0,0,0-.077-.154,43.967,43.967,0,0,1-3.263-7.375c-.888-3.3-1.139-10.484-.405-11.758a10.614,10.614,0,0,1,1.429-1.255,28.164,28.164,0,0,1,4.421-2.567l3.9,5.368a1.755,1.755,0,0,0,1.409.714,1.755,1.755,0,0,0,1.409-.714l4.73-6.507a1.778,1.778,0,0,0-.386-2.452,1.778,1.778,0,0,0-2.452.387l-3.321,4.556-3.282-4.537a1.753,1.753,0,0,0-2.066-.6,33.537,33.537,0,0,0-6.429,3.552,14.127,14.127,0,0,0-1.873,1.641C1312-383.575,1313.368-373.3,1314-370.948Z" transform="translate(-1313.048 418.985)" fill="#00223d"/>
        <path id="Trazado_26889" data-name="Trazado 26889" d="M1329.906-399.554h.328a7.334,7.334,0,0,0,5.484-2.394c2.876-3.243,2.471-8.65,2.394-9.326-.29-5.966-4.441-8.07-7.9-8.07h-.309c-3.456,0-7.588,2.124-7.9,8.07-.058.676-.483,6.082,2.394,9.326A7.336,7.336,0,0,0,1329.906-399.554Zm-4.4-11.411v-.116c.194-4.17,2.839-4.788,4.4-4.788h.289c1.564,0,4.209.618,4.4,4.788v.1c.135,1.236.1,4.846-1.545,6.7a3.762,3.762,0,0,1-2.993,1.216h-.038a3.826,3.826,0,0,1-2.993-1.216C1325.407-406.119,1325.388-409.729,1325.5-410.965Z" transform="translate(-1314.97 425.021)" fill="#00223d"/>
        <path id="Trazado_26890" data-name="Trazado 26890" d="M1383.51-365.237a1.724,1.724,0,0,0-.889,2.3,10.443,10.443,0,0,1,.831,3.128l3.263,31.973a3.732,3.732,0,0,0,3.726,3.359h5.638a3.733,3.733,0,0,0,3.726-3.359l3.262-31.973a10.585,10.585,0,0,1,.792-3.07,44.311,44.311,0,0,0,3.533-8.09c.638-2.356,2.028-12.627-.444-15.1a14.041,14.041,0,0,0-1.873-1.641,32.838,32.838,0,0,0-6.429-3.552,1.719,1.719,0,0,0-2.066.6l-3.321,4.556-3.34-4.537a1.755,1.755,0,0,0-2.452-.386,1.773,1.773,0,0,0-.387,2.452l4.73,6.506a1.758,1.758,0,0,0,1.41.714,1.755,1.755,0,0,0,1.409-.714l3.9-5.367a28.2,28.2,0,0,1,4.421,2.567,11.814,11.814,0,0,1,1.429,1.255c.733,1.274.482,8.457-.405,11.759a44.08,44.08,0,0,1-3.263,7.375,1.1,1.1,0,0,0-.078.154,13.72,13.72,0,0,0-1.1,4.189l-3.263,31.973a.247.247,0,0,1-.232.212H1390.4a.231.231,0,0,1-.232-.212l-3.263-31.973a14.28,14.28,0,0,0-1.1-4.189A1.726,1.726,0,0,0,1383.51-365.237Z" transform="translate(-1328.029 418.989)" fill="#00223d"/>
        <path id="Trazado_26891" data-name="Trazado 26891" d="M1393.8-399.554h.328a7.336,7.336,0,0,0,5.5-2.394c2.877-3.243,2.472-8.65,2.394-9.326-.289-5.966-4.421-8.07-7.9-8.07h-.309c-3.456,0-7.587,2.124-7.9,8.07-.058.676-.483,6.082,2.394,9.326A7.332,7.332,0,0,0,1393.8-399.554Zm-4.4-11.411v-.116c.194-4.17,2.839-4.788,4.4-4.788h.289c1.564,0,4.209.618,4.4,4.788v.1c.135,1.236.1,4.846-1.545,6.7a3.826,3.826,0,0,1-2.993,1.216h-.038a3.826,3.826,0,0,1-2.993-1.216C1389.3-406.119,1389.284-409.729,1389.4-410.965Z" transform="translate(-1328.764 425.021)" fill="#00223d"/>
        <path id="Trazado_26892" data-name="Trazado 26892" d="M1345.349-391.085c-2.606,2.607-1.139,13.477-.444,15.986a48.31,48.31,0,0,0,3.765,8.592,10.987,10.987,0,0,1,.869,3.3l3.475,34.078a3.845,3.845,0,0,0,3.861,3.475h6a3.889,3.889,0,0,0,3.861-3.475l3.476-34.078a10.841,10.841,0,0,1,.869-3.3,48.991,48.991,0,0,0,3.765-8.592c.676-2.509,2.163-13.38-.444-15.986a15.574,15.574,0,0,0-1.97-1.737,36.148,36.148,0,0,0-6.834-3.784,1.72,1.72,0,0,0-2.067.6l-3.687,5-3.63-5a1.753,1.753,0,0,0-2.066-.6,35.6,35.6,0,0,0-6.834,3.784A14.37,14.37,0,0,0,1345.349-391.085Zm2.51,2.433A10.733,10.733,0,0,1,1349.4-390a29.053,29.053,0,0,1,4.827-2.8l4.209,5.792a1.756,1.756,0,0,0,1.41.714,1.754,1.754,0,0,0,1.409-.714l4.209-5.792a30.711,30.711,0,0,1,4.827,2.8,10.688,10.688,0,0,1,1.545,1.352c.811,1.313.56,9.055-.424,12.627a44.949,44.949,0,0,1-3.5,7.877,1.13,1.13,0,0,0-.077.154,14.665,14.665,0,0,0-1.178,4.441l-3.475,34.077a.36.36,0,0,1-.367.329h-6a.36.36,0,0,1-.367-.329l-3.475-34.077a14.287,14.287,0,0,0-1.178-4.441.572.572,0,0,0-.077-.154,47.031,47.031,0,0,1-3.495-7.9C1347.3-379.6,1347.048-387.339,1347.859-388.651Z" transform="translate(-1319.698 420.142)" fill="#00223d"/>
        <path id="Trazado_26893" data-name="Trazado 26893" d="M1361.726-405.692h.348a7.511,7.511,0,0,0,5.773-2.529c3.051-3.417,2.587-9.171,2.529-9.867-.309-6.274-4.653-8.5-8.3-8.5h-.348c-3.63,0-7.993,2.221-8.3,8.5-.058.7-.521,6.43,2.529,9.847A7.622,7.622,0,0,0,1361.726-405.692Zm-4.808-12.067v-.116c.213-4.711,3.437-5.213,4.808-5.213h.329c1.371,0,4.595.5,4.807,5.213v.1c.136,1.332.116,5.232-1.66,7.221a4.152,4.152,0,0,1-3.283,1.332h-.058a4.212,4.212,0,0,1-3.282-1.332C1356.8-412.527,1356.783-416.427,1356.918-417.759Z" transform="translate(-1321.749 426.583)" fill="#00223d"/>
      </g>
    </g>
  </g>
</svg>
