<svg xmlns="http://www.w3.org/2000/svg" xmlns:xlink="http://www.w3.org/1999/xlink" width="76.333" height="76.333" viewBox="0 0 76.333 76.333">
  <defs>
    <filter id="Elipse_5696" x="0" y="0" width="76.333" height="76.333" filterUnits="userSpaceOnUse">
      <feOffset dy="3" input="SourceAlpha"/>
      <feGaussianBlur stdDeviation="3" result="blur"/>
      <feFlood flood-opacity="0.161"/>
      <feComposite operator="in" in2="blur"/>
      <feComposite in="SourceGraphic"/>
    </filter>
  </defs>
  <g id="Grupo_1011032" data-name="Grupo 1011032" transform="translate(-171 -3971.001)">
    <g id="Grupo_1010601" data-name="Grupo 1010601" transform="translate(-210 3239.301)">
      <g id="Grupo_1008761" data-name="Grupo 1008761" transform="translate(390 737.7)">
        <g transform="matrix(1, 0, 0, 1, -9, -6)" filter="url(#Elipse_5696)">
          <g id="Elipse_5696-2" data-name="Elipse 5696" transform="translate(9 6)" fill="#fff" stroke="#fff8da" stroke-width="2">
            <circle cx="29.167" cy="29.167" r="29.167" stroke="none"/>
            <circle cx="29.167" cy="29.167" r="28.167" fill="none"/>
          </g>
        </g>
      </g>
    </g>
    <path id="Trazado_716513" data-name="Trazado 716513" d="M22.383,19.276,23.6,9.094H35.234v3.582H27.346l-.451,3.954a5.434,5.434,0,0,1,1.292-.508,5.9,5.9,0,0,1,1.565-.22,5.84,5.84,0,0,1,4.56,1.757A7.077,7.077,0,0,1,35.9,22.588a7.064,7.064,0,0,1-.854,3.466,5.873,5.873,0,0,1-2.4,2.386,7.575,7.575,0,0,1-3.65.834,8.151,8.151,0,0,1-3.514-.772,6.3,6.3,0,0,1-2.57-2.117A5.145,5.145,0,0,1,22,23.345h4.621a2.614,2.614,0,0,0,.7,1.733,2.213,2.213,0,0,0,1.654.641q2.324,0,2.324-3.438,0-3.179-2.844-3.179a2.838,2.838,0,0,0-2.406,1.037Z" transform="translate(180 3989)" fill="#12263f"/>
  </g>
</svg>
