<svg xmlns="http://www.w3.org/2000/svg" width="158.715" height="137.92" viewBox="0 0 158.715 137.92">
  <g id="Grupo_17066" data-name="Grupo 17066" transform="translate(-1013.453 518.707)">
    <g id="_Group_" data-name="&lt;Group&gt;" transform="translate(1015.778 -516.382)">
      <path id="Trazado_26894" data-name="Trazado 26894" d="M1022.94-516.8a7.833,7.833,0,0,0-1.55.155c-3.537.718-5.234,3.847-5.234,7.6l.168,48.9a7.749,7.749,0,0,0,7.749,7.749l4.661-.124a3.531,3.531,0,0,1,3.53,3.53s.108,5.021.108,8.607c0,1.378-.258,3.686,1.12,3.686l1.377-1.191a2.5,2.5,0,0,0,1.765-.732l11.25-12.136a7.065,7.065,0,0,1,4.993-2.068l37.267-.118c6.824,0,11.467-4.893,11.467-11.718l1.306-6.354v-38.035a7.749,7.749,0,0,0-7.749-7.749Z" transform="translate(-1015.191 516.797)" fill="#ffe07d"/>
      <path id="Trazado_26895" data-name="Trazado 26895" d="M1103.091-471.04h-13.64a13.968,13.968,0,0,0-13.859,12.393,1.232,1.232,0,0,1-1.216,1.11H1053.5a13.162,13.162,0,0,0-9.373,3.884l-4.349,4.347a1.55,1.55,0,0,1-2.6-.735,9.83,9.83,0,0,0-9.458-7.5h-4.607a1.553,1.553,0,0,1-1.55-1.55V-516.67a7.753,7.753,0,0,0-6.2,7.595v49.989a7.751,7.751,0,0,0,7.749,7.749h4.607a3.531,3.531,0,0,1,3.53,3.528v9.679a2.56,2.56,0,0,0,2.378,2.588,2.49,2.49,0,0,0,1.882-.729l13-13a7.057,7.057,0,0,1,4.991-2.068h37.233a12.457,12.457,0,0,0,10.717-6.2h-.006a12.3,12.3,0,0,0,1.646-6.157v-7.346Z" transform="translate(-1015.363 516.825)" fill="#ffd064"/>
      <path id="Trazado_26896" data-name="Trazado 26896" d="M1149.664-474.092a7.751,7.751,0,0,1,7.75,7.75v49.987a7.751,7.751,0,0,1-7.75,7.75l-4.336-.923c-1.949,0-4.914,1.19-4.914,3.139,0,0-.182,4.6-.182,8.191a2.5,2.5,0,0,1-2.5,2.5,2.493,2.493,0,0,1-1.765-.732l-10.708-11.73a7.068,7.068,0,0,0-4.993-2.068l-41.421-.032a7.749,7.749,0,0,1-7.749-7.749l-.442-48.318c0-3.746,1.686-6.883,5.217-7.6a7.761,7.761,0,0,1,1.562-.158Z" transform="translate(-1003.348 526.076)" fill="#f5fcff"/>
      <path id="Trazado_26897" data-name="Trazado 26897" d="M1157.432-414.834a7.754,7.754,0,0,1-7.595,6.2h-4.606a3.53,3.53,0,0,0-3.531,3.53v9.774a2.5,2.5,0,0,1-2.5,2.5,2.49,2.49,0,0,1-1.764-.732l-13-13a7.047,7.047,0,0,0-4.991-2.071h-41.839a7.75,7.75,0,0,1-7.749-7.75v-49.985a7.75,7.75,0,0,1,6.2-7.595v57.58a1.55,1.55,0,0,0,1.55,1.55h41.839a13.17,13.17,0,0,1,9.374,3.884l4.34,4.341a1.554,1.554,0,0,0,2.6-.741,9.889,9.889,0,0,1,9.464-7.484Z" transform="translate(-1003.522 526.104)" fill="#e6f7fe"/>
    </g>
    <g id="Grupo_17065" data-name="Grupo 17065" transform="translate(1013.453 -518.707)">
      <g id="Grupo_17064" data-name="Grupo 17064">
        <path id="Trazado_26898" data-name="Trazado 26898" d="M1038.483-514.057h52.338a5.431,5.431,0,0,1,5.426,5.424v25.677a2.325,2.325,0,0,0,2.325,2.325,2.325,2.325,0,0,0,2.325-2.325v-25.677a10.086,10.086,0,0,0-10.075-10.074h-52.338a2.325,2.325,0,0,0-2.325,2.325A2.325,2.325,0,0,0,1038.483-514.057Z" transform="translate(-1008.52 518.707)" fill="#00223d"/>
        <path id="Trazado_26899" data-name="Trazado 26899" d="M1158-455.227a2.325,2.325,0,0,0-2.325,2.325v32.448a5.433,5.433,0,0,1-5.425,5.425h-4.606a5.861,5.861,0,0,0-5.855,5.855v9.772a.177.177,0,0,1-.292.119l-13-13a9.327,9.327,0,0,0-6.637-2.749h-41.839a5.431,5.431,0,0,1-5.424-5.425V-433.59a2.326,2.326,0,0,0-2.325-2.325,2.325,2.325,0,0,0-2.325,2.325v13.136a10.085,10.085,0,0,0,10.074,10.074h41.838a4.7,4.7,0,0,1,3.349,1.388l13,13a4.79,4.79,0,0,0,3.408,1.412,4.827,4.827,0,0,0,4.822-4.82v-9.772a1.207,1.207,0,0,1,1.2-1.206h4.606a10.085,10.085,0,0,0,10.074-10.074V-452.9a2.324,2.324,0,0,0-2.324-2.325Z" transform="translate(-1001.612 532.5)" fill="#00223d"/>
        <path id="Trazado_26900" data-name="Trazado 26900" d="M1162.094-466.722H1105.83v-5.391a2.325,2.325,0,0,0-2.325-2.325,2.325,2.325,0,0,0-2.325,2.325v5.391h-11.315a10.086,10.086,0,0,0-10.074,10.074v3.427h-25.875a9.324,9.324,0,0,0-6.637,2.75l-13,13a.177.177,0,0,1-.292-.121v-9.771a5.862,5.862,0,0,0-5.855-5.856h-4.607a5.43,5.43,0,0,1-5.424-5.424v-49.988a5.43,5.43,0,0,1,5.424-5.424h8.967a2.325,2.325,0,0,0,2.325-2.325,2.325,2.325,0,0,0-2.325-2.325h-8.967a10.086,10.086,0,0,0-10.074,10.074v49.988a10.086,10.086,0,0,0,10.074,10.074h4.606a1.207,1.207,0,0,1,1.206,1.205v9.772a4.826,4.826,0,0,0,4.821,4.82,4.79,4.79,0,0,0,3.41-1.412l13-13a4.705,4.705,0,0,1,3.349-1.388h25.875v17.825a2.325,2.325,0,0,0,2.325,2.325,2.326,2.326,0,0,0,2.325-2.325v-25.9a5.431,5.431,0,0,1,5.424-5.425h72.228a5.432,5.432,0,0,1,5.426,5.425v6.7a2.325,2.325,0,0,0,2.325,2.325,2.325,2.325,0,0,0,2.324-2.325v-6.7A10.085,10.085,0,0,0,1162.094-466.722Z" transform="translate(-1013.453 518.707)" fill="#00223d"/>
        <path id="Trazado_26901" data-name="Trazado 26901" d="M1106.337-431.3a2.325,2.325,0,0,0,2.325-2.325v-30.095a2.325,2.325,0,0,0-2.325-2.325,2.325,2.325,0,0,0-2.325,2.325v30.095A2.325,2.325,0,0,0,1106.337-431.3Z" transform="translate(-993.776 530.15)" fill="#00223d"/>
        <path id="Trazado_26902" data-name="Trazado 26902" d="M1055.775-484.37a12.091,12.091,0,0,0,6.528-3.586,12.111,12.111,0,0,0,3.339-9.051,12.245,12.245,0,0,0-11.941-11.561,12.219,12.219,0,0,0-12.342,10.508,12.317,12.317,0,0,0-.118,1.7,2.326,2.326,0,0,0,2.325,2.325,2.325,2.325,0,0,0,2.325-2.325,7.637,7.637,0,0,1,.073-1.058,7.55,7.55,0,0,1,7.643-6.5,7.577,7.577,0,0,1,7.391,7.153,7.5,7.5,0,0,1-2.067,5.608,7.491,7.491,0,0,1-5.481,2.357,2.325,2.325,0,0,0-2.325,2.325v10.335a2.325,2.325,0,0,0,2.325,2.325,2.325,2.325,0,0,0,2.325-2.325v-8.229Z" transform="translate(-1007.415 520.91)" fill="#00223d"/>
        <circle id="Elipse_1000" data-name="Elipse 1000" cx="2.325" cy="2.325" r="2.325" transform="translate(43.709 51.805)" fill="#00223d"/>
        <circle id="Elipse_1001" data-name="Elipse 1001" cx="2.325" cy="2.325" r="2.325" transform="translate(110.202 103.741)" fill="#00223d"/>
      </g>
    </g>
  </g>
</svg>
