<svg xmlns="http://www.w3.org/2000/svg" width="144.006" height="146.238" viewBox="0 0 144.006 146.238">
  <g id="Grupo_1008755" data-name="Grupo 1008755" transform="translate(0.001)">
    <g id="Grupo_16746" data-name="Grupo 16746" transform="translate(2.201 2.187)">
      <g id="Grupo_16745" data-name="Grupo 16745" transform="translate(0 0)">
        <path id="Trazado_26148" data-name="Trazado 26148" d="M1147.16,174.385c1.184,7.809,6.236,24.024,27.77,24.024,0,0,1.578-25.5-24.056-27.946A3.424,3.424,0,0,0,1147.16,174.385Z" transform="translate(-1147.12 -71.905)" fill="#e9f857"/>
        <path id="Trazado_26149" data-name="Trazado 26149" d="M1150.907,170.463a3.4,3.4,0,0,0-2.018.435c20.814,3.836,21.031,24.312,20.957,27.175a37.905,37.905,0,0,0,5.117.336s1.578-25.5-24.056-27.946Z" transform="translate(-1147.153 -71.905)" fill="#e9f857"/>
        <path id="Trazado_26150" data-name="Trazado 26150" d="M1203.264,174.385c-1.185,7.809-6.236,24.024-27.77,24.024,0,0-1.578-25.5,24.056-27.946a3.424,3.424,0,0,1,3.714,3.922Z" transform="translate(-1147.646 -71.905)" fill="#e9f857"/>
        <path id="Trazado_26151" data-name="Trazado 26151" d="M1199.549,170.463c-1.086.1-2.12.252-3.111.435a3.411,3.411,0,0,1,1.7,3.487c-1.084,7.148-5.412,21.337-22.654,23.688.006.217.013.336.013.336,21.534,0,26.585-16.215,27.77-24.024a3.424,3.424,0,0,0-3.715-3.922Z" transform="translate(-1147.645 -71.905)" fill="#e9f857"/>
        <path id="Trazado_26152" data-name="Trazado 26152" d="M1232.7,174.385c1.185,7.809,6.238,24.024,27.771,24.024,0,0,1.579-25.5-24.055-27.946a3.425,3.425,0,0,0-3.716,3.922Z" transform="translate(-1148.705 -71.905)" fill="#e9f857"/>
        <path id="Trazado_26153" data-name="Trazado 26153" d="M1236.451,170.463a3.4,3.4,0,0,0-2.019.435c20.814,3.836,21.031,24.313,20.959,27.175a37.863,37.863,0,0,0,5.116.336s1.578-25.5-24.055-27.946Z" transform="translate(-1148.738 -71.905)" fill="#e9f857"/>
        <path id="Trazado_26154" data-name="Trazado 26154" d="M1288.806,174.385c-1.184,7.809-6.236,24.024-27.77,24.024,0,0-1.578-25.5,24.056-27.946A3.424,3.424,0,0,1,1288.806,174.385Z" transform="translate(-1149.23 -71.905)" fill="#e9f857"/>
        <path id="Trazado_26155" data-name="Trazado 26155" d="M1285.093,170.463c-1.087.1-2.12.252-3.11.435a3.414,3.414,0,0,1,1.7,3.487c-1.085,7.148-5.412,21.337-22.654,23.688.005.217.012.336.012.336,21.533,0,26.586-16.215,27.771-24.024A3.425,3.425,0,0,0,1285.093,170.463Z" transform="translate(-1149.23 -71.905)" fill="#e9f857"/>
        <path id="Trazado_26156" data-name="Trazado 26156" d="M1216.342,70.978c-6.978,8.161-28.569,38.269,1.963,68.8,0,0,36.31-32.078,1.989-68.9a2.651,2.651,0,0,0-3.952.1Z" transform="translate(-1148.144 -70.046)" fill="#e9f857"/>
        <path id="Trazado_26157" data-name="Trazado 26157" d="M1220.547,70.883a2.651,2.651,0,0,0-3.953.1q-.26.3-.546.649a2.494,2.494,0,0,1,2.1.842c27.062,31.3,5.579,57.985-1.51,65.317q.923,1,1.919,1.993s36.31-32.078,1.989-68.9Z" transform="translate(-1148.397 -70.046)" fill="#e9f857"/>
        <path id="Trazado_26158" data-name="Trazado 26158" d="M1164.93,134.439c1.1,12.1,8.094,48.929,52.525,48.929,0,0,3.114-50.329-48.956-52.646a3.421,3.421,0,0,0-3.569,3.717Z" transform="translate(-1147.45 -71.169)" fill="#e9f857"/>
        <path id="Trazado_26159" data-name="Trazado 26159" d="M1168.539,130.722a3.417,3.417,0,0,0-1.456.251c46.545,4.309,45.429,49.063,45.291,52.218,1.651.112,3.353.177,5.121.177,0,0,3.114-50.329-48.956-52.645Z" transform="translate(-1147.49 -71.169)" fill="#e9f857"/>
        <path id="Trazado_26160" data-name="Trazado 26160" d="M1271.042,134.439c-1.1,12.1-8.094,48.929-52.525,48.929,0,0-3.115-50.329,48.956-52.646a3.421,3.421,0,0,1,3.569,3.717Z" transform="translate(-1148.443 -71.169)" fill="#e9f857"/>
        <path id="Trazado_26161" data-name="Trazado 26161" d="M1267.474,130.722q-1.885.084-3.674.251a3.409,3.409,0,0,1,2.113,3.466c-1.055,11.617-7.552,46.031-47.4,48.752.005.116.009.178.009.178,44.431,0,51.426-36.832,52.525-48.93a3.421,3.421,0,0,0-3.569-3.717Z" transform="translate(-1148.443 -71.169)" fill="#e9f857"/>
      </g>
    </g>
    <g id="Grupo_16747" data-name="Grupo 16747" transform="translate(0 0)">
      <path id="Trazado_26162" data-name="Trazado 26162" d="M1287.616,168.422a5.587,5.587,0,0,0-4.881-2.037c-14.962,1.594-20.88,9.733-23.858,17.245a26.4,26.4,0,0,0-6.695-10.136,48,48,0,0,0,11.879-14.17,67.3,67.3,0,0,0,7.8-25.853,5.648,5.648,0,0,0-5.844-6.1c-16.261.723-28.992,6.08-37.84,15.923a48.575,48.575,0,0,0-8.868,14.412v-16.9c3.033-2.891,15.914-16.222,16.818-34.853.617-12.74-4.528-25.055-15.293-36.6a4.872,4.872,0,0,0-7.215.165c-3.96,4.227-11.8,16.408-13.568,27.007a44.025,44.025,0,0,0,.928,21.357c2.363,7.922,7.061,15.528,13.956,22.622v17.2a48.584,48.584,0,0,0-8.867-14.412c-8.848-9.842-21.579-15.2-37.84-15.923a5.648,5.648,0,0,0-5.844,6.1,70.509,70.509,0,0,0,3.8,17.09,51.4,51.4,0,0,0,15.62,22.736,26.316,26.316,0,0,0-6.909,10.33c-.129-.341-.263-.682-.407-1.025-2.8-6.646-9.132-14.854-23.45-16.217a5.643,5.643,0,0,0-6.084,6.426c1.143,7.537,6.132,24.751,27.765,25.83v13.227a2.187,2.187,0,1,0,4.373,0V198.635c14.376-.72,21.384-8.572,24.792-15.844a67.085,67.085,0,0,0,13.046,1.571v25.32h-5.593a2.187,2.187,0,1,0,0,4.373h15.084a2.187,2.187,0,1,0,0-4.373H1219.3v-25.32a61.351,61.351,0,0,0,20.352-3.762l13.4,13.258a22.683,22.683,0,0,1-12.431-6.058,2.187,2.187,0,0,0-3.065,3.12c4.816,4.731,11.242,7.317,19.116,7.714v13.234a2.187,2.187,0,0,0,4.374,0V198.642c21.633-1.079,26.621-18.293,27.764-25.83a5.572,5.572,0,0,0-1.2-4.39Zm-5.97,2.5-20.189,19.97a29.124,29.124,0,0,1,1.86-6.59C1266.532,176.654,1272.7,172.158,1281.646,170.918Zm-34.126.608a42.447,42.447,0,0,1-8.287,4.53,54,54,0,0,1-16.6,3.757l19.572-19.6h16.219A42.221,42.221,0,0,1,1247.52,171.526ZM1237.279,140.9c7.107-5.262,16.173-8.294,27.062-9.047l-27.062,27.1ZM1261,155.837h-14.43l20.714-20.745A61.884,61.884,0,0,1,1261,155.837Zm-29.549-9.648c.471-.523.957-1.031,1.453-1.526v18.672l-13.438,13.458C1220,169.578,1222.283,156.368,1231.451,146.189ZM1219.3,134.406V120.2l11.72-8.684C1228.945,121.808,1223.12,129.966,1219.3,134.406Zm12.456-28.875-12.456,9.229V74.194C1228.034,84.226,1232.222,94.756,1231.761,105.531Zm-16.829-30.678v26.374l-9.308-8.82A59.573,59.573,0,0,1,1214.931,74.853Zm-10.594,22.522c.009-.045.019-.089.028-.133l10.566,10.011v26.755c-9.6-11.347-13.17-23.647-10.594-36.633Zm-1.551,48.816c9.169,10.178,11.451,23.389,11.986,30.6l-23.762-23.8V137.241A39.9,39.9,0,0,1,1202.786,146.19ZM1169.9,131.85a58.542,58.542,0,0,1,16.738,3.471v13.292Zm-2.944,3.244,12.248,12.266h-9.524A65.5,65.5,0,0,1,1166.953,135.094Zm9.414,25.935a50.7,50.7,0,0,1-5.059-9.3h12.259l28.039,28.08C1197.592,178.913,1184.344,172.831,1176.368,161.028Zm9.067,14.918a45.807,45.807,0,0,0,4.524,2.613l-12.444,12.31C1178.244,186.443,1180.213,180.274,1185.435,175.947Zm-15.035,8.216a29.055,29.055,0,0,1,1.911,6.719l-20.183-19.964C1161.024,172.15,1167.168,176.6,1170.4,184.163Zm-20.632-9.428,19.329,19.121C1156.1,191.652,1151.428,182.03,1149.768,174.735Zm30.938,19.13,13.54-13.4q1.616.627,3.338,1.168c-3.425,6.83-9.081,10.925-16.879,12.227Zm67.834-17.75c5.071,4.318,7,10.386,7.719,14.756l-12.286-12.155a46.013,46.013,0,0,0,4.568-2.6Zm16.136,17.741,19.329-19.121c-1.66,7.3-6.335,16.916-19.329,19.121Z" transform="translate(-1144.877 -67.817)" fill="#00223d"/>
      <path id="Trazado_26163" data-name="Trazado 26163" d="M1159.736,100.122l6.718,1.742a2.187,2.187,0,1,0,1.1-4.233l-6.717-1.742a2.187,2.187,0,0,0-1.1,4.233Z" transform="translate(-1145.123 -68.336)" fill="#00223d"/>
      <path id="Trazado_26164" data-name="Trazado 26164" d="M1167.254,83.325l5.661,4.013a2.187,2.187,0,0,0,2.529-3.569l-5.662-4.012a2.186,2.186,0,1,0-2.529,3.568Z" transform="translate(-1145.275 -68.031)" fill="#00223d"/>
      <path id="Trazado_26165" data-name="Trazado 26165" d="M1183.773,77.244a2.187,2.187,0,1,0,4.02-1.722l-2.733-6.379a2.187,2.187,0,0,0-4.02,1.723Z" transform="translate(-1145.544 -67.817)" fill="#00223d"/>
      <path id="Trazado_26166" data-name="Trazado 26166" d="M1267.163,100.3a2.191,2.191,0,0,0,2.666,1.568l6.717-1.742a2.187,2.187,0,1,0-1.1-4.233l-6.717,1.741A2.187,2.187,0,0,0,1267.163,100.3Z" transform="translate(-1147.141 -68.336)" fill="#00223d"/>
      <path id="Trazado_26167" data-name="Trazado 26167" d="M1262.124,87.741a2.179,2.179,0,0,0,1.263-.4l5.662-4.012a2.187,2.187,0,1,0-2.529-3.569l-5.662,4.012a2.187,2.187,0,0,0,1.266,3.971Z" transform="translate(-1147.009 -68.031)" fill="#00223d"/>
      <path id="Trazado_26168" data-name="Trazado 26168" d="M1249.713,78.393a2.19,2.19,0,0,0,2.872-1.149l2.733-6.378a2.187,2.187,0,1,0-4.019-1.723l-2.734,6.379A2.188,2.188,0,0,0,1249.713,78.393Z" transform="translate(-1146.795 -67.817)" fill="#00223d"/>
    </g>
  </g>
</svg>
