<svg xmlns="http://www.w3.org/2000/svg" width="134.299" height="134.125" viewBox="0 0 134.299 134.125">
  <g id="Solution" transform="translate(62.223 394.32)">
    <path id="Trazado_26749" data-name="Trazado 26749" d="M8.238-307.456v-28.713a9.214,9.214,0,0,0-8.074-9.3,8.953,8.953,0,0,0-9.789,8.031,8.738,8.738,0,0,0-.044.88v7.431l-7.923-7.923a11.126,11.126,0,0,1-9.388,12.628,11.121,11.121,0,0,1-4.546-.273l-6.18,18.542a8.955,8.955,0,0,0,.225,6.268l9.906,23.762v4.477H8.238v-6.715L10.31-282.5a22.383,22.383,0,0,0,.552-18.826Z" transform="translate(5.643 11.449)" fill="#ffbcab"/>
    <path id="Trazado_26750" data-name="Trazado 26750" d="M4.247-338.655l-.493.493H4.2C4.224-338.325,4.224-338.491,4.247-338.655Z" transform="translate(15.476 13.057)" fill="#57a4ff"/>
    <path id="Trazado_26751" data-name="Trazado 26751" d="M8.418-329.258a11.134,11.134,0,0,1-3.2-9H4.773l-5.352,5.349v14.8a11.192,11.192,0,0,0,11.191,11.193h2.238a4.477,4.477,0,0,0,4.477-4.477v-14.684A11.117,11.117,0,0,1,8.418-329.258Z" transform="translate(14.459 13.15)" fill="#e5a99a"/>
    <path id="Trazado_26752" data-name="Trazado 26752" d="M24.47-335.515l15.825-15.848L26.059-365.6a11.214,11.214,0,0,1-3.178,6.335,11.3,11.3,0,0,1-15.825,0,11.2,11.2,0,0,1,.02-15.846,11.208,11.208,0,0,1,6.315-3.157L-.844-392.5l-15.848,15.825a11.191,11.191,0,0,0-9.49-12.667,11.193,11.193,0,0,0-12.667,9.491,11.192,11.192,0,0,0,9.491,12.665,11.123,11.123,0,0,0,3.175,0l-15.825,15.825,15.825,15.848a11.191,11.191,0,0,0-12.667,9.49,11.193,11.193,0,0,0,9.491,12.667,11.191,11.191,0,0,0,12.665-9.49,11.131,11.131,0,0,0,0-3.177l7.923,7.923v-7.431a8.954,8.954,0,0,1,8.954-8.953,8.953,8.953,0,0,1,8.953,8.953v5.349l5.842-5.842a11.191,11.191,0,0,0,9.49,12.667,11.192,11.192,0,0,0,12.667-9.49,11.192,11.192,0,0,0-9.49-12.667,11.225,11.225,0,0,0-3.177,0Z" transform="translate(4.742 0.426)" fill="#ffcd00"/>
    <path id="Trazado_26753" data-name="Trazado 26753" d="M15.274-340.626,31.1-356.474,16.863-370.71a11.214,11.214,0,0,1-3.178,6.335,11.087,11.087,0,0,1-5.227,2.91A76.567,76.567,0,0,1-2.8-337.067a8.9,8.9,0,0,1,2.742,6.423v5.349l5.842-5.842a11.191,11.191,0,0,0,9.49,12.667,11.192,11.192,0,0,0,12.667-9.49,11.192,11.192,0,0,0-9.49-12.667,11.23,11.23,0,0,0-3.177,0Z" transform="translate(13.938 5.538)" fill="#e5b800"/>
    <g id="Grupo_17018" data-name="Grupo 17018" transform="translate(-62.223 -394.32)">
      <path id="Trazado_26754" data-name="Trazado 26754" d="M42.3-352.518,28.067-366.753a2.238,2.238,0,0,0-3.165-.014,2.242,2.242,0,0,0-.64,1.273,8.954,8.954,0,0,1-10.131,7.6,8.953,8.953,0,0,1-7.6-10.131,8.951,8.951,0,0,1,7.6-7.6,2.24,2.24,0,0,0,1.9-2.532,2.249,2.249,0,0,0-.64-1.274L1.156-393.666a2.24,2.24,0,0,0-3.165,0l-12.362,12.358a13.43,13.43,0,0,0-16.442-9.507,13.428,13.428,0,0,0-9.507,16.441,13.429,13.429,0,0,0,9.5,9.507l-12.348,12.349a2.237,2.237,0,0,0,0,3.164l12.353,12.369A13.431,13.431,0,0,0-40.3-320.53a13.434,13.434,0,0,0,7.859,8.936l-5.227,15.074a11.2,11.2,0,0,0,.385,9.865l7.857,18.578a1.789,1.789,0,0,0,.1.207,6.845,6.845,0,0,1,.835,3.289v2.148a2.238,2.238,0,0,0,2.238,2.238,2.238,2.238,0,0,0,2.238-2.238v-2.148a11.327,11.327,0,0,0-1.343-5.337L-33.213-288.5a2.471,2.471,0,0,0-.107-.223,6.8,6.8,0,0,1-.2-6.142l5.475-15.758c.235,0,.465.033.7.033a13.4,13.4,0,0,0,12.962-9.942l3.8,3.78v22.979a2.239,2.239,0,0,0,2.238,2.238,2.238,2.238,0,0,0,2.238-2.238v-31.337A6.716,6.716,0,0,1,.611-331.82a6.715,6.715,0,0,1,6.715,6.715V-298a20.245,20.245,0,0,0,2.126,9.009l.82,1.643a15.731,15.731,0,0,1,0,14.012l-2.238,4.477a6.731,6.731,0,0,0-.707,3v3.42a2.237,2.237,0,0,0,2.238,2.238,2.238,2.238,0,0,0,2.238-2.238v-3.42a2.277,2.277,0,0,1,.223-1l2.238-4.478a20.226,20.226,0,0,0,0-18.016l-.819-1.643a15.729,15.729,0,0,1-1.538-5.136,15.628,15.628,0,0,0,11.086,4.6,6.715,6.715,0,0,0,6.715-6.715V-311a13.415,13.415,0,0,0,9.8-16.246,13.414,13.414,0,0,0-9.557-9.738L42.3-349.357a2.237,2.237,0,0,0,0-3.16Zm-19.31,56.511A11.2,11.2,0,0,1,11.8-307.2v-11.638l1.71-1.711a13.394,13.394,0,0,0,11.72,9.894v12.41A2.239,2.239,0,0,1,22.993-296.007Zm.32-40.664a2.238,2.238,0,0,0-.017,3.165,2.237,2.237,0,0,0,1.925.639,8.954,8.954,0,0,1,10.12,7.611,8.953,8.953,0,0,1-7.61,10.118,8.952,8.952,0,0,1-10.12-7.61,8.894,8.894,0,0,1,0-2.509,2.238,2.238,0,0,0-1.88-2.547,2.234,2.234,0,0,0-1.925.64l-2,2.007A11.192,11.192,0,0,0,.586-336.322a11.191,11.191,0,0,0-11.168,11.216h0v2.028l-4.1-4.1a2.238,2.238,0,0,0-3.165-.017,2.237,2.237,0,0,0-.639,1.925,8.954,8.954,0,0,1-7.61,10.12,8.954,8.954,0,0,1-10.12-7.61,8.952,8.952,0,0,1,7.61-10.12,8.9,8.9,0,0,1,2.51,0,2.239,2.239,0,0,0,2.548-1.878,2.235,2.235,0,0,0-.64-1.927l-14.228-14.248,14.244-14.236a2.238,2.238,0,0,0,.017-3.165,2.241,2.241,0,0,0-1.925-.64A8.952,8.952,0,0,1-36.188-376.6a8.954,8.954,0,0,1,2.522-7.557,9.176,9.176,0,0,1,12.66,0,8.948,8.948,0,0,1,2.525,7.583,2.239,2.239,0,0,0,1.88,2.547,2.237,2.237,0,0,0,1.925-.64L-.419-388.911l10.03,10.032A13.431,13.431,0,0,0,3.28-360.972a13.43,13.43,0,0,0,17.906,6.331,13.431,13.431,0,0,0,6.331-6.331l10.032,10.03Z" transform="translate(66.54 394.32)" fill="#00223d"/>
      <path id="Trazado_26755" data-name="Trazado 26755" d="M47.724-355.535H34.294a2.238,2.238,0,0,1-2.238-2.238,2.238,2.238,0,0,1,2.238-2.24h13.43a2.239,2.239,0,0,1,2.238,2.24A2.239,2.239,0,0,1,47.724-355.535Z" transform="translate(84.337 402.367)" fill="#00223d"/>
      <path id="Trazado_26756" data-name="Trazado 26756" d="M32.334-375.111a2.239,2.239,0,0,1-2.238-2.24,2.239,2.239,0,0,1,1.119-1.938L42.854-386a2.238,2.238,0,0,1,3.052.839,2.237,2.237,0,0,1-.814,3.037l-11.639,6.716A2.237,2.237,0,0,1,32.334-375.111Z" transform="translate(83.877 396.202)" fill="#00223d"/>
      <path id="Trazado_26757" data-name="Trazado 26757" d="M43.967-327.969a2.225,2.225,0,0,1-1.12-.3l-11.639-6.715a2.239,2.239,0,0,1-.84-3.052,2.238,2.238,0,0,1,3.052-.841l.026.015,11.639,6.716a2.238,2.238,0,0,1,.82,3.057,2.24,2.24,0,0,1-1.938,1.12Z" transform="translate(83.873 407.256)" fill="#00223d"/>
      <path id="Trazado_26758" data-name="Trazado 26758" d="M-46.554-355.535H-59.985a2.239,2.239,0,0,1-2.238-2.238,2.239,2.239,0,0,1,2.238-2.24h13.431a2.239,2.239,0,0,1,2.238,2.24A2.239,2.239,0,0,1-46.554-355.535Z" transform="translate(62.223 402.367)" fill="#00223d"/>
      <path id="Trazado_26759" data-name="Trazado 26759" d="M-44.938-375.111a2.237,2.237,0,0,1-1.119-.3L-57.7-382.127a2.238,2.238,0,0,1-.8-3.063A2.239,2.239,0,0,1-55.458-386l11.639,6.715A2.238,2.238,0,0,1-43-376.231,2.239,2.239,0,0,1-44.938-375.111Z" transform="translate(63.025 396.202)" fill="#00223d"/>
      <path id="Trazado_26760" data-name="Trazado 26760" d="M-56.565-327.969a2.238,2.238,0,0,1-2.238-2.238,2.236,2.236,0,0,1,1.119-1.938l11.639-6.716a2.239,2.239,0,0,1,3.063.8,2.237,2.237,0,0,1-.8,3.063l-.026.016-11.639,6.715a2.224,2.224,0,0,1-1.119.3Z" transform="translate(63.025 407.257)" fill="#00223d"/>
    </g>
  </g>
</svg>
