<svg id="Grupo_1008754" data-name="Grupo 1008754" xmlns="http://www.w3.org/2000/svg" width="137.95" height="137.949" viewBox="0 0 137.95 137.949">
  <g id="Grupo_16691" data-name="Grupo 16691" transform="translate(2.225 102.349)">
    <path id="Trazado_26097" data-name="Trazado 26097" d="M88.073,405.629a6.678,6.678,0,0,1-2.669-5.34V392.5l5.211,2.606a6.675,6.675,0,0,1,3.689,5.97V410.3Z" transform="translate(-85.404 -392.501)" fill="#52565a"/>
  </g>
  <g id="Grupo_16692" data-name="Grupo 16692" transform="translate(42.276 97.899)">
    <path id="Trazado_26098" data-name="Trazado 26098" d="M146.837,388.642c0,6.144-5.976,11.125-13.35,11.125s-13.349-4.981-13.349-11.125" transform="translate(-120.137 -388.642)" fill="#c66b60"/>
  </g>
  <g id="Grupo_16693" data-name="Grupo 16693" transform="translate(98.018 88.835)">
    <path id="Trazado_26099" data-name="Trazado 26099" d="M175.037,414.634v-.314l.73-2.92a124.636,124.636,0,0,0,3.72-30.22v-.4a28.851,28.851,0,0,1-8.43,8.751l-.469.314-.143.112q-.353,11.023-1.57,22l-.394,3.538a8.414,8.414,0,0,1,6.558-.857Z" transform="translate(-168.479 -380.781)" fill="#a8b0bc"/>
  </g>
  <g id="Grupo_16694" data-name="Grupo 16694" transform="translate(24.475 95.773)">
    <path id="Trazado_26100" data-name="Trazado 26100" d="M115.9,413.74l-.08-.34.965-6.764a125.047,125.047,0,0,0,1.259-17.711v-.847c-.8-.236-1.611-.431-2.4-.694l-1.757-.585a104.574,104.574,0,0,0-6.96,26.578l0,.024H104.7a8.725,8.725,0,0,1,4.461,1.228,8.405,8.405,0,0,1,6.743-.888Z" transform="translate(-104.7 -386.798)" fill="#a8b0bc"/>
  </g>
  <g id="Grupo_16695" data-name="Grupo 16695" transform="translate(24.475 122.374)">
    <path id="Trazado_26101" data-name="Trazado 26101" d="M113.6,409.868a8.9,8.9,0,0,1,8.9,8.9v4.451H104.7v-4.451A8.9,8.9,0,0,1,113.6,409.868Z" transform="translate(-104.7 -409.868)" fill="#52565a"/>
  </g>
  <g id="Grupo_16696" data-name="Grupo 16696" transform="translate(93.451 122.374)">
    <path id="Trazado_26102" data-name="Trazado 26102" d="M173.418,409.868a8.9,8.9,0,0,1,8.9,8.9v4.451h-17.8v-4.451A8.9,8.9,0,0,1,173.418,409.868Z" transform="translate(-164.518 -409.868)" fill="#52565a"/>
  </g>
  <g id="Grupo_16697" data-name="Grupo 16697" transform="translate(15.575 122.374)">
    <path id="Trazado_26103" data-name="Trazado 26103" d="M105.882,409.868a8.9,8.9,0,0,1,8.9,8.9v4.451h-17.8v-4.451A8.9,8.9,0,0,1,105.882,409.868Z" transform="translate(-96.981 -409.868)" fill="#52565a"/>
  </g>
  <g id="Grupo_16698" data-name="Grupo 16698" transform="translate(84.55 122.374)">
    <path id="Trazado_26104" data-name="Trazado 26104" d="M165.7,409.868a8.9,8.9,0,0,1,8.9,8.9v4.451H156.8v-4.451A8.9,8.9,0,0,1,165.7,409.868Z" transform="translate(-156.799 -409.868)" fill="#52565a"/>
  </g>
  <g id="Grupo_16699" data-name="Grupo 16699" transform="translate(11.29 24.474)">
    <path id="Trazado_26105" data-name="Trazado 26105" d="M195.45,373.915v.1a28.924,28.924,0,0,1-12.88,24.068l-.469.312-.143.112q-.353,11.023-1.571,22l-.512,4.593h-8.9l-.65-2.924a159.388,159.388,0,0,1-3.56-25.931l0-.07h-.236l-2.047.683a73.457,73.457,0,0,1-23.217,3.767h-.646a73.483,73.483,0,0,1-23.221-3.767l-1.757-.586a104.6,104.6,0,0,0-6.96,26.579l0,.024H102l-6.674-26.7-2.017-30.239a20.07,20.07,0,0,1,.555-6.187l.238-.95A20.021,20.021,0,0,1,111.714,343.7L146.5,340.54v-6.675a8.9,8.9,0,0,1,8.9-8.9h6.675" transform="translate(-93.265 -324.965)" fill="#e3e4e5"/>
  </g>
  <g id="Grupo_16700" data-name="Grupo 16700" transform="translate(75.65 13.349)">
    <path id="Trazado_26106" data-name="Trazado 26106" d="M151.305,364.267l-2.18-30.538c-.029-.407-.044-.816-.044-1.223a17.185,17.185,0,0,1,17.186-17.188h14.576A17.185,17.185,0,0,1,198.031,332.5c0,.409-.015.816-.044,1.224l-2.18,30.541" transform="translate(-149.081 -315.317)" fill="#e3e4e5"/>
  </g>
  <g id="Grupo_16701" data-name="Grupo 16701" transform="translate(73.425 2.224)">
    <path id="Trazado_26107" data-name="Trazado 26107" d="M160.5,319.018l-.747-1.121a22.042,22.042,0,0,1-3.7-12.228l-5.007,3.753A9.736,9.736,0,0,0,150,324.1l1.6,1.6" transform="translate(-147.151 -305.669)" fill="#efbe9a"/>
  </g>
  <g id="Grupo_16702" data-name="Grupo 16702" transform="translate(113.475 2.224)">
    <path id="Trazado_26108" data-name="Trazado 26108" d="M181.884,319.018l.748-1.121a22.051,22.051,0,0,0,3.7-12.228l5.006,3.753a9.736,9.736,0,0,1,1.041,14.674l-1.6,1.6" transform="translate(-181.884 -305.669)" fill="#efbe9a"/>
  </g>
  <g id="Grupo_16703" data-name="Grupo 16703" transform="translate(64.525 24.474)">
    <path id="Trazado_26109" data-name="Trazado 26109" d="M150.558,324.965h-1.551a9.575,9.575,0,0,0-9.574,9.574v6h2.71a9.575,9.575,0,0,0,6.771-2.8l1.644-1.647" transform="translate(-139.433 -324.965)" fill="#c66b60"/>
  </g>
  <g id="Grupo_16704" data-name="Grupo 16704" transform="translate(124.6 24.474)">
    <path id="Trazado_26110" data-name="Trazado 26110" d="M191.532,324.965h1.551a9.575,9.575,0,0,1,9.574,9.574v6h-2.71a9.578,9.578,0,0,1-6.771-2.8l-1.644-1.647" transform="translate(-191.532 -324.965)" fill="#c66b60"/>
  </g>
  <g id="Grupo_16705" data-name="Grupo 16705" transform="translate(77.875 51.174)">
    <path id="Trazado_26111" data-name="Trazado 26111" d="M166.586,348.12a20.741,20.741,0,0,1,6.675,1.086,20.734,20.734,0,0,1,6.674-1.086c8.6,0,15.576,4.983,15.576,11.125s-6.974,11.125-15.576,11.125a20.734,20.734,0,0,1-6.674-1.085,20.741,20.741,0,0,1-6.675,1.085c-8.6,0-15.576-4.981-15.576-11.125S157.984,348.12,166.586,348.12Z" transform="translate(-151.01 -348.12)" fill="#c66b60"/>
  </g>
  <g id="Grupo_16706" data-name="Grupo 16706" transform="translate(100.126 13.349)">
    <path id="Trazado_26112" data-name="Trazado 26112" d="M177.6,315.317h-1.262A17.785,17.785,0,0,0,193.9,345.484l.839-11.756c.029-.407.044-.816.044-1.223A17.185,17.185,0,0,0,177.6,315.317Z" transform="translate(-170.307 -315.317)" fill="#52565a"/>
  </g>
  <g id="Grupo_16707" data-name="Grupo 16707" transform="translate(31.151 42.274)">
    <path id="Trazado_26113" data-name="Trazado 26113" d="M112.713,340.4a11.126,11.126,0,1,0,17.8,0" transform="translate(-110.489 -340.402)" fill="#52565a"/>
  </g>
  <g id="Grupo_16708" data-name="Grupo 16708" transform="translate(46.725 64.524)">
    <path id="Trazado_26114" data-name="Trazado 26114" d="M132.9,359.7a8.9,8.9,0,0,1,8.9,8.9c0,.112-.029.215-.033.325a8.792,8.792,0,0,1,2.258-.325,8.9,8.9,0,1,1-8.9,8.9c0-.112.029-.213.033-.325a8.8,8.8,0,0,1-2.259.325,8.9,8.9,0,0,1,0-17.8Z" transform="translate(-123.996 -359.698)" fill="#52565a"/>
  </g>
  <g id="Grupo_16709" data-name="Grupo 16709" transform="translate(13.35 68.974)">
    <path id="Trazado_26115" data-name="Trazado 26115" d="M95.052,385.807a11.125,11.125,0,0,0,0-22.25" transform="translate(-95.052 -363.557)" fill="#52565a"/>
  </g>
  <g id="Grupo_16710" data-name="Grupo 16710" transform="translate(75.65 48.949)">
    <path id="Trazado_26116" data-name="Trazado 26116" d="M180.23,372.891a23.022,23.022,0,0,1-6.674-.974,23.036,23.036,0,0,1-6.675.974c-9.815,0-17.8-5.988-17.8-13.35s7.985-13.349,17.8-13.349a22.994,22.994,0,0,1,6.675.974,22.98,22.98,0,0,1,6.674-.974c9.815,0,17.8,5.987,17.8,13.349S190.046,372.891,180.23,372.891Zm-6.674-5.534a2.266,2.266,0,0,1,.714.118,18.521,18.521,0,0,0,5.96.966c7.237,0,13.35-4.076,13.35-8.9s-6.114-8.9-13.35-8.9a18.491,18.491,0,0,0-5.96.967,2.251,2.251,0,0,1-1.431,0,18.467,18.467,0,0,0-5.958-.967c-7.236,0-13.35,4.076-13.35,8.9s6.115,8.9,13.35,8.9a18.46,18.46,0,0,0,5.96-.969,2.261,2.261,0,0,1,.715-.115Z" transform="translate(-149.081 -346.191)" fill="#00223d"/>
  </g>
  <g id="Grupo_16711" data-name="Grupo 16711" transform="translate(109.025 57.849)">
    <path id="Trazado_26117" data-name="Trazado 26117" d="M181.362,360.584a3.338,3.338,0,1,1,3.338-3.337A3.342,3.342,0,0,1,181.362,360.584Z" transform="translate(-178.025 -353.909)" fill="#00223d"/>
  </g>
  <g id="Grupo_16712" data-name="Grupo 16712" transform="translate(84.55 57.849)">
    <path id="Trazado_26118" data-name="Trazado 26118" d="M160.137,360.584a3.338,3.338,0,1,1,3.337-3.337A3.342,3.342,0,0,1,160.137,360.584Z" transform="translate(-156.799 -353.909)" fill="#00223d"/>
  </g>
  <g id="Grupo_16713" data-name="Grupo 16713" transform="translate(73.425 11.124)">
    <path id="Trazado_26119" data-name="Trazado 26119" d="M198.32,364.72l-4.437-.318,2.18-30.539c.024-.347.038-.706.038-1.062a14.981,14.981,0,0,0-14.964-14.964H166.562A14.981,14.981,0,0,0,151.6,332.8c0,.356.014.715.04,1.068l2.178,30.536-4.436.318-2.18-30.541c-.033-.463-.052-.92-.052-1.381a19.436,19.436,0,0,1,19.413-19.413H181.14A19.435,19.435,0,0,1,200.552,332.8c0,.461-.017.919-.047,1.378Z" transform="translate(-147.151 -313.387)" fill="#00223d"/>
  </g>
  <g id="Grupo_16714" data-name="Grupo 16714" transform="translate(111.251 31.149)">
    <path id="Trazado_26120" data-name="Trazado 26120" d="M183.292,337.429a3.338,3.338,0,1,1,3.338-3.338A3.341,3.341,0,0,1,183.292,337.429Z" transform="translate(-179.955 -330.754)" fill="#00223d"/>
  </g>
  <g id="Grupo_16715" data-name="Grupo 16715" transform="translate(82.326 31.149)">
    <path id="Trazado_26121" data-name="Trazado 26121" d="M158.207,337.429a3.338,3.338,0,1,1,3.338-3.338A3.341,3.341,0,0,1,158.207,337.429Z" transform="translate(-154.87 -330.754)" fill="#00223d"/>
  </g>
  <g id="Grupo_16716" data-name="Grupo 16716" transform="translate(71.201 0)">
    <path id="Trazado_26122" data-name="Trazado 26122" d="M150.323,327.563l-1.6-1.6a11.872,11.872,0,0,1-3.5-8.455,12.02,12.02,0,0,1,4.783-9.568l5.007-3.755a2.224,2.224,0,0,1,3.56,1.78,19.773,19.773,0,0,0,3.329,10.994l.747,1.122-3.7,2.466-.747-1.121a24.219,24.219,0,0,1-3.715-9.282l-1.807,1.355a7.515,7.515,0,0,0-.806,11.321l1.6,1.6Z" transform="translate(-145.222 -303.74)" fill="#00223d"/>
  </g>
  <g id="Grupo_16717" data-name="Grupo 16717" transform="translate(111.624 0)">
    <path id="Trazado_26123" data-name="Trazado 26123" d="M192.6,327.563l-3.146-3.147,1.6-1.6a7.51,7.51,0,0,0-.806-11.316l-1.806-1.354a24.239,24.239,0,0,1-3.716,9.284l-.747,1.121-3.7-2.468.747-1.121a19.8,19.8,0,0,0,3.329-11,2.224,2.224,0,0,1,3.56-1.78l5.007,3.755a12.015,12.015,0,0,1,4.784,9.568,11.879,11.879,0,0,1-3.5,8.457Z" transform="translate(-180.279 -303.74)" fill="#00223d"/>
  </g>
  <g id="Grupo_16718" data-name="Grupo 16718" transform="translate(62.3 22.249)">
    <path id="Trazado_26124" data-name="Trazado 26124" d="M142.438,343.061h-2.71a2.224,2.224,0,0,1-2.225-2.225v-6a11.8,11.8,0,0,1,11.8-11.8h1.551v4.451H149.3a7.35,7.35,0,0,0-7.35,7.349v3.776h.485a7.308,7.308,0,0,0,5.2-2.152l1.647-1.646,3.146,3.146L150.78,339.6a11.72,11.72,0,0,1-8.341,3.456Z" transform="translate(-137.503 -323.035)" fill="#00223d"/>
  </g>
  <g id="Grupo_16719" data-name="Grupo 16719" transform="translate(123.027 22.249)">
    <path id="Trazado_26125" data-name="Trazado 26125" d="M202.866,343.061h-2.71a11.722,11.722,0,0,1-8.341-3.456l-1.647-1.647,3.147-3.146,1.647,1.646a7.305,7.305,0,0,0,5.195,2.152h.485v-3.776a7.351,7.351,0,0,0-7.35-7.349h-1.551v-4.451h1.551a11.8,11.8,0,0,1,11.8,11.8v6a2.223,2.223,0,0,1-2.225,2.225Z" transform="translate(-190.168 -323.035)" fill="#00223d"/>
  </g>
  <g id="Grupo_16720" data-name="Grupo 16720" transform="translate(97.9 11.681)">
    <path id="Trazado_26126" data-name="Trazado 26126" d="M188.4,348.913a20.025,20.025,0,0,1-13.245-35.043l2.945,3.337a15.577,15.577,0,0,0,16.139,26.124l1.673,4.125a19.915,19.915,0,0,1-7.511,1.458Z" transform="translate(-168.377 -313.87)" fill="#00223d"/>
  </g>
  <g id="Grupo_16721" data-name="Grupo 16721" transform="translate(9.064 37.83)">
    <path id="Trazado_26127" data-name="Trazado 26127" d="M100.138,421.631l-6.675-26.7a2.137,2.137,0,0,1-.062-.392L91.385,364.3A22.135,22.135,0,0,1,92,357.423l.234-.948a22.274,22.274,0,0,1,19.574-16.766l34.785-3.162.4,4.432-34.785,3.162a17.82,17.82,0,0,0-15.66,13.408l-.235.953a17.776,17.776,0,0,0-.495,5.5l2,30.038,6.626,26.508Z" transform="translate(-91.335 -336.548)" fill="#00223d"/>
  </g>
  <g id="Grupo_16722" data-name="Grupo 16722" transform="translate(13.35 120.149)">
    <path id="Trazado_26128" data-name="Trazado 26128" d="M115.076,425.738h-17.8a2.222,2.222,0,0,1-2.224-2.224v-4.451a11.125,11.125,0,1,1,22.25,0v4.451A2.223,2.223,0,0,1,115.076,425.738ZM99.5,421.289h13.35v-2.226a6.675,6.675,0,0,0-13.35,0Z" transform="translate(-95.052 -407.938)" fill="#00223d"/>
  </g>
  <g id="Grupo_16723" data-name="Grupo 16723" transform="translate(27.808 120.149)">
    <path id="Trazado_26129" data-name="Trazado 26129" d="M122.058,425.738h-8.9v-4.45h6.675v-2.226a6.678,6.678,0,0,0-10.008-5.785l-2.235-3.849a11.128,11.128,0,0,1,16.692,9.634v4.451a2.222,2.222,0,0,1-2.224,2.224Z" transform="translate(-107.59 -407.938)" fill="#00223d"/>
  </g>
  <g id="Grupo_16724" data-name="Grupo 16724" transform="translate(24.483 85.778)">
    <path id="Trazado_26130" data-name="Trazado 26130" d="M109.133,414.976l-4.426-.434,0-.026a106.687,106.687,0,0,1,10.46-34.609l.888-1.777,3.98,1.991-.887,1.777A102.144,102.144,0,0,0,109.133,414.976Z" transform="translate(-104.707 -378.13)" fill="#00223d"/>
  </g>
  <g id="Grupo_16725" data-name="Grupo 16725" transform="translate(33.397 97.899)">
    <path id="Trazado_26131" data-name="Trazado 26131" d="M116.843,413.433l-4.406-.63.969-6.764a123.878,123.878,0,0,0,1.235-17.4h4.45a127.989,127.989,0,0,1-1.28,18.027Z" transform="translate(-112.437 -388.642)" fill="#00223d"/>
  </g>
  <g id="Grupo_16726" data-name="Grupo 16726" transform="translate(32.672 93.562)">
    <path id="Trazado_26132" data-name="Trazado 26132" d="M138.422,393.667h-.643a75.505,75.505,0,0,1-23.923-3.882l-2.048-.683,1.409-4.219,2.047.684a71.178,71.178,0,0,0,22.513,3.651h.643a71.124,71.124,0,0,0,22.514-3.653l2.048-.684,1.408,4.219-2.047.683A75.428,75.428,0,0,1,138.422,393.667Z" transform="translate(-111.808 -384.881)" fill="#00223d"/>
  </g>
  <g id="Grupo_16727" data-name="Grupo 16727" transform="translate(22.25 129.05)">
    <path id="Trazado_26133" data-name="Trazado 26133" d="M102.77,415.657h4.45v6.675h-4.45Z" transform="translate(-102.77 -415.657)" fill="#00223d"/>
  </g>
  <g id="Grupo_16728" data-name="Grupo 16728" transform="translate(82.326 120.149)">
    <path id="Trazado_26134" data-name="Trazado 26134" d="M174.894,425.738h-17.8a2.222,2.222,0,0,1-2.224-2.224v-4.451a11.125,11.125,0,1,1,22.25,0v4.451A2.223,2.223,0,0,1,174.894,425.738Zm-15.575-4.45h13.35v-2.226a6.675,6.675,0,0,0-13.35,0Z" transform="translate(-154.87 -407.938)" fill="#00223d"/>
  </g>
  <g id="Grupo_16729" data-name="Grupo 16729" transform="translate(96.783 120.149)">
    <path id="Trazado_26135" data-name="Trazado 26135" d="M181.876,425.738h-8.9v-4.45h6.675v-2.226a6.678,6.678,0,0,0-10.008-5.785l-2.235-3.849a11.128,11.128,0,0,1,16.692,9.634v4.451a2.222,2.222,0,0,1-2.224,2.224Z" transform="translate(-167.408 -407.938)" fill="#00223d"/>
  </g>
  <g id="Grupo_16730" data-name="Grupo 16730" transform="translate(91.225 129.05)">
    <path id="Trazado_26136" data-name="Trazado 26136" d="M162.588,415.657h4.45v6.675h-4.45Z" transform="translate(-162.588 -415.657)" fill="#00223d"/>
  </g>
  <g id="Grupo_16731" data-name="Grupo 16731" transform="translate(82.326 86.774)">
    <path id="Trazado_26137" data-name="Trazado 26137" d="M159.37,417.3l-.634-2.856a162.89,162.89,0,0,1-3.866-35.236l4.45-.216a158.764,158.764,0,0,0,3.762,34.485l.634,2.858Z" transform="translate(-154.87 -378.994)" fill="#00223d"/>
  </g>
  <g id="Grupo_16732" data-name="Grupo 16732" transform="translate(95.689 89)">
    <path id="Trazado_26138" data-name="Trazado 26138" d="M170.882,416.769l-4.423-.492.51-4.591a278.673,278.673,0,0,0,1.7-30.715l4.45-.046a284.391,284.391,0,0,1-1.726,31.252Z" transform="translate(-166.459 -380.924)" fill="#00223d"/>
  </g>
  <g id="Grupo_16733" data-name="Grupo 16733" transform="translate(98.893 73.424)">
    <path id="Trazado_26139" data-name="Trazado 26139" d="M171.706,393.743l-2.468-3.7.469-.313A26.651,26.651,0,0,0,181.6,367.512l4.45-.1v.1a31.091,31.091,0,0,1-13.87,25.918Z" transform="translate(-169.238 -367.416)" fill="#00223d"/>
  </g>
  <g id="Grupo_16734" data-name="Grupo 16734" transform="translate(102.419 89)">
    <path id="Trazado_26140" data-name="Trazado 26140" d="M176.611,414.84l-4.315-1.082.73-2.92a122.666,122.666,0,0,0,3.651-29.679v-.235h4.451v.235a126.832,126.832,0,0,1-3.788,30.759Z" transform="translate(-172.296 -380.924)" fill="#00223d"/>
  </g>
  <g id="Grupo_16735" data-name="Grupo 16735" transform="translate(0 46.808)">
    <path id="Trazado_26141" data-name="Trazado 26141" d="M94.6,419.9a2.213,2.213,0,0,1-1.335-.445l-6.23-4.672a8.946,8.946,0,0,1-3.56-7.12V367.123a23.8,23.8,0,0,1,17.19-22.789l1.221,4.281a19.33,19.33,0,0,0-13.962,18.508V398.5l3.98,1.991a8.851,8.851,0,0,1,4.92,7.959v9.225a2.227,2.227,0,0,1-1.23,1.991A2.251,2.251,0,0,1,94.6,419.9Zm-6.675-16.425v4.187a4.47,4.47,0,0,0,1.783,3.562l2.667,2V408.45a4.428,4.428,0,0,0-2.458-3.98Z" transform="translate(-83.474 -344.334)" fill="#00223d"/>
  </g>
  <g id="Grupo_16736" data-name="Grupo 16736" transform="translate(28.925 40.937)">
    <path id="Trazado_26142" data-name="Trazado 26142" d="M121.909,360.6a13.352,13.352,0,0,1-10.681-21.362l3.561,2.673a8.817,8.817,0,0,0-1.78,5.34,8.9,8.9,0,0,0,17.8,0,8.8,8.8,0,0,0-1.778-5.338l3.556-2.673a13.2,13.2,0,0,1,2.672,8.011A13.362,13.362,0,0,1,121.909,360.6Z" transform="translate(-108.559 -339.242)" fill="#00223d"/>
  </g>
  <g id="Grupo_16737" data-name="Grupo 16737" transform="translate(44.5 62.299)">
    <path id="Trazado_26143" data-name="Trazado 26143" d="M144.316,388.919a11.141,11.141,0,0,1-10.9-8.9c-.077,0-.151,0-.225,0a11.126,11.126,0,1,1,10.9-13.348c.078,0,.152,0,.225,0a11.125,11.125,0,1,1,0,22.25Zm-8.866-13.674a2.224,2.224,0,0,1,2.223,2.313c0,.076-.028.3-.038.375a6.833,6.833,0,1,0,4.991-6.562,2.225,2.225,0,0,1-2.791-2.238c0-.076.027-.3.038-.376a6.824,6.824,0,1,0-4.984,6.561,2.214,2.214,0,0,1,.56-.073Z" transform="translate(-122.066 -357.768)" fill="#00223d"/>
  </g>
  <g id="Grupo_16738" data-name="Grupo 16738" transform="translate(13.35 66.75)">
    <path id="Trazado_26144" data-name="Trazado 26144" d="M95.052,388.328v-4.45a8.9,8.9,0,0,0,0-17.8v-4.45a13.35,13.35,0,0,1,0,26.7Z" transform="translate(-95.052 -361.628)" fill="#00223d"/>
  </g>
  <g id="Grupo_16739" data-name="Grupo 16739" transform="translate(40.05 97.899)">
    <path id="Trazado_26145" data-name="Trazado 26145" d="M133.782,401.992c-8.586,0-15.575-5.988-15.575-13.35h4.45c0,4.909,4.991,8.9,11.125,8.9s11.125-3.992,11.125-8.9h4.451C149.358,396,142.369,401.992,133.782,401.992Z" transform="translate(-118.207 -388.642)" fill="#00223d"/>
  </g>
  <g id="Grupo_16741" data-name="Grupo 16741" transform="translate(48.95 109.024)">
    <g id="Grupo_16740" data-name="Grupo 16740" transform="translate(0)">
      <path id="Trazado_26146" data-name="Trazado 26146" d="M125.925,398.29h4.451v6.675h-4.451Z" transform="translate(-125.925 -398.29)" fill="#00223d"/>
    </g>
  </g>
  <g id="Grupo_16743" data-name="Grupo 16743" transform="translate(57.85 109.024)">
    <g id="Grupo_16742" data-name="Grupo 16742">
      <path id="Trazado_26147" data-name="Trazado 26147" d="M133.644,398.29h4.45v6.675h-4.45Z" transform="translate(-133.644 -398.29)" fill="#00223d"/>
    </g>
  </g>
</svg>
