<svg xmlns="http://www.w3.org/2000/svg" width="141.972" height="134.345" viewBox="0 0 141.972 134.345">
  <g id="Grupo_1011020" data-name="Grupo 1011020" transform="translate(8649.334 4596.974)">
    <path id="Trazado_716400" data-name="Trazado 716400" d="M-648.327,1634.628l16.637,28.818-24.013,13.864a16.635,16.635,0,0,1-22.727-6.089,16.636,16.636,0,0,1,6.089-22.727Z" transform="translate(-7965.901 -6173.288)" fill="#dbb10f"/>
    <path id="Trazado_716401" data-name="Trazado 716401" d="M-567.3,1642.012a5.545,5.545,0,0,1-4.667,8.315l-3.12.614-.069-.352-35.7-61.828-.233-.183,2-2.543a5.545,5.545,0,0,1,9.535.113C-544.151,1682.1-614.043,1561.045-567.3,1642.012Z" transform="translate(-7968.497 -6171.378)" fill="#dbb10f"/>
    <path id="Trazado_716402" data-name="Trazado 716402" d="M-625.077,1696.741a8.318,8.318,0,0,1-3.044,11.363,8.323,8.323,0,0,1-11.364-3.044l-15.251-26.418,14.408-8.319C-640.2,1670.552-625.1,1696.7-625.077,1696.741Z" transform="translate(-7966.868 -6174.621)" fill="#495d85"/>
    <path id="Trazado_716403" data-name="Trazado 716403" d="M-575.207,1605.433l5.546,9.606-6.833,10.349-11.091-19.211Z" transform="translate(-7969.373 -6172.201)" fill="#e9eef0"/>
    <path id="Trazado_716404" data-name="Trazado 716404" d="M-576.5,1650.79l.069.352-54.008,10.592-16.637-28.817,34.647-44.139.233.183Z" transform="translate(-7967.155 -6171.58)" fill="#ffd947"/>
    <path id="Trazado_716405" data-name="Trazado 716405" d="M-644.251,1662.639a2.774,2.774,0,0,0,1.015-3.788,2.776,2.776,0,0,0-3.788-1.016,2.775,2.775,0,0,0-1.015,3.789A2.773,2.773,0,0,0-644.251,1662.639Z" transform="translate(-7967.104 -6174.142)" fill="#00223d"/>
    <path id="Trazado_716406" data-name="Trazado 716406" d="M-656.925,1678.905l13.964,24.189a11.107,11.107,0,0,0,15.153,4.06A11.086,11.086,0,0,0-623.75,1692l-8.319-14.411,7.2-4.16a2.773,2.773,0,0,0,1.015-3.787l-3.605-6.246,53.112-10.418a8.317,8.317,0,0,0,6.743-12.464l-9.216-15.961,5.89-8.92a2.772,2.772,0,0,0,.088-2.914l-5.546-9.606a2.778,2.778,0,0,0-2.567-1.381l-10.669.64-10.231-17.72a8.246,8.246,0,0,0-7.1-4.159h-.107a8.246,8.246,0,0,0-7,3.836l-36.223,46.145-23.549,13.6a19.419,19.419,0,0,0-7.1,26.514A19.434,19.434,0,0,0-656.925,1678.905Zm28.373,15.872a5.542,5.542,0,0,1-2.032,7.574,5.553,5.553,0,0,1-7.574-2.029l-13.865-24.017,9.606-5.546C-626.372,1698.556-628.81,1694.332-628.552,1694.777Zm-6.29-21.987-2.773-4.8,4.8-2.773,2.773,4.8Zm54.51-65.416,3.832,6.637-3.417,5.176-6.605-11.441Zm-29.093-20a2.713,2.713,0,0,1,2.4-1.33,2.725,2.725,0,0,1,2.364,1.385l32.252,55.865a2.771,2.771,0,0,1-2.333,4.156,10.266,10.266,0,0,0-1.521.258l-34.117-59.093C-609.658,1587.693-609.566,1587.6-609.424,1587.371Zm-4.64,5.943,32.054,55.521-48.376,9.488-14.709-25.477Zm-62.073,74.5A13.855,13.855,0,0,1-678,1660.9a13.915,13.915,0,0,1,6.936-12.021l21.612-12.479,13.865,24.014-21.613,12.478A13.881,13.881,0,0,1-676.137,1667.814Z" transform="translate(-7965.793 -6171.27)" fill="#00223d"/>
    <path id="Trazado_716407" data-name="Trazado 716407" d="M-653.694,1664.611a2.773,2.773,0,0,0-3.787-1.015l-4.8,2.772a2.776,2.776,0,0,1-3.788-1.015,2.773,2.773,0,0,0-3.788-1.015,2.774,2.774,0,0,0-1.015,3.788,8.33,8.33,0,0,0,11.364,3.044l4.8-2.773A2.772,2.772,0,0,0-653.694,1664.611Z" transform="translate(-7966.252 -6174.357)" fill="#00223d"/>
    <path id="Trazado_716408" data-name="Trazado 716408" d="M-541,1586.643l-15.451,8.6a2.773,2.773,0,0,0-1.076,3.771,2.773,2.773,0,0,0,3.772,1.074l15.45-8.6a2.771,2.771,0,0,0,1.074-3.771A2.77,2.77,0,0,0-541,1586.643Z" transform="translate(-7970.483 -6171.486)" fill="#00223d"/>
    <path id="Trazado_716409" data-name="Trazado 716409" d="M-542.581,1616.374l-10.714-2.871a2.774,2.774,0,0,0-3.4,1.961,2.772,2.772,0,0,0,1.962,3.4l10.715,2.871a2.772,2.772,0,0,0,3.4-1.961A2.77,2.77,0,0,0-542.581,1616.374Z" transform="translate(-7970.522 -6172.499)" fill="#00223d"/>
    <path id="Trazado_716410" data-name="Trazado 716410" d="M-570.112,1576.112l-2.874,10.715a2.773,2.773,0,0,0,1.96,3.4,2.774,2.774,0,0,0,3.4-1.96l2.873-10.714a2.774,2.774,0,0,0-1.961-3.4A2.773,2.773,0,0,0-570.112,1576.112Z" transform="translate(-7969.915 -6171.029)" fill="#00223d"/>
  </g>
</svg>
