<svg xmlns="http://www.w3.org/2000/svg" width="132.768" height="132.769" viewBox="0 0 132.768 132.769">
  <g id="Grupo_1011021" data-name="Grupo 1011021" transform="translate(8821.959 3854.942)">
    <g id="Grupo_17021" data-name="Grupo 17021" transform="translate(-8821.959 -3854.942)">
      <path id="Trazado_26761" data-name="Trazado 26761" d="M-91.52-388.75h-14v-14l-16.6,16.6v14h14Z" transform="translate(221.695 405.347)" fill="#78d2fa"/>
      <circle id="Elipse_985" data-name="Elipse 985" cx="47.106" cy="47.106" r="47.106" transform="translate(19.608 19.283)" fill="#ff8c8c"/>
      <path id="Trazado_26762" data-name="Trazado 26762" d="M-120.911-341.248a30.1,30.1,0,0,0-30.1-30.1,30.009,30.009,0,0,0-21.287,8.817,30.011,30.011,0,0,0-8.818,21.288,30.1,30.1,0,0,0,30.1,30.1A30.1,30.1,0,0,0-120.911-341.248Z" transform="translate(217.396 407.634)" fill="#fff"/>
      <circle id="Elipse_986" data-name="Elipse 986" cx="14.976" cy="14.976" r="14.976" transform="translate(51.406 51.411)" fill="#ff5a5a"/>
      <g id="Grupo_17019" data-name="Grupo 17019" transform="translate(2.593 2.593)">
        <circle id="Elipse_987" data-name="Elipse 987" cx="16.856" cy="16.856" r="16.856" transform="translate(47.008)" fill="#f5c86e"/>
        <circle id="Elipse_988" data-name="Elipse 988" cx="16.856" cy="16.856" r="16.856" transform="translate(0 46.938)" fill="#f5c86e"/>
        <circle id="Elipse_989" data-name="Elipse 989" cx="16.856" cy="16.856" r="16.856" transform="translate(46.933 93.87)" fill="#f5c86e"/>
        <circle id="Elipse_990" data-name="Elipse 990" cx="16.856" cy="16.856" r="16.856" transform="translate(93.87 46.945)" fill="#f5c86e"/>
      </g>
      <path id="Trazado_26763" data-name="Trazado 26763" d="M-171.188-299.54Z" transform="translate(218.12 412.866)"/>
      <path id="Trazado_26764" data-name="Trazado 26764" d="M-101.612-358.226h0c-.447,0-.89.02-1.33.05a49.548,49.548,0,0,0-6.629-11.208h8.219a2.594,2.594,0,0,0,1.833-.76l16.6-16.6a2.593,2.593,0,0,0,.562-2.826,2.594,2.594,0,0,0-2.4-1.6H-96.169v-11.41a2.593,2.593,0,0,0-1.6-2.4,2.593,2.593,0,0,0-2.826.561l-16.6,16.6a2.594,2.594,0,0,0-.76,1.833v8.219a49.527,49.527,0,0,0-11.127-6.593c.031-.443.053-.887.053-1.335a19.47,19.47,0,0,0-19.416-19.481h-.033a19.472,19.472,0,0,0-19.449,19.417c0,.447.019.892.048,1.333a49.562,49.562,0,0,0-7.03,3.669,2.593,2.593,0,0,0-.814,3.576,2.592,2.592,0,0,0,2.2,1.212,2.584,2.584,0,0,0,1.379-.4,44.323,44.323,0,0,1,5.329-2.861,19.392,19.392,0,0,0,4.566,7.231,19.647,19.647,0,0,0,2.851,2.366,32.855,32.855,0,0,0-19.975,19.934,19.735,19.735,0,0,0-2.36-2.849,19.387,19.387,0,0,0-7.226-4.576,44.21,44.21,0,0,1,2.266-4.334,2.593,2.593,0,0,0-.9-3.554,2.594,2.594,0,0,0-3.555.9,49.553,49.553,0,0,0-3.006,5.922c-.44-.03-.881-.05-1.325-.05h-.008a19.473,19.473,0,0,0-19.442,19.457,19.471,19.471,0,0,0,19.449,19.442h.007c.443,0,.883-.02,1.322-.05a49.6,49.6,0,0,0,26.2,26.2c-.03.443-.05.887-.05,1.335a19.318,19.318,0,0,0,5.7,13.751,19.316,19.316,0,0,0,13.748,5.693h.008A19.474,19.474,0,0,0-129.1-291.859c0-.444-.02-.884-.049-1.321a49.6,49.6,0,0,0,26.2-26.2c.442.03.886.05,1.335.05h0a19.471,19.471,0,0,0,19.449-19.445A19.472,19.472,0,0,0-101.612-358.226Zm-16.108,8.561a32.717,32.717,0,0,0-5.965-10.319l8.287-8.287a44.376,44.376,0,0,1,7.261,11.171A19.546,19.546,0,0,0-117.719-349.665Zm15.29-24.905H-109.1l3.112-3.112h6.669Zm8.3-8.3H-100.8l3.112-3.112h6.668Zm-7.225-6.779-3.111,3.112V-393.2l3.111-3.112Zm-8.3,1.63v6.669l-3.111,3.111v-6.668Zm-9.412,16.081-8.286,8.286a32.708,32.708,0,0,0-10.258-5.94,19.594,19.594,0,0,0,2.865-2.354,19.375,19.375,0,0,0,4.59-7.216A44.372,44.372,0,0,1-119.066-371.937ZM-162.5-383.122c-.005-.032-.012-.065-.017-.1a14.406,14.406,0,0,1-.222-2.526,14.279,14.279,0,0,1,14.263-14.239h.024a14.279,14.279,0,0,1,14.24,14.286,14.435,14.435,0,0,1-.229,2.519c-.008.035-.014.072-.019.107a14.156,14.156,0,0,1-3.947,7.452,14.168,14.168,0,0,1-10.068,4.161h-.024a14.166,14.166,0,0,1-10.078-4.194A14.155,14.155,0,0,1-162.5-383.122Zm-32.98,58.6h-.005a14.28,14.28,0,0,1-14.263-14.258,14.28,14.28,0,0,1,14.258-14.268h.005a14.523,14.523,0,0,1,2.482.218c.039.009.077.015.116.02a14.15,14.15,0,0,1,7.483,3.936,14.173,14.173,0,0,1,4.182,10.084A14.172,14.172,0,0,1-185.4-328.7a14.165,14.165,0,0,1-7.471,3.94c-.033,0-.065.011-.1.016A14.467,14.467,0,0,1-195.479-324.52Zm6.52,4.069a19.386,19.386,0,0,0,7.233-4.584,19.663,19.663,0,0,0,2.347-2.845,32.856,32.856,0,0,0,19.921,19.92,19.692,19.692,0,0,0-2.853,2.361,19.387,19.387,0,0,0-4.575,7.225A44.417,44.417,0,0,1-188.959-320.451Zm40.412,42.862h-.005a14.167,14.167,0,0,1-10.082-4.173,14.167,14.167,0,0,1-4.181-10.084h0a14.388,14.388,0,0,1,.224-2.524c.006-.033.012-.065.017-.1a14.152,14.152,0,0,1,3.932-7.464,14.173,14.173,0,0,1,10.084-4.182h.005a14.28,14.28,0,0,1,14.263,14.258A14.278,14.278,0,0,1-148.547-277.589Zm18.319-20.782a19.536,19.536,0,0,0-7.425-9.577q1.382-.489,2.728-1.1a2.594,2.594,0,0,0,1.275-3.44,2.594,2.594,0,0,0-3.438-1.274,27.274,27.274,0,0,1-11.463,2.494,27.543,27.543,0,0,1-27.511-27.511,27.542,27.542,0,0,1,27.511-27.51,27.38,27.38,0,0,1,17.524,6.319l-7.035,7.035a17.539,17.539,0,0,0-10.412-3.413,17.659,17.659,0,0,0-17.64,17.64,17.66,17.66,0,0,0,17.64,17.64,17.66,17.66,0,0,0,17.64-17.64,17.546,17.546,0,0,0-3.537-10.584l7.011-7.011a27.386,27.386,0,0,1,6.319,17.524,27.313,27.313,0,0,1-2.281,10.987,2.593,2.593,0,0,0,1.34,3.414,2.593,2.593,0,0,0,3.414-1.34c.309-.708.589-1.424.845-2.147a19.634,19.634,0,0,0,2.354,2.843,19.376,19.376,0,0,0,7.222,4.579A44.408,44.408,0,0,1-130.228-298.372Zm-5.793-40.341a12.467,12.467,0,0,1-12.454,12.454,12.468,12.468,0,0,1-12.454-12.454,12.468,12.468,0,0,1,12.454-12.453,12.372,12.372,0,0,1,6.684,1.954l-7.684,7.684a2.594,2.594,0,0,0,0,3.668,2.586,2.586,0,0,0,1.834.76,2.584,2.584,0,0,0,1.833-.76l7.717-7.717A12.376,12.376,0,0,1-136.021-338.713Zm44.49,10.024a14.161,14.161,0,0,1-10.083,4.175h0a14.364,14.364,0,0,1-2.522-.225c-.034-.007-.069-.013-.1-.017a14.157,14.157,0,0,1-7.46-3.936,14.17,14.17,0,0,1-4.177-10.086,14.279,14.279,0,0,1,14.263-14.26h0a14.278,14.278,0,0,1,14.26,14.265A14.163,14.163,0,0,1-91.531-328.689Z" transform="translate(214.933 405.17)" fill="#00223d"/>
      <g id="Grupo_17020" data-name="Grupo 17020" transform="translate(11.944 11.952)">
        <path id="Trazado_26765" data-name="Trazado 26765" d="M-183.823-371.462a2.616,2.616,0,0,0,1.834-.761,2.613,2.613,0,0,0,.76-1.832,2.609,2.609,0,0,0-.76-1.834,2.609,2.609,0,0,0-1.834-.76,2.611,2.611,0,0,0-1.834.76,2.614,2.614,0,0,0-.76,1.834,2.608,2.608,0,0,0,.76,1.832A2.613,2.613,0,0,0-183.823-371.462Z" transform="translate(205.067 395.296)" fill="#00223d"/>
        <path id="Trazado_26766" data-name="Trazado 26766" d="M-133.044-325.867a2.613,2.613,0,0,0-1.832.76,2.608,2.608,0,0,0-.761,1.833,2.612,2.612,0,0,0,.761,1.833,2.613,2.613,0,0,0,1.832.76,2.608,2.608,0,0,0,1.834-.76,2.606,2.606,0,0,0,.76-1.833,2.6,2.6,0,0,0-.76-1.833A2.61,2.61,0,0,0-133.044-325.867Z" transform="translate(208.766 398.996)" fill="#00223d"/>
        <path id="Trazado_26767" data-name="Trazado 26767" d="M-159.492-388.844a2.621,2.621,0,0,0,1.836-.76,2.611,2.611,0,0,0,.757-1.834,2.618,2.618,0,0,0-.757-1.836,2.614,2.614,0,0,0-1.836-.757,2.609,2.609,0,0,0-1.834.757,2.619,2.619,0,0,0-.757,1.836,2.616,2.616,0,0,0,.757,1.834A2.616,2.616,0,0,0-159.492-388.844Z" transform="translate(206.839 394.03)" fill="#00223d"/>
        <path id="Trazado_26768" data-name="Trazado 26768" d="M-146.277-388.844a2.613,2.613,0,0,0,1.832-.76,2.614,2.614,0,0,0,.761-1.834,2.617,2.617,0,0,0-.761-1.836,2.607,2.607,0,0,0-1.832-.757,2.607,2.607,0,0,0-1.834.757,2.617,2.617,0,0,0-.761,1.836,2.614,2.614,0,0,0,.761,1.834A2.614,2.614,0,0,0-146.277-388.844Z" transform="translate(207.802 394.03)" fill="#00223d"/>
        <path id="Trazado_26769" data-name="Trazado 26769" d="M-158.218-385.887a2.593,2.593,0,0,0-1.836,3.176,7.785,7.785,0,0,0,7.51,5.77,7.785,7.785,0,0,0,7.511-5.77,2.594,2.594,0,0,0-1.836-3.176,2.594,2.594,0,0,0-3.175,1.836,2.594,2.594,0,0,1-2.5,1.924,2.592,2.592,0,0,1-2.5-1.924A2.593,2.593,0,0,0-158.218-385.887Z" transform="translate(206.981 394.617)" fill="#00223d"/>
        <path id="Trazado_26770" data-name="Trazado 26770" d="M-104.562-352.315a2.609,2.609,0,0,0-1.834.76,2.611,2.611,0,0,0-.76,1.834,2.611,2.611,0,0,0,.76,1.833,2.614,2.614,0,0,0,1.834.76,2.608,2.608,0,0,0,1.832-.76,2.6,2.6,0,0,0,.761-1.833,2.6,2.6,0,0,0-.761-1.834A2.6,2.6,0,0,0-104.562-352.315Z" transform="translate(210.841 397.069)" fill="#00223d"/>
        <path id="Trazado_26771" data-name="Trazado 26771" d="M-104.562-339.1a2.609,2.609,0,0,0-1.834.76,2.616,2.616,0,0,0-.76,1.836,2.609,2.609,0,0,0,.76,1.833,2.607,2.607,0,0,0,1.834.757,2.6,2.6,0,0,0,1.832-.757,2.6,2.6,0,0,0,.761-1.833,2.608,2.608,0,0,0-.761-1.836A2.6,2.6,0,0,0-104.562-339.1Z" transform="translate(210.841 398.032)" fill="#00223d"/>
        <path id="Trazado_26772" data-name="Trazado 26772" d="M-111.687-340.275a2.594,2.594,0,0,1-1.923-2.5,2.593,2.593,0,0,1,1.921-2.5,2.593,2.593,0,0,0,1.837-3.175,2.592,2.592,0,0,0-3.175-1.836,7.785,7.785,0,0,0-5.771,7.51,7.786,7.786,0,0,0,5.771,7.511,2.591,2.591,0,0,0,.671.088,2.6,2.6,0,0,0,2.5-1.924A2.593,2.593,0,0,0-111.687-340.275Z" transform="translate(209.993 397.21)" fill="#00223d"/>
        <path id="Trazado_26773" data-name="Trazado 26773" d="M-146.277-297.386a2.61,2.61,0,0,0-1.834.761,2.6,2.6,0,0,0-.761,1.832,2.61,2.61,0,0,0,.761,1.833,2.609,2.609,0,0,0,1.834.76,2.609,2.609,0,0,0,1.832-.76,2.61,2.61,0,0,0,.761-1.833,2.6,2.6,0,0,0-.761-1.832A2.61,2.61,0,0,0-146.277-297.386Z" transform="translate(207.802 401.071)" fill="#00223d"/>
        <path id="Trazado_26774" data-name="Trazado 26774" d="M-159.492-297.386a2.612,2.612,0,0,0-1.834.761,2.606,2.606,0,0,0-.757,1.832,2.612,2.612,0,0,0,.757,1.833,2.615,2.615,0,0,0,1.834.76,2.62,2.62,0,0,0,1.836-.76,2.607,2.607,0,0,0,.757-1.833,2.6,2.6,0,0,0-.757-1.832A2.617,2.617,0,0,0-159.492-297.386Z" transform="translate(206.839 401.071)" fill="#00223d"/>
        <path id="Trazado_26775" data-name="Trazado 26775" d="M-146.869-300.084a2.593,2.593,0,0,0,1.836-3.174,7.786,7.786,0,0,0-7.511-5.771,7.787,7.787,0,0,0-7.511,5.771,2.594,2.594,0,0,0,1.836,3.174,2.593,2.593,0,0,0,3.176-1.836,2.592,2.592,0,0,1,2.5-1.923,2.592,2.592,0,0,1,2.5,1.923,2.6,2.6,0,0,0,2.5,1.925A2.6,2.6,0,0,0-146.869-300.084Z" transform="translate(206.981 400.223)" fill="#00223d"/>
        <path id="Trazado_26776" data-name="Trazado 26776" d="M-201.207-339.1a2.609,2.609,0,0,0-1.833.757,2.614,2.614,0,0,0-.76,1.833,2.621,2.621,0,0,0,.76,1.836,2.616,2.616,0,0,0,1.833.76,2.61,2.61,0,0,0,1.834-.76,2.607,2.607,0,0,0,.76-1.836,2.606,2.606,0,0,0-.76-1.833A2.607,2.607,0,0,0-201.207-339.1Z" transform="translate(203.8 398.032)" fill="#00223d"/>
        <path id="Trazado_26777" data-name="Trazado 26777" d="M-201.207-352.315a2.611,2.611,0,0,0-1.833.76,2.616,2.616,0,0,0-.76,1.834,2.616,2.616,0,0,0,.76,1.833,2.616,2.616,0,0,0,1.833.76,2.614,2.614,0,0,0,1.834-.76,2.6,2.6,0,0,0,.76-1.833,2.6,2.6,0,0,0-.76-1.834A2.609,2.609,0,0,0-201.207-352.315Z" transform="translate(203.8 397.069)" fill="#00223d"/>
        <path id="Trazado_26778" data-name="Trazado 26778" d="M-193.151-335.176a2.591,2.591,0,0,0,.671-.089,7.786,7.786,0,0,0,5.771-7.51,7.786,7.786,0,0,0-5.771-7.511,2.594,2.594,0,0,0-3.175,1.837,2.593,2.593,0,0,0,1.837,3.175,2.593,2.593,0,0,1,1.921,2.5,2.593,2.593,0,0,1-1.923,2.5,2.593,2.593,0,0,0-1.836,3.175A2.6,2.6,0,0,0-193.151-335.176Z" transform="translate(204.387 397.21)" fill="#00223d"/>
      </g>
    </g>
  </g>
</svg>
