<svg xmlns="http://www.w3.org/2000/svg" width="163.968" height="130.202" viewBox="0 0 163.968 130.202">
  <g id="Grupo_1011019" data-name="Grupo 1011019" transform="translate(8903.392 4510.26)">
    <path id="Trazado_25966" data-name="Trazado 25966" d="M897.108,757.974a19.04,19.04,0,0,0-9.295-5.32L874.637,749.5l-.006.008.006-.008v-8.044h-16.09v8.069h0l-13.142,3.14A19.089,19.089,0,0,0,830.75,771.23v21.528h29.13Z" transform="translate(-9730.938 -5188.828)" fill="#78d2fa"/>
    <path id="Trazado_25967" data-name="Trazado 25967" d="M871.508,741.453v8.261l-8.35,20-8.341-19.973v-8.289Z" transform="translate(-9727.464 -5188.828)" fill="#ffb487"/>
    <path id="Trazado_25968" data-name="Trazado 25968" d="M882.276,717.236v11.142a17.934,17.934,0,0,1-17.935,17.934h0a17.934,17.934,0,0,1-17.935-17.934V717.236Z" transform="translate(-9728.678 -5192.325)" fill="#ffcdac"/>
    <path id="Trazado_25969" data-name="Trazado 25969" d="M882.276,723.123v-4.318a17.934,17.934,0,0,0-17.935-17.934h0a17.934,17.934,0,0,0-17.935,17.934v4.318H858.77a42.763,42.763,0,0,0,21.979-6.081h0" transform="translate(-9728.678 -5194.687)" fill="#878791"/>
    <path id="Trazado_25970" data-name="Trazado 25970" d="M910.447,757.974a19.036,19.036,0,0,1,9.3-5.32l13.175-3.157.006.008-.006-.008v-8.044h16.09v8.069h0l13.142,3.14A19.089,19.089,0,0,1,976.8,771.23v21.528h-29.13Z" transform="translate(-9719.432 -5188.828)" fill="#e9f857"/>
    <path id="Trazado_25971" data-name="Trazado 25971" d="M894.672,755.615l-18.352,4.4a26.592,26.592,0,0,0-20.4,25.86v17.652H955.8V785.887a26.591,26.591,0,0,0-20.413-25.864l-18.3-4.373Z" transform="translate(-9727.304 -5186.784)" fill="#ff5a5a"/>
    <path id="Trazado_25972" data-name="Trazado 25972" d="M946.473,741.453v8.289l-8.341,19.973-8.35-20v-8.261Z" transform="translate(-9716.641 -5188.829)" fill="#ffb487"/>
    <path id="Trazado_25973" data-name="Trazado 25973" d="M901.1,782.486l11.948-27.127a9.862,9.862,0,0,1-1.392-5.057v-2.608H890.534V750.3a9.86,9.86,0,0,1-1.388,5.05Z" transform="translate(-9722.508 -5187.927)" fill="#ffb487"/>
    <path id="Trazado_25974" data-name="Trazado 25974" d="M927.723,710.594V727.83a24.98,24.98,0,0,1-24.979,24.979h0a24.98,24.98,0,0,1-24.979-24.979V710.594Z" transform="translate(-9724.15 -5193.283)" fill="#ffcdac"/>
    <path id="Trazado_25975" data-name="Trazado 25975" d="M902.744,689.3h0a24.98,24.98,0,0,0-24.981,24.98v6.012h12.214a27.444,27.444,0,0,0,21.035-9.816h0l16.71,9.816v-6.012A24.978,24.978,0,0,0,902.744,689.3Z" transform="translate(-9724.151 -5196.357)" fill="#f9a825"/>
    <path id="Trazado_25976" data-name="Trazado 25976" d="M921.432,717.236v11.142a17.934,17.934,0,0,0,17.935,17.934h0A17.934,17.934,0,0,0,957.3,728.378V717.236Z" transform="translate(-9717.846 -5192.325)" fill="#ffcdac"/>
    <path id="Trazado_25977" data-name="Trazado 25977" d="M921.432,723.123v-4.318a17.934,17.934,0,0,1,17.935-17.934h0A17.934,17.934,0,0,1,957.3,718.806v4.318H944.939a42.763,42.763,0,0,1-21.979-6.081h0" transform="translate(-9717.846 -5194.687)" fill="#878791"/>
    <path id="Trazado_25978" data-name="Trazado 25978" d="M899.923,794.68a3.2,3.2,0,1,0,2.264.938A3.231,3.231,0,0,0,899.923,794.68Z" transform="translate(-9721.414 -5181.144)" fill="#00223d"/>
    <path id="Trazado_25979" data-name="Trazado 25979" d="M974.8,757.481l-10.683-2.552v-4.238A21.139,21.139,0,0,0,974,732.815V720.88a21.124,21.124,0,0,0-36.952-14A28.232,28.232,0,0,0,909.968,686.5h0a28.233,28.233,0,0,0-27.1,20.432,21.123,21.123,0,0,0-37,13.946v11.935a21.139,21.139,0,0,0,9.879,17.876v4.238l-10.683,2.552a22.221,22.221,0,0,0-17.115,21.683v21.528a3.2,3.2,0,0,0,3.2,3.2h25.608V813.5a3.2,3.2,0,0,0,3.2,3.2H895.1a3.2,3.2,0,0,0,0-6.405H880.8V796.2a3.2,3.2,0,1,0-6.4,0V810.3H863.167V795.849A23.315,23.315,0,0,1,881.1,773.105l15.751-3.774,10.135,23.056a3.2,3.2,0,0,0,2.931,1.914h0a3.2,3.2,0,0,0,2.932-1.913l10.124-23.024,15.705,3.752a23.311,23.311,0,0,1,17.954,22.748v3.574a3.217,3.217,0,0,0,0,2.505V810.3H945.475V796.2a3.2,3.2,0,1,0-6.405,0V810.3H923.385a3.2,3.2,0,0,0,0,6.405H959.84a3.2,3.2,0,0,0,3.2-3.2v-9.608h25.673a3.2,3.2,0,0,0,3.2-3.2V779.163A22.221,22.221,0,0,0,974.8,757.481Zm-17.081.148-4.89,11.708-4.824-11.554a2.985,2.985,0,0,0,.023-.35c0-.03,0-.06,0-.089v-3.956a20.978,20.978,0,0,0,9.685,0v4.073C957.716,757.514,957.72,757.571,957.723,757.628ZM895.508,760.2a22.26,22.26,0,0,0-6.545-2.728L878.243,754.9v-4.2a21.292,21.292,0,0,0,6.619-6.6,28.4,28.4,0,0,0,10.646,11.384Zm-7.318-28.893V723.9H897.2a30.563,30.563,0,0,0,21.645-8.948l12.881,7.567v9.541a21.775,21.775,0,0,1-43.536-.752Zm36.135,24.241a28.381,28.381,0,0,0,10.719-11.388,21.3,21.3,0,0,0,6.583,6.544v4.2l-10.721,2.568a22.245,22.245,0,0,0-6.581,2.752v-4.676Zm28.538-8a14.748,14.748,0,0,1-14.732-14.731v-.522c.01-.327.018-8.611.018-8.611a45.973,45.973,0,0,0,20.285,4.719H967.6v4.415A14.75,14.75,0,0,1,952.863,747.546Zm0-41.4a14.749,14.749,0,0,1,14.732,14.732v1.115h-9.16a39.572,39.572,0,0,1-19.711-5.26A14.761,14.761,0,0,1,952.863,706.149Zm-64.673,8.536a21.778,21.778,0,0,1,43.555,0v.418l-11.886-6.983a3.2,3.2,0,0,0-4.076.7A24.187,24.187,0,0,1,897.2,717.5H888.19Zm-35.915,6.2a14.733,14.733,0,0,1,28.87-4.145A39.57,39.57,0,0,1,861.434,722h-9.16V720.88Zm0,7.52h9.16a45.973,45.973,0,0,0,20.3-4.727v9.143a14.732,14.732,0,0,1-29.464,0Zm14.732,25.552a21.1,21.1,0,0,0,4.833-.564v3.866c0,.061-.006.12-.006.181a2.906,2.906,0,0,0,.019.3l-4.845,11.6-4.864-11.65c.006-.077.009-.153.009-.231v-4.073A21.073,21.073,0,0,0,867.006,753.952Zm-10.245,41.9v1.639h-9.6V783.26a3.2,3.2,0,0,0-6.405,0v14.228h-6.405V779.163a15.838,15.838,0,0,1,12.2-15.454l10.151-2.425,6.626,15.87A29.729,29.729,0,0,0,856.762,795.849Zm22.851-28.973a30.06,30.06,0,0,0-5.414,1.862l3.12-7.469,10.153,2.433a15.871,15.871,0,0,1,2.3.741Zm30.31,16.265-8.01-18.221v-6.605a28.207,28.207,0,0,0,16.006.03v6.611Zm20.12-18.674a15.855,15.855,0,0,1,2.356-.766l10.128-2.427,3.132,7.5a30.151,30.151,0,0,0-5.488-1.891Zm55.47,33.021h-6.405V783.26a3.2,3.2,0,0,0-6.405,0v14.228h-9.661v-1.623a29.732,29.732,0,0,0-6.548-18.673l6.645-15.914,10.176,2.431a15.838,15.838,0,0,1,12.2,15.454Z" transform="translate(-9731.343 -5196.762)" fill="#00223d"/>
  </g>
</svg>
