<svg xmlns="http://www.w3.org/2000/svg" width="136" height="136" viewBox="0 0 136 136">
  <g id="Grupo_1008741" data-name="Grupo 1008741" transform="translate(-1073.534 -2189.893)">
    <g id="Grupo_1008533" data-name="Grupo 1008533" transform="translate(1073.534 2189.893)">
      <circle id="Elipse_5640" data-name="Elipse 5640" cx="68" cy="68" r="68" fill="none"/>
    </g>
    <g id="Grupo_16575" data-name="Grupo 16575" transform="translate(1077.309 2193.668)">
      <path id="Trazado_25804" data-name="Trazado 25804" d="M535.579,774.77h67.662a4.975,4.975,0,0,0,4.975-4.975V675.021L585.58,652.388H511.7a4.975,4.975,0,0,0-4.975,4.975V769.795a4.975,4.975,0,0,0,4.975,4.975Z" transform="translate(-483.347 -649.901)" fill="#f4f4f4"/>
      <path id="Trazado_25805" data-name="Trazado 25805" d="M571.788,652.628V670a4.975,4.975,0,0,0,4.975,4.975h17.37Z" transform="translate(-469.556 -649.85)" fill="#fec96b"/>
      <path id="Trazado_25806" data-name="Trazado 25806" d="M527.21,667.949a30.369,30.369,0,1,1-30.369,30.369H527.21V667.949Z" transform="translate(-485.443 -646.602)" fill="#a0e557"/>
      <path id="Trazado_25807" data-name="Trazado 25807" d="M521.9,698.318V667.949a30.273,30.273,0,0,1,21.474,8.895Z" transform="translate(-480.132 -646.602)" fill="#39ddd2"/>
      <path id="Trazado_25808" data-name="Trazado 25808" d="M519.859,660.6v30.369h-30.37A30.369,30.369,0,0,1,519.859,660.6Z" transform="translate(-487.002 -648.161)" fill="#fec96b"/>
      <circle id="Elipse_924" data-name="Elipse 924" cx="4.975" cy="4.975" r="4.975" transform="translate(103.992 80.99)" fill="#39ddd2"/>
      <circle id="Elipse_925" data-name="Elipse 925" cx="4.975" cy="4.975" r="4.975" transform="translate(79.533 104.944)" fill="#fec96b"/>
      <circle id="Elipse_926" data-name="Elipse 926" cx="4.975" cy="4.975" r="4.975" transform="translate(59.88 85.965)" fill="#a0e557"/>
      <circle id="Elipse_927" data-name="Elipse 927" cx="4.975" cy="4.975" r="4.975" transform="translate(40.769 104.954)" fill="#ff5d5d"/>
      <path id="Trazado_25809" data-name="Trazado 25809" d="M614.064,673.7l-22.636-22.633a2.483,2.483,0,0,0-1.759-.728H515.794a7.471,7.471,0,0,0-7.462,7.462v4.743a32.909,32.909,0,0,0-20.895,30.6,2.487,2.487,0,0,0,2.487,2.487h30.37a2.487,2.487,0,0,0,2.487-2.487V662.773a2.488,2.488,0,0,0-2.487-2.488,32.88,32.88,0,0,0-6.988.75V657.8a2.49,2.49,0,0,1,2.488-2.487h71.389v15.173a7.47,7.47,0,0,0,7.462,7.462h15.173v92.283a2.489,2.489,0,0,1-2.487,2.487H515.794a2.49,2.49,0,0,1-2.488-2.487V748.92a2.487,2.487,0,0,0-4.974,0v21.309a7.471,7.471,0,0,0,7.462,7.462h91.537a7.471,7.471,0,0,0,7.462-7.462V675.456A2.486,2.486,0,0,0,614.064,673.7Zm-96.259,16.958H492.523a27.927,27.927,0,0,1,25.283-25.285v25.285Zm74.352-20.171V658.828L606.3,672.971H594.645A2.489,2.489,0,0,1,592.158,670.484Z" transform="translate(-487.437 -650.336)" fill="#193651"/>
      <path id="Trazado_25810" data-name="Trazado 25810" d="M505.405,722.9a2.487,2.487,0,1,0,1.759-.728A2.507,2.507,0,0,0,505.405,722.9Z" transform="translate(-483.782 -635.108)"/>
      <path id="Trazado_25811" data-name="Trazado 25811" d="M560.5,698.753A32.893,32.893,0,0,0,527.645,665.9a2.489,2.489,0,0,0-2.488,2.487v27.882H497.276a2.488,2.488,0,0,0-2.488,2.487,32.856,32.856,0,1,0,65.713,0Zm-14.987-21.385-15.381,15.38V670.981A27.752,27.752,0,0,1,545.513,677.367Zm-45.64,23.872h27.772a2.478,2.478,0,0,0,1.757-.727h0l19.628-19.627a27.877,27.877,0,1,1-49.158,20.355Z" transform="translate(-485.879 -647.037)" fill="#193651"/>
      <path id="Trazado_25812" data-name="Trazado 25812" d="M553.058,727.545a7.462,7.462,0,1,0-14.236,3.125l-9.127,9.127a7.461,7.461,0,1,0,3.522,3.514l9.077-9.077a7.438,7.438,0,0,0,6.987-.2l9.249,9.249a7.462,7.462,0,1,0,13.472.071l14.2-14.2a7.457,7.457,0,1,0-3.361-3.674l-14.331,14.331a7.447,7.447,0,0,0-6.444-.034l-9.517-9.516A7.422,7.422,0,0,0,553.058,727.545ZM526.486,749.02a2.488,2.488,0,1,1,1.72-4.28c.011.011.019.022.029.033s.025.022.038.033a2.485,2.485,0,0,1-1.786,4.214ZM545.6,730.033a2.488,2.488,0,1,1,2.488-2.488A2.491,2.491,0,0,1,545.6,730.033Zm44.111-9.95a2.488,2.488,0,1,1-2.487,2.488A2.491,2.491,0,0,1,589.707,720.083Zm-21.972,26.44a2.488,2.488,0,1,1-2.487-2.487A2.49,2.49,0,0,1,567.735,746.523Z" transform="translate(-480.741 -636.605)" fill="#193651"/>
      <path id="Trazado_25813" data-name="Trazado 25813" d="M556.689,703.541h13.13a2.488,2.488,0,0,0,0-4.975h-13.13a2.488,2.488,0,0,0,0,4.975Z" transform="translate(-473.284 -640.112)" fill="#193651"/>
      <path id="Trazado_25814" data-name="Trazado 25814" d="M575.107,699.294a2.487,2.487,0,1,0,1.759-.728A2.507,2.507,0,0,0,575.107,699.294Z" transform="translate(-469.006 -640.112)" fill="#193651"/>
      <path id="Trazado_25815" data-name="Trazado 25815" d="M556.689,683.838h30.386a2.488,2.488,0,0,0,0-4.975H556.689a2.488,2.488,0,0,0,0,4.975Z" transform="translate(-473.284 -644.289)" fill="#193651"/>
      <path id="Trazado_25816" data-name="Trazado 25816" d="M556.689,693.689h30.386a2.487,2.487,0,0,0,0-4.974H556.689a2.487,2.487,0,0,0,0,4.974Z" transform="translate(-473.284 -642.2)" fill="#193651"/>
    </g>
  </g>
</svg>
