<svg id="Grupo_1008747" data-name="Grupo 1008747" xmlns="http://www.w3.org/2000/svg" width="113.036" height="135.699" viewBox="0 0 113.036 135.699">
  <path id="Trazado_26005" data-name="Trazado 26005" d="M597.207-187.457H576.853l-11.307,11.308-11.308-11.308H533.883a13.57,13.57,0,0,0-13.57,13.569v24.878h90.464v-24.878A13.569,13.569,0,0,0,597.207-187.457Z" transform="translate(-509.034 282.447)" fill="#5cd6b3"/>
  <path id="Trazado_26006" data-name="Trazado 26006" d="M617.144-170.454a13.568,13.568,0,0,0-1.068-19.16,13.568,13.568,0,0,0-9.046-3.455h-2.261a6.785,6.785,0,0,0,6.784-6.785,6.784,6.784,0,0,0-6.784-6.784h-2.262v-28.379c0-19.484-14.974-36.251-34.437-37.167a36.188,36.188,0,0,0-37.893,34.4q-.041.874-.042,1.75v29.4h-2.262a6.784,6.784,0,0,0-6.784,6.784,6.785,6.785,0,0,0,6.784,6.785h-2.261A13.569,13.569,0,0,0,512.043-179.5c0,7.127,2.062,12.959,9.046,13.516v4.577a9.046,9.046,0,0,0,9.046,9.046h11.308a13.57,13.57,0,0,0,13.569-13.569A13.57,13.57,0,0,0,541.444-179.5h61.063l6.785,6.785v2.261h6.784" transform="translate(-509.81 274.49)" fill="#c59191"/>
  <path id="Trazado_26007" data-name="Trazado 26007" d="M586.692-232.875a9.048,9.048,0,0,1-8.775-6.853l-5.072-18.025L568.2-241.44a11.309,11.309,0,0,1-10.962,8.565H538.921v13.569a24.855,24.855,0,0,0,13.569,22.141h0v16.306L563.8-169.55l11.307-11.308v-16.306h0a24.856,24.856,0,0,0,13.569-22.141v-13.569Z" transform="translate(-507.287 275.848)" fill="#f2dbc0"/>
  <path id="Trazado_26008" data-name="Trazado 26008" d="M518.245-142.217a2.262,2.262,0,0,0,2.262,2.262h90.464a2.262,2.262,0,0,0,2.262-2.262V-167.1A15.85,15.85,0,0,0,597.4-182.927H579.309v-12.718a27.139,27.139,0,0,0,13.569-23.467V-230.42h2.261v-4.523h-6.506a6.8,6.8,0,0,1-6.6-5.2l-5.07-18.025a2.262,2.262,0,0,0-2.178-1.652h0a2.262,2.262,0,0,0-2.175,1.642L567.951-241.8a9.046,9.046,0,0,1-8.771,6.852H536.339v4.523H538.6v11.308a27.139,27.139,0,0,0,13.569,23.467v14.98a2.262,2.262,0,0,0,.663,1.6l11.308,11.307a2.259,2.259,0,0,0,3.2,0L577.983-178.4H597.4A11.322,11.322,0,0,1,608.71-167.1v22.617H522.768v-2.262h-4.523v4.523Zm24.878-76.894V-230.42h16.058a13.527,13.527,0,0,0,13.146-10.207l2.455-8.627,2.89,10.269a11.281,11.281,0,0,0,10.684,8.543v11.33A22.616,22.616,0,0,1,565.739-196.5,22.616,22.616,0,0,1,543.123-219.112Zm22.617,46.557-9.047-9.046v-11.955a26.637,26.637,0,0,0,18.094,0V-181.6Z" transform="translate(-509.228 275.654)" fill="#00223d"/>
  <path id="Trazado_26009" data-name="Trazado 26009" d="M540.862-162.385H529.553a6.785,6.785,0,0,1-6.785-6.785h-4.523a11.323,11.323,0,0,0,11.308,11.308h11.308a15.831,15.831,0,0,0,15.831-15.831,15.831,15.831,0,0,0-15.831-15.832h-6.785V-185h6.785a11.307,11.307,0,0,1,11.307,11.307A11.308,11.308,0,0,1,540.862-162.385Z" transform="translate(-509.228 282.253)" fill="#00223d"/>
  <path id="Trazado_26010" data-name="Trazado 26010" d="M612.219-194.316a8.963,8.963,0,0,0,1.787-5.345,9.047,9.047,0,0,0-9.046-9.046v-26.117a38.919,38.919,0,0,0-36.593-39.426A38.448,38.448,0,0,0,528.11-237.7q-.044.927-.045,1.856v27.139a9.047,9.047,0,0,0-9.046,9.046,8.96,8.96,0,0,0,1.787,5.345,15.831,15.831,0,0,0-9.979,20.042,15.833,15.833,0,0,0,14.977,10.8h13.569V-168H525.8A11.309,11.309,0,0,1,514.5-179.306,11.309,11.309,0,0,1,525.8-190.614h13.569v-4.523H528.065a4.524,4.524,0,0,1-4.523-4.523,4.523,4.523,0,0,1,4.523-4.523h2.262a2.261,2.261,0,0,0,2.261-2.261v-29.4a33.926,33.926,0,0,1,33.923-33.926q.824,0,1.646.04a34.407,34.407,0,0,1,32.28,34.907v28.379a2.261,2.261,0,0,0,2.261,2.261h2.262a4.523,4.523,0,0,1,4.523,4.523,4.523,4.523,0,0,1-4.523,4.523H593.652v4.523h13.569a11.309,11.309,0,0,1,11.308,11.308,11.311,11.311,0,0,1-2.879,7.538l3.369,3.017a15.83,15.83,0,0,0-1.274-22.352,15.824,15.824,0,0,0-5.527-3.2Z" transform="translate(-510.002 274.296)" fill="#00223d"/>
  <path id="Trazado_26011" data-name="Trazado 26011" d="M570.873-214.335h-3.393a5.088,5.088,0,0,1-5.088,5.089,5.088,5.088,0,0,1-5.089-5.089H553.91a8.481,8.481,0,0,0,8.482,8.481A8.48,8.48,0,0,0,570.873-214.335Z" transform="translate(-505.88 279.924)" fill="#00223d"/>
</svg>
