<svg xmlns="http://www.w3.org/2000/svg" width="70" height="70" viewBox="0 0 70 70">
  <g id="Grupo_1100954" data-name="Grupo 1100954" transform="translate(-1020.051 -9434)">
    <g id="Trazado_875637" data-name="Trazado 875637" transform="translate(1020.051 9434)" fill="#fff">
      <path d="M 35 69 C 30.40958976745605 69 25.9570198059082 68.10118103027344 21.7659797668457 66.32852172851562 C 17.71739959716797 64.61611938476562 14.08119964599609 62.16445159912109 10.95837020874023 59.04162979125977 C 7.835549831390381 55.91880035400391 5.383880138397217 52.28260040283203 3.671479940414429 48.2340202331543 C 1.898820042610168 44.0429801940918 1 39.59040832519531 1 35 C 1 30.40958976745605 1.898820042610168 25.9570198059082 3.671479940414429 21.7659797668457 C 5.383880138397217 17.71739959716797 7.835549831390381 14.08119964599609 10.95837020874023 10.95837020874023 C 14.08119964599609 7.835549831390381 17.71739959716797 5.383880138397217 21.7659797668457 3.671479940414429 C 25.9570198059082 1.898820042610168 30.40958976745605 1 35 1 C 39.59040832519531 1 44.0429801940918 1.898820042610168 48.2340202331543 3.671479940414429 C 52.28260040283203 5.383880138397217 55.91880035400391 7.835549831390381 59.04162979125977 10.95837020874023 C 62.16445159912109 14.08119964599609 64.61611938476562 17.71739959716797 66.32852172851562 21.7659797668457 C 68.10118103027344 25.9570198059082 69 30.40958976745605 69 35 C 69 39.59040832519531 68.10118103027344 44.0429801940918 66.32852172851562 48.2340202331543 C 64.61611938476562 52.28260040283203 62.16445159912109 55.91880035400391 59.04162979125977 59.04162979125977 C 55.91880035400391 62.16445159912109 52.28260040283203 64.61611938476562 48.2340202331543 66.32852172851562 C 44.0429801940918 68.10118103027344 39.59040832519531 69 35 69 Z" stroke="none"/>
      <path d="M 35 2 C 30.54414367675781 2 26.2226448059082 2.872230529785156 22.15552139282227 4.592475891113281 C 18.22614288330078 6.254467010498047 14.6967887878418 8.634166717529297 11.66547775268555 11.66547775268555 C 8.634166717529297 14.6967887878418 6.254467010498047 18.22614288330078 4.592475891113281 22.15552139282227 C 2.872230529785156 26.2226448059082 2 30.54414367675781 2 35 C 2 39.45585632324219 2.872230529785156 43.7773551940918 4.592475891113281 47.84447860717773 C 6.254467010498047 51.77385711669922 8.634166717529297 55.3032112121582 11.66547775268555 58.33452224731445 C 14.6967887878418 61.3658332824707 18.22614288330078 63.74553298950195 22.15552139282227 65.40752410888672 C 26.2226448059082 67.12776947021484 30.54414367675781 68 35 68 C 39.45585632324219 68 43.7773551940918 67.12776947021484 47.84447860717773 65.40752410888672 C 51.77385711669922 63.74553298950195 55.3032112121582 61.3658332824707 58.33452224731445 58.33452224731445 C 61.3658332824707 55.3032112121582 63.74553298950195 51.77385711669922 65.40752410888672 47.84447860717773 C 67.12776947021484 43.7773551940918 68 39.45585632324219 68 35 C 68 30.54414367675781 67.12776947021484 26.2226448059082 65.40752410888672 22.15552139282227 C 63.74553298950195 18.22614288330078 61.3658332824707 14.6967887878418 58.33452224731445 11.66547775268555 C 55.3032112121582 8.634166717529297 51.77385711669922 6.254467010498047 47.84447860717773 4.592475891113281 C 43.7773551940918 2.872230529785156 39.45585632324219 2 35 2 M 35 0 C 54.3299674987793 0 70 15.6700325012207 70 35 C 70 54.3299674987793 54.3299674987793 70 35 70 C 15.6700325012207 70 0 54.3299674987793 0 35 C 0 15.6700325012207 15.6700325012207 0 35 0 Z" stroke="none" fill="#02dd84"/>
    </g>
    <path id="Trazado_875642" data-name="Trazado 875642" d="M26.375,34V11.25H33.7a10.78,10.78,0,0,1,5.422,1.367,9.61,9.61,0,0,1,3.758,3.859,11.652,11.652,0,0,1,1.367,5.586v1.047a11.72,11.72,0,0,1-1.32,5.6,9.652,9.652,0,0,1-3.719,3.875A10.543,10.543,0,0,1,33.859,34Zm5.484-18.516v14.3h1.906a4.266,4.266,0,0,0,3.625-1.68,8.231,8.231,0,0,0,1.266-4.992v-.984a8.164,8.164,0,0,0-1.266-4.969A4.341,4.341,0,0,0,33.7,15.484Z" transform="translate(1020.051 9447.5)" fill="#019a5b"/>
  </g>
</svg>
