<svg xmlns="http://www.w3.org/2000/svg" xmlns:xlink="http://www.w3.org/1999/xlink" width="108" height="108" viewBox="0 0 108 108">
  <defs>
    <filter id="Elipse_5698" x="0" y="0" width="108" height="108" filterUnits="userSpaceOnUse">
      <feOffset dy="3" input="SourceAlpha"/>
      <feGaussianBlur stdDeviation="3" result="blur"/>
      <feFlood flood-opacity="0.161"/>
      <feComposite operator="in" in2="blur"/>
      <feComposite in="SourceGraphic"/>
    </filter>
  </defs>
  <g id="Grupo_1008773" data-name="Grupo 1008773" transform="translate(-1011 -1923.893)">
    <g transform="matrix(1, 0, 0, 1, 1011, 1923.89)" filter="url(#Elipse_5698)">
      <g id="Elipse_5698-2" data-name="Elipse 5698" transform="translate(9 6)" fill="#fff" stroke="#ffede7" stroke-width="2">
        <circle cx="45" cy="45" r="45" stroke="none"/>
        <circle cx="45" cy="45" r="44" fill="none"/>
      </g>
    </g>
    <g id="Grupo_1008756" data-name="Grupo 1008756" transform="translate(1043 1953.893)">
      <g id="Grupo_16749" data-name="Grupo 16749" transform="translate(0.848 14.125)">
        <path id="Trazado_26169" data-name="Trazado 26169" d="M1253.869,523.209l-2.77-2.948a5.1,5.1,0,0,1-1.384-3.5V506.328a1.993,1.993,0,0,0-1.561-1.945h0a1.993,1.993,0,0,0-2.424,1.945v13.157a7.415,7.415,0,0,0,1.369,4.292l1.514,2.132,3.62,5.1,1.277,1.8h9.651l-1.39-6.626a11.714,11.714,0,0,0-4.928-7.316l-2.968-2a2.127,2.127,0,0,0-2.779.354h0a2.29,2.29,0,0,0,.048,3.09c1.626,1.722,4.044,4.3,4.044,4.3" transform="translate(-1245.73 -504.335)" fill="#ffcdac"/>
        <path id="Trazado_26170" data-name="Trazado 26170" d="M1316.835,523.209l2.77-2.948a5.1,5.1,0,0,0,1.385-3.5V506.328a1.992,1.992,0,0,1,1.56-1.945h0a1.993,1.993,0,0,1,2.424,1.945v13.157a7.414,7.414,0,0,1-1.369,4.292l-1.513,2.132-3.62,5.1-1.277,1.8h-9.652l1.39-6.626a11.714,11.714,0,0,1,4.928-7.316l2.968-2a2.127,2.127,0,0,1,2.779.354h0a2.29,2.29,0,0,1-.048,3.09c-1.625,1.722-4.044,4.3-4.044,4.3" transform="translate(-1283.224 -504.335)" fill="#ffcdac"/>
      </g>
      <g id="Grupo_16750" data-name="Grupo 16750" transform="translate(8.773 15.241)">
        <path id="Trazado_26171" data-name="Trazado 26171" d="M1304,509.9a3.129,3.129,0,0,1,1.528-.875l2.167-.519v-1.323h2.646v1.327h0l2.161.516a3.14,3.14,0,0,1,2.41,3.054v1.585h-4.79Z" transform="translate(-1288.998 -507.18)" fill="#7d9bff"/>
        <path id="Trazado_26172" data-name="Trazado 26172" d="M1276.786,509.89a3.133,3.133,0,0,0-1.529-.875l-2.167-.519v-1.323h-2.646V508.5h0l-2.161.516a3.14,3.14,0,0,0-2.41,3.054v1.585h4.79Z" transform="translate(-1265.874 -507.173)" fill="#7d9bff"/>
      </g>
      <path id="Trazado_26173" data-name="Trazado 26173" d="M1284.288,513.958l-3.018.724a4.373,4.373,0,0,0-3.354,4.253v3.051h16.424v-3.049a4.373,4.373,0,0,0-3.357-4.253l-3.01-.719" transform="translate(-1264.405 -496.047)" fill="#cddc39"/>
      <path id="Trazado_26174" data-name="Trazado 26174" d="M1297.8,509.275v1.848l-1.842,4.189-1.844-4.195v-1.842" transform="translate(-1274.229 -493.207)" fill="#ffb487"/>
      <path id="Trazado_26175" data-name="Trazado 26175" d="M1296.591,493.14v2.552a4.108,4.108,0,0,1-4.108,4.108h0a4.108,4.108,0,0,1-4.108-4.108V493.14" transform="translate(-1270.749 -483.42)" fill="#ffcdac"/>
      <path id="Trazado_26176" data-name="Trazado 26176" d="M1292.483,482.237h0a4.108,4.108,0,0,0-4.108,4.108v.989h2.009a4.512,4.512,0,0,0,3.459-1.615h0l2.748,1.615v-.989A4.108,4.108,0,0,0,1292.483,482.237Z" transform="translate(-1270.749 -476.806)" fill="#bebebe"/>
      <path id="Trazado_26177" data-name="Trazado 26177" d="M1279.262,491.42v-.71a2.949,2.949,0,0,0-2.949-2.949h0a2.949,2.949,0,0,0-2.949,2.949v.71h2.033a7.03,7.03,0,0,0,3.614-1h0" transform="translate(-1261.643 -480.157)" fill="#f5b955"/>
      <path id="Trazado_26178" data-name="Trazado 26178" d="M1279.262,495.589v1.832a2.949,2.949,0,0,1-2.949,2.949h0a2.95,2.95,0,0,1-2.949-2.949v-1.832" transform="translate(-1261.643 -484.905)" fill="#ffcdac"/>
      <path id="Trazado_26179" data-name="Trazado 26179" d="M1309.251,491.431v-.71a2.949,2.949,0,0,1,2.949-2.949h0a2.949,2.949,0,0,1,2.949,2.949v.71h-2.033a7.029,7.029,0,0,1-3.614-1h0" transform="translate(-1283.412 -480.164)" fill="#f5b955"/>
      <path id="Trazado_26180" data-name="Trazado 26180" d="M1309.251,495.6v1.832a2.949,2.949,0,0,0,2.949,2.95h0a2.95,2.95,0,0,0,2.949-2.95V495.6" transform="translate(-1283.412 -484.912)" fill="#ffcdac"/>
      <path id="Trazado_26181" data-name="Trazado 26181" d="M1261.641,570.335a.849.849,0,1,0-1.384.982l1.277,1.8a.848.848,0,0,0,1.384-.982Z" transform="translate(-1253.599 -530.027)" fill="#00223d"/>
      <path id="Trazado_26182" data-name="Trazado 26182" d="M1261.294,524.7a12.5,12.5,0,0,0-5.285-7.846l-2.968-2a2.986,2.986,0,0,0-3.785.386V505.019a2.841,2.841,0,1,0-5.681,0v13.157a8.217,8.217,0,0,0,1.525,4.784l1.513,2.132a.849.849,0,0,0,1.384-.982l-1.514-2.132a6.534,6.534,0,0,1-1.212-3.8V505.019a1.144,1.144,0,0,1,2.287,0v10.439a5.929,5.929,0,0,0,1.529,3.981c.042.051.085.1.131.149.564.6,1.226,1.3,1.85,1.964l.873.93.009.009,1.31,1.394a.849.849,0,0,0,1.237-1.162c-.016-.017-1.009-1.074-2.143-2.28l-1.946-2.071-.014-.016a1.432,1.432,0,0,1,.028-1.877,1.282,1.282,0,0,1,1.671-.213l2.968,2a10.808,10.808,0,0,1,4.571,6.786l1.39,6.626a.849.849,0,0,0,.83.675.829.829,0,0,0,.175-.018.849.849,0,0,0,.656-1Z" transform="translate(-1243.574 -488.902)" fill="#00223d"/>
      <path id="Trazado_26183" data-name="Trazado 26183" d="M1257.167,564.031a.849.849,0,0,0-1.382.986l.006.008a.849.849,0,1,0,1.382-.986Z" transform="translate(-1250.885 -526.205)" fill="#00223d"/>
      <path id="Trazado_26184" data-name="Trazado 26184" d="M1323.451,502.8a2.841,2.841,0,0,0-4.618,2.216v10.225a2.986,2.986,0,0,0-3.785-.386l-2.968,2a12.5,12.5,0,0,0-5.285,7.846l-1.39,6.627a.848.848,0,0,0,.656,1,.829.829,0,0,0,.175.018.849.849,0,0,0,.83-.675l1.39-6.626a10.81,10.81,0,0,1,4.571-6.785l2.968-2a1.282,1.282,0,0,1,1.671.213,1.432,1.432,0,0,1,.029,1.875l-.016.018-4.089,4.351a.849.849,0,1,0,1.237,1.162c.011-.012,3.479-3.7,4.042-4.3q.068-.073.131-.149a5.928,5.928,0,0,0,1.529-3.981V505.02a1.144,1.144,0,0,1,2.287,0v13.157a6.534,6.534,0,0,1-1.212,3.8l-6.411,9.031a.849.849,0,1,0,1.384.982l6.411-9.031a8.218,8.218,0,0,0,1.525-4.784V505.02A2.827,2.827,0,0,0,1323.451,502.8Z" transform="translate(-1281.067 -488.902)" fill="#00223d"/>
      <path id="Trazado_26185" data-name="Trazado 26185" d="M1285.728,502.284a.849.849,0,0,0,.849-.849v-3.049c0-.105,0-.209-.01-.313h3.91a.849.849,0,0,0,.849-.849V495.64a3.975,3.975,0,0,0-3.062-3.879l-1.51-.361v-.271a3.8,3.8,0,0,0,1.625-3.112v-1.963a3.795,3.795,0,0,0-6.262-2.887,4.955,4.955,0,0,0-9.183.007,3.795,3.795,0,0,0-6.27,2.879v1.963a3.8,3.8,0,0,0,1.625,3.112v.271l-1.51.36a3.976,3.976,0,0,0-3.061,3.879v1.585a.849.849,0,0,0,.849.849h3.9c-.006.1-.01.206-.01.311v3.051a.849.849,0,0,0,.849.849h5.1a.849.849,0,0,0,0-1.7h-.877v-1.753a.848.848,0,1,0-1.7,0v1.754h-1.678v-2.2a3.514,3.514,0,0,1,2.7-3.428l2.329-.558,1.559,3.546a.848.848,0,0,0,.776.507h0a.849.849,0,0,0,.777-.507l1.557-3.54,2.322.554a3.513,3.513,0,0,1,2.705,3.428v2.2H1283.2v-1.754a.849.849,0,0,0-1.7,0v1.754h-.962a.849.849,0,0,0,0,1.7Zm-10.9-10.3a3.938,3.938,0,0,0-.68-.229l-1.516-.364v-.264a3.826,3.826,0,0,0,.735-.672,5,5,0,0,0,1.46,1.464Zm-6.466-3.971v-.4h1.185a7.881,7.881,0,0,0,3.017-.6v1.005a2.1,2.1,0,0,1-4.2,0Zm5.906-.248v-.9h1.16a5.347,5.347,0,0,0,3.606-1.393l1.75,1.028v1.385a3.259,3.259,0,0,1-6.516-.124Zm5.942,4.222v-.057a5,5,0,0,0,1.472-1.467,3.8,3.8,0,0,0,.729.665v.264l-1.516.364A3.982,3.982,0,0,0,1280.209,491.992Zm2.271-3.974v-.124c0-.041,0-.082,0-.124v-.756a7.88,7.88,0,0,0,3.014.6h1.185v.4a2.1,2.1,0,1,1-4.2,0Zm2.1-4.063a2.1,2.1,0,0,1,2.1,1.962h-1.18a6.189,6.189,0,0,1-2.845-.693A2.1,2.1,0,0,1,1284.58,483.955Zm-10.313,1.082a3.259,3.259,0,0,1,6.477-.518l-1.428-.839a.848.848,0,0,0-1.08.186,3.655,3.655,0,0,1-2.809,1.311h-1.16v-.14Zm-3.806-1.082a2.1,2.1,0,0,1,1.929,1.268,6.183,6.183,0,0,1-2.845.694h-1.18A2.1,2.1,0,0,1,1270.462,483.955Zm2,9.352a5.205,5.205,0,0,0-3.606,3.07h-3.44v-.736a2.284,2.284,0,0,1,1.759-2.228l2.161-.516a.849.849,0,0,0,.651-.825v-.285a3.7,3.7,0,0,0,.949,0v.242c0,.013,0,.026,0,.038a.85.85,0,0,0,.689.835l1.266.3Zm5.059,2.188-.995-2.265v-.605a4.976,4.976,0,0,0,1.988,0v.608Zm5.049-2.187-.426-.1,1.273-.3a.851.851,0,0,0,.693-.836v-.28a3.706,3.706,0,0,0,.949,0v.285a.849.849,0,0,0,.651.825l2.161.516a2.284,2.284,0,0,1,1.759,2.228v.736h-3.451A5.2,5.2,0,0,0,1282.568,493.308Z" transform="translate(-1255.792 -475.498)" fill="#00223d"/>
      <path id="Trazado_26186" data-name="Trazado 26186" d="M1297.482,532.205a.848.848,0,1,0,.6.248A.853.853,0,0,0,1297.482,532.205Z" transform="translate(-1275.758 -507.116)"/>
      <path id="Trazado_26187" data-name="Trazado 26187" d="M1297.48,471.4a.849.849,0,0,0,.849-.849v-1.27a.848.848,0,1,0-1.7,0v1.27A.848.848,0,0,0,1297.48,471.4Z" transform="translate(-1275.758 -468.433)" fill="#00223d"/>
      <path id="Trazado_26188" data-name="Trazado 26188" d="M1286.038,474.915a.849.849,0,1,0,1.2-1.2l-.89-.889a.849.849,0,1,0-1.2,1.2Z" transform="translate(-1268.641 -470.947)" fill="#00223d"/>
      <path id="Trazado_26189" data-name="Trazado 26189" d="M1306.917,475.213a.846.846,0,0,0,.6-.249l.883-.884a.849.849,0,1,0-1.2-1.2l-.883.884a.849.849,0,0,0,.6,1.448Z" transform="translate(-1281.481 -470.98)" fill="#00223d"/>
    </g>
  </g>
</svg>
