<svg xmlns="http://www.w3.org/2000/svg" xmlns:xlink="http://www.w3.org/1999/xlink" width="610.789" height="172.205" viewBox="0 0 610.789 172.205">
  <defs>
    <filter id="Trazado_875513" x="52" y="0.02" width="111.334" height="111.334" filterUnits="userSpaceOnUse">
      <feOffset dy="3" input="SourceAlpha"/>
      <feGaussianBlur stdDeviation="3" result="blur"/>
      <feFlood flood-opacity="0.161"/>
      <feComposite operator="in" in2="blur"/>
      <feComposite in="SourceGraphic"/>
    </filter>
    <filter id="Elipse_5694" x="250" y="0" width="111.334" height="111.334" filterUnits="userSpaceOnUse">
      <feOffset dy="3" input="SourceAlpha"/>
      <feGaussianBlur stdDeviation="3" result="blur-2"/>
      <feFlood flood-opacity="0.161"/>
      <feComposite operator="in" in2="blur-2"/>
      <feComposite in="SourceGraphic"/>
    </filter>
    <filter id="Elipse_5695" x="446" y="0.02" width="111.334" height="111.334" filterUnits="userSpaceOnUse">
      <feOffset dy="3" input="SourceAlpha"/>
      <feGaussianBlur stdDeviation="3" result="blur-3"/>
      <feFlood flood-opacity="0.161"/>
      <feComposite operator="in" in2="blur-3"/>
      <feComposite in="SourceGraphic"/>
    </filter>
  </defs>
  <g id="Grupo_1008736" data-name="Grupo 1008736" transform="translate(-704.534 -803.873)">
    <g id="Grupo_16896" data-name="Grupo 16896" transform="translate(704.534 873.963)">
      <g id="Grupo_16895" data-name="Grupo 16895">
        <path id="Trazado_26514" data-name="Trazado 26514" d="M189.26-60.528l-38.507-50.761v10.7H-25.019l30.4,40.065-30.4,40.069H150.753V-9.767Z" transform="translate(25.019 111.288)" fill="#01927f"/>
      </g>
    </g>
    <g id="Grupo_16898" data-name="Grupo 16898" transform="translate(902.534 873.963)">
      <g id="Grupo_16897" data-name="Grupo 16897">
        <path id="Trazado_26515" data-name="Trazado 26515" d="M306.686-60.528l-38.508-50.76v10.7H92.407l30.4,40.064-30.4,40.069H268.178V-9.767Z" transform="translate(-92.407 111.288)" fill="#02dd84"/>
      </g>
    </g>
    <g id="Grupo_16900" data-name="Grupo 16900" transform="translate(1098.534 873.368)">
      <g id="Grupo_16899" data-name="Grupo 16899">
        <path id="Trazado_26516" data-name="Trazado 26516" d="M425.133-60.287l-38.958-51.355v10.82H208.343L239.1-60.287,208.343-19.748H386.175V-8.932Z" transform="translate(-208.343 111.641)" fill="#43c0ff"/>
      </g>
    </g>
    <text id="Diseño" transform="translate(787.667 914.161)" fill="#fff" font-size="18" font-family="SegoeUI-Bold, Segoe UI" font-weight="700"><tspan x="0" y="19">Diseño</tspan></text>
    <text id="Ejecución" transform="translate(977.196 914.161)" fill="#12263f" font-size="18" font-family="SegoeUI-Bold, Segoe UI" font-weight="700"><tspan x="0" y="19">Ejecución</tspan></text>
    <text id="Evaluación" transform="translate(1158.18 914.63)" fill="#00223d" font-size="18" font-family="SegoeUI-Bold, Segoe UI" font-weight="700"><tspan x="0" y="19">Evaluación</tspan></text>
    <g transform="matrix(1, 0, 0, 1, 704.53, 803.87)" filter="url(#Trazado_875513)">
      <g id="Trazado_875513-2" data-name="Trazado 875513" transform="translate(61 6.02)" fill="#fff">
        <path d="M 46.6669921875 92.33399200439453 C 40.50154113769531 92.33399200439453 34.52105331420898 91.12670135498047 28.89164161682129 88.74566650390625 C 23.45377922058105 86.44564056396484 18.56985473632812 83.15274047851562 14.37555503845215 78.95844268798828 C 10.18125438690186 74.76414489746094 6.888354778289795 69.88021850585938 4.588329792022705 64.44234466552734 C 2.207292079925537 58.81293106079102 1.000004649162292 52.83244323730469 1.000004649162292 46.6669921875 C 1.000004649162292 40.50154113769531 2.207292079925537 34.52105331420898 4.588329792022705 28.89164161682129 C 6.888354778289795 23.45377922058105 10.18125438690186 18.56985473632812 14.37555503845215 14.37555503845215 C 18.56985473632812 10.18125438690186 23.45377922058105 6.888354778289795 28.89164161682129 4.588329792022705 C 34.52105331420898 2.207292079925537 40.50154113769531 1.000004649162292 46.6669921875 1.000004649162292 C 52.83244323730469 1.000004649162292 58.81293106079102 2.207292079925537 64.44234466552734 4.588329792022705 C 69.88021850585938 6.888354778289795 74.76414489746094 10.18125438690186 78.95844268798828 14.37555503845215 C 83.15274047851562 18.56985473632812 86.44564056396484 23.45377922058105 88.74566650390625 28.89164161682129 C 91.12670135498047 34.52105331420898 92.33399200439453 40.50154113769531 92.33399200439453 46.6669921875 C 92.33399200439453 52.83244323730469 91.12670135498047 58.81293106079102 88.74566650390625 64.44234466552734 C 86.44564056396484 69.88021850585938 83.15274047851562 74.76414489746094 78.95844268798828 78.95844268798828 C 74.76414489746094 83.15274047851562 69.88021850585938 86.44564056396484 64.44234466552734 88.74566650390625 C 58.81293106079102 91.12670135498047 52.83244323730469 92.33399200439453 46.6669921875 92.33399200439453 Z" stroke="none"/>
        <path d="M 46.6669921875 1.999992370605469 C 40.63611221313477 1.999992370605469 34.78668594360352 3.180702209472656 29.28118896484375 5.509323120117188 C 23.9625244140625 7.758941650390625 19.18544769287109 10.97987365722656 15.08265686035156 15.08265686035156 C 10.97987365722656 19.18544769287109 7.758941650390625 23.9625244140625 5.509323120117188 29.28118896484375 C 3.180702209472656 34.78668594360352 1.999992370605469 40.63611221313477 1.999992370605469 46.6669921875 C 1.999992370605469 52.69787216186523 3.180702209472656 58.54729843139648 5.509323120117188 64.05279541015625 C 7.758941650390625 69.3714599609375 10.97987365722656 74.14853668212891 15.08265686035156 78.25132751464844 C 19.18544769287109 82.35409545898438 23.9625244140625 85.57503509521484 29.28118896484375 87.82464599609375 C 34.78667068481445 90.15327453613281 40.6360969543457 91.33397674560547 46.6669921875 91.33397674560547 C 52.69787216186523 91.33397674560547 58.54729843139648 90.15327453613281 64.05279541015625 87.82464599609375 C 69.3714599609375 85.57503509521484 74.14853668212891 82.35411071777344 78.25132751464844 78.25132751464844 C 82.35411071777344 74.14853668212891 85.57503509521484 69.3714599609375 87.82464599609375 64.05279541015625 C 90.15327453613281 58.54729843139648 91.33397674560547 52.69787216186523 91.33397674560547 46.6669921875 C 91.33397674560547 40.6360969543457 90.15327453613281 34.78667068481445 87.82464599609375 29.28118896484375 C 85.57503509521484 23.9625244140625 82.35409545898438 19.18544769287109 78.25132751464844 15.08265686035156 C 74.14853668212891 10.97987365722656 69.3714599609375 7.758941650390625 64.05279541015625 5.509323120117188 C 58.54729843139648 3.180702209472656 52.69787216186523 1.999992370605469 46.6669921875 1.999992370605469 M 46.6669921875 -7.62939453125e-06 C 72.44046020507812 -7.62939453125e-06 93.33397674560547 20.89352416992188 93.33397674560547 46.6669921875 C 93.33397674560547 72.44046020507812 72.44046020507812 93.33397674560547 46.6669921875 93.33397674560547 C 20.89352416992188 93.33397674560547 -7.62939453125e-06 72.44046020507812 -7.62939453125e-06 46.6669921875 C -7.62939453125e-06 20.89352416992188 20.89352416992188 -7.62939453125e-06 46.6669921875 -7.62939453125e-06 Z" stroke="none" fill="#01927f"/>
      </g>
    </g>
    <g transform="matrix(1, 0, 0, 1, 704.53, 803.87)" filter="url(#Elipse_5694)">
      <g id="Elipse_5694-2" data-name="Elipse 5694" transform="translate(259 6)" fill="#fff" stroke="#02dd84" stroke-width="2">
        <circle cx="46.667" cy="46.667" r="46.667" stroke="none"/>
        <circle cx="46.667" cy="46.667" r="45.667" fill="none"/>
      </g>
    </g>
    <g transform="matrix(1, 0, 0, 1, 704.53, 803.87)" filter="url(#Elipse_5695)">
      <g id="Elipse_5695-2" data-name="Elipse 5695" transform="translate(455 6.02)" fill="#fff" stroke="#43c0ff" stroke-width="2">
        <circle cx="46.667" cy="46.667" r="46.667" stroke="none"/>
        <circle cx="46.667" cy="46.667" r="45.667" fill="none"/>
      </g>
    </g>
    <g id="Grupo_16907" data-name="Grupo 16907" transform="translate(789.534 833.893)">
      <g id="Grupo_16905" data-name="Grupo 16905" transform="translate(0.657 0.659)">
        <path id="Trazado_26517" data-name="Trazado 26517" d="M637.265-68.351l-38.978-38.978a2.351,2.351,0,0,0-4.013,1.662V-68.5a4.163,4.163,0,0,0,4.164,4.163H635.6a2.351,2.351,0,0,0,1.662-4.013Zm-18.971-4.524H604.528a1.717,1.717,0,0,1-1.717-1.717V-88.358a.983.983,0,0,1,1.678-.695l14.5,14.5a.983.983,0,0,1-.695,1.678Z" transform="translate(-594.274 108.022)" fill="#99f2ce"/>
        <g id="Grupo_16902" data-name="Grupo 16902">
          <path id="Trazado_26518" data-name="Trazado 26518" d="M614.016-76.1a.984.984,0,0,0-1.652.466L626.4-61.6a.983.983,0,0,1-.7,1.678h2.119a.983.983,0,0,0,.695-1.678Z" transform="translate(-601.682 95.067)" fill="#adbb24"/>
          <path id="Trazado_26519" data-name="Trazado 26519" d="M596.393-68.5v-37.165a2.311,2.311,0,0,1,1.3-2.1,2.355,2.355,0,0,0-3.416,2.1V-68.5a4.163,4.163,0,0,0,4.164,4.163h2.119A4.163,4.163,0,0,1,596.393-68.5Z" transform="translate(-594.274 108.022)" fill="#adbb24"/>
        </g>
        <g id="Grupo_16903" data-name="Grupo 16903" transform="translate(5.042 39.235)">
          <path id="Trazado_26520" data-name="Trazado 26520" d="M604.063-41.576a1.25,1.25,0,0,0-1.25,1.25v3.2h2.5v-3.2A1.25,1.25,0,0,0,604.063-41.576Z" transform="translate(-602.813 41.576)" fill="#ffe07d"/>
          <path id="Trazado_26521" data-name="Trazado 26521" d="M659.049-41.576a1.25,1.25,0,0,0-1.25,1.25v3.2h2.5v-3.2A1.25,1.25,0,0,0,659.049-41.576Z" transform="translate(-625.331 41.576)" fill="#ffe07d"/>
          <path id="Trazado_26522" data-name="Trazado 26522" d="M649.885-38.6a1.25,1.25,0,0,0-1.25,1.25v1.441h2.5v-1.441A1.25,1.25,0,0,0,649.885-38.6Z" transform="translate(-621.578 40.357)" fill="#ffe07d"/>
          <path id="Trazado_26523" data-name="Trazado 26523" d="M640.72-38.6a1.25,1.25,0,0,0-1.25,1.25v1.441h2.5v-1.441A1.25,1.25,0,0,0,640.72-38.6Z" transform="translate(-617.825 40.357)" fill="#ffe07d"/>
          <path id="Trazado_26524" data-name="Trazado 26524" d="M631.556-41.576a1.25,1.25,0,0,0-1.25,1.25v3.2h2.5v-3.2A1.25,1.25,0,0,0,631.556-41.576Z" transform="translate(-614.072 41.576)" fill="#ffe07d"/>
          <path id="Trazado_26525" data-name="Trazado 26525" d="M622.392-38.6a1.25,1.25,0,0,0-1.25,1.25v1.441h2.5v-1.441A1.25,1.25,0,0,0,622.392-38.6Z" transform="translate(-610.319 40.357)" fill="#ffe07d"/>
          <path id="Trazado_26526" data-name="Trazado 26526" d="M613.227-38.6a1.25,1.25,0,0,0-1.249,1.25v1.441h2.5v-1.441A1.25,1.25,0,0,0,613.227-38.6Z" transform="translate(-606.566 40.357)" fill="#ffe07d"/>
        </g>
        <g id="Grupo_16904" data-name="Grupo 16904" transform="translate(18.417 0.112)">
          <path id="Trazado_26527" data-name="Trazado 26527" d="M651.915-98.776l-11.6,11.6c.034-.627-1.348-.105-1.827-.584a2.286,2.286,0,0,0-2.422-.524,2.288,2.288,0,0,0-.524-2.422,2.278,2.278,0,0,0-1.759-.665,2.26,2.26,0,0,0-.663.141,2.287,2.287,0,0,0-.524-2.422c-.479-.479.043-1.861-.584-1.827l11.6-11.6a2.577,2.577,0,0,1,3.644,0l4.658,4.658A2.577,2.577,0,0,1,651.915-98.776Z" transform="translate(-628.147 107.833)" fill="#8eaadf"/>
          <path id="Trazado_26528" data-name="Trazado 26528" d="M633.786-91.373a2.26,2.26,0,0,0-.663.141,2.287,2.287,0,0,0-.524-2.422c-.479-.479.043-1.861-.584-1.826l11.6-11.6a2.577,2.577,0,0,1,3.644,0l.856.856L634.282-92.391Z" transform="translate(-628.147 107.833)" fill="#698ed5"/>
          <path id="Trazado_26529" data-name="Trazado 26529" d="M638.557-78.614,630.7-76.075l-2.982-2.982,2.538-7.859a2.282,2.282,0,0,1,1.743.667,2.288,2.288,0,0,1,.524,2.422,2.286,2.286,0,0,1,2.422.524,2.286,2.286,0,0,1,.524,2.422,2.288,2.288,0,0,1,2.422.524,2.282,2.282,0,0,1,.667,1.743Z" transform="translate(-626.386 99.269)" fill="#f6eeda"/>
          <path id="Trazado_26530" data-name="Trazado 26530" d="M628.946-77.828l-1.23-1.229,2.538-7.859a2.284,2.284,0,0,1,1.743.667,2.288,2.288,0,0,1,.524,2.422l-2.116,4.335Z" transform="translate(-626.386 99.269)" fill="#efe1c1"/>
          <path id="Trazado_26531" data-name="Trazado 26531" d="M629.891-71.246,627.8-69.155a.9.9,0,0,1-1.484-.334l-.5-1.394-.264-.74a1.55,1.55,0,0,1,.364-1.615l.991-.991a2.11,2.11,0,0,1,2.575-.319,2.152,2.152,0,0,1,.408.319,2.1,2.1,0,0,1,.617,1.492,2.1,2.1,0,0,1-.618,1.492Z" transform="translate(-625.464 94.324)" fill="#4a80aa"/>
          <path id="Trazado_26532" data-name="Trazado 26532" d="M629.483-74.547l-3.665,3.665-.264-.74a1.55,1.55,0,0,1,.364-1.615l.991-.991A2.108,2.108,0,0,1,629.483-74.547Z" transform="translate(-625.464 94.324)" fill="#407093"/>
        </g>
      </g>
      <g id="Grupo_16906" data-name="Grupo 16906" transform="translate(0 0)">
        <path id="Trazado_26533" data-name="Trazado 26533" d="M609.995-59.719h13.764a1.637,1.637,0,0,0,1.517-1.013,1.639,1.639,0,0,0-.355-1.79l-14.5-14.5a1.637,1.637,0,0,0-1.789-.355,1.637,1.637,0,0,0-1.013,1.516v13.764a2.379,2.379,0,0,0,2.375,2.376Zm-1.058-16.14a.319.319,0,0,1,.553-.229l14.5,14.5a.319.319,0,0,1-.229.552H609.995a1.059,1.059,0,0,1-1.058-1.058V-75.859Z" transform="translate(-599.082 96.182)" fill="#00223d"/>
        <path id="Trazado_26534" data-name="Trazado 26534" d="M637.273-69.276,620.72-85.829l3.888-1.256h0a.654.654,0,0,0,.263-.161l7.306-7.306a.659.659,0,0,0,0-.932.659.659,0,0,0-.932,0l-6.437,6.437a2.949,2.949,0,0,0-.6-.874,2.951,2.951,0,0,0-2.083-.862,2.954,2.954,0,0,0-.863-2.084,2.951,2.951,0,0,0-2.083-.862,2.951,2.951,0,0,0-.862-2.083,2.95,2.95,0,0,0-.875-.6l10.728-10.729a1.92,1.92,0,0,1,2.711,0l4.658,4.659a1.9,1.9,0,0,1,.561,1.355,1.9,1.9,0,0,1-.562,1.356L633.1-97.344a.659.659,0,0,0,0,.932.659.659,0,0,0,.932,0l2.431-2.431a3.214,3.214,0,0,0,.948-2.288,3.212,3.212,0,0,0-.948-2.288l-4.658-4.659a3.239,3.239,0,0,0-4.574,0l-11.6,11.6a.654.654,0,0,0-.161.263h0l-1.256,3.888L598.3-108.249a2.963,2.963,0,0,0-3.28-.652,2.962,2.962,0,0,0-1.858,2.78v29.2a.659.659,0,0,0,.659.659.658.658,0,0,0,.659-.659v-29.2a1.668,1.668,0,0,1,1.045-1.562,1.669,1.669,0,0,1,1.844.367l16.4,16.4-.778,2.409-.763.763a2.215,2.215,0,0,0-.518,2.3l.761,2.133a1.549,1.549,0,0,0,1.127,1,1.562,1.562,0,0,0,.346.039,1.55,1.55,0,0,0,1.1-.458L616.9-84.6l2.409-.778,17.03,17.03a1.669,1.669,0,0,1,.367,1.843,1.668,1.668,0,0,1-1.563,1.045h-.659V-68a1.911,1.911,0,0,0-1.909-1.909A1.912,1.912,0,0,0,630.668-68v2.54h-1.592v-.782a1.911,1.911,0,0,0-1.909-1.909,1.911,1.911,0,0,0-1.909,1.909v.782h-1.593v-.782a1.911,1.911,0,0,0-1.909-1.909,1.911,1.911,0,0,0-1.909,1.909v.782h-1.593V-68a1.911,1.911,0,0,0-1.909-1.909A1.911,1.911,0,0,0,614.436-68v2.54h-1.593v-.782a1.911,1.911,0,0,0-1.909-1.909,1.911,1.911,0,0,0-1.909,1.909v.782h-1.593v-.782a1.911,1.911,0,0,0-1.909-1.909,1.911,1.911,0,0,0-1.909,1.909v.782h-1.593V-68a1.911,1.911,0,0,0-1.909-1.909A1.911,1.911,0,0,0,598.2-68v2.54h-.22a3.508,3.508,0,0,1-3.5-3.5v-5.32a.659.659,0,0,0-.659-.659.659.659,0,0,0-.659.659v5.32a4.828,4.828,0,0,0,4.822,4.822h37.161A2.963,2.963,0,0,0,637.925-66a2.964,2.964,0,0,0-.652-3.28Zm-19.52-23.88a.66.66,0,0,0,.151.7.66.66,0,0,0,.7.151,1.632,1.632,0,0,1,1.724.373,1.634,1.634,0,0,1,.374,1.725.659.659,0,0,0,.152.7.658.658,0,0,0,.7.151,1.632,1.632,0,0,1,1.724.373,1.628,1.628,0,0,1,.438.808L617.9-86.3a2.764,2.764,0,0,0-.768-2.435,2.766,2.766,0,0,0-2.435-.768l1.878-5.813a1.633,1.633,0,0,1,.809.438,1.633,1.633,0,0,1,.373,1.724Zm-3.648,9.492a.233.233,0,0,1-.4-.09l-.762-2.133a.894.894,0,0,1,.208-.928l.992-.991a1.451,1.451,0,0,1,2.049,0,1.451,1.451,0,0,1,0,2.05ZM599.522-65.457V-68a.591.591,0,0,1,.59-.59.591.591,0,0,1,.591.59v2.54Zm5.411,0v-.782a.591.591,0,0,1,.591-.59.591.591,0,0,1,.591.59v.782Zm5.411,0v-.782a.591.591,0,0,1,.591-.59.591.591,0,0,1,.591.59v.782Zm5.411,0V-68a.591.591,0,0,1,.59-.59.591.591,0,0,1,.591.59v2.54Zm5.411,0v-.782a.591.591,0,0,1,.591-.59.591.591,0,0,1,.59.59v.782Zm5.411,0v-.782a.591.591,0,0,1,.59-.59.591.591,0,0,1,.591.59v.782Zm5.411,0V-68a.591.591,0,0,1,.59-.59.592.592,0,0,1,.591.59v2.54Z" transform="translate(-593.162 109.138)" fill="#00223d"/>
      </g>
    </g>
    <g id="Grupo_16908" data-name="Grupo 16908" transform="translate(981.534 829.845)">
      <path id="Trazado_26535" data-name="Trazado 26535" d="M426.586-75.206v-7.54a1.109,1.109,0,0,0-1.109-1.109h-4.149a22.41,22.41,0,0,0-3-7.244l2.933-2.932a1.108,1.108,0,0,0,0-1.568l-5.332-5.332a1.108,1.108,0,0,0-1.568,0L411.43-98a22.418,22.418,0,0,0-7.243-3v-4.15a1.109,1.109,0,0,0-1.109-1.108h-7.54a1.109,1.109,0,0,0-1.109,1.108v4.156a22.4,22.4,0,0,0-7.232,3l-2.943-2.943a1.108,1.108,0,0,0-1.568,0L377.353-95.6a1.108,1.108,0,0,0,0,1.568l2.95,2.95a22.405,22.405,0,0,0-2.988,7.226h-4.177a1.109,1.109,0,0,0-1.108,1.109v7.54a1.109,1.109,0,0,0,1.108,1.109h4.184a22.42,22.42,0,0,0,2.992,7.215l-2.96,2.96a1.108,1.108,0,0,0,0,1.568l5.332,5.332a1.108,1.108,0,0,0,1.568,0l2.96-2.96a22.415,22.415,0,0,0,7.215,2.992v4.183a1.109,1.109,0,0,0,1.109,1.109h7.54a1.109,1.109,0,0,0,1.109-1.109v-4.177a22.4,22.4,0,0,0,7.225-2.987l2.951,2.95a1.108,1.108,0,0,0,1.568,0l5.332-5.332a1.108,1.108,0,0,0,0-1.568l-2.943-2.944a22.413,22.413,0,0,0,3-7.232h4.155A1.109,1.109,0,0,0,426.586-75.206Z" transform="translate(-370.92 107.364)" fill="#ffd5b8"/>
      <path id="Trazado_26536" data-name="Trazado 26536" d="M402.5-51.167h-7.54a2.221,2.221,0,0,1-2.218-2.218V-56.7a23.437,23.437,0,0,1-5.939-2.463l-2.343,2.343a2.221,2.221,0,0,1-3.137,0l-5.332-5.332a2.219,2.219,0,0,1,0-3.136l2.342-2.343a23.443,23.443,0,0,1-2.463-5.939H372.56a2.221,2.221,0,0,1-2.218-2.218v-7.54a2.221,2.221,0,0,1,2.218-2.218h3.3a23.428,23.428,0,0,1,2.46-5.95l-2.333-2.333a2.219,2.219,0,0,1,0-3.136l5.332-5.332a2.221,2.221,0,0,1,3.137,0l2.325,2.325a23.45,23.45,0,0,1,5.958-2.473v-3.283a2.221,2.221,0,0,1,2.218-2.218h7.54a2.22,2.22,0,0,1,2.217,2.218v3.275a23.44,23.44,0,0,1,5.968,2.471L413-102.293a2.22,2.22,0,0,1,3.136,0l5.332,5.332a2.221,2.221,0,0,1,0,3.137l-2.315,2.315a23.451,23.451,0,0,1,2.471,5.967H424.9a2.221,2.221,0,0,1,2.218,2.218v7.54a2.221,2.221,0,0,1-2.218,2.218h-3.283a23.449,23.449,0,0,1-2.473,5.958l2.325,2.325a2.22,2.22,0,0,1,0,3.136l-5.332,5.332a2.22,2.22,0,0,1-3.136,0l-2.333-2.333a23.443,23.443,0,0,1-5.95,2.461v3.3A2.22,2.22,0,0,1,402.5-51.167Zm-15.864-10.5a1.107,1.107,0,0,1,.6.174,21.237,21.237,0,0,0,6.858,2.844,1.109,1.109,0,0,1,.87,1.083v4.183h7.54v-4.177a1.109,1.109,0,0,1,.87-1.083,21.247,21.247,0,0,0,6.868-2.839,1.109,1.109,0,0,1,1.38.151l2.95,2.95,5.332-5.332-2.943-2.943a1.108,1.108,0,0,1-.15-1.381,21.238,21.238,0,0,0,2.855-6.875,1.109,1.109,0,0,1,1.083-.869H424.9v-7.54H420.75a1.109,1.109,0,0,1-1.083-.871,21.236,21.236,0,0,0-2.851-6.885,1.109,1.109,0,0,1,.151-1.381l2.932-2.933-5.332-5.332-2.932,2.933a1.11,1.11,0,0,1-1.381.151,21.244,21.244,0,0,0-6.885-2.85,1.109,1.109,0,0,1-.87-1.083v-4.15h-7.54v4.156a1.109,1.109,0,0,1-.869,1.083,21.245,21.245,0,0,0-6.875,2.854,1.108,1.108,0,0,1-1.381-.15l-2.944-2.943-5.332,5.332,2.95,2.951a1.107,1.107,0,0,1,.151,1.379A21.243,21.243,0,0,0,377.82-84.2a1.109,1.109,0,0,1-1.083.871H372.56v7.54h4.184a1.109,1.109,0,0,1,1.083.869,21.24,21.24,0,0,0,2.844,6.858,1.108,1.108,0,0,1-.151,1.381l-2.961,2.96,5.332,5.332,2.961-2.961A1.109,1.109,0,0,1,386.636-61.669Z" transform="translate(-370.342 107.942)" fill="#00223d"/>
      <path id="Trazado_26537" data-name="Trazado 26537" d="M420.744-72.621A15.081,15.081,0,0,1,405.663-57.54a15.081,15.081,0,0,1-15.081-15.081A15.082,15.082,0,0,1,405.663-87.7,15.081,15.081,0,0,1,420.744-72.621Z" transform="translate(-377.276 101.008)" fill="#fff"/>
      <path id="Trazado_26538" data-name="Trazado 26538" d="M405.089-57.015a16.142,16.142,0,0,1-11.448-4.734,16.209,16.209,0,0,1,0-22.9,16.042,16.042,0,0,1,9.336-4.6A16.3,16.3,0,0,1,413-87.325a1.109,1.109,0,0,1,.425,1.509,1.109,1.109,0,0,1-1.509.425,14.018,14.018,0,0,0-16.709,2.314,13.987,13.987,0,0,0,0,19.759,13.932,13.932,0,0,0,9.879,4.086,13.926,13.926,0,0,0,9.88-4.086,13.955,13.955,0,0,0,2.624-16.123,1.109,1.109,0,0,1,.5-1.488,1.109,1.109,0,0,1,1.487.5,16.171,16.171,0,0,1-3.04,18.683A16.142,16.142,0,0,1,405.089-57.015Z" transform="translate(-376.702 101.585)" fill="#00223d"/>
      <path id="Trazado_26539" data-name="Trazado 26539" d="M413.652-75.5l-6.165,6.165-3.035-3.035-3.977,3.977,3.035,3.035,3.977,3.977,10.142-10.142Z" transform="translate(-380.664 96.829)" fill="#cbe558"/>
      <path id="Trazado_26540" data-name="Trazado 26540" d="M406.909-60.85a1.11,1.11,0,0,1-.784-.325l-7.012-7.013a1.108,1.108,0,0,1,0-1.568l3.977-3.978a1.108,1.108,0,0,1,.784-.324,1.109,1.109,0,0,1,.784.324l2.251,2.251,5.381-5.38a1.108,1.108,0,0,1,1.568,0l3.977,3.977a1.108,1.108,0,0,1,0,1.568L407.694-61.175A1.112,1.112,0,0,1,406.909-60.85Zm-5.444-8.122,5.444,5.444,8.574-8.574-2.409-2.409-5.38,5.381a1.11,1.11,0,0,1-.784.325,1.11,1.11,0,0,1-.784-.325l-2.251-2.251Z" transform="translate(-380.087 97.407)" fill="#00223d"/>
    </g>
    <g id="Grupo_16909" data-name="Grupo 16909" transform="translate(1185.534 831.893)">
      <path id="Trazado_26541" data-name="Trazado 26541" d="M485.9-110.247H518.18a2.306,2.306,0,0,1,2.305,2.305v42.65a2.306,2.306,0,0,1-2.305,2.305H485.9a2.306,2.306,0,0,1-2.305-2.305v-42.65A2.306,2.306,0,0,1,485.9-110.247Z" transform="translate(-482.638 111.208)" fill="#5cd6b3"/>
      <path id="Trazado_26542" data-name="Trazado 26542" d="M513.119-102.852H520.2v39.576h-29.2v-39.576h7.077" transform="translate(-486.191 107.655)" fill="#fff"/>
      <path id="Trazado_26543" data-name="Trazado 26543" d="M507.24-103.331H517.6a2.041,2.041,0,0,0,2.041-2.041v-4.875H505.2v4.875A2.041,2.041,0,0,0,507.24-103.331Z" transform="translate(-493.016 111.208)" fill="#ff6977"/>
      <path id="Trazado_26544" data-name="Trazado 26544" d="M507.24-103.331H517.6a2.041,2.041,0,0,0,2.041-2.041v-4.875H505.2v4.875A2.041,2.041,0,0,0,507.24-103.331Z" transform="translate(-493.016 111.208)" fill="#bdd9ff"/>
      <path id="Trazado_26545" data-name="Trazado 26545" d="M541.885-75.019l11.255-11.255a2.541,2.541,0,0,1,3.593,0,2.541,2.541,0,0,1,0,3.593L545.477-71.426,539-68.543Z" transform="translate(-509.255 100.048)" fill="#ffc15a"/>
      <path id="Trazado_26546" data-name="Trazado 26546" d="M545.477-60.331l-3.593-3.593L539-57.448Z" transform="translate(-509.255 88.953)" fill="#98a1b3"/>
      <path id="Trazado_26547" data-name="Trazado 26547" d="M567.429-81.446l1.235-1.236a2.541,2.541,0,0,0,0-3.593,2.541,2.541,0,0,0-3.593,0l-1.235,1.235Z" transform="translate(-521.187 100.048)" fill="#ff6977"/>
      <path id="Trazado_26548" data-name="Trazado 26548" d="M499.869-88.061h6.148v6.148h-6.148Z" transform="translate(-490.455 100.549)" fill="#cbe558"/>
      <path id="Trazado_26549" data-name="Trazado 26549" d="M499.869-67.725h6.148v6.148h-6.148Z" transform="translate(-490.455 90.779)" fill="#cbe558"/>
      <path id="Trazado_26550" data-name="Trazado 26550" d="M499.869-47.388h6.148v6.148h-6.148Z" transform="translate(-490.455 81.008)" fill="#ff6977"/>
      <path id="Trazado_26551" data-name="Trazado 26551" d="M518.208-28.53a.968.968,0,0,0-.679.282.967.967,0,0,0-.282.679.968.968,0,0,0,.282.679.967.967,0,0,0,.679.281.967.967,0,0,0,.679-.281.968.968,0,0,0,.282-.679.967.967,0,0,0-.282-.679A.968.968,0,0,0,518.208-28.53Z" transform="translate(-498.804 71.948)" fill="#00223d"/>
      <path id="Trazado_26552" data-name="Trazado 26552" d="M529.906-99a3.5,3.5,0,0,0-4.951,0l-4.4,4.4V-108.83a3.27,3.27,0,0,0-3.266-3.266H485.016a3.27,3.27,0,0,0-3.266,3.266v42.65a3.27,3.27,0,0,0,3.266,3.266h32.276a3.27,3.27,0,0,0,3.266-3.266V-84.7l9.349-9.349A3.505,3.505,0,0,0,529.906-99Zm-11.27-9.829v16.148l-1.921,1.921v-16.532a.961.961,0,0,0-.961-.961h-6.42v-1.921h7.957A1.346,1.346,0,0,1,518.636-108.83Zm-5.245,26.344,1.3-2.913,1.617,1.616Zm-5.978-27.688v3.914a1.082,1.082,0,0,1-1.081,1.08H495.975a1.082,1.082,0,0,1-1.081-1.08v-3.914Zm9.878,45.339H485.016a1.346,1.346,0,0,1-1.345-1.345v-42.65a1.346,1.346,0,0,1,1.345-1.345h7.957v1.921h-6.42a.96.96,0,0,0-.96.961v39.576a.96.96,0,0,0,.96.96h10.759a.96.96,0,0,0,.961-.96.961.961,0,0,0-.961-.961h-9.8v-37.655h5.459v.072a3.005,3.005,0,0,0,3,3h10.358a3.005,3.005,0,0,0,3-3v-.072h5.459V-88.84L513.7-87.747a.974.974,0,0,0-.2.288l-2.883,6.476a.96.96,0,0,0,.2,1.07.961.961,0,0,0,.68.282.958.958,0,0,0,.391-.083l2.907-1.294v12.33H505a.961.961,0,0,0-.961.961.96.96,0,0,0,.961.96h10.759a.961.961,0,0,0,.961-.96V-81.863l1.648-.734a.946.946,0,0,0,.273-.184v16.6A1.346,1.346,0,0,1,517.292-64.836Zm7.676-26.993-7,7-2.235-2.235,8.662-8.661,2.234,2.235Zm3.58-3.58-.556.556-2.234-2.234.555-.556a1.582,1.582,0,0,1,2.235,0A1.582,1.582,0,0,1,528.548-95.409Z" transform="translate(-481.75 112.096)" fill="#00223d"/>
      <path id="Trazado_26553" data-name="Trazado 26553" d="M505.128-89.91h-6.148a.96.96,0,0,0-.961.961V-82.8a.96.96,0,0,0,.961.961h6.148a.961.961,0,0,0,.961-.961v-6.148A.96.96,0,0,0,505.128-89.91Zm-.961,6.148h-4.227v-4.227h4.227Z" transform="translate(-489.567 101.437)" fill="#00223d"/>
      <path id="Trazado_26554" data-name="Trazado 26554" d="M505.128-69.573h-6.148a.96.96,0,0,0-.961.96v6.148a.96.96,0,0,0,.961.96h6.148a.96.96,0,0,0,.961-.96v-6.148A.96.96,0,0,0,505.128-69.573Zm-.961,6.148h-4.227v-4.227h4.227Z" transform="translate(-489.567 91.667)" fill="#00223d"/>
      <path id="Trazado_26555" data-name="Trazado 26555" d="M505.128-49.237h-6.148a.96.96,0,0,0-.961.961v6.148a.96.96,0,0,0,.961.961h6.148a.96.96,0,0,0,.961-.961v-6.148A.961.961,0,0,0,505.128-49.237Zm-.961,6.148h-4.227v-4.227h4.227Z" transform="translate(-489.567 81.896)" fill="#00223d"/>
      <path id="Trazado_26556" data-name="Trazado 26556" d="M522.7-82.191a.958.958,0,0,0,.679.282.96.96,0,0,0,.68-.282l4.337-4.337a.961.961,0,0,0,0-1.358.961.961,0,0,0-1.359,0l-3.658,3.657-1.457-1.458a.961.961,0,0,0-1.359,0,.961.961,0,0,0,0,1.359Z" transform="translate(-500.261 100.6)" fill="#00223d"/>
      <path id="Trazado_26557" data-name="Trazado 26557" d="M522.7-61.854a.961.961,0,0,0,.679.282.961.961,0,0,0,.68-.282l4.337-4.336a.962.962,0,0,0,0-1.359.961.961,0,0,0-1.359,0l-3.658,3.658-1.457-1.458a.961.961,0,0,0-1.359,0,.96.96,0,0,0,0,1.358Z" transform="translate(-500.261 90.829)" fill="#00223d"/>
      <path id="Trazado_26558" data-name="Trazado 26558" d="M525.465-43.007l1.489,1.489a.959.959,0,0,0,.68.282.958.958,0,0,0,.679-.282.96.96,0,0,0,0-1.358l-1.489-1.49,1.489-1.489a.96.96,0,0,0,0-1.358.96.96,0,0,0-1.359,0l-1.489,1.489-1.489-1.489a.96.96,0,0,0-1.359,0,.961.961,0,0,0,0,1.358l1.49,1.489-1.49,1.49a.961.961,0,0,0,0,1.358.96.96,0,0,0,.68.282.958.958,0,0,0,.679-.282Z" transform="translate(-501.249 81.059)" fill="#00223d"/>
    </g>
  </g>
</svg>
