<svg xmlns="http://www.w3.org/2000/svg" width="70" height="70" viewBox="0 0 70 70">
  <g id="Grupo_1100957" data-name="Grupo 1100957" transform="translate(-810.051 -13648)">
    <g id="Elipse_5749" data-name="Elipse 5749" transform="translate(810.051 13648)" fill="#fff" stroke="#019a5b" stroke-width="2">
      <circle cx="35" cy="35" r="35" stroke="none"/>
      <circle cx="35" cy="35" r="34" fill="none"/>
    </g>
    <path id="Trazado_875645" data-name="Trazado 875645" d="M43,34H27.125V30.563l7.313-7.687q2.7-3.078,2.7-4.891A3.4,3.4,0,0,0,36.5,15.75a2.287,2.287,0,0,0-1.859-.766,2.316,2.316,0,0,0-1.953,1.023,4.206,4.206,0,0,0-.75,2.555H26.656A7.471,7.471,0,0,1,27.7,14.7a7.341,7.341,0,0,1,2.906-2.773,8.633,8.633,0,0,1,4.156-1,8.493,8.493,0,0,1,5.68,1.7,6.08,6.08,0,0,1,1.992,4.891,7.1,7.1,0,0,1-.5,2.617A11.477,11.477,0,0,1,40.383,22.8a39.162,39.162,0,0,1-3.4,3.742l-2.937,3.391H43Z" transform="translate(810.051 13661)" fill="#019a5b"/>
  </g>
</svg>
