<svg xmlns="http://www.w3.org/2000/svg" xmlns:xlink="http://www.w3.org/1999/xlink" width="108" height="108" viewBox="0 0 108 108">
  <defs>
    <filter id="Elipse_5708" x="0" y="0" width="108" height="108" filterUnits="userSpaceOnUse">
      <feOffset dy="3" input="SourceAlpha"/>
      <feGaussianBlur stdDeviation="3" result="blur"/>
      <feFlood flood-opacity="0.161"/>
      <feComposite operator="in" in2="blur"/>
      <feComposite in="SourceGraphic"/>
    </filter>
  </defs>
  <g id="Grupo_1008777" data-name="Grupo 1008777" transform="translate(-1011 -2507.893)">
    <g transform="matrix(1, 0, 0, 1, 1011, 2507.89)" filter="url(#Elipse_5708)">
      <g id="Elipse_5708-2" data-name="Elipse 5708" transform="translate(9 6)" fill="#fff" stroke="#ffede7" stroke-width="2">
        <circle cx="45" cy="45" r="45" stroke="none"/>
        <circle cx="45" cy="45" r="44" fill="none"/>
      </g>
    </g>
    <g id="Grupo_1008757" data-name="Grupo 1008757" transform="translate(1042 2535.893)">
      <g id="Grupo_16777" data-name="Grupo 16777" transform="translate(0.744 0.744)">
        <g id="Grupo_16753" data-name="Grupo 16753" transform="translate(38.685)">
          <path id="Trazado_26194" data-name="Trazado 26194" d="M209.206-246.147a1.926,1.926,0,0,1-1.362.566.751.751,0,0,1-.521-.216l-.528-.528-2.232-2.232-.528-.528a.751.751,0,0,1-.215-.521,1.922,1.922,0,0,1,.565-1.361,1.924,1.924,0,0,1,1.361-.565.751.751,0,0,1,.521.216l3.288,3.288a.75.75,0,0,1,.215.521A1.923,1.923,0,0,1,209.206-246.147Z" transform="translate(-203.82 251.533)" fill="#aab2bd"/>
        </g>
        <g id="Grupo_16754" data-name="Grupo 16754" transform="translate(37.192 2.98)">
          <path id="Trazado_26195" data-name="Trazado 26195" d="M200.814-243.3l2.232-2.232,2.232,2.232-2.232,2.232Z" transform="translate(-200.814 245.531)" fill="#aab2bd"/>
        </g>
        <g id="Grupo_16755" data-name="Grupo 16755" transform="translate(23.806 4.464)">
          <path id="Trazado_26196" data-name="Trazado 26196" d="M189.689-239.351a1.792,1.792,0,0,1,.528,1.272,1.79,1.79,0,0,1-.528,1.272l-3.727,3.727a2.912,2.912,0,0,0-1.7-.536,2.975,2.975,0,0,0-2.976,2.976,2.911,2.911,0,0,0,.536,1.7l-2.767,2.768-5.208-5.208,1.116-1.116,9.515-9.515a1.79,1.79,0,0,1,1.272-.528,1.79,1.79,0,0,1,1.272.528l.216.215,2.232,2.232Z" transform="translate(-173.851 242.542)" fill="#ccd1d9"/>
        </g>
        <g id="Grupo_16756" data-name="Grupo 16756" transform="translate(22.318 15.623)">
          <path id="Trazado_26197" data-name="Trazado 26197" d="M177.549-214.858l-.96.96a1.79,1.79,0,0,1-1.272.528,1.792,1.792,0,0,1-1.272-.528l-2.663-2.664a1.79,1.79,0,0,1-.528-1.272,1.79,1.79,0,0,1,.528-1.272l.96-.96Z" transform="translate(-170.854 220.065)" fill="#ccd1d9"/>
        </g>
        <g id="Grupo_16757" data-name="Grupo 16757" transform="translate(20.83 31.246)">
          <path id="Trazado_26198" data-name="Trazado 26198" d="M167.857-188.6h11.9a1.492,1.492,0,0,1,1.488,1.488,4.451,4.451,0,0,0-3.325,1.488H167.857Z" transform="translate(-167.857 188.598)" fill="#ccd1d9"/>
        </g>
        <g id="Grupo_16758" data-name="Grupo 16758" transform="translate(34.221 16.367)">
          <path id="Trazado_26199" data-name="Trazado 26199" d="M197.8-218.567l2.261,2.261a17.679,17.679,0,0,1,3.831,5.736,17.553,17.553,0,0,1,1.346,6.762,17.681,17.681,0,0,1-2.224,8.585l-1.428,2.574-.007.007a2.193,2.193,0,0,0-1.548-.633h-5.208a4.467,4.467,0,0,0,4.464-4.464,4.457,4.457,0,0,0-.491-2.038,11.445,11.445,0,0,0,1.473-3.05,11.408,11.408,0,0,0,.506-3.363,11.35,11.35,0,0,0-4.546-9.091l-.573-.431a2.968,2.968,0,0,0,2.143-2.857Z" transform="translate(-194.829 218.567)" fill="#aab2bd"/>
        </g>
        <g id="Grupo_16759" data-name="Grupo 16759" transform="translate(19.342 41.661)">
          <path id="Trazado_26200" data-name="Trazado 26200" d="M165.567-167.62h19.379a2.193,2.193,0,0,1,1.548.633,2.176,2.176,0,0,1,.685,1.6.747.747,0,0,1-.744.744H165.6a.747.747,0,0,1-.744-.744v-1.488a.737.737,0,0,1,.707-.736Z" transform="translate(-164.86 167.62)" fill="#aab2bd"/>
        </g>
        <g id="Grupo_16760" data-name="Grupo 16760" transform="translate(0 1.488)">
          <circle id="Elipse_957" data-name="Elipse 957" cx="2.232" cy="2.232" r="2.232" fill="#69d6f4"/>
        </g>
        <g id="Grupo_16761" data-name="Grupo 16761" transform="translate(1.488 11.903)">
          <circle id="Elipse_958" data-name="Elipse 958" cx="2.232" cy="2.232" r="2.232" fill="#69d6f4"/>
        </g>
        <g id="Grupo_16762" data-name="Grupo 16762" transform="translate(8.927 7.44)">
          <ellipse id="Elipse_959" data-name="Elipse 959" cx="1.488" cy="1.488" rx="1.488" ry="1.488" fill="#69d6f4"/>
        </g>
        <g id="Grupo_16763" data-name="Grupo 16763" transform="translate(7.439 16.367)">
          <ellipse id="Elipse_960" data-name="Elipse 960" cx="1.488" cy="1.488" rx="1.488" ry="1.488" fill="#69d6f4"/>
        </g>
        <g id="Grupo_16764" data-name="Grupo 16764" transform="translate(19.342 0)">
          <ellipse id="Elipse_961" data-name="Elipse 961" cx="1.488" cy="1.488" rx="1.488" ry="1.488" fill="#69d6f4"/>
        </g>
        <g id="Grupo_16765" data-name="Grupo 16765" transform="translate(31.245 2.976)">
          <ellipse id="Elipse_962" data-name="Elipse 962" cx="1.488" cy="1.488" rx="1.488" ry="1.488" fill="#69d6f4"/>
        </g>
        <g id="Grupo_16766" data-name="Grupo 16766" transform="translate(22.318 11.903)">
          <path id="Trazado_26201" data-name="Trazado 26201" d="M172.342-227.558a1.493,1.493,0,0,1,1.488,1.488,1.455,1.455,0,0,1-.439,1.049,1.454,1.454,0,0,1-1.049.439,1.492,1.492,0,0,1-1.488-1.488,1.5,1.5,0,0,1,.781-1.309A1.506,1.506,0,0,1,172.342-227.558Z" transform="translate(-170.854 227.558)" fill="#69d6f4"/>
        </g>
        <g id="Grupo_16767" data-name="Grupo 16767" transform="translate(17.855 5.952)">
          <path id="Trazado_26202" data-name="Trazado 26202" d="M169.3-239.545s0,4.553-3.988,5.7a7.064,7.064,0,0,1-1.964.253h-1.487C161.864-235.825,163.351-239.545,169.3-239.545Z" transform="translate(-161.864 239.545)" fill="#b4dd7f"/>
        </g>
        <g id="Grupo_16768" data-name="Grupo 16768" transform="translate(10.415)">
          <path id="Trazado_26203" data-name="Trazado 26203" d="M154.319-245.581h-1.488c-5.952,0-5.952-5.952-5.952-5.952C152.831-251.533,154.319-247.813,154.319-245.581Z" transform="translate(-146.879 251.533)" fill="#b4dd7f"/>
        </g>
        <g id="Grupo_16769" data-name="Grupo 16769" transform="translate(10.415 10.416)">
          <path id="Trazado_26204" data-name="Trazado 26204" d="M154.319-224.6h-1.488c-5.952,0-5.952-5.951-5.952-5.951C152.831-230.554,154.319-226.834,154.319-224.6Z" transform="translate(-146.879 230.554)" fill="#b4dd7f"/>
        </g>
        <g id="Grupo_16770" data-name="Grupo 16770" transform="translate(2.976 25.294)">
          <path id="Trazado_26205" data-name="Trazado 26205" d="M131.9-200.586V-187.2a2.975,2.975,0,0,0,2.976,2.976,2.994,2.994,0,0,0,2.105-.87,3,3,0,0,0,.87-2.106v-13.391Z" transform="translate(-131.895 200.586)" fill="#f0d0b4"/>
        </g>
        <g id="Grupo_16771" data-name="Grupo 16771" transform="translate(14.879 25.294)">
          <path id="Trazado_26206" data-name="Trazado 26206" d="M155.87-200.586V-187.2a2.975,2.975,0,0,0,2.976,2.976,2.994,2.994,0,0,0,2.105-.87,3,3,0,0,0,.87-2.106v-13.391Z" transform="translate(-155.87 200.586)" fill="#f0d0b4"/>
        </g>
        <g id="Grupo_16772" data-name="Grupo 16772" transform="translate(13.391 22.318)">
          <path id="Trazado_26207" data-name="Trazado 26207" d="M161.8-205.835v1.488a.746.746,0,0,1-.744.744h-7.44a.746.746,0,0,1-.744-.744v-1.488a.746.746,0,0,1,.744-.744h7.44A.746.746,0,0,1,161.8-205.835Z" transform="translate(-152.873 206.579)" fill="#dfb28b"/>
        </g>
        <g id="Grupo_16773" data-name="Grupo 16773" transform="translate(1.488 22.318)">
          <path id="Trazado_26208" data-name="Trazado 26208" d="M137.825-205.835v1.488a.746.746,0,0,1-.744.744h-7.44a.746.746,0,0,1-.744-.744v-1.488a.746.746,0,0,1,.744-.744h7.44A.746.746,0,0,1,137.825-205.835Z" transform="translate(-128.898 206.579)" fill="#dfb28b"/>
        </g>
        <g id="Grupo_16774" data-name="Grupo 16774" transform="translate(31.245 13.391)">
          <path id="Trazado_26209" data-name="Trazado 26209" d="M191.811-224.561a2.912,2.912,0,0,1,1.7.536,2.962,2.962,0,0,1,1.279,2.44,2.968,2.968,0,0,1-2.143,2.857,3.082,3.082,0,0,1-.833.119,2.961,2.961,0,0,1-2.44-1.28,2.911,2.911,0,0,1-.536-1.7A2.975,2.975,0,0,1,191.811-224.561Z" transform="translate(-188.835 224.561)" fill="#fcd770"/>
        </g>
        <g id="Grupo_16775" data-name="Grupo 16775" transform="translate(29.758 32.734)">
          <path id="Trazado_26210" data-name="Trazado 26210" d="M194.275-183.176a4.457,4.457,0,0,1,.491,2.038,4.467,4.467,0,0,1-4.464,4.464,4.467,4.467,0,0,1-4.463-4.464,4.442,4.442,0,0,1,1.138-2.975A4.451,4.451,0,0,1,190.3-185.6,4.482,4.482,0,0,1,194.275-183.176Z" transform="translate(-185.839 185.601)" fill="#fcd770"/>
        </g>
        <g id="Grupo_16776" data-name="Grupo 16776" transform="translate(32.733 35.709)">
          <ellipse id="Elipse_963" data-name="Elipse 963" cx="1.488" cy="1.488" rx="1.488" ry="1.488" fill="#ccd1d9"/>
        </g>
      </g>
      <g id="Grupo_16778" data-name="Grupo 16778" transform="translate(0 0)">
        <ellipse id="Elipse_964" data-name="Elipse 964" cx="0.744" cy="0.744" rx="0.744" ry="0.744" transform="translate(34.221 16.367)" fill="#00223d"/>
        <path id="Trazado_26211" data-name="Trazado 26211" d="M192.566-181.106a2.235,2.235,0,0,0-2.232,2.232,2.235,2.235,0,0,0,2.232,2.232,2.235,2.235,0,0,0,2.232-2.232A2.235,2.235,0,0,0,192.566-181.106Zm0,2.976a.745.745,0,0,1-.744-.744.745.745,0,0,1,.744-.744.745.745,0,0,1,.744.744A.745.745,0,0,1,192.566-178.13Z" transform="translate(-157.601 216.815)" fill="#00223d"/>
        <path id="Trazado_26212" data-name="Trazado 26212" d="M163.053-236.264a3.688,3.688,0,0,0-.916-2.117l3.183-3.183a2.524,2.524,0,0,0,.744-1.8,2.516,2.516,0,0,0-.466-1.458l1.21-1.21a1.475,1.475,0,0,0,1.052.436,2.67,2.67,0,0,0,2.668-2.668,1.479,1.479,0,0,0-.436-1.052l-3.284-3.284a1.48,1.48,0,0,0-1.052-.436,2.67,2.67,0,0,0-2.668,2.668,1.478,1.478,0,0,0,.436,1.052l-1.212,1.213a2.633,2.633,0,0,0-2.285-.3,2.228,2.228,0,0,0-2.146-1.653,2.235,2.235,0,0,0-2.232,2.232,2.236,2.236,0,0,0,1.358,2.053l-6,6a2.236,2.236,0,0,0-2.053-1.358c-.017,0-.033,0-.051,0a7.11,7.11,0,0,0,2.282-5.212v-.744h-.744c-3.4,0-5.481,1.171-6.7,2.638v-1.894c0-2.487-1.724-6.7-8.183-6.7h-.744v.744c0,2.316,1.4,6.7,6.7,6.7h.744v5.614a7.348,7.348,0,0,0-4.661-2.474,2.214,2.214,0,0,0,.2-.908,2.234,2.234,0,0,0-2.232-2.232,2.235,2.235,0,0,0-2.232,2.232,2.227,2.227,0,0,0,1.522,2.105,6.37,6.37,0,0,0,6.661,6.078h.744v4.464h-2.976a1.49,1.49,0,0,0-1.488,1.488v1.488a1.49,1.49,0,0,0,1.488,1.488v1.488h-4.463v-1.488a1.49,1.49,0,0,0,1.488-1.488v-1.488a1.49,1.49,0,0,0-1.488-1.488h-7.44a1.49,1.49,0,0,0-1.488,1.488v1.488a1.49,1.49,0,0,0,1.488,1.488v1.488h-.744a2.234,2.234,0,0,0-2.232,2.232v15.623h1.487V-222.53a.745.745,0,0,1,.744-.744h.744v9.671a3.724,3.724,0,0,0,3.72,3.72,3.724,3.724,0,0,0,3.72-3.72v-9.671h4.463v9.671a3.724,3.724,0,0,0,3.72,3.72,3.746,3.746,0,0,0,.751-.076c0,.026-.007.051-.007.076v1.488a1.489,1.489,0,0,0,1.488,1.488h20.83a1.489,1.489,0,0,0,1.488-1.488,2.961,2.961,0,0,0-.527-1.685l1.185-2.133a18.474,18.474,0,0,0,2.318-8.945,18.3,18.3,0,0,0-5.4-13.026ZM141.513-247.08a4.869,4.869,0,0,1-5.136-4.436c3.854.261,5.51,2.375,5.824,4.436Zm-14.135,17.855h7.44v1.488h-7.44Zm1.488,2.976h4.464v1.488h-4.464ZM133.33-213.6a2.235,2.235,0,0,1-2.232,2.232,2.235,2.235,0,0,1-2.232-2.232v-9.671h4.464Zm26.038-20.086a2.235,2.235,0,0,1-2.232-2.232,2.235,2.235,0,0,1,2.232-2.232,2.235,2.235,0,0,1,2.232,2.232A2.235,2.235,0,0,1,159.368-233.689Zm6.388-17.854,3.284,3.284a1.181,1.181,0,0,1-1.18,1.18l-3.284-3.284A1.181,1.181,0,0,1,165.755-251.543Zm-1.18,3.284,1.18,1.18-1.18,1.18-1.18-1.18Zm-2.975,1.488,2.668,2.668a1.06,1.06,0,0,1,.308.744,1.06,1.06,0,0,1-.308.744l-3.334,3.334a3.675,3.675,0,0,0-1.566-.358,3.724,3.724,0,0,0-3.72,3.72,3.674,3.674,0,0,0,.358,1.566l-1.846,1.846L150-236.664l10.107-10.107a1.09,1.09,0,0,1,1.488,0Zm-13.083,11.595.436-.436,4.155,4.156-.436.436a1.09,1.09,0,0,1-1.488,0l-2.668-2.668a1.06,1.06,0,0,1-.308-.744A1.062,1.062,0,0,1,148.517-235.177Zm9.363-13.39a.745.745,0,0,1,.744.744.745.745,0,0,1-.744.744.745.745,0,0,1-.744-.744A.745.745,0,0,1,157.88-248.567ZM149.7-238.9a.745.745,0,0,1-.744.744.745.745,0,0,1-.744-.744.745.745,0,0,1,.744-.744A.745.745,0,0,1,149.7-238.9Zm-.072-6.669a4.868,4.868,0,0,1-5.136,4.437H143.8C144.115-243.189,145.771-245.3,149.624-245.565ZM135.562-244.1a.745.745,0,0,1,.744.744.745.745,0,0,1-.744.744.745.745,0,0,1-.744-.744A.745.745,0,0,1,135.562-244.1Zm5.952,7.44a4.869,4.869,0,0,1-5.136-4.437c3.854.261,5.51,2.375,5.824,4.437Zm2.232,1.487v-4.463h.744a7.576,7.576,0,0,0,2.565-.414,2.2,2.2,0,0,0-.333,1.157,2.235,2.235,0,0,0,1.358,2.053l-.615.615a2.522,2.522,0,0,0-.744,1.8,2.522,2.522,0,0,0,.744,1.8l2.668,2.668a2.522,2.522,0,0,0,1.8.744,2.522,2.522,0,0,0,1.8-.744l3.183-3.183a3.689,3.689,0,0,0,2.46.951,3.745,3.745,0,0,0,.655-.066l.3.227a10.674,10.674,0,0,1,4.249,8.5,10.564,10.564,0,0,1-1.28,5.042,5.194,5.194,0,0,0-3.308-1.758,2.227,2.227,0,0,0-2.107-1.529H146.721v-1.487H149.7v-1.488h-2.975v-1.488a1.489,1.489,0,0,0,1.488-1.488v-1.488a1.489,1.489,0,0,0-1.488-1.488h-2.976Zm15.623,23.806a3.724,3.724,0,0,1-3.72-3.72,3.724,3.724,0,0,1,3.72-3.72,3.724,3.724,0,0,1,3.72,3.72A3.724,3.724,0,0,1,159.368-211.37Zm-3.638-7.44h-9.009V-220.3H157.88a.721.721,0,0,1,.382.122A5.2,5.2,0,0,0,155.73-218.81Zm-9.009,5.208v-3.72h7.949a5.161,5.161,0,0,0-.51,2.232,5.191,5.191,0,0,0,1.57,3.72h-9.773A3.681,3.681,0,0,0,146.721-213.6Zm-7.44-15.623h7.44v1.488h-7.44Zm1.488,2.976h4.464v1.488h-4.464Zm0,12.647v-9.671h4.464v9.671A2.235,2.235,0,0,1,143-211.37,2.235,2.235,0,0,1,140.769-213.6Zm4.464,5.208v-1.488h19.342a1.491,1.491,0,0,1,1.489,1.488Zm21.675-4.541-1.04,1.872a2.958,2.958,0,0,0-1.293-.307h-1.569a5.191,5.191,0,0,0,1.569-3.72,5.171,5.171,0,0,0-.394-1.982,12.05,12.05,0,0,0,1.882-6.469,12.173,12.173,0,0,0-4.486-9.4,3.73,3.73,0,0,0,1.2-1.492l1.3,1.3a16.827,16.827,0,0,1,4.96,11.975,16.977,16.977,0,0,1-2.131,8.223Z" transform="translate(-124.403 253.031)" fill="#00223d"/>
        <path id="Trazado_26213" data-name="Trazado 26213" d="M165.594-248.567a2.235,2.235,0,0,0,2.232-2.232,2.235,2.235,0,0,0-2.232-2.232,2.235,2.235,0,0,0-2.232,2.232A2.235,2.235,0,0,0,165.594-248.567Zm0-2.976a.745.745,0,0,1,.744.744.745.745,0,0,1-.744.744.745.745,0,0,1-.744-.744A.745.745,0,0,1,165.594-251.543Z" transform="translate(-144.02 253.031)" fill="#00223d"/>
        <path id="Trazado_26214" data-name="Trazado 26214" d="M141.619-215.6a2.235,2.235,0,0,0,2.232-2.232,2.235,2.235,0,0,0-2.232-2.232,2.235,2.235,0,0,0-2.232,2.232A2.235,2.235,0,0,0,141.619-215.6Zm0-2.976a.745.745,0,0,1,.744.744.745.745,0,0,1-.744.744.745.745,0,0,1-.744-.744A.745.745,0,0,1,141.619-218.578Z" transform="translate(-131.948 236.432)" fill="#00223d"/>
        <path id="Trazado_26215" data-name="Trazado 26215" d="M127.378-244.083a2.979,2.979,0,0,0,2.976-2.975,2.979,2.979,0,0,0-2.976-2.976,2.979,2.979,0,0,0-2.975,2.976A2.978,2.978,0,0,0,127.378-244.083Zm0-4.463a1.489,1.489,0,0,1,1.488,1.488,1.489,1.489,0,0,1-1.488,1.487,1.49,1.49,0,0,1-1.488-1.487A1.49,1.49,0,0,1,127.378-248.546Z" transform="translate(-124.403 251.522)" fill="#00223d"/>
        <path id="Trazado_26216" data-name="Trazado 26216" d="M127.4-226.08a2.979,2.979,0,0,0,2.976,2.975,2.979,2.979,0,0,0,2.976-2.975,2.979,2.979,0,0,0-2.976-2.976A2.979,2.979,0,0,0,127.4-226.08Zm4.464,0a1.489,1.489,0,0,1-1.488,1.488,1.489,1.489,0,0,1-1.488-1.488,1.489,1.489,0,0,1,1.488-1.488A1.489,1.489,0,0,1,131.863-226.08Z" transform="translate(-125.912 240.959)" fill="#00223d"/>
      </g>
    </g>
  </g>
</svg>
