<svg xmlns="http://www.w3.org/2000/svg" width="124" height="124" viewBox="0 0 124 124">
  <g id="Grupo_1011023" data-name="Grupo 1011023" transform="translate(4706 8006)">
    <circle id="Elipse_5717" data-name="Elipse 5717" cx="62" cy="62" r="62" transform="translate(-4706 -8006)" fill="#fff" opacity="0.75"/>
    <g id="Grupo_17057" data-name="Grupo 17057" transform="translate(-5720.525 -7595.948)">
      <g id="Grupo_17055" data-name="Grupo 17055" transform="translate(1027.515 -394.061)">
        <path id="Trazado_26865" data-name="Trazado 26865" d="M1103.533-353.9v-18.253a5.97,5.97,0,0,1,5.971-5.971,5.97,5.97,0,0,1,5.971,5.971v27.035a23.884,23.884,0,0,1-13.2,21.361l-10.682,5.34v11.941h-21.1v-25.983a9.83,9.83,0,0,1,8.848-9.782c.023-.006,9.122-1.4,13.507-5.784l4.471-4.468a5.966,5.966,0,0,1,6.211-1.408Z" transform="translate(-1017.555 398.031)" fill="#fce8d0"/>
        <path id="Trazado_26866" data-name="Trazado 26866" d="M1084.7-394.422c10.9,0,14.7,10.041,14.7,15.922,0,11.941-9.816,18.726-27.23,33.834-17.415-15.107-27.231-21.893-27.231-33.834,0-5.881,3.8-15.922,14.7-15.922,6.693,0,10.4,4.886,12.529,8.775,2.125-3.889,5.835-8.775,12.529-8.775Z" transform="translate(-1023.214 394.422)" fill="#ff7b79"/>
        <path id="Trazado_26867" data-name="Trazado 26867" d="M1039.1-353.9a5.969,5.969,0,0,1,6.212,1.408l4.469,4.468c4.3,4.3,13.488,5.778,13.508,5.784a9.831,9.831,0,0,1,8.849,9.782v25.983h-21.1v-11.941l-10.682-5.34a23.883,23.883,0,0,1-13.2-21.361v-27.035a5.971,5.971,0,0,1,5.97-5.971,5.97,5.97,0,0,1,5.971,5.971Z" transform="translate(-1027.154 398.031)" fill="#fce8d0"/>
      </g>
      <g id="Grupo_17056" data-name="Grupo 17056" transform="translate(1025.525 -396.052)">
        <path id="Trazado_26868" data-name="Trazado 26868" d="M1101.756-378.139c0-6.926-4.532-17.913-16.692-17.913-5,0-9.2,2.356-12.528,7.013-3.33-4.656-7.533-7.013-12.529-7.013-12.161,0-16.693,10.987-16.693,17.913,0,11.94,9.319,19.408,22.05,30.3,1.87,1.6,3.8,3.253,5.867,5.042a1.983,1.983,0,0,0,1.3.486,1.979,1.979,0,0,0,1.3-.486c2.063-1.789,4-3.443,5.868-5.042,13.328-11.4,22.049-18.608,22.049-30.3Zm-29.22,31.2c-1.59-1.372-3.108-2.669-4.584-3.932-13.32-11.389-20.656-17.663-20.656-27.269,0-6.517,4.263-13.932,12.712-13.932,4.408,0,7.936,2.532,10.782,7.739a1.99,1.99,0,0,0,1.747,1.036,1.989,1.989,0,0,0,1.745-1.036c2.847-5.207,6.374-7.739,10.783-7.739,8.33,0,12.711,7.306,12.711,13.932,0,9.607-7.336,15.88-20.655,27.269-1.477,1.263-2.994,2.56-4.584,3.932Z" transform="translate(-1021.585 396.052)" fill="#00223d"/>
        <path id="Trazado_26869" data-name="Trazado 26869" d="M1039.826-321.621l9.581,4.791v10.711a1.99,1.99,0,0,0,1.991,1.99h21.1a1.989,1.989,0,0,0,1.99-1.99V-332.1a11.779,11.779,0,0,0-10.624-11.76l-.163-.017c-3.5-.352-9.7-2.747-12.152-5.195l-4.469-4.468a7.909,7.909,0,0,0-5.628-2.332V-371.8a7.971,7.971,0,0,0-7.962-7.962,7.97,7.97,0,0,0-7.96,7.962v27.035a25.872,25.872,0,0,0,14.3,23.141Zm-10.32-50.176a3.985,3.985,0,0,1,3.979-3.981,3.985,3.985,0,0,1,3.981,3.981v16.988a7.977,7.977,0,0,0-3.981,6.894,7.91,7.91,0,0,0,2.333,5.629l10.192,10.194a1.99,1.99,0,0,0,2.814,0,1.991,1.991,0,0,0,0-2.815L1038.633-345.1a3.954,3.954,0,0,1-1.167-2.814,3.986,3.986,0,0,1,2.653-3.754h0a3.974,3.974,0,0,1,4.14.942l4.469,4.467c4.615,4.615,14.7,6.352,14.717,6.357a7.815,7.815,0,0,1,7.056,7.8v23.992h-17.115v-9.95a1.991,1.991,0,0,0-1.1-1.781l-10.681-5.339a21.776,21.776,0,0,1-12.1-19.582Z" transform="translate(-1025.525 399.661)" fill="#00223d"/>
        <circle id="Elipse_999" data-name="Elipse 999" cx="1.99" cy="1.99" r="1.99" transform="translate(89.362 71.251)" fill="#00223d"/>
        <path id="Trazado_26870" data-name="Trazado 26870" d="M1109.865-379.758a7.97,7.97,0,0,0-7.96,7.962v15.922a7.907,7.907,0,0,0-5.628,2.332l-4.471,4.468c-2.448,2.448-8.649,4.843-12.167,5.2l-.132.015a11.784,11.784,0,0,0-10.64,11.762v25.983a1.99,1.99,0,0,0,1.991,1.99h21.1a1.989,1.989,0,0,0,1.99-1.99V-316.83l6.514-3.256a1.991,1.991,0,0,0,.89-2.67,1.99,1.99,0,0,0-2.67-.89l-7.615,3.806a1.991,1.991,0,0,0-1.1,1.781v9.95h-17.115V-332.1a7.819,7.819,0,0,1,7.072-7.8l.132-.015c4.317-.432,11.465-3.236,14.568-6.339l4.471-4.469a3.979,3.979,0,0,1,4.138-.941h0a3.985,3.985,0,0,1,2.653,3.754,3.954,3.954,0,0,1-1.166,2.814l-10.192,10.194a1.99,1.99,0,0,0,0,2.814,1.99,1.99,0,0,0,2.814,0l10.192-10.194a7.909,7.909,0,0,0,2.332-5.629,7.975,7.975,0,0,0-3.981-6.894V-371.8a3.985,3.985,0,0,1,3.981-3.981,3.985,3.985,0,0,1,3.981,3.981v27.035a21.945,21.945,0,0,1-2.658,10.455,1.991,1.991,0,0,0,.8,2.7,1.991,1.991,0,0,0,2.7-.8,25.948,25.948,0,0,0,3.141-12.355V-371.8a7.971,7.971,0,0,0-7.962-7.962Z" transform="translate(-1015.926 399.661)" fill="#00223d"/>
      </g>
    </g>
  </g>
</svg>
