<svg xmlns="http://www.w3.org/2000/svg" width="124" height="124" viewBox="0 0 124 124">
  <g id="Grupo_1011024" data-name="Grupo 1011024" transform="translate(4706 7745)">
    <circle id="Elipse_5718" data-name="Elipse 5718" cx="62" cy="62" r="62" transform="translate(-4706 -7745)" fill="#fff" opacity="0.75"/>
    <g id="Grupo_17050" data-name="Grupo 17050" transform="translate(-6049.203 -8528.109)">
      <g id="Grupo_17048" data-name="Grupo 17048" transform="translate(1363.668 796.574)">
        <g id="Grupo_17047" data-name="Grupo 17047" transform="translate(0 8.792)">
          <path id="Trazado_26826" data-name="Trazado 26826" d="M1441.725,804.752a3.015,3.015,0,0,1,3.015,3.015v82.471a3.015,3.015,0,0,1-3.015,3.015H1366.6a3.015,3.015,0,0,1-3.016-3.015V807.767a3.015,3.015,0,0,1,3.016-3.015Z" transform="translate(-1363.58 -804.752)" fill="#b5adb6"/>
          <path id="Trazado_26827" data-name="Trazado 26827" d="M1381.532,884.421a3.017,3.017,0,0,1-3.016-3.015V804.752H1366.6a3.015,3.015,0,0,0-3.016,3.015v82.471a3.015,3.015,0,0,0,3.016,3.015h75.129a3.015,3.015,0,0,0,3.015-3.015v-5.818Z" transform="translate(-1363.58 -804.752)" fill="#a79ba7"/>
          <path id="Trazado_26828" data-name="Trazado 26828" d="M1378.531,804.752v9.033a7.518,7.518,0,0,0,7.51,7.51h34.335a7.518,7.518,0,0,0,7.51-7.509v-9.034Z" transform="translate(-1362.629 -804.752)" fill="#a79ba7"/>
          <path id="Trazado_26829" data-name="Trazado 26829" d="M1438.53,811.82v73.665a1.559,1.559,0,0,1-1.559,1.559h-66.323a1.559,1.559,0,0,1-1.559-1.559V811.82a1.559,1.559,0,0,1,1.559-1.559h66.323a1.559,1.559,0,0,1,1.559,1.559Z" transform="translate(-1363.229 -804.401)" fill="#efedef"/>
          <path id="Trazado_26830" data-name="Trazado 26830" d="M1378.531,810.261v3.174a7.518,7.518,0,0,0,7.51,7.51h34.335a7.518,7.518,0,0,0,7.51-7.509v-3.175Z" transform="translate(-1362.629 -804.401)" fill="#e5e1e5"/>
          <path id="Trazado_26831" data-name="Trazado 26831" d="M1384.353,884.07a6.187,6.187,0,0,1-6.187-6.187V810.261h-7.518a1.559,1.559,0,0,0-1.559,1.559v73.665a1.559,1.559,0,0,0,1.559,1.559h66.323a1.559,1.559,0,0,0,1.559-1.559V884.07Z" transform="translate(-1363.229 -804.401)" fill="#e5e1e5"/>
          <circle id="Elipse_994" data-name="Elipse 994" cx="4.968" cy="4.968" r="4.968" transform="translate(17.303 66.553)" fill="#fd8087"/>
          <circle id="Elipse_995" data-name="Elipse 995" cx="4.417" cy="4.417" r="4.417" transform="translate(14.325 21.782)" fill="#86e8d0"/>
        </g>
        <path id="Trazado_26832" data-name="Trazado 26832" d="M1420.143,800.052h-10.351a1.366,1.366,0,0,1-1.134-.6,6.738,6.738,0,0,0-11.17,0,1.363,1.363,0,0,1-1.133.6h-10.547a3.6,3.6,0,0,0-3.6,3.6v10.654a3.6,3.6,0,0,0,3.6,3.6h34.336a3.6,3.6,0,0,0,3.6-3.6V803.657a3.6,3.6,0,0,0-3.6-3.6Z" transform="translate(-1362.395 -796.486)" fill="#99e6fc"/>
        <path id="Trazado_26833" data-name="Trazado 26833" d="M1392.467,813.743a4.554,4.554,0,0,1-4.553-4.553v-9.35h-2.106a3.6,3.6,0,0,0-3.6,3.6V814.1a3.6,3.6,0,0,0,3.6,3.6h34.336a3.6,3.6,0,0,0,3.6-3.6v-.356h-31.28Z" transform="translate(-1362.395 -796.273)" fill="#62dbfb"/>
        <circle id="Elipse_996" data-name="Elipse 996" cx="3.612" cy="3.612" r="3.612" transform="translate(36.968 8.155)" fill="#f9f7f8"/>
        <circle id="Elipse_997" data-name="Elipse 997" cx="4.06" cy="4.06" r="4.06" transform="translate(54.726 64.58)" fill="#86e8d0"/>
      </g>
      <g id="Grupo_17049" data-name="Grupo 17049" transform="translate(1362.203 795.109)">
        <path id="Trazado_26834" data-name="Trazado 26834" d="M1385.9,819.468h3.3a1.465,1.465,0,0,0,0-2.93h-3.3a2.142,2.142,0,0,1-2.14-2.139V803.745a2.142,2.142,0,0,1,2.14-2.139h10.547a2.829,2.829,0,0,0,2.346-1.242,5.273,5.273,0,0,1,8.744,0,2.827,2.827,0,0,0,2.346,1.242h10.352a2.141,2.141,0,0,1,2.139,2.139V814.4a2.14,2.14,0,0,1-2.139,2.138h-24.793a1.465,1.465,0,0,0,0,2.93h24.792a5.075,5.075,0,0,0,5.069-5.068V803.745a5.075,5.075,0,0,0-5.069-5.069h-10.3a8.2,8.2,0,0,0-13.534,0h-10.5a5.075,5.075,0,0,0-5.069,5.069V814.4a5.075,5.075,0,0,0,5.069,5.069Z" transform="translate(-1361.018 -795.109)" fill="#00223d"/>
        <path id="Trazado_26835" data-name="Trazado 26835" d="M1407.114,807.853a5.077,5.077,0,1,0-5.077,5.078A5.084,5.084,0,0,0,1407.114,807.853Zm-7.224,0a2.147,2.147,0,1,1,2.148,2.147,2.149,2.149,0,0,1-2.148-2.147Z" transform="translate(-1359.992 -794.621)" fill="#00223d"/>
        <path id="Trazado_26836" data-name="Trazado 26836" d="M1441.813,803.375h-10.933a1.465,1.465,0,0,0,0,2.929h10.933a1.552,1.552,0,0,1,1.551,1.551v82.471a1.553,1.553,0,0,1-1.551,1.551h-75.129a1.553,1.553,0,0,1-1.551-1.551V807.855a1.552,1.552,0,0,1,1.551-1.551h10.933a1.465,1.465,0,1,0,0-2.929h-10.933a4.485,4.485,0,0,0-4.48,4.48v82.471a4.486,4.486,0,0,0,4.48,4.48h75.129a4.485,4.485,0,0,0,4.48-4.48V807.855a4.484,4.484,0,0,0-4.48-4.48Z" transform="translate(-1362.203 -794.583)" fill="#00223d"/>
        <path id="Trazado_26837" data-name="Trazado 26837" d="M1424.284,885.667a1.465,1.465,0,1,0,0,2.929h10.828a1.465,1.465,0,0,0,1.466-1.465V810.349a1.465,1.465,0,0,0-1.466-1.465h-8.089a1.465,1.465,0,1,0,0,2.929h6.624v73.854Z" transform="translate(-1358.346 -794.233)" fill="#00223d"/>
        <path id="Trazado_26838" data-name="Trazado 26838" d="M1377.266,808.884h-8.089a1.464,1.464,0,0,0-1.464,1.465v76.783a1.464,1.464,0,0,0,1.464,1.465h52.371a1.465,1.465,0,0,0,0-2.929h-50.906V811.813h6.624a1.465,1.465,0,1,0,0-2.929Z" transform="translate(-1361.853 -794.233)" fill="#00223d"/>
        <path id="Trazado_26839" data-name="Trazado 26839" d="M1402.871,831.433a1.465,1.465,0,0,0,1.539,2.493c.721-.446,1.453-.868,2.172-1.254l2.352-1.261-.292,1.239a1.465,1.465,0,0,0,1.09,1.761,1.413,1.413,0,0,0,.337.039,1.465,1.465,0,0,0,1.424-1.128l1.124-4.769a1.466,1.466,0,0,0-1.09-1.762l-4.372-1.03a1.465,1.465,0,1,0-.672,2.852l1.022.24-2.308,1.238c-.772.414-1.554.866-2.326,1.342Z" transform="translate(-1359.66 -793.161)" fill="#00223d"/>
        <path id="Trazado_26840" data-name="Trazado 26840" d="M1391.666,843.97a1.465,1.465,0,0,0-2.018.465,44.229,44.229,0,0,0-3.147,6.018,1.465,1.465,0,1,0,2.693,1.153,41.343,41.343,0,0,1,2.938-5.617,1.465,1.465,0,0,0-.466-2.019Z" transform="translate(-1360.665 -792.014)" fill="#00223d"/>
        <path id="Trazado_26841" data-name="Trazado 26841" d="M1394.135,842.291a1.462,1.462,0,0,0,1.118-.518,41.28,41.28,0,0,1,4.921-4.9,1.465,1.465,0,0,0-1.884-2.244,44.176,44.176,0,0,0-5.271,5.246,1.465,1.465,0,0,0,1.116,2.412Z" transform="translate(-1360.264 -792.616)" fill="#00223d"/>
        <path id="Trazado_26842" data-name="Trazado 26842" d="M1421.264,821.262l-2.148,2.177-2.177-2.149a1.465,1.465,0,0,0-2.058,2.086l2.177,2.148-2.149,2.177a1.465,1.465,0,0,0,2.085,2.058l2.15-2.177,2.176,2.148a1.465,1.465,0,0,0,2.058-2.086L1421.2,825.5l2.149-2.177a1.465,1.465,0,0,0-2.085-2.058Z" transform="translate(-1358.879 -793.473)" fill="#00223d"/>
        <path id="Trazado_26843" data-name="Trazado 26843" d="M1402.227,848.454l1.178,1.164-1.164,1.179a1.465,1.465,0,0,0,2.086,2.058l1.163-1.179,1.179,1.164a1.465,1.465,0,0,0,2.058-2.086l-1.18-1.164,1.164-1.178a1.464,1.464,0,1,0-2.085-2.057l-1.164,1.178-1.179-1.164a1.465,1.465,0,0,0-2.058,2.085Z" transform="translate(-1359.684 -791.876)" fill="#00223d"/>
        <path id="Trazado_26844" data-name="Trazado 26844" d="M1384.9,869.593a3.513,3.513,0,0,1,3.432,2.8,1.465,1.465,0,1,0,2.871-.586,6.454,6.454,0,0,0-4.833-4.969,41.247,41.247,0,0,1,1.384-10.31,1.465,1.465,0,0,0-2.83-.755,44.134,44.134,0,0,0-1.486,11.062,6.432,6.432,0,0,0,1.462,12.7,6.378,6.378,0,0,0,2.593-.546,1.465,1.465,0,1,0-1.182-2.68,3.5,3.5,0,1,1-1.411-6.71Z" transform="translate(-1361.168 -791.319)" fill="#00223d"/>
        <path id="Trazado_26845" data-name="Trazado 26845" d="M1381.552,823.854a5.881,5.881,0,1,0,5.882,5.882A5.887,5.887,0,0,0,1381.552,823.854Zm0,8.833a2.952,2.952,0,1,1,2.953-2.952A2.955,2.955,0,0,1,1381.552,832.687Z" transform="translate(-1361.346 -793.28)" fill="#00223d"/>
        <path id="Trazado_26846" data-name="Trazado 26846" d="M1419.18,855.826a5.525,5.525,0,0,0-1.386,10.873c.056,1.012.089,1.991.072,2.486a1.467,1.467,0,0,0,.278,1.686,1.5,1.5,0,0,0,1.692.312c.969-.444,1.1-1.275.9-4.531a5.524,5.524,0,0,0-1.554-10.826Zm0,8.12a2.6,2.6,0,1,1,2.6-2.6A2.6,2.6,0,0,1,1419.18,863.946Z" transform="translate(-1358.929 -791.246)" fill="#00223d"/>
      </g>
    </g>
  </g>
</svg>
