<svg xmlns="http://www.w3.org/2000/svg" width="124" height="124" viewBox="0 0 124 124">
  <g id="Grupo_1011021" data-name="Grupo 1011021" transform="translate(-1173 -3427.893)">
    <circle id="Elipse_5715" data-name="Elipse 5715" cx="62" cy="62" r="62" transform="translate(1173 3427.893)" fill="#fff" opacity="0.75"/>
    <g id="Grupo_16649" data-name="Grupo 16649" transform="translate(345.049 2754.391)">
      <path id="Trazado_25966" data-name="Trazado 25966" d="M880.762,753.9a14.35,14.35,0,0,0-7.005-4.01l-9.931-2.38,0,.006,0-.006v-6.062H851.7v6.081h0l-9.9,2.367A14.387,14.387,0,0,0,830.75,763.9V780.12H852.7Z" transform="translate(-0.385 -7.556)" fill="#78d2fa"/>
      <path id="Trazado_25967" data-name="Trazado 25967" d="M867.4,741.453v6.226L861.1,762.753,854.816,747.7v-6.247Z" transform="translate(-3.694 -7.556)" fill="#ffb487"/>
      <path id="Trazado_25968" data-name="Trazado 25968" d="M873.441,717.236v8.4a13.516,13.516,0,0,1-13.517,13.516h0a13.517,13.517,0,0,1-13.517-13.516v-8.4Z" transform="translate(-2.538 -4.226)" fill="#ffcdac"/>
      <path id="Trazado_25969" data-name="Trazado 25969" d="M873.441,717.642v-3.254a13.516,13.516,0,0,0-13.517-13.516h0a13.517,13.517,0,0,0-13.517,13.516v3.254h9.318a32.23,32.23,0,0,0,16.565-4.583h0" transform="translate(-2.538 -1.976)" fill="#878791"/>
      <path id="Trazado_25970" data-name="Trazado 25970" d="M910.447,753.9a14.348,14.348,0,0,1,7.006-4.01l9.93-2.38,0,.006,0-.006v-6.062h12.127v6.081h0l9.9,2.367A14.387,14.387,0,0,1,960.459,763.9V780.12H938.5Z" transform="translate(-11.344 -7.556)" fill="#e9f857"/>
      <path id="Trazado_25971" data-name="Trazado 25971" d="M885.128,755.615,871.3,758.929a20.042,20.042,0,0,0-15.371,19.49v13.3H931.2V778.43a20.041,20.041,0,0,0-15.385-19.493l-13.8-3.3Z" transform="translate(-3.847 -9.504)" fill="#ff5a5a"/>
      <g id="Grupo_16648" data-name="Grupo 16648" transform="translate(880.731 733.897)">
        <path id="Trazado_25972" data-name="Trazado 25972" d="M942.361,741.453V747.7l-6.286,15.053-6.293-15.074v-6.226Z" transform="translate(-894.734 -741.453)" fill="#ffb487"/>
        <path id="Trazado_25973" data-name="Trazado 25973" d="M898.157,773.915l9.005-20.445a7.433,7.433,0,0,1-1.049-3.811v-1.966H890.192v1.966a7.431,7.431,0,0,1-1.046,3.806Z" transform="translate(-889.146 -742.311)" fill="#ffb487"/>
      </g>
      <path id="Trazado_25974" data-name="Trazado 25974" d="M915.417,710.594v12.99A18.827,18.827,0,0,1,896.59,742.41h0a18.827,18.827,0,0,1-18.826-18.826v-12.99Z" transform="translate(-6.85 -3.313)" fill="#ffcdac"/>
      <path id="Trazado_25975" data-name="Trazado 25975" d="M896.59,689.3h0a18.827,18.827,0,0,0-18.827,18.826v4.531h9.205a20.684,20.684,0,0,0,15.853-7.4h0l12.594,7.4v-4.531A18.826,18.826,0,0,0,896.59,689.3Z" transform="translate(-6.85 -0.385)" fill="#f9a825"/>
      <path id="Trazado_25976" data-name="Trazado 25976" d="M921.432,717.236v8.4a13.517,13.517,0,0,0,13.517,13.516h0a13.517,13.517,0,0,0,13.517-13.516v-8.4Z" transform="translate(-12.855 -4.226)" fill="#ffcdac"/>
      <path id="Trazado_25977" data-name="Trazado 25977" d="M921.432,717.642v-3.254a13.517,13.517,0,0,1,13.517-13.516h0a13.517,13.517,0,0,1,13.517,13.516v3.254h-9.318a32.229,32.229,0,0,1-16.565-4.583h0" transform="translate(-12.855 -1.976)" fill="#878791"/>
      <path id="Trazado_25978" data-name="Trazado 25978" d="M899.134,794.68a2.415,2.415,0,1,0,1.706.707A2.435,2.435,0,0,0,899.134,794.68Z" transform="translate(-9.456 -14.876)" fill="#00223d"/>
      <path id="Trazado_25979" data-name="Trazado 25979" d="M938.631,740l-8.051-1.923V734.88a15.932,15.932,0,0,0,7.446-13.473v-8.995a15.921,15.921,0,0,0-27.85-10.553,21.278,21.278,0,0,0-20.41-15.357h0a21.279,21.279,0,0,0-20.423,15.4,15.92,15.92,0,0,0-27.886,10.511v8.995A15.932,15.932,0,0,0,848.9,734.88v3.194L840.85,740a16.747,16.747,0,0,0-12.9,16.342v16.225a2.414,2.414,0,0,0,2.414,2.413h19.3v7.241a2.414,2.414,0,0,0,2.413,2.413h26.479a2.414,2.414,0,0,0,0-4.827H867.782V769.182a2.413,2.413,0,1,0-4.826,0V779.8h-8.463v-10.89a17.572,17.572,0,0,1,13.52-17.142l11.871-2.845,7.638,17.377a2.411,2.411,0,0,0,2.209,1.443h0a2.414,2.414,0,0,0,2.21-1.442l7.63-17.352,11.837,2.828a17.569,17.569,0,0,1,13.532,17.145v2.693a2.424,2.424,0,0,0,0,1.888v6.3h-8.413V769.182a2.414,2.414,0,1,0-4.827,0V779.8H899.877a2.414,2.414,0,0,0,0,4.827h27.476a2.414,2.414,0,0,0,2.413-2.413v-7.241h19.349a2.414,2.414,0,0,0,2.414-2.413V756.339A16.748,16.748,0,0,0,938.631,740Zm-12.874.111-3.685,8.824-3.635-8.708a2.254,2.254,0,0,0,.017-.264c0-.022,0-.045,0-.067v-2.982a15.81,15.81,0,0,0,7.3,0v3.07C925.752,740.022,925.755,740.065,925.757,740.108Zm-46.89,1.939a16.776,16.776,0,0,0-4.933-2.056l-8.08-1.935V734.89a16.048,16.048,0,0,0,4.989-4.974,21.4,21.4,0,0,0,8.024,8.58Zm-5.516-21.776v-5.583h6.791a23.035,23.035,0,0,0,16.313-6.744l9.708,5.7v7.191a16.411,16.411,0,0,1-32.812-.567Zm27.234,18.27a21.39,21.39,0,0,0,8.079-8.583,16.057,16.057,0,0,0,4.961,4.932v3.165l-8.08,1.935a16.766,16.766,0,0,0-4.96,2.074v-3.524Zm21.509-6.031a11.115,11.115,0,0,1-11.1-11.1v-.393c.008-.247.014-6.49.014-6.49a34.648,34.648,0,0,0,15.288,3.557h6.9v3.328A11.117,11.117,0,0,1,922.094,732.51Zm0-31.2a11.116,11.116,0,0,1,11.1,11.1v.84h-6.9a29.824,29.824,0,0,1-14.855-3.964A11.125,11.125,0,0,1,922.094,701.309Zm-48.743,6.433a16.413,16.413,0,0,1,32.826,0v.315l-8.958-5.263a2.413,2.413,0,0,0-3.072.53,18.229,18.229,0,0,1-14,6.536h-6.792Zm-27.068,4.669a11.1,11.1,0,0,1,21.759-3.124,29.822,29.822,0,0,1-14.856,3.965h-6.9v-.841Zm0,5.667h6.9a34.649,34.649,0,0,0,15.3-3.563v6.891a11.1,11.1,0,0,1-22.207,0Zm11.1,19.258a15.9,15.9,0,0,0,3.642-.425v2.914c0,.046,0,.091,0,.136a2.209,2.209,0,0,0,.015.227l-3.652,8.744-3.666-8.78c0-.058.007-.116.007-.174v-3.07A15.883,15.883,0,0,0,857.386,737.337Zm-7.721,31.577v1.235h-7.232V759.426a2.414,2.414,0,0,0-4.827,0V770.15h-4.827V756.339a11.937,11.937,0,0,1,9.193-11.647l7.65-1.828,4.994,11.961A22.406,22.406,0,0,0,849.665,768.915Zm17.222-21.836a22.655,22.655,0,0,0-4.08,1.4l2.351-5.629,7.652,1.834a11.961,11.961,0,0,1,1.731.559Zm22.844,12.259L883.695,745.6v-4.978a21.259,21.259,0,0,0,12.064.022v4.983ZM904.9,745.263a11.955,11.955,0,0,1,1.776-.577l7.633-1.829,2.361,5.654a22.726,22.726,0,0,0-4.136-1.425ZM946.7,770.15h-4.827V759.426a2.414,2.414,0,0,0-4.827,0V770.15h-7.281v-1.223a22.408,22.408,0,0,0-4.935-14.073l5.008-11.994,7.669,1.832a11.937,11.937,0,0,1,9.193,11.647Z" fill="#00223d"/>
    </g>
  </g>
</svg>
