<svg xmlns="http://www.w3.org/2000/svg" xmlns:xlink="http://www.w3.org/1999/xlink" width="172" height="172" viewBox="0 0 172 172">
  <defs>
    <filter id="Elipse_5720" x="0" y="0" width="172" height="172" filterUnits="userSpaceOnUse">
      <feOffset dy="3" input="SourceAlpha"/>
      <feGaussianBlur stdDeviation="3" result="blur"/>
      <feFlood flood-opacity="0.161"/>
      <feComposite operator="in" in2="blur"/>
      <feComposite in="SourceGraphic"/>
    </filter>
  </defs>
  <g id="Grupo_1008812" data-name="Grupo 1008812" transform="translate(-364 -7148.893)">
    <g transform="matrix(1, 0, 0, 1, 364, 7148.89)" filter="url(#Elipse_5720)">
      <circle id="Elipse_5720-2" data-name="Elipse 5720" cx="77" cy="77" r="77" transform="translate(9 6)" fill="#fff"/>
    </g>
    <g id="Grupo_16875" data-name="Grupo 16875" transform="translate(-2284.995 7441.884)">
      <path id="Trazado_26470" data-name="Trazado 26470" d="M2727.036-153.075l2.152,3.746a2.028,2.028,0,0,0,1.753,1.035h4.264a2.026,2.026,0,0,0,1.753-1.035l2.152-3.746Z" transform="translate(-3.795 -15.146)" fill="#60bae2"/>
      <path id="Trazado_26471" data-name="Trazado 26471" d="M2721.766-169.353v10.28a3.639,3.639,0,0,0,3.625,3.625h13.945a3.639,3.639,0,0,0,3.626-3.625v-10.28Z" transform="translate(-3.028 -12.774)" fill="#e9e9ea"/>
      <path id="Trazado_26472" data-name="Trazado 26472" d="M2721.766-164.035h21.157v4.861h-21.157Z" transform="translate(-3.028 -13.549)" fill="#d3d3dd"/>
      <path id="Trazado_26473" data-name="Trazado 26473" d="M2731.1-212.772a2.272,2.272,0,0,1-3.227.04,2.273,2.273,0,0,1-.04-3.227l.04-.04,19.244-19.244a27.291,27.291,0,0,0-38.489,3.187,27.353,27.353,0,0,0,1.992,37.413,16.009,16.009,0,0,1,5.06,11.674v.12a2.985,2.985,0,0,0,2.989,2.989h21.555a2.985,2.985,0,0,0,2.989-2.989,16.468,16.468,0,0,1,5.1-11.794,27.293,27.293,0,0,0,1.992-37.333Z" transform="translate(-0.172 -2.226)" fill="#fcd770"/>
      <path id="Trazado_26474" data-name="Trazado 26474" d="M2732.279-211.592a2.272,2.272,0,0,1-3.227.04,2.273,2.273,0,0,1-.041-3.227l.041-.04,14.344-14.344a20.4,20.4,0,0,0-28.687,3.227,20.4,20.4,0,0,0,3.227,28.687,20.4,20.4,0,0,0,28.687-3.227,20.423,20.423,0,0,0,0-25.46Z" transform="translate(-1.348 -3.406)" fill="#f75c64"/>
      <path id="Trazado_26475" data-name="Trazado 26475" d="M2733.453-210.41a2.272,2.272,0,0,1-3.227.04,2.273,2.273,0,0,1-.04-3.227l.04-.04,9.4-9.4a13.527,13.527,0,0,0-18.846,3.227,13.527,13.527,0,0,0,3.227,18.846,13.528,13.528,0,0,0,18.846-3.226,13.535,13.535,0,0,0,0-15.619Z" transform="translate(-2.522 -4.587)" fill="#e9e9ea"/>
      <path id="Trazado_26476" data-name="Trazado 26476" d="M2734.636-209.233a2.272,2.272,0,0,1-3.227.04,2.273,2.273,0,0,1-.041-3.227l.041-.04,4.383-4.383a6.621,6.621,0,0,0-8.766,3.227,6.617,6.617,0,0,0,3.228,8.765,6.618,6.618,0,0,0,8.765-3.227,6.715,6.715,0,0,0,0-5.539Z" transform="translate(-3.706 -5.764)" fill="#f75c64"/>
      <path id="Trazado_26477" data-name="Trazado 26477" d="M2756.138-238.741l10.837-10.837-2.351-5.658a1.038,1.038,0,0,0-1.355-.558.613.613,0,0,0-.318.238l-7.171,7.172a5.33,5.33,0,0,0-1.156,5.857Z" transform="translate(-7.756 -0.162)" fill="#fcd770"/>
      <path id="Trazado_26478" data-name="Trazado 26478" d="M2776.708-242.414l-5.618-2.312-10.8,10.8,3.785,1.554a5.416,5.416,0,0,0,5.857-1.155l7.171-7.172a1.057,1.057,0,0,0,0-1.474A3.52,3.52,0,0,1,2776.708-242.414Z" transform="translate(-8.643 -1.788)" fill="#fcd770"/>
      <path id="Trazado_26479" data-name="Trazado 26479" d="M2763.974-245.7l-2.948-7.092-3.627,3.625,2.948,7.092Z" transform="translate(-8.221 -0.612)" fill="#ffae2c"/>
      <path id="Trazado_26480" data-name="Trazado 26480" d="M2768.255-240.715l-3.626,3.627,7.093,2.947,3.625-3.625Z" transform="translate(-9.275 -2.372)" fill="#ffae2c"/>
      <path id="Trazado_26481" data-name="Trazado 26481" d="M2732.148-214.041a2.309,2.309,0,0,1,0-3.227l32.472-32.472a2.273,2.273,0,0,1,3.227-.039,2.273,2.273,0,0,1,.041,3.227l-.041.04-32.472,32.472A2.307,2.307,0,0,1,2732.148-214.041Z" transform="translate(-4.445 -0.956)" fill="#c1814c"/>
      <g id="Grupo_16874" data-name="Grupo 16874" transform="translate(2700.995 -256.992)">
        <path id="Trazado_26482" data-name="Trazado 26482" d="M2739.12-154.621h-13.945a4.626,4.626,0,0,1-4.623-4.621v-10.28a.987.987,0,0,1,1-1h21.157a.987.987,0,0,1,1,1v10.28A4.566,4.566,0,0,1,2739.12-154.621Zm-16.535-13.864v9.283a2.653,2.653,0,0,0,2.63,2.629h13.945a2.653,2.653,0,0,0,2.629-2.629v-9.283Z" transform="translate(-2703.845 244.388)" fill="#00223d"/>
        <path id="Trazado_26483" data-name="Trazado 26483" d="M2735.077-147.507h-4.263a3.113,3.113,0,0,1-2.629-1.515l-2.152-3.744a.983.983,0,0,1,.359-1.355,1.092,1.092,0,0,1,.518-.12h12.112a.986.986,0,0,1,1,1,1.231,1.231,0,0,1-.12.519l-2.151,3.746A3.3,3.3,0,0,1,2735.077-147.507Zm-6.455-4.742,1.276,2.231a1.052,1.052,0,0,0,.917.519h4.263a1.1,1.1,0,0,0,.917-.519l1.274-2.231Z" transform="translate(-2704.624 242.015)" fill="#00223d"/>
        <path id="Trazado_26484" data-name="Trazado 26484" d="M2742.753-158.348H2721.6a.986.986,0,0,1-1-1V-164.2a.986.986,0,0,1,1-1h21.157a.986.986,0,0,1,1,1v4.861A.986.986,0,0,1,2742.753-158.348Zm-20.161-1.992h19.165v-2.869h-19.165Z" transform="translate(-2703.852 243.613)" fill="#00223d"/>
        <path id="Trazado_26485" data-name="Trazado 26485" d="M2740.095-179.072h-21.555a4,4,0,0,1-3.984-3.984v-.079a15.278,15.278,0,0,0-4.781-10.957,28.276,28.276,0,0,1-.957-40,28.3,28.3,0,0,1,38.767-2.072.968.968,0,0,1,.12,1.4c0,.039-.039.039-.039.079l-19.245,19.244a1.264,1.264,0,0,0-.039,1.793,1.3,1.3,0,0,0,1.793.039l.039-.039,19.245-19.244a.907.907,0,0,1,.757-.279,1.042,1.042,0,0,1,.717.359,28.33,28.33,0,0,1-2.032,38.728,15.583,15.583,0,0,0-4.821,11.076A3.961,3.961,0,0,1,2740.095-179.072Zm-10.8-61.836h-1a26.34,26.34,0,0,0-25.3,27.292,26.481,26.481,0,0,0,8.127,18.049,17.317,17.317,0,0,1,5.378,12.392v.119a1.973,1.973,0,0,0,1.993,1.992h21.555a1.973,1.973,0,0,0,1.992-1.992,17.47,17.47,0,0,1,5.419-12.51,26.35,26.35,0,0,0,2.589-35.142l-18.488,18.488a3.27,3.27,0,0,1-4.621.039,3.27,3.27,0,0,1-.04-4.621l.04-.039,18.527-18.488A26.194,26.194,0,0,0,2729.3-240.908Z" transform="translate(-2700.995 254.933)" fill="#00223d"/>
        <path id="Trazado_26486" data-name="Trazado 26486" d="M2730.475-191.952a21.4,21.4,0,0,1-21.4-21.4,21.425,21.425,0,0,1,21.4-21.4,21.336,21.336,0,0,1,13.347,4.662.97.97,0,0,1,.159,1.394l-.079.08-14.344,14.344a1.262,1.262,0,0,0-.039,1.793,1.3,1.3,0,0,0,1.792.039l.04-.039,14.344-14.344a.961.961,0,0,1,1.394,0l.08.079a21.1,21.1,0,0,1,4.662,13.348A21.374,21.374,0,0,1,2730.475-191.952Zm0-40.839a19.4,19.4,0,0,0-19.4,19.4,19.4,19.4,0,0,0,19.4,19.4,19.4,19.4,0,0,0,19.4-19.4,19.327,19.327,0,0,0-3.585-11.236l-13.548,13.547a3.271,3.271,0,0,1-4.621.04,3.27,3.27,0,0,1-.04-4.621l.04-.04,13.546-13.547A19.266,19.266,0,0,0,2730.475-232.791Z" transform="translate(-2702.173 253.749)" fill="#00223d"/>
        <path id="Trazado_26487" data-name="Trazado 26487" d="M2731.652-197.716a14.5,14.5,0,0,1-14.5-14.5,14.5,14.5,0,0,1,14.5-14.5,14.319,14.319,0,0,1,8.367,2.67,1.015,1.015,0,0,1,.24,1.394l-.121.119-9.4,9.4a1.261,1.261,0,0,0-.04,1.792,1.263,1.263,0,0,0,1.792.04l.041-.04,9.4-9.4a.963.963,0,0,1,1.395,0c.04.041.08.08.12.12a14.493,14.493,0,0,1-3.467,20.2A13.8,13.8,0,0,1,2731.652-197.716Zm0-27.014a12.533,12.533,0,0,0-12.512,12.511,12.532,12.532,0,0,0,12.512,12.51,12.531,12.531,0,0,0,12.51-12.51,12.112,12.112,0,0,0-1.673-6.215l-8.526,8.526a3.271,3.271,0,0,1-4.621.04,3.27,3.27,0,0,1-.04-4.621l.04-.04,8.526-8.526A12.52,12.52,0,0,0,2731.652-224.73Z" transform="translate(-2703.349 252.58)" fill="#00223d"/>
        <path id="Trazado_26488" data-name="Trazado 26488" d="M2732.827-203.433a7.635,7.635,0,0,1-7.61-7.61,7.635,7.635,0,0,1,7.61-7.61,7.308,7.308,0,0,1,3.187.718.972.972,0,0,1,.479,1.315.718.718,0,0,1-.2.279l-4.383,4.383a1.261,1.261,0,0,0-.039,1.792,1.263,1.263,0,0,0,1.792.04l.04-.04,4.382-4.382a.963.963,0,0,1,1.4,0,.714.714,0,0,1,.2.278,7.578,7.578,0,0,1-3.706,10.081A6.568,6.568,0,0,1,2732.827-203.433Zm0-13.228a5.553,5.553,0,0,0-5.578,5.618,5.578,5.578,0,0,0,5.618,5.578,5.552,5.552,0,0,0,5.577-5.618,5.893,5.893,0,0,0-.079-.876l-3.227,3.226a3.272,3.272,0,0,1-4.622.04,3.269,3.269,0,0,1-.04-4.621l.04-.04,3.227-3.228A6.609,6.609,0,0,0,2732.827-216.661Z" transform="translate(-2704.525 251.404)" fill="#00223d"/>
        <path id="Trazado_26489" data-name="Trazado 26489" d="M2755.962-237.907a1,1,0,0,1-.916-.6l-1.555-3.785a6.321,6.321,0,0,1,1.4-6.932l7.171-7.171a2.019,2.019,0,0,1,2.868,0,1.541,1.541,0,0,1,.439.676l2.35,5.658a.978.978,0,0,1-.2,1.076l-10.8,10.8A1.354,1.354,0,0,1,2755.962-237.907Zm7.53-17.133h0l-7.211,7.212a4.423,4.423,0,0,0-.956,4.781l1,2.43,9.284-9.284-2.113-5.06C2763.532-255.04,2763.492-255.04,2763.492-255.04Z" transform="translate(-2708.575 256.992)" fill="#00223d"/>
        <path id="Trazado_26490" data-name="Trazado 26490" d="M2765.887-231.1a6.3,6.3,0,0,1-2.43-.478l-3.785-1.554a1.013,1.013,0,0,1-.558-1.315.849.849,0,0,1,.2-.319l10.8-10.8a.977.977,0,0,1,1.075-.2l5.658,2.351a2.087,2.087,0,0,1,1.116,2.669,2.475,2.475,0,0,1-.438.677l-7.171,7.171A6.431,6.431,0,0,1,2765.887-231.1Zm-4.064-3.346,2.391,1a4.365,4.365,0,0,0,4.781-.956l7.171-7.172v-.039a.04.04,0,0,0-.039-.041l-4.981-2.072Z" transform="translate(-2709.456 255.367)" fill="#00223d"/>
        <path id="Trazado_26491" data-name="Trazado 26491" d="M2733.569-212.575a3.285,3.285,0,0,1-2.311-.957,3.27,3.27,0,0,1,0-4.621l32.473-32.472a3.269,3.269,0,0,1,4.621,0,3.269,3.269,0,0,1,0,4.621l-32.472,32.472A3.129,3.129,0,0,1,2733.569-212.575Zm-.877-2.351a1.229,1.229,0,0,0,1.793,0l32.473-32.472a1.228,1.228,0,0,0,0-1.793,1.228,1.228,0,0,0-1.793,0l-32.472,32.472A1.23,1.23,0,0,0,2732.691-214.925Z" transform="translate(-2705.266 256.203)" fill="#00223d"/>
        <path id="Trazado_26492" data-name="Trazado 26492" d="M2760.178-241.247a1,1,0,0,1-.916-.6l-2.949-7.091a.981.981,0,0,1,.2-1.076l3.625-3.625a.961.961,0,0,1,1.394,0,.859.859,0,0,1,.2.319l2.949,7.092a.98.98,0,0,1-.2,1.076l-3.625,3.625A.823.823,0,0,1,2760.178-241.247Zm-1.753-7.849,2.112,5.1,2.112-2.112-2.112-5.1Z" transform="translate(-2709.046 256.547)" fill="#00223d"/>
        <path id="Trazado_26493" data-name="Trazado 26493" d="M2771.547-233.315a1.4,1.4,0,0,1-.4-.079l-7.092-2.948a1.014,1.014,0,0,1-.558-1.315.86.86,0,0,1,.2-.319l3.625-3.626a.979.979,0,0,1,1.076-.2l7.092,2.949a1.014,1.014,0,0,1,.558,1.315.889.889,0,0,1-.2.319l-3.626,3.625A.957.957,0,0,1,2771.547-233.315Zm-5.339-4.3,5.1,2.111,2.111-2.111-5.1-2.113Z" transform="translate(-2710.095 254.789)" fill="#00223d"/>
      </g>
    </g>
  </g>
</svg>
