<svg xmlns="http://www.w3.org/2000/svg" xmlns:xlink="http://www.w3.org/1999/xlink" width="155.887" height="156.718" viewBox="0 0 155.887 156.718">
  <defs>
    <filter id="AdobeStock_503024245" x="0" y="0" width="155.887" height="156.718" filterUnits="userSpaceOnUse">
      <feOffset dx="3" dy="3" input="SourceAlpha"/>
      <feGaussianBlur stdDeviation="3" result="blur"/>
      <feFlood flood-opacity="0.161"/>
      <feComposite operator="in" in2="blur"/>
      <feComposite in="SourceGraphic"/>
    </filter>
  </defs>
  <g id="Grupo_1008835" data-name="Grupo 1008835" transform="translate(-1069 -5029.893)">
    <g id="Grupo_1008798" data-name="Grupo 1008798" transform="translate(0 -605)">
      <g transform="matrix(1, 0, 0, 1, 1069, 5634.89)" filter="url(#AdobeStock_503024245)">
        <g id="AdobeStock_503024245-2" data-name="AdobeStock_503024245" transform="translate(6 6)" fill="#fff" stroke="#fff" stroke-width="3">
          <ellipse cx="68.944" cy="69.359" rx="68.944" ry="69.359" stroke="none"/>
          <ellipse cx="68.944" cy="69.359" rx="67.444" ry="67.859" fill="none"/>
        </g>
      </g>
    </g>
    <g id="globalizacion" transform="translate(1108 5069.89)">
      <path id="Trazado_715384" data-name="Trazado 715384" d="M44.8,8.178a34.528,34.528,0,0,1,17.238,6.111l14.842,30.62a34.592,34.592,0,0,1-1.629,8.629L45,77.411q-1.376.109-2.781.11a34.991,34.991,0,0,1-5.341-.408l-15.58-6.6A34.778,34.778,0,0,1,8.429,34.791Z" transform="translate(-6.452 -7.033)" fill="#93d8de"/>
      <path id="Trazado_715385" data-name="Trazado 715385" d="M21.936,32.523l.248-.124a.8.8,0,0,1,1.112.964,13.336,13.336,0,0,0,1.555,11.615l.808,1.212a2.843,2.843,0,0,1,.177,2.848,6,6,0,0,0,1.123,6.922l3.1,3.1a2.281,2.281,0,0,0,3.438-.244l5.919-7.892a3.635,3.635,0,0,1,1.283-1.07l2.045-1.022a2.36,2.36,0,0,0,.833-3.527l-3.457-4.61a14.29,14.29,0,0,1,1.327-18.679,3.946,3.946,0,0,0,1.156-2.79v-.763a7.108,7.108,0,0,1,2.082-5.026L50.516,7.6Q49.24,7.5,47.94,7.5A34.733,34.733,0,0,0,14.15,34.21h.641a15.978,15.978,0,0,0,7.145-1.687Z" transform="translate(-12.173 -6.452)" fill="#00c27a"/>
      <path id="Trazado_715386" data-name="Trazado 715386" d="M358.3,59.636l-.582.582a2.618,2.618,0,0,0-.327,3.3l.17.255a10.763,10.763,0,0,1,0,11.941,1.313,1.313,0,0,0,1.093,2.042h.936A35.973,35.973,0,0,1,377.5,82.538q.062-1.045.063-2.107a34.679,34.679,0,0,0-14.9-28.513l-.008.03a16.549,16.549,0,0,1-4.353,7.688Z" transform="translate(-307.08 -44.662)" fill="#00c27a"/>
      <path id="Trazado_715387" data-name="Trazado 715387" d="M294.329,289.48a4.843,4.843,0,0,1-4.852-.3l-2.255-1.5a3.627,3.627,0,0,0-5.256,1.4,9.388,9.388,0,0,0,2.764,11.709l.972.729a2.255,2.255,0,0,1-.64,3.943l-1.46.487a3.611,3.611,0,0,0-2.469,3.426,6.611,6.611,0,0,1-1.936,4.675l-3.295,3.3a34.745,34.745,0,0,0,30.246-23.873l-6.28-3.768A5.759,5.759,0,0,0,294.329,289.48Z" transform="translate(-237.354 -246.955)" fill="#00c27a"/>
      <path id="Trazado_715388" data-name="Trazado 715388" d="M118.207,432.329l-4.845-1.211a4.788,4.788,0,0,0-4.034.815l-3.075,2.306a34.545,34.545,0,0,0,15.58,6.6v-3.865A4.788,4.788,0,0,0,118.207,432.329Z" transform="translate(-91.408 -370.759)" fill="#00c27a"/>
      <path id="Trazado_715389" data-name="Trazado 715389" d="M356.038,33.194l-2.356-4.861a34.64,34.64,0,0,0-7.168-3.83A34.914,34.914,0,0,1,356.038,33.194Z" transform="translate(-298.101 -21.077)" fill="#75cdd5"/>
      <path id="Trazado_715390" data-name="Trazado 715390" d="M398.132,172.74a34.788,34.788,0,0,1-9.46,33.806l14.491-11.437a34.591,34.591,0,0,0,1.629-8.629Z" transform="translate(-334.369 -148.603)" fill="#75cdd5"/>
      <path id="Trazado_715391" data-name="Trazado 715391" d="M172.284,451.071a34.871,34.871,0,0,1-7.1-.727l7.347,3.113a34.988,34.988,0,0,0,5.341.409q1.4,0,2.781-.11l10.28-8.114A34.559,34.559,0,0,1,172.284,451.071Z" transform="translate(-142.106 -383.377)" fill="#75cdd5"/>
      <path id="Trazado_715392" data-name="Trazado 715392" d="M300.709,309.485a34.811,34.811,0,0,1-20.185,21.94,6.609,6.609,0,0,1-1.327,1.9l-3.295,3.3a34.746,34.746,0,0,0,30.246-23.873Z" transform="translate(-237.355 -266.243)" fill="#08b865"/>
      <path id="Trazado_715393" data-name="Trazado 715393" d="M138.11,469.869a34.644,34.644,0,0,1-12.65-2.376,34.5,34.5,0,0,0,12.9,4.762v-2.387Z" transform="translate(-107.932 -402.175)" fill="#08b865"/>
      <path id="Trazado_715394" data-name="Trazado 715394" d="M394.931,51.919l-.008.03q-.194.777-.461,1.528a34.586,34.586,0,0,1,9.785,24.161q0,1.157-.075,2.3a35.961,35.961,0,0,1,5.6,2.6q.063-1.045.063-2.107A34.679,34.679,0,0,0,394.931,51.919Z" transform="translate(-339.35 -44.663)" fill="#08b865"/>
      <g id="Grupo_1008834" data-name="Grupo 1008834" transform="translate(18.407 14.553)">
        <path id="Trazado_715395" data-name="Trazado 715395" d="M421.361,329.226a6.759,6.759,0,0,0-6.727-6.751,2.25,2.25,0,1,1,1.923-3.38.155.155,0,0,0,.2.057l3.745-1.876a.158.158,0,0,0,.07-.214,6.718,6.718,0,0,0-3.612-3.17.155.155,0,0,1-.1-.146v-2.366a.157.157,0,0,0-.157-.157h-4.187a.157.157,0,0,0-.157.157v2.371a.155.155,0,0,1-.1.146,6.751,6.751,0,0,0,2.328,13.079,2.25,2.25,0,1,1-1.923,3.381.155.155,0,0,0-.2-.057l-3.745,1.876a.158.158,0,0,0-.07.214,6.718,6.718,0,0,0,3.612,3.17.155.155,0,0,1,.1.146v2.366a.157.157,0,0,0,.157.157H416.7a.157.157,0,0,0,.157-.157V335.7a.155.155,0,0,1,.1-.146,6.762,6.762,0,0,0,4.4-6.328Z" transform="translate(-369.283 -282.292)" fill="#ffc344"/>
        <circle id="Elipse_5728" data-name="Elipse 5728" cx="3.858" cy="3.858" r="3.858" transform="translate(0 3.858)" fill="#ffc344"/>
        <circle id="Elipse_5729" data-name="Elipse 5729" cx="3.858" cy="3.858" r="3.858" transform="translate(28.932)" fill="#ffc344"/>
        <circle id="Elipse_5730" data-name="Elipse 5730" cx="3.858" cy="3.858" r="3.858" transform="translate(23.146 32.79)" fill="#ffc344"/>
        <circle id="Elipse_5731" data-name="Elipse 5731" cx="3.858" cy="3.858" r="3.858" transform="translate(3.858 42.434)" fill="#ffc344"/>
      </g>
      <path id="Trazado_715396" data-name="Trazado 715396" d="M66.441,54.174c.5-.838.974-1.7,1.406-2.571L70.1,50.474a1.206,1.206,0,0,0,.526-1.641,7.857,7.857,0,0,0-1.012-1.475,35.67,35.67,0,0,0,1.854-9.418h0A35.784,35.784,0,0,0,21.1,3.141a1.048,1.048,0,1,0,.86,1.911A33.352,33.352,0,0,1,35.907,2.1L31.766,6.24a8.1,8.1,0,0,0-2.388,5.767v.763a2.88,2.88,0,0,1-.849,2.049,15.426,15.426,0,0,0-2.845,3.934,4.9,4.9,0,1,0-1.6,8.072A15.449,15.449,0,0,0,27.1,34.868l3.457,4.61a1.312,1.312,0,0,1-.463,1.961l-2.045,1.022A4.707,4.707,0,0,0,26.4,43.839l-5.919,7.892a1.233,1.233,0,0,1-1.859.132l-3.1-3.1a4.942,4.942,0,0,1-.927-5.712,3.9,3.9,0,0,0-.243-3.9l-.808-1.212a12.209,12.209,0,0,1-1.433-10.7A1.844,1.844,0,0,0,9.542,25.01l-.248.124a15.015,15.015,0,0,1-5.961,1.559A33.493,33.493,0,0,1,17.768,7.308a1.048,1.048,0,1,0-1.122-1.77,35.78,35.78,0,0,0-10.622,50.1,1.048,1.048,0,1,0,1.742-1.166A33.51,33.51,0,0,1,2.1,35.77,33.906,33.906,0,0,1,2.817,28.8a17.125,17.125,0,0,0,7.136-1.66,14.283,14.283,0,0,0,1.853,11.963l.808,1.212a1.8,1.8,0,0,1,.112,1.8,7.035,7.035,0,0,0,1.319,8.131l3.1,3.1a3.329,3.329,0,0,0,5.017-.357L28.078,45.1a2.6,2.6,0,0,1,.913-.762l2.045-1.022a3.408,3.408,0,0,0,1.2-5.093l-3.457-4.61a13.276,13.276,0,0,1-2.079-4.12L36.325,41.52,27.659,56.185A4.907,4.907,0,0,0,21.5,59.21a5.81,5.81,0,0,0-4.206,1.125l-2.435,1.827a33.971,33.971,0,0,1-4.186-3.944,1.048,1.048,0,1,0-1.561,1.4,35.786,35.786,0,0,0,47.611,5.153,1.2,1.2,0,0,0,.124.373,7.783,7.783,0,0,0,3.593,3.42v1.771a1.206,1.206,0,0,0,1.2,1.2h4.187a1.206,1.206,0,0,0,1.2-1.2V68.554a7.8,7.8,0,0,0-.592-14.38Zm-2.678-.485a1.2,1.2,0,1,1,1.012-1.807,1.19,1.19,0,0,0,.353.382q-.412.732-.86,1.443Q64.017,53.69,63.763,53.689Zm5.673-17.541c-.682-.35-1.375-.68-2.073-.986a1.048,1.048,0,1,0-.841,1.92c.953.417,1.9.882,2.81,1.384a33.636,33.636,0,0,1-1.15,6.451l-1.148-.689v-.585a1.206,1.206,0,0,0-1.2-1.2H64.049l-1-.6a6.774,6.774,0,0,0-6.546-.251,3.8,3.8,0,0,1-3.8-.237l-2.255-1.5a4.675,4.675,0,0,0-6.774,1.8,10.385,10.385,0,0,0-1.1,4.333L38.865,41.34l10.8-18.271a4.882,4.882,0,0,0,1.417.245,9.708,9.708,0,0,1-1.469,7.162,2.361,2.361,0,0,0,1.965,3.671h.936a34.915,34.915,0,0,1,9.55,1.331,1.048,1.048,0,0,0,.573-2.016,37.011,37.011,0,0,0-10.123-1.411h-.936a.265.265,0,0,1-.221-.413,11.8,11.8,0,0,0,1.783-8.722,4.9,4.9,0,0,0,.3-8.872,17.669,17.669,0,0,0,2.732-5.066A33.713,33.713,0,0,1,69.436,36.147ZM45.411,54.01a2.81,2.81,0,1,1,2.81-2.81,2.813,2.813,0,0,1-2.81,2.81ZM51.2,15.6a2.81,2.81,0,1,1-2.81,2.81A2.813,2.813,0,0,1,51.2,15.6Zm-21.187.7a4.962,4.962,0,0,0,1.463-3.531v-.763a6.019,6.019,0,0,1,1.775-4.285l5.494-5.494A33.573,33.573,0,0,1,54.373,7.7a15.548,15.548,0,0,1-3.21,5.8,4.912,4.912,0,0,0-4.854,4.5L27.157,20.559A13.325,13.325,0,0,1,30.01,16.3ZM19.455,22.268a2.81,2.81,0,1,1,2.81,2.81,2.813,2.813,0,0,1-2.81-2.81Zm6.679,3.159c0-.05,0-.1,0-.151a4.88,4.88,0,0,0,1.016-2.6l19.432-2.591A4.923,4.923,0,0,0,47.858,22L37.465,39.59ZM37.725,43.27,41.6,48.114a4.9,4.9,0,0,0-.945,4.292L29.938,57.765a4.973,4.973,0,0,0-.477-.511Zm-11.6,14.765a2.81,2.81,0,1,1-2.81,2.81A2.813,2.813,0,0,1,26.123,58.035Zm-7.574,3.977a3.722,3.722,0,0,1,2.689-.722,4.9,4.9,0,0,0,7.844,3.466,3.74,3.74,0,0,1,.3,1.46v2.62a33.677,33.677,0,0,1-12.766-5.371Zm19.534,7.351a34.116,34.116,0,0,1-6.609-.193V66.215a5.838,5.838,0,0,0-.954-3.2,4.9,4.9,0,0,0,.358-3.38L41.595,54.28a4.9,4.9,0,0,0,6.223,1.194,1.207,1.207,0,0,1-.441,2.028l-1.46.487a4.653,4.653,0,0,0-3.186,4.42,5.527,5.527,0,0,1-1.63,3.934Zm4.5-1.538a7.609,7.609,0,0,0,2.243-5.416,2.56,2.56,0,0,1,1.753-2.432l1.46-.487a3.3,3.3,0,0,0,1.343-5.415,4.906,4.906,0,0,0-4.716-7.724,8.294,8.294,0,0,1,.882-3.767,2.579,2.579,0,0,1,3.737-.993l2.255,1.5a5.9,5.9,0,0,0,5.9.367,4.69,4.69,0,0,1,3.134-.386,1.2,1.2,0,0,0-.142.566V45.42a7.8,7.8,0,0,0-.551,13.845,33.463,33.463,0,0,1-18.443,9.7Zm19.411-7.736a7.777,7.777,0,0,0,1.713.2,1.2,1.2,0,1,1-1.013,1.806,1.2,1.2,0,0,0-1.579-.468l-1.365.683q1.164-1.055,2.244-2.218Zm3.728,6.745a1.209,1.209,0,0,0-.785,1.128v1.48H62.532V67.966a1.209,1.209,0,0,0-.787-1.129,5.658,5.658,0,0,1-2.557-1.9L61.4,63.822a3.3,3.3,0,1,0,2.309-5.633A5.7,5.7,0,0,1,61.747,47.14a1.209,1.209,0,0,0,.785-1.128v-1.48h2.405v1.475a1.209,1.209,0,0,0,.787,1.129,5.657,5.657,0,0,1,2.557,1.9l-2.218,1.111a3.3,3.3,0,1,0-2.309,5.633,5.7,5.7,0,0,1,1.966,11.049Z"/>
    </g>
  </g>
</svg>
