<svg xmlns="http://www.w3.org/2000/svg" xmlns:xlink="http://www.w3.org/1999/xlink" width="137.075" height="136.934" viewBox="0 0 137.075 136.934">
  <defs>
    <filter id="injertos_frutales" x="0" y="0" width="137.075" height="136.934" filterUnits="userSpaceOnUse">
      <feOffset dy="7" input="SourceAlpha"/>
      <feGaussianBlur stdDeviation="2.5" result="blur"/>
      <feFlood flood-opacity="0.102"/>
      <feComposite operator="in" in2="blur"/>
      <feComposite in="SourceGraphic"/>
    </filter>
  </defs>
  <g id="Grupo_1008810" data-name="Grupo 1008810" transform="translate(-276 -6784.893)">
    <g transform="matrix(1, 0, 0, 1, 276, 6784.89)" filter="url(#injertos_frutales)">
      <path id="injertos_frutales-2" data-name="injertos_frutales" d="M315.552,2205.771a60.813,60.813,0,1,0-60.813,60.815A60.573,60.573,0,0,0,315.552,2205.771Z" transform="translate(-186.98 -2145.15)" fill="#fff" stroke="#fff" stroke-width="2"/>
    </g>
    <g id="Grupo_16872" data-name="Grupo 16872" transform="translate(-628 53.893)">
      <g id="Grupo_16871" data-name="Grupo 16871" transform="translate(930 6750)">
        <path id="Trazado_26444" data-name="Trazado 26444" d="M2645.791-235.692l-5.863-5.863-4.093,2.665a21.9,21.9,0,0,0-6.384-2.647l-1.009-4.774h-8.291l-1.01,4.774a21.88,21.88,0,0,0-6.384,2.647l-4.095-2.665-5.862,5.863,2.122,5.062.2,10.57h2.59A16.582,16.582,0,0,1,2624.3-236.64a16.582,16.582,0,0,1,16.58,16.581h2.763l-.01-10.57Z" transform="translate(-2581.463 247.694)" fill="#fac600"/>
        <path id="Trazado_26445" data-name="Trazado 26445" d="M2603.783-230.96l1.322,3.153.028,10.57h2.763a16.481,16.481,0,0,1,3.044-9.553A11,11,0,0,0,2603.783-230.96Z" transform="translate(-2581.644 244.871)" fill="#ffc729"/>
        <path id="Trazado_26446" data-name="Trazado 26446" d="M2652.852-230.947a11.048,11.048,0,0,0-7.2,4.076,16.5,16.5,0,0,1,3.1,9.637h2.763l-.01-10.57Z" transform="translate(-2589.343 244.868)" fill="#ffc729"/>
        <path id="Trazado_26447" data-name="Trazado 26447" d="M2668-193.145v-6.739a5.529,5.529,0,0,0-4.187-5.363l-6.867-1.716,0-2.5a8.279,8.279,0,0,0,4.147-7.174v-2.416a8.521,8.521,0,0,0-8.033-8.634,8.29,8.29,0,0,0-8.546,8.286v2.763a8.277,8.277,0,0,0,4.145,7.172v2.5l-6.867,1.718a5.525,5.525,0,0,0-4.186,5.361v6.739Z" transform="translate(-2587.863 244.269)" fill="#ccd1d9"/>
        <path id="Trazado_26448" data-name="Trazado 26448" d="M2648.658-195.047a8.258,8.258,0,0,0-2.973-6.336l-3.895.974a5.525,5.525,0,0,0-4.186,5.361v6.739h11.053Z" transform="translate(-2587.863 239.432)" fill="#aab2bd"/>
        <path id="Trazado_26449" data-name="Trazado 26449" d="M2613.825-193.145v-6.739a5.528,5.528,0,0,0-4.186-5.363l-6.867-1.716,0-2.5a8.281,8.281,0,0,0,4.147-7.174v-2.416a8.521,8.521,0,0,0-8.035-8.634,8.29,8.29,0,0,0-8.546,8.286v2.763a8.277,8.277,0,0,0,4.145,7.172v2.5l-6.868,1.718a5.526,5.526,0,0,0-4.187,5.361v6.739Z" transform="translate(-2577.9 244.269)" fill="#ccd1d9"/>
        <path id="Trazado_26450" data-name="Trazado 26450" d="M2618.184-195.047a5.528,5.528,0,0,0-4.186-5.363l-3.895-.974a8.263,8.263,0,0,0-2.973,6.336v6.739h11.053Z" transform="translate(-2582.259 239.432)" fill="#aab2bd"/>
        <path id="Trazado_26451" data-name="Trazado 26451" d="M2640.914-193.145v-6.739a5.529,5.529,0,0,0-4.187-5.363l-6.867-1.716,0-2.5a8.28,8.28,0,0,0,4.148-7.174v-2.416a8.521,8.521,0,0,0-8.035-8.634,8.291,8.291,0,0,0-8.546,8.286v2.763a8.277,8.277,0,0,0,4.145,7.172v2.5l-6.867,1.718a5.526,5.526,0,0,0-4.187,5.361v6.739Z" transform="translate(-2582.882 244.269)" fill="#ccd1d9"/>
        <g id="Grupo_16870" data-name="Grupo 16870" transform="translate(5.527 37.693)">
          <path id="Trazado_26452" data-name="Trazado 26452" d="M2668-194.913a5.528,5.528,0,0,0-4.187-5.363l-1.523-.38-18.463,9.718h-.312l-5.914-1.689v4.453H2668Z" transform="translate(-2593.39 201.605)" fill="#aab2bd"/>
          <path id="Trazado_26453" data-name="Trazado 26453" d="M2640.914-191.08l-2.065,1.086h-.312l-8.311-2.374a10.056,10.056,0,0,0-2.227-.351l-6.035-1.93a18.308,18.308,0,0,0-5.593-.872,18.43,18.43,0,0,0-4.006.441l-1.791.415a5.29,5.29,0,0,0-.06.7v6.739h30.4Z" transform="translate(-2588.408 200.661)" fill="#aab2bd"/>
          <path id="Trazado_26454" data-name="Trazado 26454" d="M2607.385-196.237l-6,1.389v-2.037l-8.459-4.934-5.317,1.329a5.529,5.529,0,0,0-4.187,5.363v6.739h30.4v-6.739a5.512,5.512,0,0,0-.2-1.4,18.529,18.529,0,0,0-2.234-.149A18.439,18.439,0,0,0,2607.385-196.237Z" transform="translate(-2583.427 201.819)" fill="#aab2bd"/>
        </g>
        <path id="Trazado_26455" data-name="Trazado 26455" d="M2637.922-170.881l-11.676-10.508-2.221-7.982-6.326-2.023a15.61,15.61,0,0,0-4.751-.74,15.565,15.565,0,0,0-3.383.371l-16.291,3.774-1.382,11.053,9.74,6.122,17.721,14.777,2.136,1.884a2.826,2.826,0,0,0,1.868.707h.255a2.824,2.824,0,0,0,2.823-2.823,2.826,2.826,0,0,0-1.016-2.169,3.65,3.65,0,0,0,2.338.847,2.824,2.824,0,0,0,2.823-2.823,2.827,2.827,0,0,0-1.015-2.169L2624.271-167l5.524,4.6a2.829,2.829,0,0,0,1.809.655h.3a2.824,2.824,0,0,0,2.823-2.823,2.827,2.827,0,0,0-1.015-2.169l.218.182a2.862,2.862,0,0,0,1.835.664H2636a2.868,2.868,0,0,0,2.869-2.869A2.866,2.866,0,0,0,2637.922-170.881Z" transform="translate(-2579.457 237.731)" fill="#f1d0a5"/>
        <path id="Trazado_26456" data-name="Trazado 26456" d="M2642.28-172.749,2630.6-183.257a4.181,4.181,0,0,0-2.8-1.073,4.178,4.178,0,0,0-2.151.6l-5.144,3.087a3.254,3.254,0,0,1-1.67.463,3.246,3.246,0,0,1-3.246-3.246v-.275a3.246,3.246,0,0,1,1.795-2.9l7.709-3.854a7.333,7.333,0,0,1,3.284-.776,7.312,7.312,0,0,1,2.019.283l8.683,2.48h1.382l26.252-13.818h1.382v17.963L2643.229-171.9Z" transform="translate(-2583.816 239.599)" fill="#ffe6c3"/>
        <path id="Trazado_26457" data-name="Trazado 26457" d="M2628.707-163.353l-1.921,2,7.658,6.381a5.587,5.587,0,0,0,2.243,1.112,2.781,2.781,0,0,0,.311-1.26,2.827,2.827,0,0,0-1.016-2.169Z" transform="translate(-2585.874 232.439)" fill="#dfb28b"/>
        <path id="Trazado_26458" data-name="Trazado 26458" d="M2618.981-151.221a2.932,2.932,0,0,0,2.931,2.931,2.929,2.929,0,0,0,2.073-.859l2.427-2.427a2.93,2.93,0,0,0,.858-2.073,2.929,2.929,0,0,0-2.93-2.931,2.928,2.928,0,0,0-2.072.858l-2.428,2.427A2.934,2.934,0,0,0,2618.981-151.221Z" transform="translate(-2584.438 231.193)" fill="#f5e0cd"/>
        <path id="Trazado_26459" data-name="Trazado 26459" d="M2613.9-156.3a2.932,2.932,0,0,0,2.93,2.931,2.93,2.93,0,0,0,2.073-.859l2.427-2.427a2.931,2.931,0,0,0,.858-2.073,2.931,2.931,0,0,0-2.93-2.932,2.927,2.927,0,0,0-2.072.859l-2.428,2.427A2.932,2.932,0,0,0,2613.9-156.3Z" transform="translate(-2583.504 232.127)" fill="#f5e0cd"/>
        <path id="Trazado_26460" data-name="Trazado 26460" d="M2608.823-161.38a2.932,2.932,0,0,0,2.931,2.931,2.93,2.93,0,0,0,2.073-.859l2.427-2.427a2.93,2.93,0,0,0,.858-2.073,2.93,2.93,0,0,0-2.93-2.932,2.927,2.927,0,0,0-2.072.859l-2.428,2.427A2.932,2.932,0,0,0,2608.823-161.38Z" transform="translate(-2582.57 233.061)" fill="#f5e0cd"/>
        <path id="Trazado_26461" data-name="Trazado 26461" d="M2614.064-163.927a5.707,5.707,0,0,0,1.427-2.49,2.9,2.9,0,0,0-1.309-.322,2.927,2.927,0,0,0-2.072.859l-2.428,2.427a2.932,2.932,0,0,0-.86,2.074,2.894,2.894,0,0,0,.322,1.309,5.7,5.7,0,0,0,2.491-1.427Z" transform="translate(-2582.57 233.061)" fill="#f0d0b4"/>
        <path id="Trazado_26462" data-name="Trazado 26462" d="M2619.143-158.848a5.708,5.708,0,0,0,1.427-2.49,2.9,2.9,0,0,0-1.309-.322,2.927,2.927,0,0,0-2.072.859l-2.428,2.427a2.937,2.937,0,0,0-.859,2.075,2.9,2.9,0,0,0,.322,1.308,5.7,5.7,0,0,0,2.491-1.427Z" transform="translate(-2583.504 232.127)" fill="#f0d0b4"/>
        <path id="Trazado_26463" data-name="Trazado 26463" d="M2624.222-153.768a5.706,5.706,0,0,0,1.427-2.49,2.9,2.9,0,0,0-1.309-.322,2.928,2.928,0,0,0-2.072.858l-2.428,2.427a2.939,2.939,0,0,0-.859,2.075,2.9,2.9,0,0,0,.322,1.308,5.7,5.7,0,0,0,2.49-1.427Z" transform="translate(-2584.438 231.193)" fill="#f0d0b4"/>
        <path id="Trazado_26464" data-name="Trazado 26464" d="M2603.744-166.459a2.932,2.932,0,0,0,2.931,2.931,2.93,2.93,0,0,0,2.073-.858l2.427-2.428a2.927,2.927,0,0,0,.857-2.072,2.93,2.93,0,0,0-2.929-2.932,2.93,2.93,0,0,0-2.073.859l-2.427,2.427A2.931,2.931,0,0,0,2603.744-166.459Z" transform="translate(-2581.636 233.995)" fill="#f5e0cd"/>
        <path id="Trazado_26465" data-name="Trazado 26465" d="M2602.482-189.669l-9.208,2.133-1.382,11.053,5.784,3.634Z" transform="translate(-2579.457 237.278)" fill="#dfb28b"/>
        <path id="Trazado_26466" data-name="Trazado 26466" d="M2597.692-194.625l-5.527,19.344h-1.382l-12.436-4.145v-26.253h2.764l16.581,9.673Z" transform="translate(-2576.966 240.222)" fill="#e6e9ed"/>
        <path id="Trazado_26467" data-name="Trazado 26467" d="M2592.256-199.178l-11.145-6.5h-2.764v26.253l8.29,2.763,5.528-22.108Z" transform="translate(-2576.966 240.222)" fill="#01927f"/>
        <path id="Trazado_26468" data-name="Trazado 26468" d="M2633.786-168.432l-1.921,2,7.658,6.381a5.593,5.593,0,0,0,2.243,1.112,2.784,2.784,0,0,0,.31-1.26,2.827,2.827,0,0,0-1.015-2.169Z" transform="translate(-2586.808 233.373)" fill="#dfb28b"/>
        <path id="Trazado_26469" data-name="Trazado 26469" d="M2662.322-212.081h-3.105l-4.628,2.435a6.856,6.856,0,0,0-1.647-.677l-5.821-1.457v-.662a9.7,9.7,0,0,0,4.147-7.929v-2.416a9.927,9.927,0,0,0-9.376-10.015c-.263-.007-.521,0-.781.016l1.51-3.534-7.317-7.315-4.313,2.807a23.371,23.371,0,0,0-5.172-2.146l-1.065-5.032h-10.531l-1.065,5.034a23.377,23.377,0,0,0-5.173,2.146l-4.313-2.807-7.311,7.311,1.484,3.536c-.056,0-.11-.013-.167-.015a9.6,9.6,0,0,0-7.031,2.727,9.584,9.584,0,0,0-2.94,6.94v2.763a9.7,9.7,0,0,0,4.146,7.928v.663l-3.8.949-6.882-4.014h-4.52v28.631l13.593,4.53h2.647l.33-1.157,4.167,2.5a4.3,4.3,0,0,0,4.148,4.168,4.3,4.3,0,0,0,4.146,4.146,4.3,4.3,0,0,0,4.145,4.145,4.31,4.31,0,0,0,4.3,4.161,4.352,4.352,0,0,0,2.422-.749l1.224,1.081a4.209,4.209,0,0,0,2.78,1.05h.256a4.207,4.207,0,0,0,4.2-4.151,4.2,4.2,0,0,0,4.145-4.145,4.2,4.2,0,0,0,4.145-4.149,4.249,4.249,0,0,0,4.151-4.24,3.865,3.865,0,0,0-.021-.415l24.892-12.445ZM2648.5-222.786v2.416a6.935,6.935,0,0,1-3.458,5.979l-.691.4.006,4.373,6.9,1.724-15.2,8v-3.722a6.873,6.873,0,0,0-1.979-4.815l4.742-1.185V-214l-.689-.4a6.929,6.929,0,0,1-3.456-5.976v-2.763a6.85,6.85,0,0,1,2.1-4.959,6.811,6.811,0,0,1,5.023-1.946A7.143,7.143,0,0,1,2648.5-222.786Zm-26.933,21.8-6.254-2a17.065,17.065,0,0,0-8.854-.4l-.792.175v-.409a4.142,4.142,0,0,1,3.139-4.023l7.914-1.977V-214l-.688-.4a6.928,6.928,0,0,1-3.457-5.976v-2.763a6.851,6.851,0,0,1,2.1-4.959,6.83,6.83,0,0,1,5.024-1.946,7.143,7.143,0,0,1,6.694,7.252v2.416a6.936,6.936,0,0,1-3.458,5.979l-.69.4,0,4.373,7.913,1.977a4.142,4.142,0,0,1,3.14,4.023v5.177l-.341.18h-.847l-8.495-2.428A8.715,8.715,0,0,0,2621.571-200.984Zm-15.59-26.341a15.243,15.243,0,0,1,13.507-8.244,15.268,15.268,0,0,1,13.45,8.133,9.61,9.61,0,0,0-1.015,4.3v2.763a9.7,9.7,0,0,0,4.145,7.928v.663l-5.526,1.384-5.529-1.384v-.662a9.7,9.7,0,0,0,4.147-7.929v-2.416a9.927,9.927,0,0,0-9.375-10.015,9.6,9.6,0,0,0-7.031,2.726,9.591,9.591,0,0,0-2.938,6.942v2.763a9.7,9.7,0,0,0,4.145,7.928v.663l-5.527,1.384-5.528-1.384v-.662a9.7,9.7,0,0,0,4.147-7.929v-2.416A10.182,10.182,0,0,0,2605.981-227.325Zm-6.355-8.357,4.414-4.414,3.885,2.529.743-.456a20.621,20.621,0,0,1,5.983-2.482l.849-.2.962-4.534h6.05l.959,4.532.851.2a20.64,20.64,0,0,1,5.983,2.482l.743.456,3.885-2.528,4.409,4.41-1.568,3.669a9.641,9.641,0,0,0-2.916,1.939c-.057.055-.105.114-.161.171a18.045,18.045,0,0,0-15.211-8.426,18.021,18.021,0,0,0-15.264,8.51,9.737,9.737,0,0,0-3.048-2.161Zm-5.009,26.062V-214l-.689-.4a6.929,6.929,0,0,1-3.456-5.976v-2.763a6.852,6.852,0,0,1,2.1-4.959,6.819,6.819,0,0,1,5.024-1.946,7.143,7.143,0,0,1,6.695,7.252v2.416a6.936,6.936,0,0,1-3.459,5.979l-.69.4.006,4.373,4.741,1.185a6.871,6.871,0,0,0-1.979,4.815v1.023l-4.31.958.112-.392.053-2.554-7.287-4.251Zm-15.2-2.461h1.007l9.938,5.8-5.014,20.056-5.931-1.977Zm11.278,27.634-2.719-.906,4.871-19.482L2596-203v.394l-5.187,18.156Zm9.448,3.978a1.561,1.561,0,0,1,.453-1.1l2.429-2.429a1.561,1.561,0,0,1,1.1-.454,1.551,1.551,0,0,1,1.549,1.549,1.563,1.563,0,0,1-.453,1.1l-2.43,2.429a1.557,1.557,0,0,1-1.1.453A1.55,1.55,0,0,1,2600.145-180.468Zm4.145,4.145a1.56,1.56,0,0,1,.454-1.1l2.429-2.429a1.556,1.556,0,0,1,1.095-.454,1.551,1.551,0,0,1,1.549,1.549,1.562,1.562,0,0,1-.453,1.1l-2.428,2.429a1.56,1.56,0,0,1-1.1.453A1.55,1.55,0,0,1,2604.29-176.323Zm4.145,4.146a1.56,1.56,0,0,1,.454-1.1l2.429-2.429a1.56,1.56,0,0,1,1.1-.454,1.551,1.551,0,0,1,1.549,1.549,1.558,1.558,0,0,1-.453,1.1l-2.429,2.429a1.56,1.56,0,0,1-1.1.454A1.551,1.551,0,0,1,2608.435-172.177Zm5.694,5.694a1.551,1.551,0,0,1-1.549-1.549,1.56,1.56,0,0,1,.454-1.1l2.429-2.429a1.558,1.558,0,0,1,1.1-.453,1.55,1.55,0,0,1,1.549,1.549,1.559,1.559,0,0,1-.452,1.1l-2.429,2.429A1.559,1.559,0,0,1,2614.129-166.483Zm6.682,1.382h-.256a1.433,1.433,0,0,1-.952-.361l-1.033-.912,1.037-1.038a4.281,4.281,0,0,0,.87-1.284l1.257,1.045a1.44,1.44,0,0,1,.518,1.107A1.443,1.443,0,0,1,2620.811-165.1Zm12.391-12.436h-.239a1.482,1.482,0,0,1-.951-.345l-7.493-6.244-1.77,2.124,7.277,6.062a1.442,1.442,0,0,1,.517,1.107,1.443,1.443,0,0,1-1.441,1.441h-.3a1.443,1.443,0,0,1-.922-.335l-7.5-6.253-1.77,2.124,7.277,6.064a1.431,1.431,0,0,1,.518,1.105,1.443,1.443,0,0,1-1.441,1.441,2.285,2.285,0,0,1-1.455-.526l-3.083-2.571a4.3,4.3,0,0,0-3.71-2.415,4.3,4.3,0,0,0-4.145-4.145,4.3,4.3,0,0,0-4.146-4.145,4.307,4.307,0,0,0-4.3-4.161,4.343,4.343,0,0,0-3.05,1.263l-2.429,2.429a4.2,4.2,0,0,0-.387.473l-4.245-2.547,3.72-13.022,9.328-2.074a14.237,14.237,0,0,1,7.414.335l2.035.651-6.9,3.451a4.6,4.6,0,0,0-2.556,4.139v.273a4.634,4.634,0,0,0,4.629,4.629,4.61,4.61,0,0,0,2.381-.66l5.146-3.086a2.852,2.852,0,0,1,3.313.319L2634.2-180.13a1.5,1.5,0,0,1,.492,1.107A1.487,1.487,0,0,1,2633.2-177.538Zm26.356-16.053-23.278,11.64c-.076-.08-.155-.157-.237-.231l-11.673-10.507a5.549,5.549,0,0,0-3.722-1.43,5.566,5.566,0,0,0-2.863.793l-5.147,3.087a1.85,1.85,0,0,1-.956.265,1.866,1.866,0,0,1-1.865-1.866v-.273a1.853,1.853,0,0,1,1.031-1.667l7.708-3.854a6.006,6.006,0,0,1,4.306-.4l8.683,2.48,2.1.053,25.912-13.638Z" transform="translate(-2576.655 248.005)" fill="#00223d"/>
      </g>
    </g>
  </g>
</svg>
