<svg xmlns="http://www.w3.org/2000/svg" xmlns:xlink="http://www.w3.org/1999/xlink" width="155.887" height="156.718" viewBox="0 0 155.887 156.718">
  <defs>
    <filter id="AdobeStock_309450420" x="0" y="0" width="155.887" height="156.718" filterUnits="userSpaceOnUse">
      <feOffset dx="3" dy="3" input="SourceAlpha"/>
      <feGaussianBlur stdDeviation="3" result="blur"/>
      <feFlood flood-opacity="0.161"/>
      <feComposite operator="in" in2="blur"/>
      <feComposite in="SourceGraphic"/>
    </filter>
  </defs>
  <g id="Grupo_1008802" data-name="Grupo 1008802" transform="translate(-382 -5634.893)">
    <g transform="matrix(1, 0, 0, 1, 382, 5634.89)" filter="url(#AdobeStock_309450420)">
      <g id="AdobeStock_309450420-2" data-name="AdobeStock_309450420" transform="translate(6 6)" fill="#fff" stroke="#fff" stroke-width="3">
        <ellipse cx="68.944" cy="69.359" rx="68.944" ry="69.359" stroke="none"/>
        <ellipse cx="68.944" cy="69.359" rx="67.444" ry="67.859" fill="none"/>
      </g>
    </g>
    <g id="Grupo_16841" data-name="Grupo 16841" transform="translate(420 5672.893)">
      <path id="Trazado_26389" data-name="Trazado 26389" d="M2421.182-201.661a31.823,31.823,0,0,1-31.823,31.823,31.822,31.822,0,0,1-31.823-31.823,31.822,31.822,0,0,1,31.823-31.823A31.823,31.823,0,0,1,2421.182-201.661Z" transform="translate(-2355.677 235.356)" fill="#b8eaee"/>
      <path id="Trazado_26390" data-name="Trazado 26390" d="M2421.886-201.661a31.8,31.8,0,0,0-20.632-29.8,31.794,31.794,0,0,0-35.137,8.887l1.482,7.807,3.745,7.488,9.359,7.488-1.872,7.488,5.615,5.616,5.616,3.743,5.616-7.488,7.488-5.615,9.36,3.743,9.117-5.593A31.837,31.837,0,0,0,2421.886-201.661Z" transform="translate(-2356.381 235.356)" fill="#99d8aa"/>
      <path id="Trazado_26391" data-name="Trazado 26391" d="M2365.024-202.9h-7.248a32.118,32.118,0,0,0-.24,3.744,31.614,31.614,0,0,0,4.68,16.538l6.552-1.562,1.872-3.744v-5.615l-3.744-1.873Z" transform="translate(-2355.677 232.846)" fill="#99d8aa"/>
      <path id="Trazado_26392" data-name="Trazado 26392" d="M2370.764-172a31.622,31.622,0,0,0,16.146,6.64l-2.082-7.28-7.487-3.743-5.616,3.743Z" transform="translate(-2356.763 230.671)" fill="#99d8aa"/>
      <path id="Trazado_26393" data-name="Trazado 26393" d="M2383.879-215.633a1.872,1.872,0,0,1-1.872-1.872v-1.873a1.872,1.872,0,0,1,1.872-1.872,1.872,1.872,0,0,1,1.872,1.872v1.873A1.872,1.872,0,0,1,2383.879-215.633Z" transform="translate(-2357.685 234.352)" fill="#85bc94"/>
      <path id="Trazado_26394" data-name="Trazado 26394" d="M2400.193-215.633a1.872,1.872,0,0,1-1.872-1.872v-1.873a1.872,1.872,0,0,1,1.872-1.872,1.872,1.872,0,0,1,1.872,1.872v1.873A1.872,1.872,0,0,1,2400.193-215.633Z" transform="translate(-2359.023 234.352)" fill="#85bc94"/>
      <path id="Trazado_26395" data-name="Trazado 26395" d="M2397.15-205.351a1.883,1.883,0,0,1-.592-.1,16,16,0,0,0-10.046,0,1.874,1.874,0,0,1-2.371-1.187,1.875,1.875,0,0,1,1.185-2.371,19.715,19.715,0,0,1,12.417,0,1.874,1.874,0,0,1,1.275,2.084A1.871,1.871,0,0,1,2397.15-205.351Z" transform="translate(-2357.852 233.43)" fill="#85bc94"/>
      <path id="Trazado_26396" data-name="Trazado 26396" d="M2410.221-204.935h18.72a3.744,3.744,0,0,1,3.743,3.744v37.438a3.744,3.744,0,0,1-3.743,3.744h-18.72a3.744,3.744,0,0,1-3.743-3.744v-37.438A3.744,3.744,0,0,1,2410.221-204.935Z" transform="translate(-2359.692 233.014)" fill="#d9d9d9"/>
      <path id="Trazado_26397" data-name="Trazado 26397" d="M2428.941-157.833h-18.72a3.744,3.744,0,0,1-3.743-3.744v-16.847l26.207,11.232v5.615A3.744,3.744,0,0,1,2428.941-157.833Z" transform="translate(-2359.692 230.839)" fill="#e06661"/>
      <path id="Trazado_26398" data-name="Trazado 26398" d="M2414.635-213.092h11.231v7.488h-11.231Z" transform="translate(-2360.362 233.683)" fill="#d9d9d9"/>
      <path id="Trazado_26399" data-name="Trazado 26399" d="M2421.182-201.661a31.823,31.823,0,0,1-31.823,31.823,31.822,31.822,0,0,1-31.823-31.823,31.822,31.822,0,0,1,31.823-31.823A31.823,31.823,0,0,1,2421.182-201.661Z" transform="translate(-2355.677 235.356)" fill="#b8eaee"/>
      <path id="Trazado_26400" data-name="Trazado 26400" d="M2421.886-201.661a31.8,31.8,0,0,0-20.632-29.8,31.794,31.794,0,0,0-35.137,8.887l1.482,7.807,3.745,7.488,9.359,7.488-1.872,7.488,5.615,5.616,5.616,3.743,5.616-7.488,7.488-5.615,9.36,3.743,9.117-5.593A31.837,31.837,0,0,0,2421.886-201.661Z" transform="translate(-2356.381 235.356)" fill="#99d8aa"/>
      <path id="Trazado_26401" data-name="Trazado 26401" d="M2365.024-202.9h-7.248a32.118,32.118,0,0,0-.24,3.744,31.614,31.614,0,0,0,4.68,16.538l6.552-1.562,1.872-3.744v-5.615l-3.744-1.873Z" transform="translate(-2355.677 232.846)" fill="#99d8aa"/>
      <path id="Trazado_26402" data-name="Trazado 26402" d="M2370.764-172a31.622,31.622,0,0,0,16.146,6.64l-2.082-7.28-7.487-3.743-5.616,3.743Z" transform="translate(-2356.763 230.671)" fill="#99d8aa"/>
      <path id="Trazado_26403" data-name="Trazado 26403" d="M2410.221-204.935h18.72a3.744,3.744,0,0,1,3.743,3.744v37.438a3.744,3.744,0,0,1-3.743,3.744h-18.72a3.744,3.744,0,0,1-3.743-3.744v-37.438A3.744,3.744,0,0,1,2410.221-204.935Z" transform="translate(-2359.692 233.014)" fill="#d9d9d9"/>
      <path id="Trazado_26404" data-name="Trazado 26404" d="M2428.941-157.833h-18.72a3.744,3.744,0,0,1-3.743-3.744v-16.847l26.207,11.232v5.615A3.744,3.744,0,0,1,2428.941-157.833Z" transform="translate(-2359.692 230.839)" fill="#e06661"/>
      <path id="Trazado_26405" data-name="Trazado 26405" d="M2414.635-213.092h11.231v7.488h-11.231Z" transform="translate(-2360.362 233.683)" fill="#d9d9d9"/>
      <path id="Trazado_26406" data-name="Trazado 26406" d="M2416.826-221.073c-.274-.391-.542-.787-.829-1.163-.156-.2-.323-.393-.481-.591-.344-.429-.688-.859-1.05-1.27-.111-.125-.231-.241-.343-.374-.427-.468-.857-.936-1.311-1.375-.052-.05-.111-.1-.163-.15a33.855,33.855,0,0,0-18.638-9.187.437.437,0,0,1-.149-.017q-1.122-.156-2.245-.245-1.2-.079-2.424-.078a33.623,33.623,0,0,0-3.557.187c-.186.02-.374.063-.575.087-.99.122-1.968.272-2.928.477-.2.041-.387.106-.584.15-.952.223-1.891.472-2.808.774-.21.069-.412.155-.619.229-.892.31-1.77.648-2.621,1.031-.237.1-.464.225-.7.335-.812.386-1.606.794-2.381,1.241-.255.147-.5.306-.75.459-.732.451-1.45.923-2.147,1.427-.256.187-.508.375-.759.562q-1.016.781-1.968,1.631c-.234.208-.468.416-.694.632-.652.614-1.271,1.259-1.872,1.922-.124.137-.262.254-.384.394-.018.017-.019.046-.036.067a33.545,33.545,0,0,0-8.051,18.116v.043c-.049.4-.081.811-.112,1.22-.083.95-.139,1.86-.139,2.712,0,1,.062,2,.151,3,.028.314.061.627.1.935.086.729.2,1.453.331,2.174.092.5.2.989.311,1.479.139.6.286,1.192.458,1.78.146.506.309,1,.479,1.5.12.352.251.7.384,1.048a33.495,33.495,0,0,0,2.494,5.183c.082.14.155.285.24.423a1.047,1.047,0,0,0,.074.094,33.922,33.922,0,0,0,7.748,8.754c.03.028.053.06.087.085.5.395,1.014.763,1.532,1.124.4.283.817.55,1.233.816.5.319,1,.629,1.512.92.374.213.749.415,1.14.615.5.259,1.009.5,1.522.733.357.163.711.336,1.076.487.8.33,1.613.625,2.434.893.374.123.769.228,1.154.338.563.162,1.135.309,1.708.441.394.09.785.186,1.181.258.861.164,1.729.306,2.6.4h.031a34.349,34.349,0,0,0,3.7.218,33.463,33.463,0,0,0,11.232-1.951v3.822a5.615,5.615,0,0,0,5.615,5.616h18.72a5.616,5.616,0,0,0,5.615-5.616V-203.7a5.616,5.616,0,0,0-5.615-5.616h-1.872v-5.616a1.873,1.873,0,0,0-1.873-1.872h-1.652c-.049-.1-.1-.187-.147-.286-.187-.375-.375-.737-.562-1.1s-.391-.655-.589-.98c-.221-.375-.434-.74-.667-1.1C2417.214-220.539,2417.015-220.8,2416.826-221.073Zm-54.535,32.327c-.094-.187-.187-.39-.283-.589-.221-.478-.435-.961-.632-1.45-.109-.278-.207-.561-.31-.85q-.386-1.052-.689-2.126c-.125-.442-.241-.886-.344-1.335-.079-.339-.163-.676-.23-1.018q-.226-1.157-.358-2.344c-.028-.237-.046-.473-.069-.709-.077-.877-.135-1.762-.135-2.661,0-.632.056-1.25.1-1.872h4.059l1.52,6.069a1.873,1.873,0,0,0,.977,1.223l2.709,1.353v4.017l-1.282,2.568-4.357,1.035C2362.725-187.865,2362.5-188.3,2362.291-188.747Zm13,13.423a.98.98,0,0,0-.089-.043c-.738-.393-1.455-.826-2.159-1.281-.079-.05-.163-.1-.241-.146l3.427-2.284,5.779,2.894,1.046,3.667A29.768,29.768,0,0,1,2375.288-175.323Zm25.137-7.786v9.013a29.726,29.726,0,0,1-11.232,2.219c-.706,0-1.4-.058-2.093-.107l-1.722-6.022a1.876,1.876,0,0,0-.962-1.162l-7.488-3.744a1.876,1.876,0,0,0-1.873.118l-5.408,3.606a30.24,30.24,0,0,1-4.534-4.908l3.931-.936a1.872,1.872,0,0,0,1.242-.984l1.872-3.744a1.879,1.879,0,0,0,.188-.835v-5.615a1.876,1.876,0,0,0-1.033-1.685l-2.975-1.484-1.664-6.652a1.87,1.87,0,0,0-1.816-1.419h-5.069a29.765,29.765,0,0,1,4.4-10.822l.7,3.694a1.956,1.956,0,0,0,.165.487l3.744,7.488a1.878,1.878,0,0,0,.5.625l8.424,6.739-1.579,6.324a1.873,1.873,0,0,0,.491,1.776l5.616,5.616a1.747,1.747,0,0,0,.285.233l5.616,3.744a1.872,1.872,0,0,0,2.534-.434l5.455-7.275,4.281-3.21Zm0-20.591v6.551l-6.74,5.054a1.829,1.829,0,0,0-.375.375l-4.555,6.072-3.979-2.659-4.734-4.737,1.613-6.46a1.868,1.868,0,0,0-.645-1.915l-9.04-7.232-3.444-6.887-1.256-6.621c.062-.07.123-.14.186-.207q.843-.888,1.743-1.685c.151-.136.3-.279.452-.411.636-.551,1.3-1.068,1.973-1.56.136-.1.263-.2.4-.3.749-.521,1.5-1,2.288-1.454.082-.047.161-.1.245-.148a29.366,29.366,0,0,1,2.682-1.342,29.8,29.8,0,0,1,11.955-2.518c.724,0,1.443.027,2.16.079s1.42.129,2.112.232h.014a30.159,30.159,0,0,1,16.63,8.223l.079.073c.423.413.825.846,1.224,1.284.081.087.165.17.244.26.34.384.661.785.98,1.187.126.157.258.308.375.468.273.357.53.733.789,1.106.149.216.308.425.455.646.225.344.432.7.644,1.057.073.119.145.238.215.359h-5.335a1.872,1.872,0,0,0-1.872,1.872v5.616h-1.872A5.615,5.615,0,0,0,2400.425-203.7Zm26.207,37.438a1.872,1.872,0,0,1-1.872,1.873h-18.72a1.872,1.872,0,0,1-1.872-1.873v-14.007l22.464,9.626Zm-5.616-39.311h3.744a1.872,1.872,0,0,1,1.872,1.873v28.985l-22.464-9.627V-203.7a1.872,1.872,0,0,1,1.872-1.873Zm-1.872-7.488v3.744h-7.488v-3.744Z" transform="translate(-2355.511 235.523)" fill="#00223d"/>
    </g>
  </g>
</svg>
