<svg xmlns="http://www.w3.org/2000/svg" xmlns:xlink="http://www.w3.org/1999/xlink" width="172" height="172" viewBox="0 0 172 172">
  <defs>
    <filter id="Elipse_5721" x="0" y="0" width="172" height="172" filterUnits="userSpaceOnUse">
      <feOffset dy="3" input="SourceAlpha"/>
      <feGaussianBlur stdDeviation="3" result="blur"/>
      <feFlood flood-opacity="0.161"/>
      <feComposite operator="in" in2="blur"/>
      <feComposite in="SourceGraphic"/>
    </filter>
  </defs>
  <g id="Grupo_1008813" data-name="Grupo 1008813" transform="translate(-717 -7148.893)">
    <g transform="matrix(1, 0, 0, 1, 717, 7148.89)" filter="url(#Elipse_5721)">
      <circle id="Elipse_5721-2" data-name="Elipse 5721" cx="77" cy="77" r="77" transform="translate(9 6)" fill="#fff"/>
    </g>
    <g id="Grupo_17061" data-name="Grupo 17061" transform="translate(-399.707 7613.483)">
      <g id="Grupo_17058" data-name="Grupo 17058" transform="translate(1156.254 -412.377)">
        <path id="Trazado_26871" data-name="Trazado 26871" d="M1250.228-313.672l20.149-20.125a4.4,4.4,0,0,0,0-6.208l-3.322-3.312a4.406,4.406,0,0,0-6.211,0l-.089.084-19.975,19.95-.085.09a4.394,4.394,0,0,0,0,6.2l3.323,3.318a4.391,4.391,0,0,0,1.137.819h3.936a4.478,4.478,0,0,0,1.137-.819Z" transform="translate(-1179.845 388.706)" fill="#dad0d3" fill-rule="evenodd"/>
        <path id="Trazado_26872" data-name="Trazado 26872" d="M1237.441-326.828l19.975-19.95-8.739-8.729c-13.087-7.413-23.683,9.579-20.768,19.158Z" transform="translate(-1176.505 392.252)" fill="#ffdcd5" fill-rule="evenodd"/>
        <path id="Trazado_26873" data-name="Trazado 26873" d="M1179.419-312.853h3.936a4.492,4.492,0,0,0,1.138-.819l3.322-3.318a4.394,4.394,0,0,0,0-6.2l-.09-.09-19.975-19.95-.085-.084a4.412,4.412,0,0,0-6.216,0L1158.132-340a4.4,4.4,0,0,0,0,6.208l20.144,20.125A4.5,4.5,0,0,0,1179.419-312.853Z" transform="translate(-1156.851 388.706)" fill="#ffa686" fill-rule="evenodd"/>
        <path id="Trazado_26874" data-name="Trazado 26874" d="M1215.7-350.484l12.336-12.316,5.195-5.188,1.634-1.632a4.649,4.649,0,0,0,0-6.557,4.652,4.652,0,0,0-6.565,0l1.646-1.649a4.64,4.64,0,0,0,0-6.557,4.653,4.653,0,0,0-6.565,0l1.645-1.649a4.639,4.639,0,0,0,0-6.556,4.663,4.663,0,0,0-6.565,0l1.651-1.643a4.656,4.656,0,0,0,0-6.563,4.652,4.652,0,0,0-4.031-1.289,4.6,4.6,0,0,0-2.54,1.289l-6.575,6.573.211.211.037.037a4.649,4.649,0,0,1,0,6.557,4.653,4.653,0,0,1-6.565,0,4.655,4.655,0,0,1,0,6.562,4.669,4.669,0,0,1-6.57,0,4.64,4.64,0,0,1,0,6.557,4.662,4.662,0,0,1-6.565,0,4.64,4.64,0,0,1,0,6.557,4.654,4.654,0,0,1-6.565,0l-.248-.249-8.745,8.729,19.975,19.95,8.347-8.337c2.365-2.447,7.9-.307,12.182-1.184a6.187,6.187,0,0,0,3.238-1.654Z" transform="translate(-1161.058 404.733)" fill="#ffd0c7" fill-rule="evenodd"/>
        <path id="Trazado_26875" data-name="Trazado 26875" d="M1207.929-388.051a4.653,4.653,0,0,0,6.565,0,4.649,4.649,0,0,0,0-6.557l-.037-.037c-2.788-.2-8.12-5.035-8.438-8.427a4.658,4.658,0,0,0-6.57,0,4.648,4.648,0,0,0,0,6.556l1.651,1.649Z" transform="translate(-1168.338 405.369)" fill="#ffdcd5" fill-rule="evenodd"/>
        <path id="Trazado_26876" data-name="Trazado 26876" d="M1199.46-378.322a4.669,4.669,0,0,0,6.57,0,4.655,4.655,0,0,0,0-6.562L1199.2-391.7a4.652,4.652,0,0,0-6.565,0,4.639,4.639,0,0,0,0,6.556l1.645,1.644Z" transform="translate(-1166.439 402.202)" fill="#ffdcd5" fill-rule="evenodd"/>
        <path id="Trazado_26877" data-name="Trazado 26877" d="M1191-368.6a4.663,4.663,0,0,0,6.565,0,4.64,4.64,0,0,0,0-6.557l-5.179-5.178a4.664,4.664,0,0,0-6.565,0,4.647,4.647,0,0,0,0,6.563l3.3,3.291Z" transform="translate(-1164.54 399.035)" fill="#ffdcd5" fill-rule="evenodd"/>
        <path id="Trazado_26878" data-name="Trazado 26878" d="M1183.169-358.239a4.653,4.653,0,0,0,6.565,0,4.638,4.638,0,0,0,0-6.557l-1.883-1.881a4.658,4.658,0,0,0-6.57,0,4.649,4.649,0,0,0,0,6.557l1.64,1.632Z" transform="translate(-1163.278 395.233)" fill="#ffdcd5" fill-rule="evenodd"/>
        <path id="Trazado_26879" data-name="Trazado 26879" d="M1217.3-395.22l6.575-6.573a4.6,4.6,0,0,1,2.54-1.289l-12.7-2.4c-2.507-.475-4.882-.491-4.639,2.05.317,3.392,5.649,8.227,8.437,8.427Z" transform="translate(-1171.389 405.733)" fill="#ffdcd5" fill-rule="evenodd"/>
      </g>
      <g id="Grupo_17060" data-name="Grupo 17060" transform="translate(1154.707 -429.591)">
        <path id="Trazado_26880" data-name="Trazado 26880" d="M1170.521-317.728a1.879,1.879,0,0,0,.023,2.659l.005.005a1.867,1.867,0,0,0,1.314.538,1.879,1.879,0,0,0,1.342-.563,1.884,1.884,0,0,0-.025-2.662A1.88,1.88,0,0,0,1170.521-317.728Z" transform="translate(-1158.961 398.593)" fill="#00223d"/>
        <g id="Grupo_17059" data-name="Grupo 17059">
          <path id="Trazado_26881" data-name="Trazado 26881" d="M1219.753-417.447a1.88,1.88,0,0,0,1.88-1.88v-8.385a1.88,1.88,0,0,0-1.88-1.88,1.879,1.879,0,0,0-1.88,1.88v8.385a1.879,1.879,0,0,0,1.88,1.88Z" transform="translate(-1172.299 429.591)" fill="#00223d"/>
          <path id="Trazado_26882" data-name="Trazado 26882" d="M1248.114-359.087l-3.321-3.312a6.233,6.233,0,0,0-4.433-1.83,6.253,6.253,0,0,0-3.015.767l-6.258-6.251.3-.3a6.524,6.524,0,0,0,0-9.213,6.46,6.46,0,0,0-3.273-1.77,6.549,6.549,0,0,0,.26-1.829,6.457,6.457,0,0,0-1.907-4.606,6.447,6.447,0,0,0-3.272-1.77,6.574,6.574,0,0,0,.259-1.829,6.455,6.455,0,0,0-1.908-4.608,6.485,6.485,0,0,0-3.27-1.766,6.534,6.534,0,0,0-1.646-6.442,6.527,6.527,0,0,0-5.307-1.861l-12.4-2.347c-1.892-.359-4.253-.6-5.745.763a3.4,3.4,0,0,0-.284.3,6.538,6.538,0,0,0-6.859,1.508,6.469,6.469,0,0,0-1.9,4.609,6.579,6.579,0,0,0,.259,1.829,6.444,6.444,0,0,0-3.267,1.765,6.458,6.458,0,0,0-1.91,4.6,6.56,6.56,0,0,0,.259,1.834,6.462,6.462,0,0,0-3.271,1.764,6.473,6.473,0,0,0-1.908,4.611,6.473,6.473,0,0,0,1.138,3.685,6.471,6.471,0,0,0-2.5,1.558,6.526,6.526,0,0,0,0,9.219l.3.3-6.259,6.247a6.286,6.286,0,0,0-7.112,1.232l-3.323,3.314a6.224,6.224,0,0,0-1.833,4.434,6.224,6.224,0,0,0,1.833,4.435l4.147,4.142a1.879,1.879,0,0,0,2.658,0,1.879,1.879,0,0,0,0-2.659l-4.147-4.142a2.49,2.49,0,0,1-.73-1.774,2.487,2.487,0,0,1,.729-1.773l3.323-3.315a2.519,2.519,0,0,1,3.066-.376,1.852,1.852,0,0,0,.236.289,1.854,1.854,0,0,0,.54.376l19.058,19.03a1.87,1.87,0,0,0,.377.545,1.862,1.862,0,0,0,.529.371,2.485,2.485,0,0,1,.625,1.658,2.489,2.489,0,0,1-.729,1.774l-3.32,3.316a2.524,2.524,0,0,1-3.554,0l-4.148-4.147a1.88,1.88,0,0,0-2.659,0,1.881,1.881,0,0,0,0,2.659l4.15,4.151a6.261,6.261,0,0,0,4.431,1.825,6.267,6.267,0,0,0,4.435-1.827l3.322-3.318a6.224,6.224,0,0,0,1.833-4.434,6.231,6.231,0,0,0-.953-3.329l7.044-7.036.022-.022c.807-.834,3.053-.678,5.225-.527a27,27,0,0,0,4.945.033l7.714,7.7a6.238,6.238,0,0,0-.767,3.011,6.218,6.218,0,0,0,1.833,4.431l3.322,3.318a6.231,6.231,0,0,0,4.434,1.83,6.233,6.233,0,0,0,4.434-1.83l20.149-20.125a6.223,6.223,0,0,0,1.833-4.434,6.22,6.22,0,0,0-1.833-4.435Zm-49.889-45.276,8.155,1.543-4.881,4.879a11.853,11.853,0,0,1-2.926-2.125c-1.553-1.487-2.665-3.2-2.766-4.274h0a1.6,1.6,0,0,1-.008-.185,6.357,6.357,0,0,1,2.426.164Zm-9.53,1.532a2.774,2.774,0,0,1,3.508-.333c.61,2.557,2.791,4.874,3.772,5.814a13.933,13.933,0,0,0,5.416,3.356,2.739,2.739,0,0,1,.492,1.576,2.733,2.733,0,0,1-.8,1.95,2.738,2.738,0,0,1-1.952.8,2.738,2.738,0,0,1-1.954-.806h0l-8.478-8.462a2.735,2.735,0,0,1-.8-1.948,2.736,2.736,0,0,1,.8-1.949Zm-4.913,8.2a2.735,2.735,0,0,1,1.95-.8,2.746,2.746,0,0,1,1.956.806l6.827,6.813a2.767,2.767,0,0,1,0,3.9,2.752,2.752,0,0,1-1.958.8,2.753,2.753,0,0,1-1.956-.8h0l-5.179-5.178c-.009-.008-.017-.015-.025-.024l-1.62-1.619a2.738,2.738,0,0,1-.805-1.952,2.727,2.727,0,0,1,.807-1.947Zm-4.922,8.2a2.748,2.748,0,0,1,1.955-.8,2.742,2.742,0,0,1,1.939.789l5.195,5.193a2.726,2.726,0,0,1,.8,1.947,2.73,2.73,0,0,1-.805,1.948,2.744,2.744,0,0,1-1.953.8,2.752,2.752,0,0,1-1.955-.8l-1.884-1.881h0l-3.294-3.29a2.738,2.738,0,0,1-.805-1.951,2.739,2.739,0,0,1,.8-1.951Zm-3.274,9.854a2.751,2.751,0,0,1,1.957-.805,2.749,2.749,0,0,1,1.956.805l1.885,1.883a2.727,2.727,0,0,1,.8,1.947,2.731,2.731,0,0,1-.807,1.95,2.738,2.738,0,0,1-1.952.8,2.741,2.741,0,0,1-1.956-.807l-.236-.235-.009-.009-.011-.01-1.629-1.623a2.761,2.761,0,0,1,0-3.9Zm38.311,21.366a1.879,1.879,0,0,0-2.658,0l-1.673,1.67c-1.589,1.589-4.469,1.389-7.254,1.2-3.024-.21-6.151-.427-8.175,1.651l-6.924,6.916L1169.9-361.066l6.128-6.117a6.494,6.494,0,0,0,3.4.954,6.469,6.469,0,0,0,4.609-1.9,6.462,6.462,0,0,0,1.91-4.61c0-.017,0-.032,0-.048h.049a6.477,6.477,0,0,0,4.607-1.9,6.462,6.462,0,0,0,1.91-4.61c0-.017,0-.032,0-.048h.049a6.494,6.494,0,0,0,4.615-1.9,6.5,6.5,0,0,0,1.9-4.657h.051a6.467,6.467,0,0,0,4.61-1.905,6.465,6.465,0,0,0,1.9-4.608,6.481,6.481,0,0,0-.951-3.4l5.372-5.369a2.757,2.757,0,0,1,1.411-.753c.056-.006.112-.014.166-.025a2.764,2.764,0,0,1,2.336.773,2.768,2.768,0,0,1,0,3.9l-1.636,1.629-.017.016-1.885,1.881a1.88,1.88,0,0,0,0,2.659,1.88,1.88,0,0,0,2.659,0l1.642-1.64h0l.248-.247a2.768,2.768,0,0,1,3.9.009,2.726,2.726,0,0,1,.8,1.947,2.729,2.729,0,0,1-.808,1.95l-1.645,1.648h0l-1.885,1.877a1.881,1.881,0,0,0-.005,2.659,1.881,1.881,0,0,0,2.659.005l1.892-1.885a2.737,2.737,0,0,1,1.952-.8,2.741,2.741,0,0,1,1.956.807,2.725,2.725,0,0,1,.8,1.947,2.727,2.727,0,0,1-.806,1.949l-3.28,3.281a1.881,1.881,0,0,0,0,2.659,1.876,1.876,0,0,0,1.33.55,1.874,1.874,0,0,0,1.329-.551l1.607-1.608.028-.025a2.737,2.737,0,0,1,1.952-.8,2.739,2.739,0,0,1,1.954.805,2.761,2.761,0,0,1,0,3.9l-1.635,1.633h0v0l-2.595,2.59a1.88,1.88,0,0,0,0,2.659,1.874,1.874,0,0,0,1.33.552,1.874,1.874,0,0,0,1.328-.55l1.269-1.268,6.081,6.074-17.314,17.294-6.2-6.2a7.393,7.393,0,0,0,1.234-.994l1.672-1.67a1.879,1.879,0,0,0,0-2.658Zm31.562,2.328-20.149,20.125a2.5,2.5,0,0,1-1.776.73,2.5,2.5,0,0,1-1.777-.73l-3.322-3.318a2.484,2.484,0,0,1-.73-1.771,2.482,2.482,0,0,1,.73-1.771l20.149-20.125a2.5,2.5,0,0,1,1.777-.73,2.5,2.5,0,0,1,1.778.731l3.321,3.312a2.49,2.49,0,0,1,.73,1.774A2.491,2.491,0,0,1,1245.458-352.878Z" transform="translate(-1154.707 423.672)" fill="#00223d"/>
          <path id="Trazado_26883" data-name="Trazado 26883" d="M1183.022-418.833a1.877,1.877,0,0,0,1.328.549,1.875,1.875,0,0,0,1.331-.552,1.879,1.879,0,0,0,0-2.659l-6.85-6.837a1.88,1.88,0,0,0-2.659,0,1.88,1.88,0,0,0,0,2.659Z" transform="translate(-1160.531 429.393)" fill="#00223d"/>
          <path id="Trazado_26884" data-name="Trazado 26884" d="M1252.51-418.284a1.875,1.875,0,0,0,1.329-.55l6.845-6.837a1.879,1.879,0,0,0,0-2.658,1.88,1.88,0,0,0-2.659,0l-6.845,6.837a1.88,1.88,0,0,0,0,2.659A1.875,1.875,0,0,0,1252.51-418.284Z" transform="translate(-1181.422 429.393)" fill="#00223d"/>
          <path id="Trazado_26885" data-name="Trazado 26885" d="M1242.388-339.9a1.881,1.881,0,0,0,.849-.2,1.88,1.88,0,0,0,.832-2.525,1.88,1.88,0,0,0-2.525-.832l-.01.005a1.876,1.876,0,0,0-.827,2.523,1.882,1.882,0,0,0,1.682,1.032Z" transform="translate(-1178.602 405.66)" fill="#00223d"/>
        </g>
      </g>
    </g>
  </g>
</svg>
