<svg xmlns="http://www.w3.org/2000/svg" xmlns:xlink="http://www.w3.org/1999/xlink" width="172" height="172" viewBox="0 0 172 172">
  <defs>
    <filter id="Elipse_5724" x="0" y="0" width="172" height="172" filterUnits="userSpaceOnUse">
      <feOffset dy="3" input="SourceAlpha"/>
      <feGaussianBlur stdDeviation="3" result="blur"/>
      <feFlood flood-opacity="0.161"/>
      <feComposite operator="in" in2="blur"/>
      <feComposite in="SourceGraphic"/>
    </filter>
  </defs>
  <g id="Grupo_1008816" data-name="Grupo 1008816" transform="translate(5276 4537)">
    <g transform="matrix(1, 0, 0, 1, -5276, -4537)" filter="url(#Elipse_5724)">
      <circle id="Elipse_5724-2" data-name="Elipse 5724" cx="77" cy="77" r="77" transform="translate(9 6)" fill="#fff"/>
    </g>
    <g id="Grupo_17072" data-name="Grupo 17072" transform="translate(-6687.083 -4088.501)">
      <g id="Grupo_17070" data-name="Grupo 17070" transform="translate(1455.424 -409.167)">
        <path id="Trazado_26903" data-name="Trazado 26903" d="M1533.541-361.007v-38.578a2.455,2.455,0,0,0-2.455-2.455h-3.72l-2.933,1.74H1464.04l-2.028-1.74h-3.72a2.456,2.456,0,0,0-2.456,2.455v40.064a6.964,6.964,0,0,0,6.964,6.964h22.533a4.416,4.416,0,0,1,3.9,2.344,6.183,6.183,0,0,0,5.46,3.279,6.184,6.184,0,0,0,5.46-3.279,4.415,4.415,0,0,1,3.895-2.344h2.738l8.74,3.226,18.948-7.191v-2.952Z" transform="translate(-1455.836 407.178)" fill="#ff7f87"/>
        <g id="Grupo_17067" data-name="Grupo 17067" transform="translate(0 5.138)">
          <path id="Trazado_26904" data-name="Trazado 26904" d="M1463.829-359.52v-40.064a2.448,2.448,0,0,1,.131-.785l-1.948-1.671h-3.72a2.456,2.456,0,0,0-2.456,2.455v40.064a6.964,6.964,0,0,0,6.964,6.964h7.993A6.965,6.965,0,0,1,1463.829-359.52Z" transform="translate(-1455.836 402.04)" fill="#ff636e"/>
        </g>
        <path id="Trazado_26905" data-name="Trazado 26905" d="M1528.107-408.757h-27.859l-.452.3h-1.888l-.324-.3h-20.279a3.487,3.487,0,0,0-3.487,3.486v42.511a2.456,2.456,0,0,0,2.456,2.456h21.31l.358-.293h1.976l.33.293h19.5l1.156.466,9.917-1.451.6-.563a2.453,2.453,0,0,0,.175-.908v-42.51a3.486,3.486,0,0,0-3.486-3.487Z" transform="translate(-1460.064 408.757)" fill="#dbedff"/>
        <g id="Grupo_17068" data-name="Grupo 17068" transform="translate(6.176)">
          <path id="Trazado_26906" data-name="Trazado 26906" d="M1471.9-362.759V-405.27a3.487,3.487,0,0,1,3.487-3.487H1467.4a3.487,3.487,0,0,0-3.486,3.487v42.511a2.456,2.456,0,0,0,2.456,2.455h7.993A2.456,2.456,0,0,1,1471.9-362.759Z" transform="translate(-1463.91 408.757)" fill="#b5dcff"/>
        </g>
        <path id="Trazado_26907" data-name="Trazado 26907" d="M1551.4-354.267a2.913,2.913,0,0,0-2.739,1.829.23.23,0,0,1-.212.147.23.23,0,0,1-.212-.147,2.912,2.912,0,0,0-2.7-1.829,2.913,2.913,0,0,0-2.7,1.829.229.229,0,0,1-.212.147h0a.231.231,0,0,1-.212-.147,2.912,2.912,0,0,0-2.7-1.829,2.67,2.67,0,0,0-2.532,1.846.2.2,0,0,1-.184.129.2.2,0,0,1-.2-.2v-12.7a2.914,2.914,0,0,0-3.015-2.913,2.965,2.965,0,0,0-2.816,2.989v19.543a.724.724,0,0,1-1.221.526l-3.16-2.99a3.135,3.135,0,0,0-4.539.242,2.326,2.326,0,0,0,0,3l1.326,1.586a9.932,9.932,0,0,1,1.768,3.092,13.406,13.406,0,0,0,3.9,5.757,5.434,5.434,0,0,1,1.925,4.14v3.061l.5,1h20.161l.718-.809V-331.3a11.7,11.7,0,0,1,.922-4.643,12.464,12.464,0,0,0,1.021-4.942v-10.382a2.97,2.97,0,0,0-2.879-3Z" transform="translate(-1471.273 399.198)" fill="#ffdecf"/>
        <g id="Grupo_17069" data-name="Grupo 17069" transform="translate(50.218 31.098)">
          <path id="Trazado_26908" data-name="Trazado 26908" d="M1533.042-344.73a2.384,2.384,0,0,0,4.023-1.732v-18.647a3.029,3.029,0,0,1,1.215-2.426,2.9,2.9,0,0,0-1.819-.563,2.964,2.964,0,0,0-2.815,2.989v19.543a.722.722,0,0,1-.721.724Z" transform="translate(-1524.179 368.099)" fill="#ffcebe"/>
          <path id="Trazado_26909" data-name="Trazado 26909" d="M1534.377-324.309a5.435,5.435,0,0,0-1.925-4.14,13.394,13.394,0,0,1-3.9-5.758,9.929,9.929,0,0,0-1.768-3.091l-1.23-1.471a2.515,2.515,0,0,1-.343-2.734c.333-.663.778-.827,1.274-.7a3.132,3.132,0,0,0-4.448.319,2.328,2.328,0,0,0,0,3l1.326,1.585a9.949,9.949,0,0,1,1.768,3.092,13.393,13.393,0,0,0,3.9,5.757,5.436,5.436,0,0,1,1.924,4.14v3.06l.5,1h3.419l-.5-1Z" transform="translate(-1521.491 362.193)" fill="#ffcebe"/>
        </g>
        <path id="Trazado_26910" data-name="Trazado 26910" d="M1557.279-306.793h-13.3l-.946.7v7.243a2.469,2.469,0,0,0,1.728,2.347h11.264a2.414,2.414,0,0,0,2.407-2.407V-306Z" transform="translate(-1476.338 384.783)" fill="#60b9fe"/>
        <path id="Trazado_26911" data-name="Trazado 26911" d="M1540.516-298.911V-306l1.075-.793h-8.42L1532.1-306v7.089a2.414,2.414,0,0,0,2.407,2.407h8.42A2.414,2.414,0,0,1,1540.516-298.911Z" transform="translate(-1473.766 384.783)" fill="#1ca8ff"/>
        <path id="Trazado_26912" data-name="Trazado 26912" d="M1556.028-314.891h-11.1a2.461,2.461,0,0,0-1.888,2.386v4.6h15.393v-4.58a2.414,2.414,0,0,0-2.407-2.407Z" transform="translate(-1476.34 386.687)" fill="#dbedff"/>
        <path id="Trazado_26913" data-name="Trazado 26913" d="M1542.923-314.891h-8.42a2.414,2.414,0,0,0-2.407,2.407v4.58h8.42v-4.58A2.414,2.414,0,0,1,1542.923-314.891Z" transform="translate(-1473.766 386.687)" fill="#b5dcff"/>
      </g>
      <g id="Grupo_17071" data-name="Grupo 17071" transform="translate(1454.083 -410.499)">
        <path id="Trazado_26914" data-name="Trazado 26914" d="M1523.458-410.5h-58.38a4.824,4.824,0,0,0-4.819,4.819v.319h-2.388a3.792,3.792,0,0,0-3.788,3.788v40.064a8.305,8.305,0,0,0,8.3,8.3h6.209a1.332,1.332,0,0,0,1.332-1.332,1.332,1.332,0,0,0-1.332-1.332h-6.209a5.639,5.639,0,0,1-5.632-5.632v-40.064a1.125,1.125,0,0,1,1.124-1.124h2.388v39.528a3.792,3.792,0,0,0,3.788,3.788h41.959a3.753,3.753,0,0,0-1.687,3.5h-.7a5.739,5.739,0,0,0-5.07,3.05,4.849,4.849,0,0,1-4.285,2.573,4.847,4.847,0,0,1-4.284-2.573,5.74,5.74,0,0,0-5.071-3.05h-10.107a1.333,1.333,0,0,0-1.333,1.332,1.333,1.333,0,0,0,1.333,1.332h10.107a3.079,3.079,0,0,1,2.72,1.638,7.507,7.507,0,0,0,6.635,3.984,7.509,7.509,0,0,0,6.636-3.984,3.079,3.079,0,0,1,2.719-1.638h2.115l.748.894a8.573,8.573,0,0,1,1.533,2.676,14.653,14.653,0,0,0,4.294,6.334,4.1,4.1,0,0,1,1.455,3.125v2.344a3.732,3.732,0,0,0-1.355,2.878v11.669a3.744,3.744,0,0,0,3.74,3.74H1535.1a3.744,3.744,0,0,0,3.74-3.74v-11.669a3.724,3.724,0,0,0-1.036-2.577v-3.73a10.313,10.313,0,0,1,.812-4.114,13.715,13.715,0,0,0,1.13-5.47v-1.617a1.332,1.332,0,0,0-1.332-1.332,1.331,1.331,0,0,0-1.332,1.332v1.617a11.077,11.077,0,0,1-.912,4.414,12.951,12.951,0,0,0-1.031,5.171v2.567h-18.71v-1.482a6.757,6.757,0,0,0-2.394-5.155,12.007,12.007,0,0,1-3.5-5.181,11.209,11.209,0,0,0-2-3.507l-1.326-1.585a1,1,0,0,1-.011-1.279,1.8,1.8,0,0,1,2.61-.139l3.16,2.99a2.057,2.057,0,0,0,3.469-1.493v-19.543a1.635,1.635,0,0,1,1.527-1.658,1.581,1.581,0,0,1,1.638,1.582v12.7a1.531,1.531,0,0,0,1.53,1.529,1.539,1.539,0,0,0,1.428-.985,1.366,1.366,0,0,1,1.289-.991,1.575,1.575,0,0,1,1.467.993,1.559,1.559,0,0,0,2.8.206,1.7,1.7,0,0,1,1.567-1.2,1.574,1.574,0,0,1,1.466.993,1.556,1.556,0,0,0,1.449.984,1.556,1.556,0,0,0,1.448-.983,1.974,1.974,0,0,1,.147-.276,1.585,1.585,0,0,1,2.9.951v2.548a1.332,1.332,0,0,0,1.332,1.332,1.332,1.332,0,0,0,1.332-1.332v-2.548a4.277,4.277,0,0,0-5.3-4.2v-36.139a3.792,3.792,0,0,0-3.788-3.788h-2.387v-.318a4.825,4.825,0,0,0-4.82-4.82Zm-8.381,75.535a1.078,1.078,0,0,1,1.075-1.075H1535.1a1.079,1.079,0,0,1,1.075,1.075v3.248h-21.1Zm0,5.913h21.1v5.757a1.077,1.077,0,0,1-1.075,1.075h-18.951a1.077,1.077,0,0,1-1.075-1.075Zm-22.141-33h-28.89a1.125,1.125,0,0,1-1.124-1.123v-42.511a2.157,2.157,0,0,1,2.155-2.155h27.859Zm20.832,5.1-2.133-2.019a4.92,4.92,0,0,0-.507-.415h2.64Zm11.845-8.239a4.2,4.2,0,0,0-3.351-.065v-9.9a4.244,4.244,0,0,0-4.392-4.244,4.274,4.274,0,0,0-3.7,2.491h-11.737a1.332,1.332,0,0,0-1.333,1.332,1.333,1.333,0,0,0,1.333,1.332h11.33v3.579h-11.33a1.333,1.333,0,0,0-1.333,1.332,1.333,1.333,0,0,0,1.333,1.332h11.33v5.953H1495.6v-45.788h27.858a2.156,2.156,0,0,1,2.155,2.154Zm5.052-37.511a1.125,1.125,0,0,1,1.124,1.124v36.566a4.307,4.307,0,0,0-3.511-.327V-402.7Z" transform="translate(-1454.083 410.499)" fill="#00223d"/>
        <path id="Trazado_26915" data-name="Trazado 26915" d="M1474.169-396.567h16.339a1.332,1.332,0,0,0,1.332-1.332,1.332,1.332,0,0,0-1.332-1.332h-16.339a1.332,1.332,0,0,0-1.332,1.332A1.332,1.332,0,0,0,1474.169-396.567Z" transform="translate(-1458.492 407.85)" fill="#00223d"/>
        <path id="Trazado_26916" data-name="Trazado 26916" d="M1474.169-388.4h16.339a1.332,1.332,0,0,0,1.332-1.332,1.332,1.332,0,0,0-1.332-1.332h-16.339a1.332,1.332,0,0,0-1.332,1.332A1.332,1.332,0,0,0,1474.169-388.4Z" transform="translate(-1458.492 405.931)" fill="#00223d"/>
        <path id="Trazado_26917" data-name="Trazado 26917" d="M1474.169-380.242h16.339a1.332,1.332,0,0,0,1.332-1.332,1.332,1.332,0,0,0-1.332-1.332h-16.339a1.332,1.332,0,0,0-1.332,1.332A1.332,1.332,0,0,0,1474.169-380.242Z" transform="translate(-1458.492 404.012)" fill="#00223d"/>
        <path id="Trazado_26918" data-name="Trazado 26918" d="M1474.169-372.08h16.339a1.331,1.331,0,0,0,1.332-1.332,1.332,1.332,0,0,0-1.332-1.332h-16.339a1.332,1.332,0,0,0-1.332,1.332A1.332,1.332,0,0,0,1474.169-372.08Z" transform="translate(-1458.492 402.092)" fill="#00223d"/>
        <path id="Trazado_26919" data-name="Trazado 26919" d="M1474.169-363.917h16.339a1.332,1.332,0,0,0,1.332-1.332,1.332,1.332,0,0,0-1.332-1.332h-16.339a1.332,1.332,0,0,0-1.332,1.332A1.332,1.332,0,0,0,1474.169-363.917Z" transform="translate(-1458.492 400.173)" fill="#00223d"/>
        <path id="Trazado_26920" data-name="Trazado 26920" d="M1474.169-355.754h16.339a1.332,1.332,0,0,0,1.332-1.332,1.332,1.332,0,0,0-1.332-1.332h-16.339a1.332,1.332,0,0,0-1.332,1.332A1.332,1.332,0,0,0,1474.169-355.754Z" transform="translate(-1458.492 398.254)" fill="#00223d"/>
        <path id="Trazado_26921" data-name="Trazado 26921" d="M1533.23-399.232h-16.339a1.333,1.333,0,0,0-1.333,1.332,1.333,1.333,0,0,0,1.333,1.332h16.339a1.332,1.332,0,0,0,1.332-1.332A1.332,1.332,0,0,0,1533.23-399.232Z" transform="translate(-1468.537 407.85)" fill="#00223d"/>
        <path id="Trazado_26922" data-name="Trazado 26922" d="M1533.23-391.069h-16.339a1.333,1.333,0,0,0-1.333,1.332,1.332,1.332,0,0,0,1.333,1.332h16.339a1.332,1.332,0,0,0,1.332-1.332A1.332,1.332,0,0,0,1533.23-391.069Z" transform="translate(-1468.537 405.931)" fill="#00223d"/>
        <path id="Trazado_26923" data-name="Trazado 26923" d="M1533.23-382.907h-16.339a1.333,1.333,0,0,0-1.333,1.332,1.333,1.333,0,0,0,1.333,1.332h16.339a1.332,1.332,0,0,0,1.332-1.332A1.332,1.332,0,0,0,1533.23-382.907Z" transform="translate(-1468.537 404.012)" fill="#00223d"/>
        <path id="Trazado_26924" data-name="Trazado 26924" d="M1533.23-374.744h-16.339a1.333,1.333,0,0,0-1.333,1.332,1.332,1.332,0,0,0,1.333,1.332h16.339a1.331,1.331,0,0,0,1.332-1.332A1.332,1.332,0,0,0,1533.23-374.744Z" transform="translate(-1468.537 402.092)" fill="#00223d"/>
      </g>
    </g>
  </g>
</svg>
