<svg xmlns="http://www.w3.org/2000/svg" xmlns:xlink="http://www.w3.org/1999/xlink" width="143" height="143" viewBox="0 0 143 143">
  <defs>
    <filter id="Elipse_5732" x="0" y="0" width="143" height="143" filterUnits="userSpaceOnUse">
      <feOffset dy="3" input="SourceAlpha"/>
      <feGaussianBlur stdDeviation="3" result="blur"/>
      <feFlood flood-opacity="0.161"/>
      <feComposite operator="in" in2="blur"/>
      <feComposite in="SourceGraphic"/>
    </filter>
  </defs>
  <g id="Grupo_1008838" data-name="Grupo 1008838" transform="translate(-171 -8913.893)">
    <g transform="matrix(1, 0, 0, 1, 171, 8913.89)" filter="url(#Elipse_5732)">
      <circle id="Elipse_5732-2" data-name="Elipse 5732" cx="62.5" cy="62.5" r="62.5" transform="translate(9 6)" fill="#fff"/>
    </g>
    <g id="Grupo_16888" data-name="Grupo 16888" transform="translate(205 8943.893)">
      <g id="Grupo_16876" data-name="Grupo 16876" transform="translate(32.776 1.14)">
        <path id="Trazado_26494" data-name="Trazado 26494" d="M2871.267-205.772v-28.564a3.071,3.071,0,0,0-3.071-3.071h-28.564v10.6a1.537,1.537,0,0,0,1.536,1.536h3.587a1.548,1.548,0,0,0,1.131-.5,6.129,6.129,0,0,1,4.935-1.942,6.163,6.163,0,0,1,5.689,5.691,6.144,6.144,0,0,1-6.128,6.58,6.123,6.123,0,0,1-4.493-1.955,1.554,1.554,0,0,0-1.136-.5h-3.586a1.537,1.537,0,0,0-1.536,1.536v10.6Z" transform="translate(-2839.631 237.408)" fill="#00fa95"/>
      </g>
      <g id="Grupo_16877" data-name="Grupo 16877" transform="translate(49.122 1.14)">
        <path id="Trazado_26495" data-name="Trazado 26495" d="M2871.254-237.408h-6.792a39.866,39.866,0,0,1,1.188,9.675,39.581,39.581,0,0,1-6.612,21.96h15.289v-28.564A3.071,3.071,0,0,0,2871.254-237.408Z" transform="translate(-2859.037 237.408)" fill="#02dd84"/>
      </g>
      <g id="Grupo_16878" data-name="Grupo 16878" transform="translate(1.14 1.14)">
        <path id="Trazado_26496" data-name="Trazado 26496" d="M2844.9-227.717a6.129,6.129,0,0,0-4.935,1.942,1.548,1.548,0,0,1-1.132.5h-3.586a1.536,1.536,0,0,1-1.536-1.536v-10.6h-28.564a3.072,3.072,0,0,0-3.071,3.071v28.564h10.6a1.536,1.536,0,0,0,1.536-1.536v-3.586a1.548,1.548,0,0,0-.5-1.132,6.13,6.13,0,0,1-1.942-4.935,6.162,6.162,0,0,1,5.691-5.689,6.144,6.144,0,0,1,6.58,6.127,6.126,6.126,0,0,1-1.955,4.494,1.551,1.551,0,0,0-.5,1.135v3.586a1.535,1.535,0,0,0,1.535,1.536h10.6v-10.6a1.536,1.536,0,0,1,1.536-1.536h3.586a1.55,1.55,0,0,1,1.135.5,6.127,6.127,0,0,0,4.494,1.955,6.143,6.143,0,0,0,6.127-6.579,6.162,6.162,0,0,0-5.688-5.692Z" transform="translate(-2802.075 237.408)" fill="#b3e6ff"/>
      </g>
      <g id="Grupo_16879" data-name="Grupo 16879" transform="translate(1.14 15.883)">
        <path id="Trazado_26497" data-name="Trazado 26497" d="M2811.766-214.2a6.127,6.127,0,0,0,1.942,4.935,1.551,1.551,0,0,1,.5,1.132v3.586a1.536,1.536,0,0,1-1.537,1.536h-10.6v28.564a3.071,3.071,0,0,0,3.071,3.071h28.564v-10.6a1.535,1.535,0,0,0-1.535-1.536h-3.586a1.548,1.548,0,0,0-1.132.5,6.127,6.127,0,0,1-4.935,1.942,6.162,6.162,0,0,1-5.689-5.691,6.143,6.143,0,0,1,6.127-6.579,6.126,6.126,0,0,1,4.494,1.955,1.554,1.554,0,0,0,1.135.5h3.586a1.535,1.535,0,0,0,1.535-1.536v-10.6h-10.6a1.535,1.535,0,0,1-1.535-1.536v-3.586a1.551,1.551,0,0,1,.5-1.135,6.126,6.126,0,0,0,1.955-4.494,6.144,6.144,0,0,0-6.579-6.127,6.162,6.162,0,0,0-5.691,5.689Z" transform="translate(-2802.075 219.906)" fill="#ffbfa8"/>
      </g>
      <g id="Grupo_16880" data-name="Grupo 16880" transform="translate(1.14 47.735)">
        <path id="Trazado_26498" data-name="Trazado 26498" d="M2832.175-177.548h-3.586a1.55,1.55,0,0,0-1.132.5,6.127,6.127,0,0,1-4.935,1.942,6.168,6.168,0,0,1-5.371-4.134c-.086,0-.171,0-.257,0a39.672,39.672,0,0,1-14.82-2.855v13.6a3.071,3.071,0,0,0,3.071,3.071h28.564v-10.6a1.535,1.535,0,0,0-1.535-1.536Z" transform="translate(-2802.075 182.093)" fill="#ffa686"/>
      </g>
      <g id="Grupo_16886" data-name="Grupo 16886" transform="translate(29.857 32.775)">
        <g id="Grupo_16881" data-name="Grupo 16881">
          <path id="Trazado_26499" data-name="Trazado 26499" d="M2876.308-177.891a18.61,18.61,0,0,0-.339-3.539l3.264-3.086-5.029-8.711-4.315,1.287a18.629,18.629,0,0,0-6.119-3.542l-1.04-4.37h-10.059l-1.04,4.37a18.627,18.627,0,0,0-6.12,3.542l-4.314-1.287-5.03,8.711,3.264,3.086a18.61,18.61,0,0,0-.339,3.539,18.624,18.624,0,0,0,.339,3.539l-3.264,3.086,5.03,8.711,4.314-1.287a18.612,18.612,0,0,0,6.12,3.542l1.04,4.37h10.059l1.04-4.37a18.613,18.613,0,0,0,6.119-3.542l4.315,1.287,5.029-8.711-3.264-3.086a18.624,18.624,0,0,0,.339-3.539Z" transform="translate(-2836.167 199.852)" fill="#167232"/>
        </g>
        <g id="Grupo_16882" data-name="Grupo 16882" transform="translate(14.59 18.459)">
          <path id="Trazado_26500" data-name="Trazado 26500" d="M2879.038-174.436a18.634,18.634,0,0,0-.332-3.5A25.32,25.32,0,0,1,2853.8-157.17c-.1,0-.208,0-.313,0q.432.174.874.328l1.041,4.37h10.057l1.042-4.37a18.615,18.615,0,0,0,6.119-3.542l4.315,1.287,5.029-8.711L2878.7-170.9a18.644,18.644,0,0,0,.339-3.539Z" transform="translate(-2853.487 177.938)" fill="#0b481e"/>
        </g>
        <g id="Grupo_16883" data-name="Grupo 16883" transform="translate(8.29 8.717)">
          <circle id="Elipse_971" data-name="Elipse 971" cx="13.243" cy="13.243" r="13.243" fill="#ecf4ff"/>
        </g>
        <g id="Grupo_16885" data-name="Grupo 16885" transform="translate(14.576 16.345)">
          <g id="Grupo_16884" data-name="Grupo 16884">
            <path id="Trazado_26501" data-name="Trazado 26501" d="M2858.835-169.217a2.673,2.673,0,0,1-1.9-.785l-2.682-2.682a2.681,2.681,0,0,1,0-3.793,2.681,2.681,0,0,1,3.793,0l.785.785,3.971-3.971a2.683,2.683,0,0,1,3.793,0,2.682,2.682,0,0,1,0,3.794L2860.732-170a2.673,2.673,0,0,1-1.9.785Z" transform="translate(-2853.471 180.448)" fill="#c8ea73"/>
          </g>
        </g>
      </g>
      <g id="Grupo_16887" data-name="Grupo 16887">
        <path id="Trazado_26502" data-name="Trazado 26502" d="M2871.611-180.893a19.926,19.926,0,0,0,.25-3.132,19.928,19.928,0,0,0-.25-3.133l2.818-2.664a1.139,1.139,0,0,0,.2-1.4l-5.029-8.711a1.138,1.138,0,0,0-1.313-.522l-3.726,1.111a19.633,19.633,0,0,0-5.415-3.134l-.564-2.37h6.548a1.14,1.14,0,0,0,1.14-1.14v-16.132a1.14,1.14,0,0,0-1.14-1.14,1.14,1.14,0,0,0-1.141,1.14v14.991h-29.356v-9.456a.4.4,0,0,1,.4-.4h3.587a.417.417,0,0,1,.3.138,7.3,7.3,0,0,0,5.327,2.319,7.312,7.312,0,0,0,5.326-2.315,7.223,7.223,0,0,0,1.939-5.482,7.3,7.3,0,0,0-6.747-6.752,7.269,7.269,0,0,0-5.848,2.3.408.408,0,0,1-.3.136h-3.587a.4.4,0,0,1-.4-.4v-9.455h27.424a1.934,1.934,0,0,1,1.933,1.931v7.111a1.14,1.14,0,0,0,1.141,1.141,1.14,1.14,0,0,0,1.14-1.141v-7.111a4.216,4.216,0,0,0-4.213-4.211h-57.128a4.215,4.215,0,0,0-4.211,4.211v9.012a1.14,1.14,0,0,0,1.14,1.141,1.14,1.14,0,0,0,1.14-1.141v-9.012a1.933,1.933,0,0,1,1.931-1.931h27.424v9.455a2.679,2.679,0,0,0,2.676,2.676h3.586a2.7,2.7,0,0,0,1.967-.862,5,5,0,0,1,4.022-1.583,5.007,5.007,0,0,1,4.63,4.633,4.967,4.967,0,0,1-1.332,3.77,4.957,4.957,0,0,1-3.659,1.59,4.946,4.946,0,0,1-3.658-1.593,2.706,2.706,0,0,0-1.969-.864h-3.586a2.679,2.679,0,0,0-2.676,2.675v9.456H2822.9a.4.4,0,0,1-.4-.4v-3.585a.412.412,0,0,1,.14-.3,7.314,7.314,0,0,0,2.317-5.328,7.309,7.309,0,0,0-2.315-5.325,7.222,7.222,0,0,0-5.483-1.94,7.3,7.3,0,0,0-6.75,6.748,7.267,7.267,0,0,0,2.3,5.849.41.41,0,0,1,.136.3v3.587a.4.4,0,0,1-.4.4H2803v-13.091a1.14,1.14,0,0,0-1.14-1.14,1.14,1.14,0,0,0-1.14,1.14v25.045a1.14,1.14,0,0,0,1.14,1.14,1.14,1.14,0,0,0,1.14-1.14v-9.674h9.457a2.679,2.679,0,0,0,2.675-2.675v-3.587a2.7,2.7,0,0,0-.862-1.965,5,5,0,0,1-1.583-4.021,5.011,5.011,0,0,1,4.633-4.632,4.967,4.967,0,0,1,3.769,1.333,4.953,4.953,0,0,1,1.591,3.658,4.958,4.958,0,0,1-1.593,3.66,2.706,2.706,0,0,0-.864,1.969v3.585a2.679,2.679,0,0,0,2.676,2.675h9.456v8.837l-.586,1.016h-3.394a.413.413,0,0,1-.3-.142,7.314,7.314,0,0,0-5.328-2.317,7.31,7.31,0,0,0-5.325,2.316,7.228,7.228,0,0,0-1.94,5.483,7.3,7.3,0,0,0,6.749,6.751,7.267,7.267,0,0,0,5.849-2.3.41.41,0,0,1,.295-.136h3.587a.4.4,0,0,1,.4.4v4.3l-2.561,2.42a1.141,1.141,0,0,0-.2,1.4l.774,1.34h-25.434a1.934,1.934,0,0,1-1.931-1.932v-12.43a1.14,1.14,0,0,0-1.14-1.141,1.14,1.14,0,0,0-1.14,1.141v12.43a4.217,4.217,0,0,0,4.211,4.213h26.75l2.938,5.09a1.142,1.142,0,0,0,1.314.522l3.726-1.111a19.633,19.633,0,0,0,5.416,3.134l.9,3.773a1.14,1.14,0,0,0,1.109.876h10.058a1.14,1.14,0,0,0,1.11-.876l.9-3.773a19.639,19.639,0,0,0,5.415-3.134l3.726,1.111a1.141,1.141,0,0,0,1.313-.522l5.029-8.711a1.14,1.14,0,0,0-.2-1.4Zm-25.972-23.953-.563,2.37a19.613,19.613,0,0,0-5.416,3.134l-3.726-1.111a1.14,1.14,0,0,0-1.3.5v-4.892Zm-17.265,17.223a2.7,2.7,0,0,0-1.965.863,4.994,4.994,0,0,1-4.021,1.583,5.013,5.013,0,0,1-4.632-4.633,4.965,4.965,0,0,1,1.333-3.77,4.951,4.951,0,0,1,3.657-1.59,4.956,4.956,0,0,1,3.66,1.592,2.709,2.709,0,0,0,1.969.866h2.077l-.861,1.493a1.14,1.14,0,0,0,.2,1.4l2.335,2.207c-.057,0-.112-.008-.169-.008Zm39.7,17.584-3.452-1.03a1.141,1.141,0,0,0-1.073.232,17.413,17.413,0,0,1-5.744,3.325,1.141,1.141,0,0,0-.736.814l-.832,3.494h-8.257l-.832-3.494a1.139,1.139,0,0,0-.736-.814,17.412,17.412,0,0,1-5.744-3.325,1.141,1.141,0,0,0-1.074-.232l-3.452,1.029-2.8-4.846c-.006-.01-.013-.02-.019-.031l-1.312-2.274,2.609-2.467a1.137,1.137,0,0,0,.336-1.045,17.548,17.548,0,0,1-.319-3.322,17.55,17.55,0,0,1,.319-3.323,1.137,1.137,0,0,0-.336-1.045l-2.609-2.467,4.128-7.151,3.452,1.029a1.14,1.14,0,0,0,1.074-.232,17.4,17.4,0,0,1,5.744-3.326,1.14,1.14,0,0,0,.736-.813l.832-3.494h8.257l.832,3.494a1.139,1.139,0,0,0,.736.813,17.4,17.4,0,0,1,5.744,3.326,1.14,1.14,0,0,0,1.073.232l3.452-1.029,4.128,7.151-2.61,2.467a1.138,1.138,0,0,0-.336,1.045,17.53,17.53,0,0,1,.318,3.323,17.528,17.528,0,0,1-.318,3.322,1.138,1.138,0,0,0,.336,1.045l2.61,2.467Z" transform="translate(-2800.722 238.761)" fill="#00223d"/>
        <path id="Trazado_26503" data-name="Trazado 26503" d="M2859.038-190.857a14.4,14.4,0,0,0-14.383,14.384,14.4,14.4,0,0,0,14.383,14.383,14.4,14.4,0,0,0,14.384-14.383A14.4,14.4,0,0,0,2859.038-190.857Zm0,26.487a12.117,12.117,0,0,1-12.1-12.1,12.118,12.118,0,0,1,12.1-12.1,12.117,12.117,0,0,1,12.1,12.1A12.117,12.117,0,0,1,2859.038-164.37Z" transform="translate(-2807.647 231.209)" fill="#00223d"/>
        <path id="Trazado_26504" data-name="Trazado 26504" d="M2861.787-180.682l-3.164,3.165a3.827,3.827,0,0,0-5.385.02,3.826,3.826,0,0,0,0,5.406l2.682,2.682a3.8,3.8,0,0,0,2.7,1.119,3.8,3.8,0,0,0,2.7-1.119l5.868-5.867a3.828,3.828,0,0,0,0-5.406,3.828,3.828,0,0,0-5.406,0Zm3.793,3.793-5.867,5.868a1.533,1.533,0,0,1-1.091.451,1.532,1.532,0,0,1-1.09-.451l-2.682-2.682a1.543,1.543,0,0,1,0-2.181,1.537,1.537,0,0,1,1.09-.452,1.538,1.538,0,0,1,1.091.452l.785.785a1.139,1.139,0,0,0,.806.334,1.141,1.141,0,0,0,.807-.334l3.97-3.971a1.545,1.545,0,0,1,2.181,0,1.544,1.544,0,0,1,0,2.181Z" transform="translate(-2808.824 229.782)" fill="#00223d"/>
      </g>
    </g>
  </g>
</svg>
