<svg xmlns="http://www.w3.org/2000/svg" width="94" height="94" viewBox="0 0 94 94">
  <g id="Grupo_1100949" data-name="Grupo 1100949" transform="translate(-1221.051 -10084)">
    <g id="Elipse_5734" data-name="Elipse 5734" transform="translate(1221.051 10084)" fill="#fff" stroke="#02dd84" stroke-width="3">
      <circle cx="47" cy="47" r="47" stroke="none"/>
      <circle cx="47" cy="47" r="45.5" fill="none"/>
    </g>
    <g id="Grupo_1008839" data-name="Grupo 1008839" transform="translate(1238.804 10101.767)">
      <path id="Trazado_715399" data-name="Trazado 715399" d="M21.925,0A21.925,21.925,0,1,1,0,21.925,21.925,21.925,0,0,1,21.925,0Z" transform="translate(0 7.308)" fill="#fff"/>
      <path id="Trazado_26940" data-name="Trazado 26940" d="M1452.238,2098.293a4.872,4.872,0,1,0,4.872,4.872A4.886,4.886,0,0,0,1452.238,2098.293Zm0,6.09a1.218,1.218,0,1,1,1.218-1.218A1.206,1.206,0,0,1,1452.238,2104.383Z" transform="translate(-1430.311 -2073.932)" fill="#99f2ce"/>
      <path id="Trazado_26941" data-name="Trazado 26941" d="M1591.163,1943.274h-6.09a1.828,1.828,0,0,1-1.827-1.827v-6.09a1.82,1.82,0,0,1,.536-1.291l4.872-4.872a1.826,1.826,0,0,1,3.118,1.291v4.263h4.263a1.826,1.826,0,0,1,1.291,3.118l-4.872,4.872a1.819,1.819,0,0,1-1.291.536Z" transform="translate(-1546.677 -1928.658)" fill="#2196f3"/>
      <path id="Trazado_26942" data-name="Trazado 26942" d="M1531.226,2146.927a15.835,15.835,0,1,1,15.835-15.834A15.853,15.853,0,0,1,1531.226,2146.927Z" transform="translate(-1488.567 -2088.46)" fill="#02dd84"/>
      <path id="Trazado_26943" data-name="Trazado 26943" d="M1531.226,2146.927a15.835,15.835,0,1,1,15.835-15.834A15.853,15.853,0,0,1,1531.226,2146.927Zm0-28.015a12.181,12.181,0,1,0,12.181,12.181A12.195,12.195,0,0,0,1531.226,2118.911Z" transform="translate(-1488.567 -2088.46)" fill="#00223d"/>
      <path id="Trazado_26944" data-name="Trazado 26944" d="M1350.577,2023.4a21.919,21.919,0,1,1,19.964-30.883,1.828,1.828,0,1,1-3.33,1.508,18.349,18.349,0,0,0-3.764-5.467,18.27,18.27,0,1,0-12.919,31.187,1.849,1.849,0,0,1,1.851,1.827,1.807,1.807,0,0,1-1.8,1.827Z" transform="translate(-1328.603 -1972.239)" fill="#00223d"/>
      <path id="Trazado_26945" data-name="Trazado 26945" d="M1400.179,2065.645c-.056,0-.117,0-.173-.008a13.39,13.39,0,1,1,10.758-22.809,13.165,13.165,0,0,1,2.158,2.853,1.827,1.827,0,0,1-3.182,1.8,9.562,9.562,0,0,0-1.552-2.061,9.744,9.744,0,1,0-7.842,16.58,1.827,1.827,0,0,1-.168,3.647Z" transform="translate(-1379.377 -2023.086)" fill="#00223d"/>
      <path id="Trazado_26946" data-name="Trazado 26946" d="M1470.571,2028.712a1.829,1.829,0,0,1-1.291-3.121l15.835-15.835a1.828,1.828,0,0,1,2.585,2.585l-15.835,15.835A1.823,1.823,0,0,1,1470.571,2028.712Z" transform="translate(-1448.619 -1997.651)" fill="#00223d"/>
      <path id="Trazado_26947" data-name="Trazado 26947" d="M1591.163,1943.285h-6.09a1.828,1.828,0,0,1-1.827-1.827v-6.09a1.82,1.82,0,0,1,.536-1.291l4.872-4.872a1.826,1.826,0,0,1,3.118,1.291v4.263h4.263a1.826,1.826,0,0,1,1.291,3.118l-4.872,4.872a1.82,1.82,0,0,1-1.291.536Zm-4.263-3.654h3.506l1.218-1.218h-1.678a1.828,1.828,0,0,1-1.827-1.827v-1.678l-1.218,1.218Z" transform="translate(-1546.677 -1928.668)" fill="#00223d"/>
      <path id="Trazado_26948" data-name="Trazado 26948" d="M1582.416,2180.312a1.811,1.811,0,0,0-2.553.145l-6.712,7.52a.516.516,0,0,1-.75.021l-3.479-3.479a1.808,1.808,0,0,0-2.557,2.557l5.219,5.218a1.814,1.814,0,0,0,1.279.53h.05a1.816,1.816,0,0,0,1.3-.6l8.351-9.356A1.81,1.81,0,0,0,1582.416,2180.312Z" transform="translate(-1531.768 -2143.78)" fill="#00223d"/>
    </g>
  </g>
</svg>
