<svg xmlns="http://www.w3.org/2000/svg" xmlns:xlink="http://www.w3.org/1999/xlink" width="172" height="172" viewBox="0 0 172 172">
  <defs>
    <filter id="Elipse_5726" x="0" y="0" width="172" height="172" filterUnits="userSpaceOnUse">
      <feOffset dy="3" input="SourceAlpha"/>
      <feGaussianBlur stdDeviation="3" result="blur"/>
      <feFlood flood-opacity="0.161"/>
      <feComposite operator="in" in2="blur"/>
      <feComposite in="SourceGraphic"/>
    </filter>
  </defs>
  <g id="Grupo_1008818" data-name="Grupo 1008818" transform="translate(4575.909 4537)">
    <g transform="matrix(1, 0, 0, 1, -4575.91, -4537)" filter="url(#Elipse_5726)">
      <circle id="Elipse_5726-2" data-name="Elipse 5726" cx="77" cy="77" r="77" transform="translate(9 6)" fill="#fff"/>
    </g>
    <g id="Grupo_17082" data-name="Grupo 17082" transform="translate(-5813.078 -3950.226)">
      <g id="Grupo_17073" data-name="Grupo 17073" transform="translate(1348.649 -541.27)">
        <path id="Trazado_26925" data-name="Trazado 26925" d="M1390.391-538.162a8.368,8.368,0,0,1,0,11.831l-5.568,5.568-11.831-11.832,5.567-5.568A8.367,8.367,0,0,1,1390.391-538.162Z" transform="translate(-1372.992 540.612)" fill="#ff5d5d"/>
      </g>
      <g id="Grupo_17079" data-name="Grupo 17079" transform="translate(1294.506 -524.598)">
        <g id="Grupo_17074" data-name="Grupo 17074" transform="translate(0 47.724)">
          <path id="Trazado_26926" data-name="Trazado 26926" d="M1304.766-440.483l-7.562-7.563-2.04,9.6Z" transform="translate(-1295.164 448.046)" fill="#6eb4c7"/>
        </g>
        <g id="Grupo_17075" data-name="Grupo 17075" transform="translate(2.04 39.09)">
          <path id="Trazado_26927" data-name="Trazado 26927" d="M1302.46-460.457l-1.837,1.837a6.565,6.565,0,0,0-1.78,3.279l-.747,3.517,7.562,7.563,3.517-.747a6.571,6.571,0,0,0,3.279-1.781l1.837-1.837" transform="translate(-1298.096 460.457)" fill="#fff"/>
        </g>
        <g id="Grupo_17076" data-name="Grupo 17076" transform="translate(13.214 5.916)">
          <path id="Trazado_26928" data-name="Trazado 26928" d="M1345.7-489.658l12.569-12.569-5.915-5.916-38.131,38.135a6.1,6.1,0,0,0,1.727,5.179,6.084,6.084,0,0,0,3.233,1.692l16.05-16.051" transform="translate(-1314.158 508.143)" fill="#fee77b"/>
        </g>
        <g id="Grupo_17077" data-name="Grupo 17077" transform="translate(6.404 0)">
          <path id="Trazado_26929" data-name="Trazado 26929" d="M1349.371-510.731l-5.915-5.916-39.087,39.09a6.079,6.079,0,0,0,1.692,3.233,6.1,6.1,0,0,0,5.179,1.728Z" transform="translate(-1304.369 516.647)" fill="#ffc857"/>
        </g>
        <g id="Grupo_17078" data-name="Grupo 17078" transform="translate(37.946 28.207)">
          <path id="Trazado_26930" data-name="Trazado 26930" d="M1351.21-473.1a1.509,1.509,0,0,1-1.063-2.567,1.514,1.514,0,0,1,2.127,0A1.508,1.508,0,0,1,1351.21-473.1Z" transform="translate(-1349.709 476.101)" fill="#00223d"/>
        </g>
      </g>
      <path id="Trazado_26931" data-name="Trazado 26931" d="M1372.385-506.7l-11.829-11.829,4.326-4.326,11.829,11.829Z" transform="translate(-20.558 -6.063)" fill="#6eb4c7"/>
      <g id="Grupo_17081" data-name="Grupo 17081" transform="translate(1293.002 -542.774)">
        <g id="Grupo_17080" data-name="Grupo 17080" transform="translate(51.312 9.525)">
          <path id="Trazado_26932" data-name="Trazado 26932" d="M1366.76-524.756l4.326-4.326,11.829,11.83-4.326,4.326Z" transform="translate(-1366.76 529.082)" fill="#b8ecff"/>
        </g>
        <path id="Trazado_26933" data-name="Trazado 26933" d="M1367.111-539.883a9.8,9.8,0,0,0-6.979-2.891,9.806,9.806,0,0,0-6.98,2.891l-55.143,55.148a8.054,8.054,0,0,0-2.188,4.031l-2.787,13.12a1.5,1.5,0,0,0,.408,1.376,1.5,1.5,0,0,0,1.063.44,1.491,1.491,0,0,0,.313-.033l13.118-2.788a8.05,8.05,0,0,0,4.031-2.188l17.886-17.888a1.505,1.505,0,0,0,0-2.127,1.5,1.5,0,0,0-2.127,0l-15.441,15.443a4.579,4.579,0,0,1-1.714-1.084,4.561,4.561,0,0,1-1.345-3.435l36.684-36.689,3.788,3.789-11.505,11.506a1.5,1.5,0,0,0,0,2.127,1.5,1.5,0,0,0,2.127,0l26.789-26.792a9.881,9.881,0,0,0,0-13.957ZM1340-522.471l3.788,3.789L1307.1-481.994a4.559,4.559,0,0,1-3.434-1.345,4.577,4.577,0,0,1-1.084-1.714Zm-42.555,48.619,3.644,3.644-4.627.983Zm12.586.762-.187.186a5.051,5.051,0,0,1-2.528,1.373l-2.719.577-6.407-6.408.578-2.719a5.057,5.057,0,0,1,1.373-2.529l.186-.186a7.64,7.64,0,0,0,1.215,1.582,7.545,7.545,0,0,0,4.7,2.2,7.545,7.545,0,0,0,2.2,4.7,7.665,7.665,0,0,0,1.583,1.215Zm41.8-41.8-9.7-9.7,2.2-2.2,9.7,9.7Zm4.326-4.327-9.7-9.7,2.2-2.2,9.7,9.7Zm8.831-8.832-4.5,4.5-9.7-9.7,4.5-4.5a6.817,6.817,0,0,1,4.852-2.01,6.817,6.817,0,0,1,4.852,2.01,6.871,6.871,0,0,1,0,9.7Z" transform="translate(-1293.001 542.774)" fill="#00223d"/>
      </g>
    </g>
  </g>
</svg>
