<svg xmlns="http://www.w3.org/2000/svg" xmlns:xlink="http://www.w3.org/1999/xlink" width="172" height="172" viewBox="0 0 172 172">
  <defs>
    <filter id="Elipse_5723" x="0" y="0" width="172" height="172" filterUnits="userSpaceOnUse">
      <feOffset dy="3" input="SourceAlpha"/>
      <feGaussianBlur stdDeviation="3" result="blur"/>
      <feFlood flood-opacity="0.161"/>
      <feComposite operator="in" in2="blur"/>
      <feComposite in="SourceGraphic"/>
    </filter>
  </defs>
  <g id="Grupo_1008817" data-name="Grupo 1008817" transform="translate(4926 4537)">
    <g transform="matrix(1, 0, 0, 1, -4926, -4537)" filter="url(#Elipse_5723)">
      <circle id="Elipse_5723-2" data-name="Elipse 5723" cx="77" cy="77" r="77" transform="translate(9 6)" fill="#fff"/>
    </g>
    <g id="Grupo_17083" data-name="Grupo 17083" transform="translate(-5561.506 -4933.726)">
      <circle id="Elipse_1002" data-name="Elipse 1002" cx="30.751" cy="30.751" r="30.751" transform="translate(681.14 439.346)" fill="#e9f857"/>
      <circle id="Elipse_1003" data-name="Elipse 1003" cx="22.9" cy="22.9" r="22.9" transform="translate(688.991 447.198)" fill="#f6ff9b"/>
      <path id="Trazado_26934" data-name="Trazado 26934" d="M799.594,550.671l23.086,23.086a5.03,5.03,0,0,1-7.113,7.113l-23.086-23.086Z" transform="translate(-62.537 -62.52)" fill="#f9a825"/>
      <rect id="Rectángulo_4230" data-name="Rectángulo 4230" width="10.059" height="8.764" transform="translate(729.944 495.264) rotate(-45)" fill="#f0f0fa"/>
      <path id="Trazado_26935" data-name="Trazado 26935" d="M721.623,504.349a24.535,24.535,0,1,0-24.535-24.535A24.563,24.563,0,0,0,721.623,504.349Zm0-45.8a21.264,21.264,0,1,1-21.264,21.264A21.288,21.288,0,0,1,721.623,458.549Z" transform="translate(-9.732 -9.716)" fill="#00223d"/>
      <path id="Trazado_26936" data-name="Trazado 26936" d="M702.468,555.753a1.636,1.636,0,0,0-2.313,2.314l.152.151a1.636,1.636,0,0,0,2.3-2.327Z" transform="translate(-11.165 -65.068)" fill="#00223d"/>
      <path id="Trazado_26937" data-name="Trazado 26937" d="M761.3,510.08,739.016,487.8a32.386,32.386,0,1,0-54.47-.334,1.636,1.636,0,0,0,2.76-1.756,29.118,29.118,0,1,1,8.433,8.621,1.636,1.636,0,1,0-1.818,2.72,32.2,32.2,0,0,0,17.926,5.424,32.522,32.522,0,0,0,17.739-5.253l5.4,5.4h0l16.888,16.888a6.665,6.665,0,0,0,9.426-9.426ZM734.792,493a32.588,32.588,0,0,0,2.274-2.526l3.877,3.876-.029.027-4.772,4.772-3.876-3.876A32.376,32.376,0,0,0,734.792,493Zm24.195,24.194a3.393,3.393,0,0,1-4.8,0l-15.732-15.732,4.772-4.772.027-.03,15.733,15.734A3.4,3.4,0,0,1,758.987,517.193Z" transform="translate(0 0)" fill="#00223d"/>
      <path id="Trazado_26938" data-name="Trazado 26938" d="M762.124,478.9a13.214,13.214,0,0,1,8.189,12.249,1.636,1.636,0,1,0,3.272,0,16.476,16.476,0,0,0-10.21-15.272,1.636,1.636,0,1,0-1.25,3.023Z" transform="translate(-45.173 -21.047)" fill="#00223d"/>
      <path id="Trazado_26939" data-name="Trazado 26939" d="M750.016,476.5h.205a1.636,1.636,0,0,0,.022-3.272h-.228a1.636,1.636,0,0,0,0,3.272Z" transform="translate(-38.125 -19.653)" fill="#00223d"/>
    </g>
  </g>
</svg>
