<svg xmlns="http://www.w3.org/2000/svg" xmlns:xlink="http://www.w3.org/1999/xlink" width="172" height="172" viewBox="0 0 172 172">
  <defs>
    <filter id="Elipse_5725" x="0" y="0" width="172" height="172" filterUnits="userSpaceOnUse">
      <feOffset dy="3" input="SourceAlpha"/>
      <feGaussianBlur stdDeviation="3" result="blur"/>
      <feFlood flood-opacity="0.161"/>
      <feComposite operator="in" in2="blur"/>
      <feComposite in="SourceGraphic"/>
    </filter>
  </defs>
  <g id="Grupo_1008815" data-name="Grupo 1008815" transform="translate(5629 4537)">
    <g transform="matrix(1, 0, 0, 1, -5629, -4537)" filter="url(#Elipse_5725)">
      <circle id="Elipse_5725-2" data-name="Elipse 5725" cx="77" cy="77" r="77" transform="translate(9 6)" fill="#fff"/>
    </g>
    <g id="Grupo_17066" data-name="Grupo 17066" transform="translate(-6604.453 -3977.293)">
      <g id="_Group_" data-name="&lt;Group&gt;" transform="translate(1014.874 -517.286)">
        <path id="Trazado_26894" data-name="Trazado 26894" d="M1020.3-516.8a4.788,4.788,0,0,0-.947.094c-2.162.439-3.2,2.351-3.2,4.642l.1,29.887a4.736,4.736,0,0,0,4.736,4.736l2.849-.076a2.158,2.158,0,0,1,2.157,2.158s.066,3.069.066,5.26c0,.842-.158,2.253.684,2.253l.842-.728a1.525,1.525,0,0,0,1.079-.447l6.876-7.417a4.318,4.318,0,0,1,3.052-1.264l22.776-.072a6.78,6.78,0,0,0,7.008-7.161l.8-3.883v-23.246a4.736,4.736,0,0,0-4.736-4.736Z" transform="translate(-1015.566 516.797)" fill="#ffe07d"/>
        <path id="Trazado_26895" data-name="Trazado 26895" d="M1068.979-488.783h-8.336a8.537,8.537,0,0,0-8.47,7.574.753.753,0,0,1-.743.678h-12.758a8.044,8.044,0,0,0-5.728,2.374l-2.658,2.657a.947.947,0,0,1-1.589-.449,6.008,6.008,0,0,0-5.781-4.581H1020.1a.949.949,0,0,1-.947-.947V-516.67a4.739,4.739,0,0,0-3.789,4.642v30.551a4.737,4.737,0,0,0,4.736,4.736h2.816a2.158,2.158,0,0,1,2.157,2.156v5.915a1.565,1.565,0,0,0,1.453,1.582,1.522,1.522,0,0,0,1.15-.446l7.945-7.943a4.313,4.313,0,0,1,3.05-1.264h22.755a7.613,7.613,0,0,0,6.55-3.789h0a7.517,7.517,0,0,0,1.006-3.763v-4.49Z" transform="translate(-1015.363 516.765)" fill="#ffd064"/>
        <path id="Trazado_26896" data-name="Trazado 26896" d="M1118.943-474.092a4.737,4.737,0,0,1,4.737,4.737v30.55a4.737,4.737,0,0,1-4.737,4.737l-2.65-.564c-1.191,0-3,.728-3,1.919,0,0-.112,2.814-.112,5.006a1.525,1.525,0,0,1-1.525,1.525,1.524,1.524,0,0,1-1.079-.447l-6.545-7.169a4.319,4.319,0,0,0-3.052-1.264l-25.315-.019a4.736,4.736,0,0,1-4.736-4.736l-.27-29.53c0-2.289,1.03-4.206,3.189-4.647a4.743,4.743,0,0,1,.954-.1Z" transform="translate(-1029.521 505.863)" fill="#f5fcff"/>
        <path id="Trazado_26897" data-name="Trazado 26897" d="M1123.38-437.826a4.739,4.739,0,0,1-4.641,3.79h-2.815a2.158,2.158,0,0,0-2.158,2.157v5.973a1.525,1.525,0,0,1-1.525,1.525,1.522,1.522,0,0,1-1.078-.447l-7.945-7.943a4.307,4.307,0,0,0-3.05-1.265H1074.6a4.736,4.736,0,0,1-4.736-4.737v-30.549a4.737,4.737,0,0,1,3.789-4.642v35.191a.947.947,0,0,0,.947.947h25.571a8.049,8.049,0,0,1,5.729,2.374l2.652,2.653a.949.949,0,0,0,1.591-.453,6.043,6.043,0,0,1,5.784-4.574Z" transform="translate(-1029.317 505.83)" fill="#e6f7fe"/>
      </g>
      <g id="Grupo_17065" data-name="Grupo 17065" transform="translate(1013.453 -518.707)">
        <g id="Grupo_17064" data-name="Grupo 17064">
          <path id="Trazado_26898" data-name="Trazado 26898" d="M1037.579-515.865h31.987a3.319,3.319,0,0,1,3.316,3.315v15.693a1.421,1.421,0,0,0,1.421,1.421,1.421,1.421,0,0,0,1.421-1.421V-512.55a6.164,6.164,0,0,0-6.158-6.157h-31.987a1.421,1.421,0,0,0-1.421,1.421A1.421,1.421,0,0,0,1037.579-515.865Z" transform="translate(-1019.266 518.707)" fill="#00223d"/>
          <path id="Trazado_26899" data-name="Trazado 26899" d="M1122.986-455.227a1.421,1.421,0,0,0-1.421,1.421v19.831a3.32,3.32,0,0,1-3.316,3.316h-2.815a3.582,3.582,0,0,0-3.578,3.578v5.972a.108.108,0,0,1-.178.073l-7.944-7.944a5.7,5.7,0,0,0-4.056-1.68h-25.571a3.319,3.319,0,0,1-3.315-3.316V-442a1.421,1.421,0,0,0-1.421-1.421A1.421,1.421,0,0,0,1067.95-442v8.028a6.164,6.164,0,0,0,6.157,6.157h25.57a2.874,2.874,0,0,1,2.047.848l7.945,7.945a2.928,2.928,0,0,0,2.083.863,2.95,2.95,0,0,0,2.947-2.946v-5.972a.738.738,0,0,1,.736-.737h2.815a6.163,6.163,0,0,0,6.157-6.157v-19.831a1.421,1.421,0,0,0-1.42-1.421Z" transform="translate(-1027.407 502.453)" fill="#00223d"/>
          <path id="Trazado_26900" data-name="Trazado 26900" d="M1104.3-486.936H1069.91v-3.295a1.421,1.421,0,0,0-1.421-1.421,1.421,1.421,0,0,0-1.421,1.421v3.295h-6.915a6.164,6.164,0,0,0-6.157,6.157v2.094h-15.813a5.7,5.7,0,0,0-4.056,1.681l-7.944,7.944a.108.108,0,0,1-.179-.074v-5.972a3.583,3.583,0,0,0-3.578-3.579h-2.816a3.319,3.319,0,0,1-3.315-3.315V-512.55a3.319,3.319,0,0,1,3.315-3.315h5.48a1.421,1.421,0,0,0,1.421-1.421,1.421,1.421,0,0,0-1.421-1.421h-5.48a6.164,6.164,0,0,0-6.157,6.157V-482a6.164,6.164,0,0,0,6.157,6.157h2.815a.737.737,0,0,1,.737.737v5.972a2.95,2.95,0,0,0,2.947,2.946,2.928,2.928,0,0,0,2.084-.863l7.944-7.944a2.876,2.876,0,0,1,2.047-.848H1054v10.894a1.421,1.421,0,0,0,1.421,1.421,1.421,1.421,0,0,0,1.421-1.421v-15.83a3.319,3.319,0,0,1,3.315-3.316H1104.3a3.32,3.32,0,0,1,3.316,3.316v4.092a1.421,1.421,0,0,0,1.421,1.421,1.421,1.421,0,0,0,1.42-1.421v-4.092A6.163,6.163,0,0,0,1104.3-486.936Z" transform="translate(-1013.453 518.707)" fill="#00223d"/>
          <path id="Trazado_26901" data-name="Trazado 26901" d="M1105.433-444.811a1.421,1.421,0,0,0,1.421-1.421v-18.393a1.421,1.421,0,0,0-1.421-1.421,1.421,1.421,0,0,0-1.421,1.421v18.393A1.421,1.421,0,0,0,1105.433-444.811Z" transform="translate(-1036.64 505.223)" fill="#00223d"/>
          <path id="Trazado_26902" data-name="Trazado 26902" d="M1050.123-493.78a7.389,7.389,0,0,0,3.99-2.192,7.4,7.4,0,0,0,2.041-5.531,7.484,7.484,0,0,0-7.3-7.065,7.467,7.467,0,0,0-7.543,6.422,7.53,7.53,0,0,0-.072,1.039,1.421,1.421,0,0,0,1.421,1.421,1.421,1.421,0,0,0,1.421-1.421,4.676,4.676,0,0,1,.045-.646,4.614,4.614,0,0,1,4.671-3.973,4.631,4.631,0,0,1,4.517,4.372,4.583,4.583,0,0,1-1.263,3.427,4.578,4.578,0,0,1-3.35,1.44,1.421,1.421,0,0,0-1.421,1.421v6.316a1.421,1.421,0,0,0,1.421,1.421,1.421,1.421,0,0,0,1.421-1.421v-5.029Z" transform="translate(-1020.568 516.111)" fill="#00223d"/>
          <circle id="Elipse_1000" data-name="Elipse 1000" cx="1.421" cy="1.421" r="1.421" transform="translate(26.713 31.661)" fill="#00223d"/>
          <circle id="Elipse_1001" data-name="Elipse 1001" cx="1.421" cy="1.421" r="1.421" transform="translate(67.351 63.402)" fill="#00223d"/>
        </g>
      </g>
    </g>
  </g>
</svg>
