<svg xmlns="http://www.w3.org/2000/svg" width="94" height="94" viewBox="0 0 94 94">
  <g id="Grupo_1100950" data-name="Grupo 1100950" transform="translate(-285.051 -10084)">
    <g id="Elipse_5733" data-name="Elipse 5733" transform="translate(285.051 10084)" fill="#fff" stroke="#ff9751" stroke-width="3">
      <circle cx="47" cy="47" r="47" stroke="none"/>
      <circle cx="47" cy="47" r="45.5" fill="none"/>
    </g>
    <g id="Grupo_1008840" data-name="Grupo 1008840" transform="translate(301.051 10100)">
      <ellipse id="Elipse_1005" data-name="Elipse 1005" cx="23.444" cy="23.444" rx="23.444" ry="23.444" transform="translate(0 7.814)" fill="#fff"/>
      <path id="Trazado_26949" data-name="Trazado 26949" d="M1452.576,1633.456a5.21,5.21,0,1,0,5.21,5.21A5.225,5.225,0,0,0,1452.576,1633.456Zm0,6.512a1.3,1.3,0,1,1,1.3-1.3A1.29,1.29,0,0,1,1452.576,1639.968Z" transform="translate(-1429.13 -1607.408)" fill="#ffd5b8"/>
      <path id="Trazado_26950" data-name="Trazado 26950" d="M1591.712,1479.45H1585.2a1.954,1.954,0,0,1-1.954-1.954v-6.512a1.946,1.946,0,0,1,.573-1.381l5.21-5.209a1.952,1.952,0,0,1,3.334,1.38v4.559h4.559a1.953,1.953,0,0,1,1.381,3.334l-5.21,5.21a1.946,1.946,0,0,1-1.381.573Z" transform="translate(-1544.145 -1463.821)" fill="#2196f3"/>
      <path id="Trazado_26951" data-name="Trazado 26951" d="M1532.322,1684.283a16.932,16.932,0,1,1,16.932-16.931A16.951,16.951,0,0,1,1532.322,1684.283Z" transform="translate(-1486.709 -1621.767)" fill="#ff9751"/>
      <path id="Trazado_26952" data-name="Trazado 26952" d="M1583.15,1729.866a1.955,1.955,0,0,1-1.38-3.337l9.747-9.747a1.954,1.954,0,0,1,2.764,2.764l-9.747,9.747A1.949,1.949,0,0,1,1583.15,1729.866Z" transform="translate(-1542.411 -1677.455)" fill="#00223d"/>
      <path id="Trazado_26953" data-name="Trazado 26953" d="M1592.9,1729.866a1.939,1.939,0,0,1-1.381-.573l-9.747-9.747a1.954,1.954,0,0,1,2.764-2.764l9.747,9.747a1.955,1.955,0,0,1-1.383,3.337Z" transform="translate(-1542.411 -1677.455)" fill="#00223d"/>
      <path id="Trazado_26954" data-name="Trazado 26954" d="M1532.322,1684.283a16.932,16.932,0,1,1,16.932-16.931A16.951,16.951,0,0,1,1532.322,1684.283Zm0-29.956a13.024,13.024,0,1,0,13.024,13.024A13.039,13.039,0,0,0,1532.322,1654.327Z" transform="translate(-1486.709 -1621.767)" fill="#00223d"/>
      <path id="Trazado_26955" data-name="Trazado 26955" d="M1352.1,1561.6a23.437,23.437,0,1,1,21.347-33.022,1.954,1.954,0,1,1-3.561,1.613,19.617,19.617,0,0,0-4.025-5.845,19.535,19.535,0,1,0-13.813,33.347,1.977,1.977,0,0,1,1.98,1.954,1.932,1.932,0,0,1-1.927,1.954Z" transform="translate(-1328.603 -1506.896)" fill="#00223d"/>
      <path id="Trazado_26956" data-name="Trazado 26956" d="M1401.03,1602.658c-.06,0-.125,0-.185-.008a14.318,14.318,0,1,1,11.5-24.389,14.086,14.086,0,0,1,2.308,3.05,1.954,1.954,0,1,1-3.4,1.922,10.225,10.225,0,0,0-1.659-2.2,10.419,10.419,0,1,0-8.385,17.728,1.954,1.954,0,0,1-.18,3.9Z" transform="translate(-1378.787 -1557.152)" fill="#00223d"/>
      <path id="Trazado_26957" data-name="Trazado 26957" d="M1470.7,1565.225a1.955,1.955,0,0,1-1.381-3.337l16.932-16.932a1.954,1.954,0,1,1,2.764,2.764l-16.932,16.932A1.949,1.949,0,0,1,1470.7,1565.225Z" transform="translate(-1447.225 -1532.013)" fill="#00223d"/>
      <path id="Trazado_26958" data-name="Trazado 26958" d="M1591.712,1479.46H1585.2a1.954,1.954,0,0,1-1.954-1.954v-6.512a1.946,1.946,0,0,1,.573-1.381l5.21-5.21a1.952,1.952,0,0,1,3.334,1.38v4.558h4.559a1.953,1.953,0,0,1,1.381,3.334l-5.21,5.21a1.945,1.945,0,0,1-1.381.573Zm-4.558-3.907h3.748l1.3-1.3h-1.795a1.954,1.954,0,0,1-1.954-1.954V1470.5l-1.3,1.3Z" transform="translate(-1544.145 -1463.831)" fill="#00223d"/>
    </g>
  </g>
</svg>
