<svg xmlns="http://www.w3.org/2000/svg" xmlns:xlink="http://www.w3.org/1999/xlink" width="76.333" height="76.333" viewBox="0 0 76.333 76.333">
  <defs>
    <filter id="Elipse_5696" x="0" y="0" width="76.333" height="76.333" filterUnits="userSpaceOnUse">
      <feOffset dy="3" input="SourceAlpha"/>
      <feGaussianBlur stdDeviation="3" result="blur"/>
      <feFlood flood-opacity="0.161"/>
      <feComposite operator="in" in2="blur"/>
      <feComposite in="SourceGraphic"/>
    </filter>
  </defs>
  <g id="Grupo_1011035" data-name="Grupo 1011035" transform="translate(-171 -3252)">
    <g id="Grupo_1010598" data-name="Grupo 1010598" transform="translate(-210 2520.3)">
      <g id="Grupo_1008761" data-name="Grupo 1008761" transform="translate(390 737.7)">
        <g transform="matrix(1, 0, 0, 1, -9, -6)" filter="url(#Elipse_5696)">
          <g id="Elipse_5696-2" data-name="Elipse 5696" transform="translate(9 6)" fill="#fff" stroke="#fff8da" stroke-width="2">
            <circle cx="29.167" cy="29.167" r="29.167" stroke="none"/>
            <circle cx="29.167" cy="29.167" r="28.167" fill="none"/>
          </g>
        </g>
      </g>
    </g>
    <path id="Trazado_716510" data-name="Trazado 716510" d="M36,29H22.109V25.992l6.4-6.727q2.365-2.693,2.365-4.279a2.977,2.977,0,0,0-.561-1.955,2,2,0,0,0-1.627-.67,2.026,2.026,0,0,0-1.709.9,3.68,3.68,0,0,0-.656,2.235H21.7a6.537,6.537,0,0,1,.916-3.384,6.424,6.424,0,0,1,2.543-2.427,7.554,7.554,0,0,1,3.637-.875,7.431,7.431,0,0,1,4.97,1.49,5.32,5.32,0,0,1,1.743,4.279,6.214,6.214,0,0,1-.437,2.29A10.043,10.043,0,0,1,33.71,19.2a34.267,34.267,0,0,1-2.974,3.274l-2.57,2.967H36Z" transform="translate(180 3270)" fill="#12263f"/>
  </g>
</svg>
