<svg xmlns="http://www.w3.org/2000/svg" width="94.429" height="111.333" viewBox="0 0 94.429 111.333">
  <g id="Grupo_17093" data-name="Grupo 17093" transform="translate(-996.785 -3769.12)">
    <g id="Grupo_17089" data-name="Grupo 17089" transform="translate(-948.418 2223.392)">
      <g id="Grupo_17087" data-name="Grupo 17087" transform="translate(1946.834 1547.359)">
        <path id="Trazado_26959" data-name="Trazado 26959" d="M2026.9,1682.843v-84.765a4.1,4.1,0,0,0-4.1-4.1H1956.8a4.1,4.1,0,0,0-4.1,4.1v84.765a4.1,4.1,0,0,0,4.1,4.1h66.006A4.1,4.1,0,0,0,2026.9,1682.843Z" transform="translate(-1952.704 -1585.119)" fill="#e28086"/>
        <path id="Trazado_26960" data-name="Trazado 26960" d="M1980.969,1701.888v-78.619a1.024,1.024,0,0,1,1.024-1.024h60.476a1.024,1.024,0,0,1,1.024,1.024v78.619a1.024,1.024,0,0,1-1.024,1.024h-60.476A1.024,1.024,0,0,1,1980.969,1701.888Z" transform="translate(-1974.823 -1607.237)" fill="#e7ecf6"/>
        <path id="Trazado_26961" data-name="Trazado 26961" d="M2095.788,1553.228h-9.075a4.374,4.374,0,0,0-4.374,4.374v8.124h17.822V1557.6A4.373,4.373,0,0,0,2095.788,1553.228Z" transform="translate(-2054.15 -1553.228)" fill="#365e7d"/>
        <path id="Trazado_26962" data-name="Trazado 26962" d="M2124.9,1553.228h-6.147a4.373,4.373,0,0,1,4.374,4.374v8.124h6.147V1557.6A4.373,4.373,0,0,0,2124.9,1553.228Z" transform="translate(-2082.645 -1553.228)" fill="#2b4d66"/>
        <path id="Trazado_26963" data-name="Trazado 26963" d="M2071.887,1596v-12.191a1.844,1.844,0,0,0-1.844-1.844h-35.895a1.844,1.844,0,0,0-1.844,1.844V1596a1.844,1.844,0,0,0,1.844,1.844h35.895A1.844,1.844,0,0,0,2071.887,1596Z" transform="translate(-2014.996 -1575.715)" fill="#407093"/>
        <path id="Trazado_26964" data-name="Trazado 26964" d="M2255.805,1593.98h-6.147a4.1,4.1,0,0,1,4.1,4.1v84.765a4.1,4.1,0,0,1-4.1,4.1h6.147a4.1,4.1,0,0,0,4.1-4.1v-84.765A4.1,4.1,0,0,0,2255.805,1593.98Z" transform="translate(-2185.086 -1585.119)" fill="#dd636e"/>
        <path id="Trazado_26965" data-name="Trazado 26965" d="M2241.672,1622.246h-6.147a1.024,1.024,0,0,1,1.024,1.024v78.619a1.024,1.024,0,0,1-1.024,1.024h6.147a1.024,1.024,0,0,0,1.024-1.024V1623.27A1.024,1.024,0,0,0,2241.672,1622.246Z" transform="translate(-2174.026 -1607.238)" fill="#d8e2f1"/>
        <path id="Trazado_26966" data-name="Trazado 26966" d="M2186.568,1581.964h-6.147a1.844,1.844,0,0,1,1.844,1.844V1596a1.844,1.844,0,0,1-1.844,1.844h6.147a1.844,1.844,0,0,0,1.844-1.844v-12.191A1.844,1.844,0,0,0,2186.568,1581.964Z" transform="translate(-2130.904 -1575.715)" fill="#365e7d"/>
        <ellipse id="Elipse_1006" data-name="Elipse 1006" cx="22.179" cy="22.484" rx="22.179" ry="22.484" transform="translate(46.183 63.1)" fill="#ecbe6b"/>
        <circle id="Elipse_1007" data-name="Elipse 1007" cx="5.034" cy="5.034" r="5.034" transform="translate(51.963 80.55)" fill="#407093"/>
        <circle id="Elipse_1008" data-name="Elipse 1008" cx="3.845" cy="3.845" r="3.845" transform="translate(74.006 72.386)" fill="#407093"/>
        <circle id="Elipse_1009" data-name="Elipse 1009" cx="3.845" cy="3.845" r="3.845" transform="translate(74.006 91.092)" fill="#407093"/>
        <path id="Trazado_26967" data-name="Trazado 26967" d="M2258.525,1843.4a22.739,22.739,0,0,0-2.774.17,22.489,22.489,0,0,1,0,44.635,22.736,22.736,0,0,0,2.774.17,22.488,22.488,0,1,0,0-44.975Z" transform="translate(-2189.854 -1780.299)" fill="#eab14d"/>
        <g id="Grupo_17086" data-name="Grupo 17086" transform="translate(55.456 72.386)">
          <path id="Trazado_26968" data-name="Trazado 26968" d="M2209.278,1923.66a5.034,5.034,0,0,0-1.541.241,5.035,5.035,0,0,1,0,9.586,5.034,5.034,0,1,0,1.541-9.827Z" transform="translate(-2207.737 -1915.496)" fill="#365e7d"/>
          <path id="Trazado_26969" data-name="Trazado 26969" d="M2305.18,1972.141a3.825,3.825,0,0,0-1.541.324,3.843,3.843,0,0,1,0,7.043,3.845,3.845,0,1,0,1.541-7.367Z" transform="translate(-2282.785 -1953.435)" fill="#365e7d"/>
          <path id="Trazado_26970" data-name="Trazado 26970" d="M2305.18,1886.115a3.825,3.825,0,0,0-1.541.324,3.843,3.843,0,0,1,0,7.043,3.845,3.845,0,1,0,1.541-7.367Z" transform="translate(-2282.785 -1886.115)" fill="#365e7d"/>
        </g>
      </g>
      <g id="Grupo_17088" data-name="Grupo 17088" transform="translate(1945.203 1545.728)">
        <path id="Trazado_26971" data-name="Trazado 26971" d="M2023.282,1610.111v-49.793a5.735,5.735,0,0,0-5.728-5.729H2005.86a3.478,3.478,0,0,0-3.362-2.613h-7.406v-.244a6.011,6.011,0,0,0-6-6H1979.4a6.011,6.011,0,0,0-6,6v.244h-7.406a3.478,3.478,0,0,0-3.362,2.613h-11.693a5.723,5.723,0,0,0-5.728,5.729v12.836a1.631,1.631,0,0,0,3.262,0v-12.836a2.464,2.464,0,0,1,.121-.768h0a2.461,2.461,0,0,1,2.345-1.7h11.581v2.885H1954a2.658,2.658,0,0,0-2.655,2.655v78.619a2.658,2.658,0,0,0,2.655,2.655h40.411a23.948,23.948,0,0,0,1.89,2.885h-45.373a2.469,2.469,0,0,1-2.467-2.467v-64.319a1.631,1.631,0,0,0-3.262,0v64.319a5.735,5.735,0,0,0,5.728,5.728h48.391a24.1,24.1,0,0,0,34.99-2.768,1.631,1.631,0,1,0-2.542-2.044,20.847,20.847,0,1,1,3.417-6.136,1.631,1.631,0,1,0,3.077,1.082,24.155,24.155,0,0,0-14.981-30.835Zm-3.262-49.793v48.929a24.851,24.851,0,0,0-2.885-.367v-45.488a2.658,2.658,0,0,0-2.655-2.655h-8.508v-2.885h11.581A2.47,2.47,0,0,1,2020.02,1560.318Zm-54.246-4.866a.213.213,0,0,1,.213-.213h9.036a1.631,1.631,0,0,0,1.631-1.631v-1.875a2.746,2.746,0,0,1,2.742-2.742h9.692a2.746,2.746,0,0,1,2.743,2.742v1.875a1.631,1.631,0,0,0,1.631,1.631h9.036a.213.213,0,0,1,.213.213v12.191a.213.213,0,0,1-.213.213h-36.511a.213.213,0,0,1-.213-.213Zm-11.163,85.952V1564h7.9v3.645a3.479,3.479,0,0,0,3.475,3.475H2002.5a3.478,3.478,0,0,0,3.475-3.475V1564h7.9v44.881a24.115,24.115,0,0,0-22.488,24.064,24.328,24.328,0,0,0,1.518,8.461Z" transform="translate(-1945.203 -1545.728)" fill="#00223d"/>
        <path id="Trazado_26972" data-name="Trazado 26972" d="M2197.4,1892.288l10.19-4.57a5.491,5.491,0,1,0-1.337-2.975l-10.193,4.572a6.665,6.665,0,1,0,0,8.261l10.193,4.572a5.484,5.484,0,1,0,1.337-2.975l-10.19-4.571a6.827,6.827,0,0,0,0-2.314Zm14.289-10.41a2.214,2.214,0,1,1-2.017,3.122v0l0-.007a2.211,2.211,0,0,1,2.022-3.113Zm0,18.706a2.214,2.214,0,1,1-2.214,2.214A2.217,2.217,0,0,1,2211.691,1900.584Zm-20.854-3.735a3.4,3.4,0,1,1,3.385-3.756A3.407,3.407,0,0,1,2190.837,1896.848Z" transform="translate(-2132.209 -1806.23)" fill="#00223d"/>
      </g>
    </g>
    <text id="_01" data-name="01" transform="translate(1019 3806.286)" fill="#00223d" font-size="28" font-family="SegoeUI-Bold, Segoe UI" font-weight="700"><tspan x="0" y="30">01</tspan></text>
  </g>
</svg>
