<svg xmlns="http://www.w3.org/2000/svg" xmlns:xlink="http://www.w3.org/1999/xlink" width="76.333" height="76.333" viewBox="0 0 76.333 76.333">
  <defs>
    <filter id="Elipse_5696" x="0" y="0" width="76.333" height="76.333" filterUnits="userSpaceOnUse">
      <feOffset dy="3" input="SourceAlpha"/>
      <feGaussianBlur stdDeviation="3" result="blur"/>
      <feFlood flood-opacity="0.161"/>
      <feComposite operator="in" in2="blur"/>
      <feComposite in="SourceGraphic"/>
    </filter>
  </defs>
  <g id="Grupo_1011034" data-name="Grupo 1011034" transform="translate(-171 -3361.001)">
    <g id="Grupo_1010599" data-name="Grupo 1010599" transform="translate(-210 2629.301)">
      <g id="Grupo_1008761" data-name="Grupo 1008761" transform="translate(390 737.7)">
        <g transform="matrix(1, 0, 0, 1, -9, -6)" filter="url(#Elipse_5696)">
          <g id="Elipse_5696-2" data-name="Elipse 5696" transform="translate(9 6)" fill="#fff" stroke="#fff8da" stroke-width="2">
            <circle cx="29.167" cy="29.167" r="29.167" stroke="none"/>
            <circle cx="29.167" cy="29.167" r="28.167" fill="none"/>
          </g>
        </g>
      </g>
    </g>
    <path id="Trazado_716511" data-name="Trazado 716511" d="M26.32,17.119h2.174a2.26,2.26,0,0,0,2.584-2.529,2.187,2.187,0,0,0-.615-1.606,2.333,2.333,0,0,0-1.736-.622,2.5,2.5,0,0,0-1.593.533,1.627,1.627,0,0,0-.677,1.326H21.85a4.716,4.716,0,0,1,.875-2.8A5.778,5.778,0,0,1,25.151,9.5a8.3,8.3,0,0,1,3.411-.69,8.152,8.152,0,0,1,5.223,1.518,5.045,5.045,0,0,1,1.9,4.17,4.2,4.2,0,0,1-.786,2.427,5.6,5.6,0,0,1-2.29,1.853A5.352,5.352,0,0,1,35.1,20.517a4.591,4.591,0,0,1,.9,2.892,5.137,5.137,0,0,1-2.051,4.266,8.512,8.512,0,0,1-5.387,1.6,8.828,8.828,0,0,1-3.63-.745A5.687,5.687,0,0,1,22.4,26.464a5.367,5.367,0,0,1-.861-3H26.17a2.075,2.075,0,0,0,.738,1.586,2.606,2.606,0,0,0,1.818.67,2.73,2.73,0,0,0,1.941-.677,2.262,2.262,0,0,0,.725-1.729,2.644,2.644,0,0,0-.752-2.133,3.143,3.143,0,0,0-2.078-.629H26.32Z" transform="translate(180 3379)" fill="#12263f"/>
  </g>
</svg>
