<svg xmlns="http://www.w3.org/2000/svg" width="98.3" height="98.173" viewBox="0 0 98.3 98.173">
  <g id="Solution" transform="translate(62.223 394.32)">
    <path id="Trazado_26749" data-name="Trazado 26749" d="M-4.2-317.656v-21.017a6.744,6.744,0,0,0-5.91-6.8,6.553,6.553,0,0,0-7.165,5.878,6.4,6.4,0,0,0-.033.644v5.439l-5.8-5.8a8.143,8.143,0,0,1-6.871,9.243,8.14,8.14,0,0,1-3.327-.2L-37.83-316.7a6.555,6.555,0,0,0,.164,4.588l7.251,17.392v3.277H-4.2v-4.915l1.517-3.034a16.384,16.384,0,0,0,.4-13.779Z" transform="translate(-2.318 -4.704)" fill="#ffbcab"/>
    <path id="Trazado_26750" data-name="Trazado 26750" d="M4.115-338.655l-.361.361h.328C4.1-338.414,4.1-338.535,4.115-338.655Z" transform="translate(-6.358 -5.364)" fill="#57a4ff"/>
    <path id="Trazado_26751" data-name="Trazado 26751" d="M6.007-331.67a8.15,8.15,0,0,1-2.341-6.586H3.338l-3.917,3.915v10.829a8.192,8.192,0,0,0,8.191,8.192H9.251a3.277,3.277,0,0,0,3.277-3.277v-10.748A8.137,8.137,0,0,1,6.007-331.67Z" transform="translate(-5.941 -5.403)" fill="#e5a99a"/>
    <path id="Trazado_26752" data-name="Trazado 26752" d="M6.651-350.79l11.583-11.6L7.814-372.81a8.208,8.208,0,0,1-2.326,4.637,8.273,8.273,0,0,1-11.583,0,8.2,8.2,0,0,1,.014-11.6,8.2,8.2,0,0,1,4.622-2.311l-10.42-10.42-11.6,11.583a8.192,8.192,0,0,0-6.946-9.271,8.193,8.193,0,0,0-9.271,6.947,8.192,8.192,0,0,0,6.947,9.27,8.142,8.142,0,0,0,2.324,0L-42.007-362.39l11.583,11.6a8.191,8.191,0,0,0-9.271,6.946,8.192,8.192,0,0,0,6.947,9.271,8.191,8.191,0,0,0,9.27-6.946,8.148,8.148,0,0,0,0-2.325l5.8,5.8v-5.439a6.554,6.554,0,0,1,6.554-6.553,6.553,6.553,0,0,1,6.553,6.553v3.915L-.3-343.844a8.191,8.191,0,0,0,6.946,9.271,8.192,8.192,0,0,0,9.271-6.946,8.192,8.192,0,0,0-6.946-9.271,8.215,8.215,0,0,0-2.325,0Z" transform="translate(-1.948 -0.175)" fill="#ffcd00"/>
    <path id="Trazado_26753" data-name="Trazado 26753" d="M10.429-348.69l11.583-11.6-10.42-10.42a8.208,8.208,0,0,1-2.326,4.637,8.114,8.114,0,0,1-3.826,2.13A56.043,56.043,0,0,1-2.8-346.085a6.516,6.516,0,0,1,2.007,4.7v3.915l4.276-4.276a8.191,8.191,0,0,0,6.946,9.271,8.192,8.192,0,0,0,9.271-6.946,8.192,8.192,0,0,0-6.946-9.271,8.217,8.217,0,0,0-2.325,0Z" transform="translate(-5.727 -2.275)" fill="#e5b800"/>
    <g id="Grupo_17018" data-name="Grupo 17018" transform="translate(-62.223 -394.32)">
      <path id="Trazado_26754" data-name="Trazado 26754" d="M19.217-363.723,8.8-374.143a1.638,1.638,0,0,0-2.317-.01,1.641,1.641,0,0,0-.468.932,6.554,6.554,0,0,1-7.415,5.56,6.553,6.553,0,0,1-5.559-7.415A6.552,6.552,0,0,1-1.4-380.635a1.639,1.639,0,0,0,1.391-1.853,1.646,1.646,0,0,0-.468-.933l-10.42-10.42a1.64,1.64,0,0,0-2.317,0l-9.048,9.045A9.83,9.83,0,0,0-34.3-391.755a9.829,9.829,0,0,0-6.959,12.034,9.829,9.829,0,0,0,6.956,6.959l-9.038,9.039a1.637,1.637,0,0,0,0,2.316l9.042,9.053a9.831,9.831,0,0,0-6.943,12.044,9.833,9.833,0,0,0,5.753,6.54l-3.826,11.033a8.2,8.2,0,0,0,.282,7.221l5.751,13.6a1.311,1.311,0,0,0,.074.152,5.01,5.01,0,0,1,.611,2.407v1.572a1.638,1.638,0,0,0,1.638,1.638,1.638,1.638,0,0,0,1.638-1.638v-1.572a8.291,8.291,0,0,0-.983-3.906l-5.752-13.6a1.808,1.808,0,0,0-.079-.164,4.975,4.975,0,0,1-.145-4.5l4.008-11.534c.172,0,.341.024.514.024a9.81,9.81,0,0,0,9.487-7.277l2.779,2.767v16.819a1.639,1.639,0,0,0,1.638,1.638,1.638,1.638,0,0,0,1.638-1.638v-22.937a4.915,4.915,0,0,1,4.916-4.915,4.915,4.915,0,0,1,4.915,4.915v19.842a14.818,14.818,0,0,0,1.556,6.594l.6,1.2a11.514,11.514,0,0,1,0,10.256l-1.638,3.277a4.927,4.927,0,0,0-.518,2.2v2.5a1.637,1.637,0,0,0,1.638,1.638,1.638,1.638,0,0,0,1.638-1.638v-2.5a1.666,1.666,0,0,1,.164-.732l1.638-3.277a14.8,14.8,0,0,0,0-13.187l-.6-1.2a11.513,11.513,0,0,1-1.126-3.759,11.439,11.439,0,0,0,8.115,3.363A4.915,4.915,0,0,0,10-324v-9.339a9.819,9.819,0,0,0,7.174-11.891,9.818,9.818,0,0,0-7-7.128l9.04-9.053a1.637,1.637,0,0,0,0-2.313ZM5.084-322.36a8.2,8.2,0,0,1-8.191-8.192v-8.518l1.252-1.252a9.8,9.8,0,0,0,8.578,7.242V-324A1.639,1.639,0,0,1,5.084-322.36Zm.234-29.764a1.638,1.638,0,0,0-.013,2.317,1.638,1.638,0,0,0,1.409.468,6.554,6.554,0,0,1,7.407,5.571,6.553,6.553,0,0,1-5.57,7.406,6.552,6.552,0,0,1-7.407-5.57,6.51,6.51,0,0,1,0-1.836,1.638,1.638,0,0,0-1.376-1.864,1.635,1.635,0,0,0-1.409.468L-3.108-343.7a8.192,8.192,0,0,0-8.209-8.173,8.192,8.192,0,0,0-8.174,8.209h0v1.485l-3-3a1.638,1.638,0,0,0-2.317-.013,1.637,1.637,0,0,0-.468,1.409,6.554,6.554,0,0,1-5.57,7.407,6.554,6.554,0,0,1-7.407-5.57,6.552,6.552,0,0,1,5.57-7.407,6.516,6.516,0,0,1,1.837,0,1.639,1.639,0,0,0,1.865-1.374,1.636,1.636,0,0,0-.468-1.411l-10.414-10.429,10.426-10.42a1.638,1.638,0,0,0,.013-2.317,1.64,1.64,0,0,0-1.409-.468,6.552,6.552,0,0,1-7.4-5.583,6.554,6.554,0,0,1,1.846-5.531,6.716,6.716,0,0,1,9.267,0,6.55,6.55,0,0,1,1.848,5.55A1.639,1.639,0,0,0-23.9-379.47a1.638,1.638,0,0,0,1.409-.468l10.435-10.423,7.341,7.343a9.831,9.831,0,0,0-4.634,13.107,9.83,9.83,0,0,0,13.106,4.634,9.831,9.831,0,0,0,4.634-4.634l7.343,7.341Z" transform="translate(60.45 394.32)" fill="#00223d"/>
      <path id="Trazado_26755" data-name="Trazado 26755" d="M43.524-356.736h-9.83a1.638,1.638,0,0,1-1.638-1.638,1.638,1.638,0,0,1,1.638-1.639h9.83a1.639,1.639,0,0,1,1.638,1.639A1.639,1.639,0,0,1,43.524-356.736Z" transform="translate(53.137 391.014)" fill="#00223d"/>
      <path id="Trazado_26756" data-name="Trazado 26756" d="M31.734-378.109a1.639,1.639,0,0,1-1.638-1.639,1.639,1.639,0,0,1,.819-1.419l8.519-4.915a1.638,1.638,0,0,1,2.234.614,1.637,1.637,0,0,1-.6,2.223l-8.519,4.916A1.637,1.637,0,0,1,31.734-378.109Z" transform="translate(53.326 393.547)" fill="#00223d"/>
      <path id="Trazado_26757" data-name="Trazado 26757" d="M40.244-330.971a1.628,1.628,0,0,1-.82-.22L30.9-336.106a1.639,1.639,0,0,1-.614-2.234,1.638,1.638,0,0,1,2.234-.615l.019.011,8.519,4.916a1.638,1.638,0,0,1,.6,2.237,1.639,1.639,0,0,1-1.419.82Z" transform="translate(53.328 389.005)" fill="#00223d"/>
      <path id="Trazado_26758" data-name="Trazado 26758" d="M-50.754-356.736h-9.831a1.639,1.639,0,0,1-1.638-1.638,1.639,1.639,0,0,1,1.638-1.639h9.831a1.639,1.639,0,0,1,1.638,1.639A1.639,1.639,0,0,1-50.754-356.736Z" transform="translate(62.223 391.014)" fill="#00223d"/>
      <path id="Trazado_26759" data-name="Trazado 26759" d="M-48.654-378.109a1.637,1.637,0,0,1-.819-.22l-8.519-4.916a1.638,1.638,0,0,1-.585-2.242,1.639,1.639,0,0,1,2.223-.6l8.519,4.915a1.638,1.638,0,0,1,.6,2.238A1.639,1.639,0,0,1-48.654-378.109Z" transform="translate(61.893 393.547)" fill="#00223d"/>
      <path id="Trazado_26760" data-name="Trazado 26760" d="M-57.165-330.971a1.638,1.638,0,0,1-1.638-1.638,1.636,1.636,0,0,1,.819-1.419l8.519-4.916a1.639,1.639,0,0,1,2.242.585,1.638,1.638,0,0,1-.585,2.242l-.019.012-8.519,4.915a1.628,1.628,0,0,1-.819.22Z" transform="translate(61.893 389.005)" fill="#00223d"/>
    </g>
  </g>
</svg>
