<svg xmlns="http://www.w3.org/2000/svg" width="72" height="72" viewBox="0 0 72 72">
  <g id="Grupo_1008737" data-name="Grupo 1008737" transform="translate(-1073.534 -2189.893)">
    <g id="Grupo_1008533" data-name="Grupo 1008533" transform="translate(463 -3978)">
      <circle id="Elipse_5640" data-name="Elipse 5640" cx="36" cy="36" r="36" transform="translate(610.534 6167.893)" fill="none"/>
    </g>
    <g id="Grupo_16575" data-name="Grupo 16575" transform="translate(588.097 1541.557)">
      <path id="Trazado_25804" data-name="Trazado 25804" d="M522.013,717.22h35.844a2.636,2.636,0,0,0,2.636-2.636V664.378L548.5,652.388H509.365a2.636,2.636,0,0,0-2.636,2.636v59.561a2.636,2.636,0,0,0,2.636,2.636Z" transform="translate(-6.905 -0.735)" fill="#f4f4f4"/>
      <path id="Trazado_25805" data-name="Trazado 25805" d="M571.788,652.628v9.2a2.636,2.636,0,0,0,2.636,2.636h9.2Z" transform="translate(-30.193 -0.82)" fill="#fec96b"/>
      <path id="Trazado_25806" data-name="Trazado 25806" d="M512.929,667.949a16.088,16.088,0,1,1-16.088,16.088h16.088V667.949Z" transform="translate(-3.366 -6.305)" fill="#a0e557"/>
      <path id="Trazado_25807" data-name="Trazado 25807" d="M521.9,684.037V667.949a16.037,16.037,0,0,1,11.376,4.712Z" transform="translate(-12.335 -6.305)" fill="#39ddd2"/>
      <path id="Trazado_25808" data-name="Trazado 25808" d="M505.578,660.6v16.088H489.489A16.088,16.088,0,0,1,505.578,660.6Z" transform="translate(-0.735 -3.673)" fill="#fec96b"/>
      <circle id="Elipse_924" data-name="Elipse 924" cx="2.635" cy="2.635" r="2.635" transform="translate(542.527 693.241)" fill="#39ddd2"/>
      <circle id="Elipse_925" data-name="Elipse 925" cx="2.635" cy="2.635" r="2.635" transform="translate(529.57 705.931)" fill="#fec96b"/>
      <circle id="Elipse_926" data-name="Elipse 926" cx="2.635" cy="2.635" r="2.635" transform="translate(519.159 695.876)" fill="#a0e557"/>
      <circle id="Elipse_927" data-name="Elipse 927" cx="2.635" cy="2.635" r="2.635" transform="translate(509.034 705.936)" fill="#ff5d5d"/>
      <path id="Trazado_25809" data-name="Trazado 25809" d="M554.518,662.712l-11.992-11.99a1.315,1.315,0,0,0-.932-.386H502.459a3.958,3.958,0,0,0-3.953,3.953V656.8a17.434,17.434,0,0,0-11.069,16.211,1.318,1.318,0,0,0,1.318,1.317h16.089a1.318,1.318,0,0,0,1.317-1.317V656.925a1.318,1.318,0,0,0-1.317-1.318,17.417,17.417,0,0,0-3.7.4v-1.715a1.319,1.319,0,0,1,1.318-1.318h37.818v8.038a3.958,3.958,0,0,0,3.953,3.953h8.038V713.85a1.319,1.319,0,0,1-1.318,1.318H502.459a1.319,1.319,0,0,1-1.318-1.318V702.561a1.318,1.318,0,0,0-2.635,0V713.85a3.958,3.958,0,0,0,3.953,3.953h48.492a3.958,3.958,0,0,0,3.953-3.953V663.643A1.317,1.317,0,0,0,554.518,662.712ZM503.525,671.7H490.131A14.794,14.794,0,0,1,503.525,658.3V671.7Zm39.388-10.686v-6.175l7.493,7.492h-6.176A1.319,1.319,0,0,1,542.913,661.01Z" fill="#193651"/>
      <path id="Trazado_25810" data-name="Trazado 25810" d="M505.063,722.554a1.318,1.318,0,1,0,.932-.386A1.328,1.328,0,0,0,505.063,722.554Z" transform="translate(-6.171 -25.712)"/>
      <path id="Trazado_25811" data-name="Trazado 25811" d="M529.6,683.3A17.425,17.425,0,0,0,512.194,665.9a1.318,1.318,0,0,0-1.318,1.318v14.771h-14.77a1.318,1.318,0,0,0-1.318,1.318,17.406,17.406,0,1,0,34.812,0Zm-7.94-11.329-8.148,8.148V668.59A14.7,14.7,0,0,1,521.66,671.973ZM497.482,684.62h14.712a1.313,1.313,0,0,0,.931-.385h0l10.4-10.4a14.768,14.768,0,1,1-26.042,10.783Z" transform="translate(-2.631 -5.57)" fill="#193651"/>
      <path id="Trazado_25812" data-name="Trazado 25812" d="M537.054,721.7a3.953,3.953,0,1,0-7.542,1.655l-4.835,4.835a3.952,3.952,0,1,0,1.866,1.861l4.808-4.808a3.941,3.941,0,0,0,3.7-.108l4.9,4.9a3.953,3.953,0,1,0,7.137.038l7.52-7.521a3.95,3.95,0,1,0-1.78-1.946l-7.592,7.592a3.945,3.945,0,0,0-3.414-.018l-5.041-5.041A3.932,3.932,0,0,0,537.054,721.7Zm-14.076,11.377a1.318,1.318,0,1,1,.911-2.267l.015.017.02.017a1.316,1.316,0,0,1-.946,2.232ZM533.1,723.015a1.318,1.318,0,1,1,1.318-1.318A1.32,1.32,0,0,1,533.1,723.015Zm23.368-5.271a1.318,1.318,0,1,1-1.317,1.318A1.32,1.32,0,0,1,556.469,717.744Zm-11.64,14.006a1.318,1.318,0,1,1-1.318-1.318A1.319,1.319,0,0,1,544.829,731.75Z" transform="translate(-11.306 -23.185)" fill="#193651"/>
      <path id="Trazado_25813" data-name="Trazado 25813" d="M555.52,701.2h6.955a1.318,1.318,0,0,0,0-2.636H555.52a1.318,1.318,0,0,0,0,2.636Z" transform="translate(-23.898 -17.264)" fill="#193651"/>
      <path id="Trazado_25814" data-name="Trazado 25814" d="M574.765,698.952a1.318,1.318,0,1,0,.932-.386A1.328,1.328,0,0,0,574.765,698.952Z" transform="translate(-31.12 -17.264)" fill="#193651"/>
      <path id="Trazado_25815" data-name="Trazado 25815" d="M555.52,681.5h16.1a1.318,1.318,0,0,0,0-2.636h-16.1a1.318,1.318,0,0,0,0,2.636Z" transform="translate(-23.898 -10.211)" fill="#193651"/>
      <path id="Trazado_25816" data-name="Trazado 25816" d="M555.52,691.35h16.1a1.317,1.317,0,1,0,0-2.635h-16.1a1.317,1.317,0,1,0,0,2.635Z" transform="translate(-23.898 -13.738)" fill="#193651"/>
    </g>
  </g>
</svg>
