<svg xmlns="http://www.w3.org/2000/svg" xmlns:xlink="http://www.w3.org/1999/xlink" width="143" height="143" viewBox="0 0 143 143">
  <defs>
    <filter id="Elipse_5732" x="0" y="0" width="143" height="143" filterUnits="userSpaceOnUse">
      <feOffset dy="3" input="SourceAlpha"/>
      <feGaussianBlur stdDeviation="3" result="blur"/>
      <feFlood flood-opacity="0.161"/>
      <feComposite operator="in" in2="blur"/>
      <feComposite in="SourceGraphic"/>
    </filter>
  </defs>
  <g id="Grupo_1010588" data-name="Grupo 1010588" transform="translate(-171 -14211.893)">
    <g id="Grupo_1010587" data-name="Grupo 1010587" transform="translate(0 5298)">
      <g transform="matrix(1, 0, 0, 1, 171, 8913.89)" filter="url(#Elipse_5732)">
        <circle id="Elipse_5732-2" data-name="Elipse 5732" cx="62.5" cy="62.5" r="62.5" transform="translate(9 6)" fill="#fff"/>
      </g>
    </g>
    <g id="Grupo_16950" data-name="Grupo 16950" transform="translate(-53 6591.893)">
      <g id="Grupo_16949" data-name="Grupo 16949" transform="translate(256 7649)">
        <g id="Grupo_16947" data-name="Grupo 16947" transform="translate(1.274 1.274)">
          <g id="Grupo_16933" data-name="Grupo 16933" transform="translate(0 8.919)">
            <path id="Trazado_26585" data-name="Trazado 26585" d="M396.245-407.5v48.419h50.968a6.373,6.373,0,0,1,6.371-6.371,6.373,6.373,0,0,1,6.371,6.371h5.1V-407.5Z" transform="translate(-396.245 407.5)" fill="#e6e9ed"/>
          </g>
          <g id="Grupo_16934" data-name="Grupo 16934" transform="translate(5.097 42.048)">
            <path id="Trazado_26586" data-name="Trazado 26586" d="M405.815-345.292h5.1V-335.1h-5.1Z" transform="translate(-405.815 345.292)" fill="#fcd770"/>
          </g>
          <g id="Grupo_16935" data-name="Grupo 16935" transform="translate(15.29 44.597)">
            <path id="Trazado_26587" data-name="Trazado 26587" d="M424.956-340.506h5.1v7.645h-5.1Z" transform="translate(-424.956 340.506)" fill="#fcd770"/>
          </g>
          <g id="Grupo_16936" data-name="Grupo 16936" transform="translate(25.484 34.403)">
            <path id="Trazado_26588" data-name="Trazado 26588" d="M444.1-359.647h5.1v17.838h-5.1Z" transform="translate(-444.098 359.647)" fill="#fcd770"/>
          </g>
          <g id="Grupo_16937" data-name="Grupo 16937" transform="translate(35.678 39.5)">
            <path id="Trazado_26589" data-name="Trazado 26589" d="M468.336-350.077v8.308a19.2,19.2,0,0,0-1.86,4.434h-3.236v-12.742Z" transform="translate(-463.239 350.077)" fill="#fcd770"/>
          </g>
          <g id="Grupo_16938" data-name="Grupo 16938" transform="translate(45.871 45.871)">
            <path id="Trazado_26590" data-name="Trazado 26590" d="M493.847-338.114a11.469,11.469,0,0,0-11.467,11.468,11.348,11.348,0,0,0,1.542,5.734,11.443,11.443,0,0,0,9.926,5.734,11.444,11.444,0,0,0,9.926-5.734,11.354,11.354,0,0,0,1.542-5.734A11.469,11.469,0,0,0,493.847-338.114Zm0,17.839a6.373,6.373,0,0,1-6.371-6.371,6.373,6.373,0,0,1,6.371-6.371,6.373,6.373,0,0,1,6.371,6.371A6.373,6.373,0,0,1,493.847-320.275Z" transform="translate(-482.38 338.114)" fill="#ccd1d9"/>
          </g>
          <g id="Grupo_16939" data-name="Grupo 16939" transform="translate(40.787 63.073)">
            <path id="Trazado_26591" data-name="Trazado 26591" d="M499.311-305.813l6.626,3.823a19.122,19.122,0,0,1-16.552,9.556,19.121,19.121,0,0,1-16.552-9.556l6.626-3.823a11.443,11.443,0,0,0,9.926,5.734,11.444,11.444,0,0,0,9.926-5.734Z" transform="translate(-472.833 305.813)" fill="#fcd770"/>
          </g>
          <g id="Grupo_16940" data-name="Grupo 16940" transform="translate(57.339 38.225)">
            <path id="Trazado_26592" data-name="Trazado 26592" d="M523.026-333.357a18.97,18.97,0,0,1-2.561,9.557l-6.626-3.823a11.354,11.354,0,0,0,1.542-5.734,11.469,11.469,0,0,0-11.468-11.468v-7.645a19.028,19.028,0,0,1,11.468,3.823A19.114,19.114,0,0,1,523.026-333.357Z" transform="translate(-503.913 352.47)" fill="#ff7b79"/>
          </g>
          <g id="Grupo_16942" data-name="Grupo 16942" transform="translate(38.226 38.225)">
            <g id="Grupo_16941" data-name="Grupo 16941">
              <path id="Trazado_26593" data-name="Trazado 26593" d="M487.137-352.47v7.645a11.469,11.469,0,0,0-11.467,11.468,11.349,11.349,0,0,0,1.542,5.734l-6.626,3.823a18.964,18.964,0,0,1-2.561-9.557,19.211,19.211,0,0,1,.688-5.1,19.2,19.2,0,0,1,1.86-4.434,19.1,19.1,0,0,1,16.564-9.582Z" transform="translate(-468.024 352.47)" fill="#cddc39"/>
            </g>
          </g>
          <g id="Grupo_16943" data-name="Grupo 16943" transform="translate(30.581 25.484)">
            <path id="Trazado_26594" data-name="Trazado 26594" d="M458.013-375.644a2.491,2.491,0,0,1,.752,1.8,2.556,2.556,0,0,1-2.549,2.549,2.556,2.556,0,0,1-2.548-2.549,2.556,2.556,0,0,1,2.548-2.548A2.492,2.492,0,0,1,458.013-375.644Z" transform="translate(-453.668 376.396)" fill="#ff826e"/>
          </g>
          <g id="Grupo_16944" data-name="Grupo 16944" transform="translate(42.049 14.016)">
            <path id="Trazado_26595" data-name="Trazado 26595" d="M479.547-393.585a2.491,2.491,0,0,1-1.8.752,2.491,2.491,0,0,1-1.8-.752,2.491,2.491,0,0,1-.751-1.8,2.556,2.556,0,0,1,2.548-2.549,2.556,2.556,0,0,1,2.548,2.549A2.491,2.491,0,0,1,479.547-393.585Z" transform="translate(-475.202 397.93)" fill="#ff826e"/>
          </g>
          <g id="Grupo_16945" data-name="Grupo 16945" transform="translate(49.693 21.661)">
            <path id="Trazado_26596" data-name="Trazado 26596" d="M493.9-382.822a2.49,2.49,0,0,1,.752,1.8,2.556,2.556,0,0,1-2.548,2.548,2.556,2.556,0,0,1-2.549-2.548,2.492,2.492,0,0,1,.752-1.8,2.492,2.492,0,0,1,1.8-.752A2.491,2.491,0,0,1,493.9-382.822Z" transform="translate(-489.557 383.574)" fill="#ff826e"/>
          </g>
          <g id="Grupo_16946" data-name="Grupo 16946" transform="translate(61.161)">
            <path id="Trazado_26597" data-name="Trazado 26597" d="M518.736-424.248a7.651,7.651,0,0,1,7.645,7.645,7.651,7.651,0,0,1-7.645,7.645,7.574,7.574,0,0,1-5.4-2.243,7.6,7.6,0,0,1-2.128-4.128,6.948,6.948,0,0,1-.115-1.274,7.651,7.651,0,0,1,7.645-7.645Z" transform="translate(-511.091 424.248)" fill="#ff826e"/>
          </g>
        </g>
        <g id="Grupo_16948" data-name="Grupo 16948" transform="translate(0 0)">
          <path id="Trazado_26598" data-name="Trazado 26598" d="M465.207-383.917V-408.9a8.925,8.925,0,0,0,7.645-8.817,8.93,8.93,0,0,0-8.919-8.919,8.929,8.929,0,0,0-8.919,8.919H393.852v50.968h38.291a20.4,20.4,0,0,0,20.322,19.113,20.411,20.411,0,0,0,20.387-20.387A20.346,20.346,0,0,0,465.207-383.917Zm-1.274-40.176a6.378,6.378,0,0,1,6.371,6.371,6.378,6.378,0,0,1-6.371,6.371,6.378,6.378,0,0,1-6.371-6.371A6.378,6.378,0,0,1,463.933-424.093Zm-67.532,8.92h58.988a8.911,8.911,0,0,0,1.411,2.784l-7.793,7.793a3.769,3.769,0,0,0-1.639-.383,3.759,3.759,0,0,0-1.638.383l-2.567-2.567a3.791,3.791,0,0,0,.382-1.639,3.827,3.827,0,0,0-3.823-3.823A3.827,3.827,0,0,0,435.9-408.8a3.757,3.757,0,0,0,.383,1.637l-6.39,6.39a3.789,3.789,0,0,0-1.639-.382,3.827,3.827,0,0,0-3.823,3.822,3.827,3.827,0,0,0,3.823,3.823,3.827,3.827,0,0,0,3.823-3.823,3.757,3.757,0,0,0-.383-1.637l6.39-6.39a3.791,3.791,0,0,0,1.639.382,3.757,3.757,0,0,0,1.637-.384l2.568,2.568a3.782,3.782,0,0,0-.382,1.639,3.827,3.827,0,0,0,3.823,3.822,3.827,3.827,0,0,0,3.823-3.822,3.76,3.76,0,0,0-.384-1.638l7.794-7.793a8.867,8.867,0,0,0,4.057,1.684v23.247a20.228,20.228,0,0,0-10.194-2.76,20.321,20.321,0,0,0-15.29,6.948v-5.674H429.53v15.291h2.92a20.463,20.463,0,0,0-.307,2.548H396.4Zm50.968,12.742a1.275,1.275,0,0,1,1.274,1.274,1.275,1.275,0,0,1-1.274,1.274,1.275,1.275,0,0,1-1.274-1.274A1.275,1.275,0,0,1,447.368-402.431Zm-8.92-6.371a1.276,1.276,0,0,1,1.274-1.274A1.276,1.276,0,0,1,441-408.8a1.276,1.276,0,0,1-1.274,1.274A1.276,1.276,0,0,1,438.449-408.8Zm-8.919,11.467a1.276,1.276,0,0,1-1.274,1.274,1.275,1.275,0,0,1-1.274-1.274,1.275,1.275,0,0,1,1.274-1.274A1.275,1.275,0,0,1,429.53-397.335Zm22.935,39.5a10.205,10.205,0,0,1-10.194-10.194,10.205,10.205,0,0,1,10.194-10.194,10.205,10.205,0,0,1,10.194,10.194A10.205,10.205,0,0,1,452.465-357.834Zm-17.839-20.042a20.22,20.22,0,0,0-1.515,3.478h-1.034v-10.194h2.548Zm16.565-7.925v5.1a12.76,12.76,0,0,0-11.468,12.677,12.654,12.654,0,0,0,1.135,5.229l-4.42,2.552a17.69,17.69,0,0,1-1.812-7.782A17.849,17.849,0,0,1,451.191-385.8Zm1.274,35.613a17.83,17.83,0,0,1-14.765-7.843l4.438-2.563a12.722,12.722,0,0,0,10.327,5.308,12.723,12.723,0,0,0,10.328-5.308l4.438,2.563A17.829,17.829,0,0,1,452.465-350.189Zm16.027-10.057-4.42-2.552a12.662,12.662,0,0,0,1.135-5.229A12.759,12.759,0,0,0,453.739-380.7v-5.1A17.848,17.848,0,0,1,470.3-368.028a17.69,17.69,0,0,1-1.812,7.782Z" transform="translate(-393.852 426.641)" fill="#00223d"/>
          <path id="Trazado_26599" data-name="Trazado 26599" d="M497.2-330.936a7.653,7.653,0,0,0-7.645,7.645,7.653,7.653,0,0,0,7.645,7.645,7.653,7.653,0,0,0,7.645-7.645A7.653,7.653,0,0,0,497.2-330.936Zm0,12.742a5.1,5.1,0,0,1-5.1-5.1,5.1,5.1,0,0,1,5.1-5.1,5.1,5.1,0,0,1,5.1,5.1A5.1,5.1,0,0,1,497.2-318.194Z" transform="translate(-438.589 381.904)" fill="#00223d"/>
          <path id="Trazado_26600" data-name="Trazado 26600" d="M403.423-400.322h2.548v2.548h-2.548Z" transform="translate(-398.326 414.338)" fill="#00223d"/>
          <path id="Trazado_26601" data-name="Trazado 26601" d="M412.993-400.322h17.839v2.548H412.993Z" transform="translate(-402.799 414.338)" fill="#00223d"/>
          <path id="Trazado_26602" data-name="Trazado 26602" d="M403.423-390.752h2.548v2.549h-2.548Z" transform="translate(-398.326 409.865)" fill="#00223d"/>
          <path id="Trazado_26603" data-name="Trazado 26603" d="M412.993-390.752h17.839v2.549H412.993Z" transform="translate(-402.799 409.865)" fill="#00223d"/>
          <path id="Trazado_26604" data-name="Trazado 26604" d="M403.423-381.181h2.548v2.548h-2.548Z" transform="translate(-398.326 405.391)" fill="#00223d"/>
          <path id="Trazado_26605" data-name="Trazado 26605" d="M412.993-381.181h17.839v2.548H412.993Z" transform="translate(-402.799 405.391)" fill="#00223d"/>
          <path id="Trazado_26606" data-name="Trazado 26606" d="M403.423-371.611h2.548v2.549h-2.548Z" transform="translate(-398.326 400.917)" fill="#00223d"/>
          <path id="Trazado_26607" data-name="Trazado 26607" d="M412.993-371.611h17.839v2.549H412.993Z" transform="translate(-402.799 400.917)" fill="#00223d"/>
          <path id="Trazado_26608" data-name="Trazado 26608" d="M403.423-334.942h7.645v-12.742h-7.645Zm2.548-10.194h2.548v7.645h-2.548Z" transform="translate(-398.326 389.733)" fill="#00223d"/>
          <path id="Trazado_26609" data-name="Trazado 26609" d="M422.564-332.705h7.645V-342.9h-7.645Zm2.548-7.645h2.548v5.1h-2.548Z" transform="translate(-407.273 387.496)" fill="#00223d"/>
          <path id="Trazado_26610" data-name="Trazado 26610" d="M441.7-341.653h7.645V-362.04H441.7Zm2.548-17.839H446.8V-344.2h-2.548Z" transform="translate(-416.221 396.443)" fill="#00223d"/>
        </g>
      </g>
    </g>
  </g>
</svg>
