<svg xmlns="http://www.w3.org/2000/svg" xmlns:xlink="http://www.w3.org/1999/xlink" width="118.618" height="119.458" viewBox="0 0 118.618 119.458">
  <defs>
    <radialGradient id="radial-gradient" cx="0.076" cy="0.019" r="1.465" gradientTransform="translate(0.001)" gradientUnits="objectBoundingBox">
      <stop offset="0" stop-color="#f6f6f7"/>
      <stop offset="0.477" stop-color="#f9f9fa"/>
      <stop offset="0.715" stop-color="#fff"/>
    </radialGradient>
    <filter id="Trazado_40937" x="0" y="0.962" width="118.618" height="118.496" filterUnits="userSpaceOnUse">
      <feOffset dy="7" input="SourceAlpha"/>
      <feGaussianBlur stdDeviation="2.5" result="blur"/>
      <feFlood flood-opacity="0.102"/>
      <feComposite operator="in" in2="blur"/>
      <feComposite in="SourceGraphic"/>
    </filter>
  </defs>
  <g id="Grupo_1010602" data-name="Grupo 1010602" transform="translate(-278.841 -4586)">
    <g id="Grupo_1004059" data-name="Grupo 1004059" transform="translate(285 4586)">
      <g id="Grupo_18423" data-name="Grupo 18423" transform="translate(0 0)">
        <g id="Grupo_18421" data-name="Grupo 18421">
          <g id="Grupo_18420" data-name="Grupo 18420">
            <g id="Grupo_18419" data-name="Grupo 18419">
              <path id="Trazado_40936" data-name="Trazado 40936" d="M299.581,2198.2a52.479,52.479,0,1,1-52.478-52.478A52.479,52.479,0,0,1,299.581,2198.2Z" transform="translate(-194.623 -2145.721)" fill="#fff"/>
            </g>
          </g>
        </g>
        <g transform="matrix(1, 0, 0, 1, -6.16, 0)" filter="url(#Trazado_40937)">
          <path id="Trazado_40937-2" data-name="Trazado 40937" d="M299.095,2197.668a52.478,52.478,0,1,0-52.478,52.48A52.271,52.271,0,0,0,299.095,2197.668Z" transform="translate(-187.98 -2145.19)" fill="url(#radial-gradient)"/>
        </g>
        <g id="Grupo_18422" data-name="Grupo 18422" transform="translate(9.297 29.463)">
          <path id="Trazado_40939" data-name="Trazado 40939" d="M290.9,2164.488a52.485,52.485,0,0,1-90.355,52.261,52.319,52.319,0,0,0,90.355-52.261Z" transform="translate(-200.545 -2164.488)" fill="#eceef0"/>
        </g>
      </g>
    </g>
    <g id="Grupo_17021" data-name="Grupo 17021" transform="translate(512.933 5004.17)">
      <path id="Trazado_26761" data-name="Trazado 26761" d="M-103.97-394.447h-8.306v-8.306l-9.844,9.844v8.306h8.306Z" transform="translate(-33.75 -0.879)" fill="#78d2fa"/>
      <circle id="Elipse_985" data-name="Elipse 985" cx="27.941" cy="27.941" r="27.941" transform="translate(-203.303 -393.733)" fill="#ff8c8c"/>
      <path id="Trazado_26762" data-name="Trazado 26762" d="M-145.407-353.5a17.856,17.856,0,0,0-17.856-17.856,17.8,17.8,0,0,0-12.626,5.23,17.8,17.8,0,0,0-5.23,12.627,17.856,17.856,0,0,0,17.856,17.856A17.857,17.857,0,0,0-145.407-353.5Z" transform="translate(-12.295 -12.298)" fill="#fff"/>
      <circle id="Elipse_986" data-name="Elipse 986" cx="8.883" cy="8.883" r="8.883" transform="translate(-184.441 -374.676)" fill="#ff5a5a"/>
      <g id="Grupo_17019" data-name="Grupo 17019" transform="translate(-213.395 -403.632)">
        <circle id="Elipse_987" data-name="Elipse 987" cx="9.998" cy="9.998" r="9.998" transform="translate(27.883)" fill="#f5c86e"/>
        <circle id="Elipse_988" data-name="Elipse 988" cx="9.998" cy="9.998" r="9.998" transform="translate(0 27.841)" fill="#f5c86e"/>
        <circle id="Elipse_989" data-name="Elipse 989" cx="9.998" cy="9.998" r="9.998" transform="translate(27.838 55.68)" fill="#f5c86e"/>
        <circle id="Elipse_990" data-name="Elipse 990" cx="9.998" cy="9.998" r="9.998" transform="translate(55.68 27.846)" fill="#f5c86e"/>
      </g>
      <path id="Trazado_26763" data-name="Trazado 26763" d="M-171.188-299.54Z" transform="translate(-15.907 -38.41)"/>
      <path id="Trazado_26764" data-name="Trazado 26764" d="M-147.716-377.325h0c-.265,0-.528.012-.789.03a29.39,29.39,0,0,0-3.932-6.648h4.875a1.538,1.538,0,0,0,1.088-.451l9.845-9.845a1.538,1.538,0,0,0,.333-1.676,1.539,1.539,0,0,0-1.421-.949h-6.768v-6.768a1.538,1.538,0,0,0-.949-1.421,1.538,1.538,0,0,0-1.676.333l-9.845,9.845a1.539,1.539,0,0,0-.451,1.088v4.875a29.379,29.379,0,0,0-6.6-3.91c.018-.263.031-.526.031-.792a11.549,11.549,0,0,0-11.517-11.555h-.02a11.55,11.55,0,0,0-11.536,11.517c0,.265.011.529.029.791a29.4,29.4,0,0,0-4.17,2.176,1.538,1.538,0,0,0-.483,2.121,1.538,1.538,0,0,0,1.3.719,1.532,1.532,0,0,0,.818-.236,26.292,26.292,0,0,1,3.161-1.7,11.5,11.5,0,0,0,2.708,4.289,11.655,11.655,0,0,0,1.691,1.4,19.488,19.488,0,0,0-11.849,11.824,11.7,11.7,0,0,0-1.4-1.69,11.5,11.5,0,0,0-4.286-2.714,26.225,26.225,0,0,1,1.344-2.571,1.538,1.538,0,0,0-.535-2.108,1.538,1.538,0,0,0-2.109.534,29.391,29.391,0,0,0-1.783,3.513c-.261-.018-.522-.03-.786-.03h0a11.55,11.55,0,0,0-11.532,11.541A11.549,11.549,0,0,0-203.4-354.256h0c.263,0,.524-.012.784-.03a29.417,29.417,0,0,0,15.543,15.543c-.018.263-.03.526-.03.792a11.459,11.459,0,0,0,3.382,8.156,11.457,11.457,0,0,0,8.154,3.377h0a11.551,11.551,0,0,0,11.532-11.541c0-.263-.012-.524-.029-.783a29.42,29.42,0,0,0,15.541-15.539c.262.018.526.03.792.03h0a11.549,11.549,0,0,0,11.536-11.534A11.55,11.55,0,0,0-147.716-377.325Zm-9.554,5.078a19.406,19.406,0,0,0-3.538-6.121l4.915-4.915a26.322,26.322,0,0,1,4.307,6.626A11.594,11.594,0,0,0-157.27-372.247Zm9.07-14.773h-3.956l1.846-1.846h3.956Zm4.922-4.922h-3.956l1.846-1.846h3.955Zm-4.285-4.021-1.845,1.846v-3.956l1.845-1.846Zm-4.922.967v3.956l-1.845,1.845v-3.955Zm-5.583,9.539-4.915,4.915a19.4,19.4,0,0,0-6.084-3.524,11.622,11.622,0,0,0,1.7-1.4,11.492,11.492,0,0,0,2.722-4.28A26.319,26.319,0,0,1-158.069-385.458Zm-25.763-6.634c0-.019-.007-.039-.01-.058a8.545,8.545,0,0,1-.132-1.5,8.47,8.47,0,0,1,8.46-8.446h.014a8.469,8.469,0,0,1,8.447,8.474,8.56,8.56,0,0,1-.136,1.494c0,.021-.008.043-.011.064a8.4,8.4,0,0,1-2.341,4.42,8.4,8.4,0,0,1-5.972,2.468h-.014a8.4,8.4,0,0,1-5.978-2.488A8.4,8.4,0,0,1-183.832-392.092Zm-19.562,34.76h0a8.47,8.47,0,0,1-8.46-8.457,8.47,8.47,0,0,1,8.457-8.463h0a8.616,8.616,0,0,1,1.472.129c.023.005.046.009.069.012a8.393,8.393,0,0,1,4.439,2.335,8.406,8.406,0,0,1,2.481,5.981,8.406,8.406,0,0,1-2.476,5.983,8.4,8.4,0,0,1-4.432,2.337l-.059.01A8.581,8.581,0,0,1-203.394-357.332Zm3.867,2.414a11.5,11.5,0,0,0,4.29-2.719,11.663,11.663,0,0,0,1.392-1.688,19.489,19.489,0,0,0,11.816,11.815,11.678,11.678,0,0,0-1.692,1.4,11.5,11.5,0,0,0-2.713,4.285A26.346,26.346,0,0,1-199.527-354.919Zm23.971,25.424h0a8.4,8.4,0,0,1-5.98-2.475,8.4,8.4,0,0,1-2.48-5.981h0a8.535,8.535,0,0,1,.133-1.5c0-.02.007-.039.01-.059a8.394,8.394,0,0,1,2.332-4.427,8.407,8.407,0,0,1,5.981-2.481h0a8.47,8.47,0,0,1,8.46,8.457A8.469,8.469,0,0,1-175.556-329.5Zm10.866-12.327a11.588,11.588,0,0,0-4.4-5.681q.82-.29,1.618-.655a1.539,1.539,0,0,0,.756-2.04,1.539,1.539,0,0,0-2.04-.756,16.178,16.178,0,0,1-6.8,1.48,16.337,16.337,0,0,1-16.318-16.318,16.337,16.337,0,0,1,16.318-16.318,16.241,16.241,0,0,1,10.394,3.748l-4.173,4.173a10.4,10.4,0,0,0-6.176-2.024,10.475,10.475,0,0,0-10.463,10.463,10.475,10.475,0,0,0,10.463,10.463,10.475,10.475,0,0,0,10.463-10.463,10.407,10.407,0,0,0-2.1-6.278l4.159-4.159a16.244,16.244,0,0,1,3.748,10.394,16.2,16.2,0,0,1-1.353,6.517,1.538,1.538,0,0,0,.795,2.025,1.538,1.538,0,0,0,2.025-.795c.183-.42.349-.844.5-1.273a11.646,11.646,0,0,0,1.4,1.686,11.493,11.493,0,0,0,4.284,2.716A26.341,26.341,0,0,1-164.69-341.822Zm-3.436-23.929a7.4,7.4,0,0,1-7.387,7.387,7.4,7.4,0,0,1-7.387-7.387,7.4,7.4,0,0,1,7.387-7.386,7.339,7.339,0,0,1,3.965,1.159l-4.558,4.558a1.539,1.539,0,0,0,0,2.176,1.534,1.534,0,0,0,1.088.451,1.533,1.533,0,0,0,1.088-.451l4.577-4.577A7.341,7.341,0,0,1-168.126-365.751Zm26.39,5.946a8.4,8.4,0,0,1-5.981,2.477h0a8.519,8.519,0,0,1-1.5-.134l-.06-.01a8.4,8.4,0,0,1-4.425-2.335,8.4,8.4,0,0,1-2.477-5.982,8.469,8.469,0,0,1,8.46-8.459h0a8.469,8.469,0,0,1,8.459,8.461A8.4,8.4,0,0,1-141.737-359.805Z" transform="translate(0 0)" fill="#00223d"/>
      <g id="Grupo_17020" data-name="Grupo 17020" transform="translate(-207.848 -398.081)">
        <path id="Trazado_26765" data-name="Trazado 26765" d="M-184.878-373.572a1.552,1.552,0,0,0,1.088-.451,1.55,1.55,0,0,0,.451-1.087,1.548,1.548,0,0,0-.451-1.088,1.548,1.548,0,0,0-1.088-.451,1.549,1.549,0,0,0-1.088.451,1.55,1.55,0,0,0-.451,1.088,1.547,1.547,0,0,0,.451,1.087A1.55,1.55,0,0,0-184.878-373.572Z" transform="translate(197.479 387.709)" fill="#00223d"/>
        <path id="Trazado_26766" data-name="Trazado 26766" d="M-134.1-325.867a1.55,1.55,0,0,0-1.087.451,1.547,1.547,0,0,0-.451,1.088,1.549,1.549,0,0,0,.451,1.088,1.55,1.55,0,0,0,1.087.451,1.547,1.547,0,0,0,1.088-.451,1.546,1.546,0,0,0,.451-1.088,1.541,1.541,0,0,0-.451-1.088A1.548,1.548,0,0,0-134.1-325.867Z" transform="translate(179.014 369.244)" fill="#00223d"/>
        <path id="Trazado_26767" data-name="Trazado 26767" d="M-160.546-390.954a1.555,1.555,0,0,0,1.089-.451,1.549,1.549,0,0,0,.449-1.088,1.553,1.553,0,0,0-.449-1.089,1.551,1.551,0,0,0-1.089-.449,1.548,1.548,0,0,0-1.088.449,1.553,1.553,0,0,0-.449,1.089,1.552,1.552,0,0,0,.449,1.088A1.552,1.552,0,0,0-160.546-390.954Z" transform="translate(188.63 394.03)" fill="#00223d"/>
        <path id="Trazado_26768" data-name="Trazado 26768" d="M-147.332-390.954a1.55,1.55,0,0,0,1.087-.451,1.551,1.551,0,0,0,.451-1.088,1.552,1.552,0,0,0-.451-1.089,1.546,1.546,0,0,0-1.087-.449,1.546,1.546,0,0,0-1.088.449,1.552,1.552,0,0,0-.451,1.089,1.551,1.551,0,0,0,.451,1.088A1.55,1.55,0,0,0-147.332-390.954Z" transform="translate(183.826 394.03)" fill="#00223d"/>
        <path id="Trazado_26769" data-name="Trazado 26769" d="M-159-385.923a1.538,1.538,0,0,0-1.089,1.884,4.618,4.618,0,0,0,4.455,3.422,4.618,4.618,0,0,0,4.455-3.422,1.539,1.539,0,0,0-1.089-1.884,1.538,1.538,0,0,0-1.883,1.089,1.539,1.539,0,0,1-1.483,1.141,1.538,1.538,0,0,1-1.483-1.141A1.538,1.538,0,0,0-159-385.923Z" transform="translate(187.925 391.101)" fill="#00223d"/>
        <path id="Trazado_26770" data-name="Trazado 26770" d="M-105.617-352.315a1.548,1.548,0,0,0-1.088.451,1.549,1.549,0,0,0-.451,1.088,1.549,1.549,0,0,0,.451,1.088,1.55,1.55,0,0,0,1.088.451,1.547,1.547,0,0,0,1.087-.451,1.544,1.544,0,0,0,.451-1.088,1.544,1.544,0,0,0-.451-1.088A1.544,1.544,0,0,0-105.617-352.315Z" transform="translate(168.657 378.861)" fill="#00223d"/>
        <path id="Trazado_26771" data-name="Trazado 26771" d="M-105.617-339.1a1.548,1.548,0,0,0-1.088.451,1.552,1.552,0,0,0-.451,1.089,1.548,1.548,0,0,0,.451,1.088,1.546,1.546,0,0,0,1.088.449,1.539,1.539,0,0,0,1.087-.449,1.543,1.543,0,0,0,.451-1.088,1.547,1.547,0,0,0-.451-1.089A1.544,1.544,0,0,0-105.617-339.1Z" transform="translate(168.657 374.057)" fill="#00223d"/>
        <path id="Trazado_26772" data-name="Trazado 26772" d="M-114.58-344.384a1.539,1.539,0,0,1-1.14-1.483,1.538,1.538,0,0,1,1.14-1.483,1.538,1.538,0,0,0,1.089-1.883,1.538,1.538,0,0,0-1.883-1.089,4.618,4.618,0,0,0-3.423,4.455,4.618,4.618,0,0,0,3.423,4.455,1.536,1.536,0,0,0,.4.052,1.539,1.539,0,0,0,1.485-1.141A1.538,1.538,0,0,0-114.58-344.384Z" transform="translate(172.89 378.156)" fill="#00223d"/>
        <path id="Trazado_26773" data-name="Trazado 26773" d="M-147.332-297.386a1.548,1.548,0,0,0-1.088.451,1.545,1.545,0,0,0-.451,1.087,1.548,1.548,0,0,0,.451,1.088,1.548,1.548,0,0,0,1.088.451,1.547,1.547,0,0,0,1.087-.451,1.548,1.548,0,0,0,.451-1.088,1.545,1.545,0,0,0-.451-1.087A1.548,1.548,0,0,0-147.332-297.386Z" transform="translate(183.826 358.887)" fill="#00223d"/>
        <path id="Trazado_26774" data-name="Trazado 26774" d="M-160.546-297.386a1.55,1.55,0,0,0-1.088.451,1.546,1.546,0,0,0-.449,1.087,1.549,1.549,0,0,0,.449,1.088,1.551,1.551,0,0,0,1.088.451,1.554,1.554,0,0,0,1.089-.451,1.546,1.546,0,0,0,.449-1.088,1.543,1.543,0,0,0-.449-1.087A1.552,1.552,0,0,0-160.546-297.386Z" transform="translate(188.63 358.887)" fill="#00223d"/>
        <path id="Trazado_26775" data-name="Trazado 26775" d="M-152.269-303.723a1.538,1.538,0,0,0,1.089-1.883,4.618,4.618,0,0,0-4.455-3.423,4.619,4.619,0,0,0-4.455,3.423A1.539,1.539,0,0,0-159-303.723a1.538,1.538,0,0,0,1.884-1.089,1.538,1.538,0,0,1,1.483-1.14,1.538,1.538,0,0,1,1.483,1.14,1.539,1.539,0,0,0,1.485,1.142A1.543,1.543,0,0,0-152.269-303.723Z" transform="translate(187.925 363.121)" fill="#00223d"/>
        <path id="Trazado_26776" data-name="Trazado 26776" d="M-202.262-339.1a1.548,1.548,0,0,0-1.088.449,1.55,1.55,0,0,0-.451,1.088,1.555,1.555,0,0,0,.451,1.089,1.552,1.552,0,0,0,1.088.451,1.548,1.548,0,0,0,1.088-.451,1.546,1.546,0,0,0,.451-1.089,1.546,1.546,0,0,0-.451-1.088A1.546,1.546,0,0,0-202.262-339.1Z" transform="translate(203.8 374.056)" fill="#00223d"/>
        <path id="Trazado_26777" data-name="Trazado 26777" d="M-202.262-352.315a1.549,1.549,0,0,0-1.088.451,1.552,1.552,0,0,0-.451,1.088,1.552,1.552,0,0,0,.451,1.088,1.552,1.552,0,0,0,1.088.451,1.551,1.551,0,0,0,1.088-.451,1.543,1.543,0,0,0,.451-1.088,1.543,1.543,0,0,0-.451-1.088A1.548,1.548,0,0,0-202.262-352.315Z" transform="translate(203.8 378.861)" fill="#00223d"/>
        <path id="Trazado_26778" data-name="Trazado 26778" d="M-194.206-341.359a1.536,1.536,0,0,0,.4-.053,4.618,4.618,0,0,0,3.423-4.455,4.618,4.618,0,0,0-3.423-4.455,1.538,1.538,0,0,0-1.883,1.089,1.538,1.538,0,0,0,1.089,1.883,1.538,1.538,0,0,1,1.14,1.483,1.538,1.538,0,0,1-1.14,1.483,1.538,1.538,0,0,0-1.089,1.883A1.539,1.539,0,0,0-194.206-341.359Z" transform="translate(200.87 378.155)" fill="#00223d"/>
      </g>
    </g>
  </g>
</svg>
